<?xml version="1.0" encoding="UTF-8"?>
<!DOCTYPE svg PUBLIC "-//W3C//DTD SVG 1.1//EN" "http://www.w3.org/Graphics/SVG/1.1/DTD/svg11.dtd">
<!-- Creator: CorelDRAW 2020 (64-Bit) -->
<svg xmlns="http://www.w3.org/2000/svg" xml:space="preserve" width="98.2133mm" height="32.3427mm" version="1.1" style="shape-rendering:geometricPrecision; text-rendering:geometricPrecision; image-rendering:optimizeQuality; fill-rule:evenodd; clip-rule:evenodd"
viewBox="0 0 9821.32 3234.27"
 xmlns:xlink="http://www.w3.org/1999/xlink"
 xmlns:xodm="http://www.corel.com/coreldraw/odm/2003">
 <defs>
  <style type="text/css">
   <![CDATA[
    .fil4 {fill:none}
    .fil1 {fill:#FFF9EA;fill-rule:nonzero}
    .fil2 {fill:#FCC32A;fill-rule:nonzero}
    .fil0 {fill:#EBECEC;fill-rule:nonzero}
    .fil3 {fill:#29383E;fill-rule:nonzero}
   ]]>
  </style>
   <clipPath id="id0">
    <path d="M-0 0l9821.32 0 0 3234.27 -9821.32 0 0 -3234.27z"/>
   </clipPath>
    <clipPath id="id1">
     <path d="M9409.08 3234.27l-1821.52 0 0 -1047.03 1821.52 0 0 1047.03z"/>
    </clipPath>
    <clipPath id="id2">
     <path d="M-0 0l9821.32 0 0 3234.27 -9821.32 0 0 -3234.27z"/>
    </clipPath>
    <clipPath id="id3">
     <path d="M7606.65 3234.27l-247.49 0 0 -837.72 247.49 0 0 837.72z"/>
    </clipPath>
    <clipPath id="id4">
     <path d="M-0 0l9821.32 0 0 3234.27 -9821.32 0 0 -3234.27z"/>
    </clipPath>
    <clipPath id="id5">
     <path d="M9821.32 2396.55l0 837.72 -431.41 0 0 -837.72 431.41 0z"/>
    </clipPath>
    <clipPath id="id6">
     <path d="M-0 0l9821.32 0 0 3234.27 -9821.32 0 0 -3234.27z"/>
    </clipPath>
    <clipPath id="id7">
     <path d="M7378.19 3234.27l-241.15 0 0 -418.74 241.15 0 0 418.74z"/>
    </clipPath>
    <clipPath id="id8">
     <path d="M-0 0l9821.32 0 0 3234.27 -9821.32 0 0 -3234.27z"/>
    </clipPath>
 </defs>
 <g id="Layer_x0020_1">
  <metadata id="CorelCorpID_0Corel-Layer"/>
  <g>
  </g>
  <g style="clip-path:url(#id0)">
   <g>
   </g>
   <g style="clip-path:url(#id1)">
    <image x="7587.56" y="2186.95" width="1822.02" height="1059.98" xlink:href="background banner_Images\background banner_ImgID1.png"/>
   </g>
   <g style="clip-path:url(#id2)">
   </g>
   <g style="clip-path:url(#id3)">
    <image x="7359.16" y="2396.32" width="247.55" height="850.67" xlink:href="background banner_Images\background banner_ImgID2.png"/>
   </g>
   <g style="clip-path:url(#id4)">
   </g>
   <g style="clip-path:url(#id5)">
    <image x="9389.91" y="2396.32" width="469.88" height="850.67" xlink:href="background banner_Images\background banner_ImgID3.png"/>
   </g>
   <g style="clip-path:url(#id6)">
   </g>
   <g style="clip-path:url(#id7)">
    <image x="7137.04" y="2815.42" width="241.21" height="431.69" xlink:href="background banner_Images\background banner_ImgID4.png"/>
   </g>
   <g style="clip-path:url(#id8)">
    <path class="fil0" d="M7530.55 2414.87l-359.02 0c0,0 49.16,-109.77 101.76,-116.63 52.59,-6.86 77.75,81.56 77.75,81.56 0,0 33.92,-31.25 60.6,-31.25 26.68,0 47.26,41.16 47.26,41.16 0,0 53.36,-28.2 71.65,25.16z"/>
    <path class="fil1" d="M8500.59 2036.05c-112.6,0 -203.87,-91.28 -203.87,-203.88 0,-112.59 91.27,-203.87 203.87,-203.87 112.6,0 203.87,91.28 203.87,203.87 0,112.6 -91.27,203.88 -203.87,203.88z"/>
    <path class="fil2" d="M8628.84 1832.17c0,70.83 -57.42,128.25 -128.25,128.25 -70.83,0 -128.24,-57.42 -128.24,-128.25 0,-70.82 57.41,-128.24 128.24,-128.24 70.83,0 128.25,57.42 128.25,128.24z"/>
    <path class="fil0" d="M9617.23 2115.84l-359.03 0c0,0 49.16,-109.77 101.76,-116.63 52.6,-6.86 77.75,81.57 77.75,81.57 0,0 33.92,-31.26 60.6,-31.26 26.68,0 47.26,41.16 47.26,41.16 0,0 53.36,-28.2 71.66,25.16z"/>
    <path class="fil0" d="M8148.1 1985.83l-359.03 0c0,0 49.17,-109.77 101.77,-116.63 52.59,-6.86 77.75,81.57 77.75,81.57 0,0 33.92,-31.26 60.6,-31.26 26.68,0 47.26,41.16 47.26,41.16 0,0 53.36,-28.2 71.65,25.16z"/>
    <path class="fil3" d="M8977.99 1825.24c-5.54,-4.18 -11.43,-7.8 -17.5,-11.2 -6.17,-3.23 -12.32,-6.44 -19.75,-8.13 -1.91,-0.37 -3.88,-0.74 -6.49,-0.35l-2.11 0.6 -1.42 0.7 -2.49 1.45c-3.16,1.99 -5.96,4.12 -8.73,6.31 -5.5,4.43 -10.5,9.17 -15.55,14.05l5.4 -0.94c-6.63,-3.09 -13.23,-5.72 -20.23,-7.89 -3.52,-1.03 -7.06,-1.99 -10.82,-2.58 -1.9,-0.3 -3.82,-0.55 -5.91,-0.56 -0.98,-0.07 -2.18,0.14 -3.25,0.25 -1.11,0.17 -2.28,0.62 -3.39,0.97 -3.97,1.76 -6.79,4.13 -9.59,6.57 -2.75,2.45 -5.23,5.06 -7.65,7.72 -4.7,5.44 -9.08,11.05 -12.85,17.11 5.39,-4.65 10.63,-9.36 16.12,-13.69 2.69,-2.19 5.42,-4.34 8.26,-6.2 2.77,-1.83 5.69,-3.73 8.32,-4.51 2.08,-0.61 5.19,-0.11 8.35,0.56 3.16,0.7 6.38,1.78 9.56,2.95 6.39,2.27 12.84,5.02 19.02,7.85l3.09 1.42 2.3 -2.37c4.66,-4.77 9.64,-9.45 14.58,-13.91 2.47,-2.23 5,-4.41 7.53,-6.25l1.88 -1.24 0.84 -0.52 0.34 -0.16c0.76,-0.25 2.26,-0.27 3.73,-0.12 6.07,0.78 12.69,2.94 19.06,5.11 6.45,2.17 12.84,4.65 19.35,7z"/>
    <path class="fil3" d="M9148.11 1797.68c-5.79,-8.62 -12.36,-16.63 -19.29,-24.41 -7.17,-7.61 -14.28,-15.16 -23.98,-21.21 -2.51,-1.45 -5.13,-2.94 -9.01,-3.67 -0.91,-0.21 -2.15,-0.21 -3.29,-0.19l-2.34 0.3c-1.54,0.18 -2.85,0.54 -4.26,0.81 -5.43,1.28 -10.45,2.93 -15.44,4.67 -9.94,3.58 -19.35,7.84 -28.89,12.27l8.1 1.31c-7.87,-7.61 -15.92,-14.59 -24.77,-21.09 -4.47,-3.17 -9.01,-6.25 -14.05,-8.95 -2.54,-1.35 -5.14,-2.63 -8.09,-3.69 -1.34,-0.57 -3.16,-0.85 -4.73,-1.24 -1.66,-0.3 -3.53,-0.25 -5.26,-0.28 -6.5,0.55 -11.65,2.51 -16.81,4.59 -5.09,2.13 -9.88,4.63 -14.6,7.2 -9.31,5.38 -18.27,11.17 -26.59,17.9 9.92,-3.94 19.66,-8.03 29.53,-11.47 4.89,-1.79 9.81,-3.47 14.73,-4.72 4.83,-1.24 9.88,-2.5 13.99,-2.31 3.25,0.15 7.42,2.38 11.56,4.87 4.11,2.56 8.15,5.68 12.09,8.88 7.93,6.36 15.71,13.4 23.06,20.43l3.68 3.51 4.42 -2.22c8.95,-4.48 18.28,-8.64 27.46,-12.54 4.58,-1.94 9.23,-3.79 13.73,-5.15 1.08,-0.29 2.25,-0.68 3.25,-0.84l1.46 -0.31 0.54 -0.05c1.21,0.01 3.35,0.71 5.33,1.64 8.23,4.08 16.55,10.36 24.5,16.58 8.06,6.22 15.91,12.86 23.97,19.38z"/>
    <path class="fil3" d="M7554.82 1958.83c-4.38,-2.28 -8.95,-4.15 -13.61,-5.83 -4.73,-1.55 -9.41,-3.09 -14.84,-3.41 -1.38,-0.04 -2.81,-0.07 -4.6,0.51l-1.42 0.66 -0.9 0.65 -1.6 1.31c-1.98,1.77 -3.7,3.6 -5.4,5.47 -3.34,3.75 -6.31,7.66 -9.29,11.68l3.68 -1.29c-5.02,-1.41 -9.97,-2.49 -15.14,-3.2 -2.59,-0.31 -5.18,-0.57 -7.91,-0.55 -1.36,0.01 -2.74,0.06 -4.21,0.3l-2.25 0.55 -2.27 1.08c-2.59,1.7 -4.3,3.69 -5.98,5.72 -1.64,2.06 -3.09,4.18 -4.47,6.33 -2.69,4.36 -5.11,8.82 -7.06,13.52 3.25,-3.9 6.39,-7.82 9.74,-11.49 1.63,-1.87 3.32,-3.68 5.09,-5.32 1.74,-1.62 3.56,-3.29 5.32,-4.15 1.39,-0.67 3.64,-0.69 5.94,-0.58 2.29,0.13 4.69,0.52 7.07,0.96 4.75,0.86 9.61,2.04 14.26,3.31l2.35 0.63 1.34 -1.92c2.73,-3.91 5.69,-7.77 8.64,-11.48 1.47,-1.85 2.99,-3.68 4.56,-5.26l1.17 -1.1 0.54 -0.46 0.22 -0.15c0.51,-0.26 1.57,-0.46 2.6,-0.52 4.37,-0.16 9.27,0.58 14,1.37 4.8,0.77 9.57,1.77 14.43,2.66z"/>
    <path class="fil3" d="M7501.31 2103.4c-5.77,-4.64 -11.93,-8.71 -18.3,-12.53 -6.47,-3.67 -12.91,-7.3 -20.79,-9.36 -2.03,-0.46 -4.11,-0.92 -6.91,-0.59 -0.66,0.04 -1.51,0.3 -2.28,0.56l-1.52 0.7c-1.02,0.45 -1.83,0.96 -2.73,1.46 -3.43,2.01 -6.49,4.19 -9.52,6.44 -6.01,4.54 -11.51,9.42 -17.07,14.46l5.79 -0.82c-6.95,-3.53 -13.92,-6.57 -21.31,-9.12 -3.71,-1.21 -7.46,-2.35 -11.46,-3.12 -2.02,-0.37 -4.05,-0.71 -6.28,-0.79 -1.04,-0.11 -2.32,0.08 -3.48,0.15 -1.2,0.14 -2.46,0.59 -3.64,0.92 -4.3,1.75 -7.39,4.19 -10.46,6.68 -3.03,2.53 -5.76,5.24 -8.42,7.99 -5.21,5.63 -10.08,11.47 -14.31,17.81 5.91,-4.78 11.68,-9.63 17.67,-14.06 2.95,-2.25 5.94,-4.44 9.03,-6.32 3.01,-1.87 6.19,-3.8 9.04,-4.53 2.23,-0.59 5.54,0.04 8.87,0.86 3.35,0.87 6.76,2.14 10.12,3.49 6.74,2.64 13.52,5.79 20,9.02l3.26 1.61 2.54 -2.43c5.14,-4.95 10.61,-9.76 16.02,-14.35 2.72,-2.3 5.49,-4.54 8.25,-6.41l2.04 -1.26 0.93 -0.52 0.37 -0.16c0.81,-0.24 2.42,-0.22 3.97,0 6.46,1.03 13.44,3.55 20.17,6.1 6.81,2.53 13.55,5.38 20.41,8.12z"/>
    <path class="fil3" d="M7674.27 2067.91c-4.13,-6.14 -8.81,-11.86 -13.74,-17.4 -5.11,-5.43 -10.18,-10.81 -17.09,-15.11 -1.8,-1.04 -3.65,-2.09 -6.43,-2.62 -0.64,-0.15 -1.52,-0.15 -2.34,-0.14l-1.66 0.23c-1.11,0.12 -2.02,0.37 -3.03,0.57 -3.88,0.9 -7.46,2.08 -11.02,3.33 -7.08,2.55 -13.79,5.58 -20.57,8.75l5.77 0.92c-5.61,-5.43 -11.35,-10.4 -17.66,-15.03 -3.18,-2.26 -6.42,-4.46 -10.02,-6.38 -1.8,-0.95 -3.65,-1.88 -5.75,-2.61 -0.97,-0.42 -2.25,-0.63 -3.37,-0.9 -1.17,-0.21 -2.52,-0.17 -3.75,-0.2 -4.63,0.4 -8.3,1.8 -11.97,3.27 -3.63,1.53 -7.05,3.29 -10.41,5.13 -6.64,3.83 -13.02,7.97 -18.94,12.76 7.06,-2.8 13.99,-5.73 21.03,-8.17 3.49,-1.28 7,-2.48 10.5,-3.37 3.44,-0.89 7.05,-1.78 9.97,-1.64 2.32,0.11 5.28,1.7 8.22,3.47 2.95,1.82 5.83,4.04 8.63,6.32 5.65,4.53 11.2,9.55 16.42,14.56l2.64 2.5 3.14 -1.57c6.38,-3.2 13.03,-6.17 19.57,-8.94 3.27,-1.39 6.58,-2.71 9.77,-3.67 0.79,-0.2 1.62,-0.49 2.33,-0.61l1.05 -0.22 0.38 -0.03c0.86,0 2.39,0.5 3.81,1.18 5.85,2.89 11.77,7.37 17.44,11.8 5.75,4.44 11.33,9.17 17.08,13.82z"/>
   </g>
  </g>
  <polygon class="fil4" points="-0,0 9821.32,0 9821.32,3234.27 -0,3234.27 "/>
 </g>
</svg>
