<?xml version="1.0" encoding="UTF-8"?>
<!DOCTYPE svg PUBLIC "-//W3C//DTD SVG 1.1//EN" "http://www.w3.org/Graphics/SVG/1.1/DTD/svg11.dtd">
<!-- Creator: CorelDRAW 2020 (64-Bit) -->
<svg xmlns="http://www.w3.org/2000/svg" xml:space="preserve" width="98.2133mm" height="32.3427mm" version="1.1" style="shape-rendering:geometricPrecision; text-rendering:geometricPrecision; image-rendering:optimizeQuality; fill-rule:evenodd; clip-rule:evenodd"
viewBox="0 0 9821.32 3234.27"
 xmlns:xlink="http://www.w3.org/1999/xlink"
 xmlns:xodm="http://www.corel.com/coreldraw/odm/2003">
 <defs>
  <style type="text/css">
   <![CDATA[
    .fil0 {fill:none}
    .fil2 {fill:#FFF9EA;fill-rule:nonzero}
    .fil3 {fill:#FCC32A;fill-rule:nonzero}
    .fil1 {fill:#EBECEC;fill-rule:nonzero}
    .fil4 {fill:#29383E;fill-rule:nonzero}
   ]]>
  </style>
    <clipPath id="id0">
     <path d="M-0 0l9821.32 0 0 3234.27 -9821.32 0 0 -3234.27z"/>
    </clipPath>
     <clipPath id="id1">
      <path d="M6908.79 1913.33l0 1320.94 2372.46 0 0 -1320.94 -2372.46 0z"/>
     </clipPath>
     <clipPath id="id2">
      <path d="M-0 0l9821.32 0 0 3234.27 -9821.32 0 0 -3234.27z"/>
     </clipPath>
     <clipPath id="id3">
      <path d="M6611.32 2185.95l0 1048.32 322.34 0 0 -1048.32 -322.34 0z"/>
     </clipPath>
     <clipPath id="id4">
      <path d="M-0 0l9821.32 0 0 3234.27 -9821.32 0 0 -3234.27z"/>
     </clipPath>
     <clipPath id="id5">
      <path d="M9256.28 2185.95l0 1048.32 565.04 0 0 -1048.32 -565.04 0z"/>
     </clipPath>
     <clipPath id="id6">
      <path d="M-0 0l9821.32 0 0 3234.27 -9821.32 0 0 -3234.27z"/>
     </clipPath>
     <clipPath id="id7">
      <path d="M6322.01 2731.66l0 502.61 314.09 0 0 -502.61 -314.09 0z"/>
     </clipPath>
     <clipPath id="id8">
      <path d="M-0 0l9821.32 0 0 3234.27 -9821.32 0 0 -3234.27z"/>
     </clipPath>
 </defs>
 <g id="Layer_x0020_1">
  <metadata id="CorelCorpID_0Corel-Layer"/>
  <g id="_2773817560032">
   <g>
   </g>
   <g style="clip-path:url(#id0)">
    <g id="_2773817551632">
    </g>
    <g style="clip-path:url(#id1)">
     <image x="6908.8" y="1912.55" width="2372.45" height="1381.38" xlink:href="backround banner_Images\backround banner_ImgID1.png"/>
    </g>
    <g style="clip-path:url(#id2)">
    </g>
    <g style="clip-path:url(#id3)">
     <image x="6611.23" y="2185.32" width="322.53" height="1108.61" xlink:href="backround banner_Images\backround banner_ImgID2.png"/>
    </g>
    <g style="clip-path:url(#id4)">
    </g>
    <g style="clip-path:url(#id5)">
     <image x="9256.28" y="2185.32" width="611.83" height="1108.61" xlink:href="backround banner_Images\backround banner_ImgID3.png"/>
    </g>
    <g style="clip-path:url(#id6)">
    </g>
    <g style="clip-path:url(#id7)">
     <image x="6321.92" y="2730.86" width="314.27" height="563.07" xlink:href="backround banner_Images\backround banner_ImgID4.png"/>
    </g>
    <g style="clip-path:url(#id8)">
    </g>
   </g>
   <polygon class="fil0" points="-0,0 9821.32,0 9821.32,3234.27 -0,3234.27 "/>
   <path class="fil1" d="M6834.55 2209.81l-467.62 0c0,0 64.03,-142.97 132.54,-151.91 68.51,-8.93 101.27,106.24 101.27,106.24 0,0 44.18,-40.71 78.93,-40.71 34.75,0 61.55,53.61 61.55,53.61 0,0 69.5,-36.73 93.33,32.77z"/>
   <path class="fil2" d="M8097.98 1716.42c-146.65,0 -265.54,-118.89 -265.54,-265.55 0,-146.65 118.89,-265.53 265.54,-265.53 146.66,0 265.53,118.88 265.53,265.53 0,146.66 -118.87,265.55 -265.53,265.55z"/>
   <path class="fil3" d="M8265.01 1450.87c0,92.26 -74.78,167.04 -167.03,167.04 -92.25,0 -167.03,-74.78 -167.03,-167.04 0,-92.24 74.78,-167.02 167.03,-167.02 92.25,0 167.03,74.78 167.03,167.02z"/>
   <path class="fil1" d="M9552.35 1820.34l-467.62 0c0,0 64.03,-142.97 132.54,-151.91 68.51,-8.93 101.27,106.24 101.27,106.24 0,0 44.18,-40.71 78.93,-40.71 34.75,0 61.55,53.61 61.55,53.61 0,0 69.5,-36.73 93.33,32.77z"/>
   <path class="fil1" d="M7638.88 1651.01l-467.62 0c0,0 64.03,-142.97 132.54,-151.91 68.51,-8.93 101.27,106.24 101.27,106.24 0,0 44.18,-40.71 78.93,-40.71 34.75,0 61.55,53.61 61.55,53.61 0,0 69.5,-36.73 93.33,32.77z"/>
   <path class="fil4" d="M8719.78 1441.84c-7.23,-5.44 -14.89,-10.15 -22.8,-14.58 -8.04,-4.21 -16.04,-8.38 -25.73,-10.59 -2.49,-0.48 -5.05,-0.96 -8.45,-0.45l-2.75 0.78 -1.85 0.91 -3.24 1.88c-4.12,2.59 -7.77,5.37 -11.37,8.23 -7.16,5.76 -13.68,11.94 -20.25,18.29l7.03 -1.23c-8.63,-4.01 -17.23,-7.45 -26.35,-10.27 -4.58,-1.34 -9.19,-2.58 -14.1,-3.36 -2.47,-0.39 -4.97,-0.71 -7.69,-0.73 -1.27,-0.09 -2.84,0.19 -4.24,0.33 -1.44,0.22 -2.96,0.81 -4.41,1.26 -5.16,2.29 -8.84,5.38 -12.48,8.55 -3.59,3.2 -6.82,6.6 -9.97,10.07 -6.12,7.08 -11.83,14.39 -16.74,22.28 7.02,-6.06 13.85,-12.19 21,-17.83 3.5,-2.86 7.06,-5.65 10.76,-8.07 3.6,-2.39 7.4,-4.86 10.84,-5.89 2.7,-0.79 6.75,-0.14 10.86,0.73 4.12,0.92 8.32,2.33 12.46,3.85 8.33,2.95 16.73,6.54 24.77,10.22l4.02 1.85 3 -3.08c6.07,-6.22 12.56,-12.31 18.99,-18.12 3.22,-2.9 6.51,-5.74 9.82,-8.13l2.43 -1.62 1.1 -0.68 0.44 -0.2c1,-0.33 2.95,-0.36 4.86,-0.16 7.91,1.01 16.54,3.82 24.83,6.64 8.4,2.83 16.73,6.06 25.21,9.12z"/>
   <path class="fil4" d="M8941.34 1405.95c-7.54,-11.22 -16.1,-21.66 -25.12,-31.8 -9.33,-9.91 -18.6,-19.74 -31.23,-27.61 -3.27,-1.89 -6.68,-3.84 -11.74,-4.78 -1.18,-0.28 -2.79,-0.28 -4.29,-0.25l-3.04 0.38c-2,0.24 -3.71,0.7 -5.54,1.06 -7.08,1.66 -13.62,3.82 -20.11,6.09 -12.95,4.66 -25.21,10.2 -37.63,15.98l10.54 1.71c-10.25,-9.93 -20.73,-19.01 -32.26,-27.47 -5.81,-4.14 -11.73,-8.15 -18.3,-11.67 -3.3,-1.75 -6.69,-3.43 -10.53,-4.8 -1.75,-0.74 -4.11,-1.11 -6.16,-1.61 -2.16,-0.4 -4.6,-0.33 -6.85,-0.37 -8.47,0.71 -15.17,3.27 -21.9,5.98 -6.63,2.77 -12.87,6.02 -19.02,9.38 -12.13,7 -23.79,14.55 -34.63,23.31 12.92,-5.13 25.61,-10.45 38.47,-14.94 6.36,-2.33 12.78,-4.52 19.17,-6.15 6.29,-1.62 12.88,-3.25 18.24,-3 4.22,0.19 9.65,3.09 15.04,6.34 5.36,3.33 10.62,7.39 15.75,11.57 10.33,8.27 20.47,17.45 30.03,26.6l4.8 4.58 5.76 -2.89c11.65,-5.84 23.81,-11.26 35.77,-16.34 5.96,-2.53 12.01,-4.94 17.87,-6.71 1.41,-0.37 2.94,-0.88 4.24,-1.1l1.9 -0.4 0.71 -0.06c1.57,0.01 4.36,0.93 6.94,2.14 10.72,5.31 21.55,13.49 31.91,21.58 10.5,8.11 20.72,16.76 31.21,25.25z"/>
   <path class="fil4" d="M6866.15 1615.84c-5.71,-2.97 -11.65,-5.4 -17.72,-7.59 -6.16,-2.02 -12.26,-4.03 -19.32,-4.45 -1.81,-0.04 -3.67,-0.09 -6,0.67l-1.85 0.86 -1.17 0.85 -2.08 1.71c-2.59,2.3 -4.83,4.69 -7.04,7.11 -4.35,4.89 -8.22,9.98 -12.1,15.22l4.8 -1.69c-6.54,-1.82 -13,-3.24 -19.72,-4.16 -3.38,-0.41 -6.75,-0.74 -10.3,-0.72 -1.79,0.02 -3.58,0.08 -5.49,0.39l-2.94 0.72 -2.95 1.41c-3.38,2.21 -5.6,4.81 -7.79,7.46 -2.14,2.67 -4.02,5.44 -5.82,8.24 -3.5,5.68 -6.65,11.48 -9.2,17.6 4.24,-5.08 8.32,-10.18 12.7,-14.97 2.12,-2.42 4.31,-4.79 6.62,-6.93 2.26,-2.1 4.63,-4.28 6.93,-5.39 1.82,-0.88 4.74,-0.9 7.73,-0.76 2.99,0.17 6.12,0.68 9.21,1.25 6.19,1.12 12.52,2.66 18.58,4.31l3.05 0.83 1.76 -2.52c3.55,-5.08 7.4,-10.11 11.25,-14.95 1.91,-2.41 3.89,-4.79 5.94,-6.84l1.52 -1.43 0.7 -0.61 0.29 -0.19c0.67,-0.34 2.04,-0.6 3.39,-0.67 5.68,-0.21 12.07,0.75 18.23,1.78 6.25,1 12.46,2.3 18.79,3.46z"/>
   <path class="fil4" d="M6796.46 1804.13c-7.51,-6.04 -15.53,-11.34 -23.83,-16.32 -8.44,-4.78 -16.82,-9.5 -27.08,-12.18 -2.64,-0.6 -5.36,-1.21 -9.01,-0.77 -0.85,0.05 -1.96,0.39 -2.96,0.73l-1.99 0.9c-1.32,0.6 -2.37,1.26 -3.55,1.91 -4.47,2.62 -8.45,5.46 -12.4,8.39 -7.82,5.91 -15,12.27 -22.23,18.83l7.55 -1.07c-9.07,-4.59 -18.14,-8.55 -27.77,-11.87 -4.82,-1.58 -9.72,-3.06 -14.92,-4.07 -2.63,-0.49 -5.27,-0.92 -8.18,-1.03 -1.35,-0.14 -3.02,0.11 -4.53,0.2 -1.56,0.19 -3.21,0.76 -4.75,1.19 -5.6,2.28 -9.62,5.46 -13.62,8.7 -3.94,3.3 -7.5,6.83 -10.96,10.42 -6.79,7.33 -13.13,14.93 -18.64,23.19 7.7,-6.23 15.2,-12.54 23.01,-18.32 3.85,-2.92 7.74,-5.77 11.76,-8.23 3.93,-2.43 8.07,-4.94 11.77,-5.9 2.91,-0.76 7.22,0.06 11.57,1.13 4.36,1.13 8.79,2.78 13.18,4.54 8.77,3.44 17.6,7.55 26.04,11.75l4.24 2.1 3.31 -3.17c6.7,-6.44 13.82,-12.71 20.87,-18.69 3.54,-2.99 7.15,-5.91 10.75,-8.34l2.65 -1.65 1.22 -0.68 0.48 -0.2c1.06,-0.32 3.15,-0.28 5.16,0 8.42,1.34 17.52,4.62 26.27,7.94 8.88,3.29 17.65,7.01 26.59,10.57z"/>
   <path class="fil4" d="M7021.74 1757.91c-5.38,-8 -11.48,-15.44 -17.91,-22.66 -6.65,-7.07 -13.26,-14.07 -22.25,-19.68 -2.35,-1.35 -4.76,-2.73 -8.38,-3.41 -0.83,-0.2 -1.98,-0.2 -3.04,-0.18l-2.17 0.29c-1.44,0.17 -2.63,0.48 -3.95,0.75 -5.05,1.17 -9.7,2.71 -14.34,4.34 -9.23,3.32 -17.96,7.26 -26.8,11.39l7.51 1.2c-7.3,-7.07 -14.78,-13.54 -22.99,-19.58 -4.14,-2.94 -8.37,-5.81 -13.05,-8.3 -2.34,-1.24 -4.76,-2.45 -7.49,-3.41 -1.26,-0.54 -2.93,-0.81 -4.39,-1.17 -1.53,-0.27 -3.29,-0.21 -4.88,-0.26 -6.03,0.52 -10.81,2.34 -15.59,4.26 -4.74,1.99 -9.19,4.29 -13.57,6.68 -8.64,4.99 -16.95,10.38 -24.67,16.62 9.2,-3.65 18.23,-7.46 27.4,-10.64 4.54,-1.66 9.11,-3.23 13.67,-4.38 4.48,-1.16 9.18,-2.33 12.99,-2.15 3.02,0.14 6.87,2.21 10.71,4.53 3.83,2.36 7.58,5.25 11.23,8.23 7.36,5.9 14.59,12.44 21.39,18.96l3.43 3.26 4.1 -2.05c8.31,-4.17 16.97,-8.03 25.49,-11.64 4.25,-1.81 8.57,-3.53 12.73,-4.78 1.02,-0.26 2.1,-0.64 3.03,-0.8l1.36 -0.28 0.5 -0.05c1.12,0.01 3.11,0.66 4.96,1.54 7.62,3.77 15.33,9.6 22.71,15.37 7.5,5.79 14.76,11.94 22.26,18z"/>
  </g>
 </g>
</svg>
