<?xml version="1.0" encoding="UTF-8"?>
<!DOCTYPE svg PUBLIC "-//W3C//DTD SVG 1.1//EN" "http://www.w3.org/Graphics/SVG/1.1/DTD/svg11.dtd">
<!-- Creator: CorelDRAW 2020 (64-Bit) -->
<svg xmlns="http://www.w3.org/2000/svg" xml:space="preserve" width="12.2351mm" height="16.1503mm" version="1.1" style="shape-rendering:geometricPrecision; text-rendering:geometricPrecision; image-rendering:optimizeQuality; fill-rule:evenodd; clip-rule:evenodd"
viewBox="0 0 183.66 242.44"
 xmlns:xlink="http://www.w3.org/1999/xlink"
 xmlns:xodm="http://www.corel.com/coreldraw/odm/2003">
 <defs>
  <style type="text/css">
   <![CDATA[
    .str1 {stroke:black;stroke-width:2.54;stroke-miterlimit:22.9256}
    .str0 {stroke:black;stroke-width:3;stroke-miterlimit:22.9256}
    .fil1 {fill:none}
    .fil4 {fill:#663333}
    .fil3 {fill:#ED6262}
    .fil2 {fill:#F5D9BA}
    .fil0 {fill:#FFD032}
   ]]>
  </style>
 </defs>
 <g id="Layer_x0020_1">
  <metadata id="CorelCorpID_0Corel-Layer"/>
  <rect class="fil0" x="114.61" y="7.9" width="19.06" height="48.3"/>
  <polygon class="fil1 str0" points="107.68,21.84 107.68,1.5 140.72,1.5 139.45,66.32 106.41,33.28 "/>
  <path class="fil2 str0" d="M18.71 79.03l-15.25 0c0,0 -6.36,-1.27 3.81,-10.17 10.17,-8.9 66.09,-61.01 66.09,-61.01 0,0 10.17,-5.08 15.25,0 5.08,5.08 61.01,58.46 61.01,58.46 0,0 17.79,12.71 0,13.98l-12.71 0 2.54 67.36c0,0 2.54,13.98 -6.36,15.25l-106.76 0c0,0 -9.59,2.59 -7.05,-8.85l-0.58 -75.03z"/>
  <g id="_2773803012848">
   <path class="fil1 str0" d="M19.48 201.54l20.34 1.27c0,0 3.81,2.54 5.08,8.9l0 25.42c0,0 -2.54,3.81 -6.35,3.81l-20.34 0"/>
   <path class="fil2 str0" d="M84.3 201.54l33.04 0c0,0 12.71,-10.17 6.36,-20.34l-47.03 1.27c0,0 -26.69,20.17 -29.23,25.42 -2.54,5.25 -1.27,27.96 -1.27,27.96 0,0 83.88,-5.08 86.42,-7.63 2.54,-2.54 49.57,-30.5 49.57,-34.32 0,-3.81 -5.08,-15.25 -35.59,-1.27 0,0 -35.59,20.34 -62.28,8.9z"/>
   <rect class="fil3" x="27.11" y="204.08" width="15.95" height="35.59" rx="3.68" ry="3.68"/>
  </g>
  <rect class="fil4 str0" x="68.12" y="112.53" width="22.8" height="43.52"/>
  <g id="_2773803011792">
   <rect class="fil4 str0" x="28.61" y="104.09" width="22.8" height="19.16"/>
   <line class="fil1 str1" x1="40.1" y1="104.09" x2="40.1" y2= "123.25" />
   <line class="fil1 str1" x1="29.46" y1="114.17" x2="51.41" y2= "114.17" />
  </g>
  <g id="_2773803013952">
   <rect class="fil4 str0" x="104.57" y="104.09" width="22.8" height="19.16"/>
   <line class="fil1 str1" x1="116.05" y1="104.09" x2="116.05" y2= "123.25" />
   <line class="fil1 str1" x1="105.42" y1="114.17" x2="127.37" y2= "114.17" />
  </g>
 </g>
</svg>
