<?xml version="1.0" encoding="UTF-8"?>
<!DOCTYPE svg PUBLIC "-//W3C//DTD SVG 1.1//EN" "http://www.w3.org/Graphics/SVG/1.1/DTD/svg11.dtd">
<!-- Creator: CorelDRAW 2020 (64-Bit) -->
<svg xmlns="http://www.w3.org/2000/svg" xml:space="preserve" width="11.002mm" height="10.1705mm" version="1.1" style="shape-rendering:geometricPrecision; text-rendering:geometricPrecision; image-rendering:optimizeQuality; fill-rule:evenodd; clip-rule:evenodd"
viewBox="0 0 354.31 327.54"
 xmlns:xlink="http://www.w3.org/1999/xlink"
 xmlns:xodm="http://www.corel.com/coreldraw/odm/2003">
 <defs>
  <style type="text/css">
   <![CDATA[
    .str0 {stroke:black;stroke-width:8.18;stroke-miterlimit:22.9256}
    .fil0 {fill:#E30A16}
   ]]>
  </style>
 </defs>
 <g id="Layer_x0020_1">
  <metadata id="CorelCorpID_0Corel-Layer"/>
  <path class="fil0 str0" d="M176.89 32.27c-3.56,-2.38 -8.18,-6.79 -13.61,-10.32 -29.65,-19.3 -64.62,-21.82 -97.75,-7.98 -3.14,1.31 -5.48,2.42 -8.18,4.05 -7.68,4.64 -7.82,4.37 -15.3,10.22 -11.83,9.24 -21.15,22.01 -27.87,35.41 -6.19,12.34 -9.47,25.63 -10.1,39.04l0 9.58c0.74,16.03 5.19,31.96 12.94,46.38 1.48,2.76 3.04,4.99 4.71,7.51 2.51,3.78 7.49,10.12 10.66,13.27 8.06,7.99 140.74,141.54 143.96,143.69 2.33,-0.62 4.55,-3.76 6.25,-5.45 17.64,-17.64 135.33,-134.49 138.91,-139.17 1.69,-2.22 3.52,-3.78 5.48,-6.21 5.24,-6.5 10.98,-14.89 14.12,-22.57 5.32,-13.03 8.41,-25.19 9.11,-37.45l0 -10.72c-0.53,-9.3 -2.43,-18.8 -5.78,-28.92 -1.91,-5.78 -5.03,-11.98 -7.88,-17.11 -1.51,-2.72 -2.98,-4.96 -4.73,-7.5 -4.61,-6.67 -14.25,-17.02 -20.94,-22.12 -5.75,-4.39 -12.72,-8.99 -19.33,-12.04 -12.83,-5.94 -25.96,-9.14 -39.13,-9.75l-9.29 0c-12.69,0.58 -25.38,3.54 -37.85,8.73 -7.24,3.02 -24.34,13.39 -28.4,19.45z"/>
 </g>
</svg>
