<?xml version="1.0" encoding="UTF-8"?>
<!DOCTYPE svg PUBLIC "-//W3C//DTD SVG 1.1//EN" "http://www.w3.org/Graphics/SVG/1.1/DTD/svg11.dtd">
<!-- Creator: CorelDRAW 2020 (64-Bit) -->
<svg xmlns="http://www.w3.org/2000/svg" xml:space="preserve" width="8.729mm" height="9.5908mm" version="1.1" style="shape-rendering:geometricPrecision; text-rendering:geometricPrecision; image-rendering:optimizeQuality; fill-rule:evenodd; clip-rule:evenodd"
viewBox="0 0 197.98 217.53"
 xmlns:xlink="http://www.w3.org/1999/xlink"
 xmlns:xodm="http://www.corel.com/coreldraw/odm/2003">
 <defs>
  <style type="text/css">
   <![CDATA[
    .str0 {stroke:black;stroke-width:4.54;stroke-miterlimit:22.9256}
    .fil1 {fill:none}
    .fil4 {fill:black}
    .fil3 {fill:#663333}
    .fil2 {fill:#F5D9BA}
    .fil0 {fill:#FFD032}
   ]]>
  </style>
 </defs>
 <g id="Layer_x0020_1">
  <metadata id="CorelCorpID_0Corel-Layer"/>
  <g id="_2773725437680">
   <rect class="fil0" x="141.62" y="10.15" width="23.49" height="59.5"/>
   <polygon class="fil1 str0" points="133.07,27.32 133.07,2.27 173.78,2.27 172.22,82.12 131.51,41.41 "/>
   <path class="fil2 str0" d="M23.47 111.61l-18.79 0c0,0 -7.83,-1.56 4.7,-12.52 12.53,-10.96 81.42,-75.16 81.42,-75.16 0,0 12.52,-6.26 18.79,0 6.26,6.26 75.16,72.02 75.16,72.02 0,0 21.92,15.66 0,17.22l-15.66 0 3.13 82.98c0,0 3.13,17.22 -7.83,18.79l-131.52 0c0,0 -11.81,3.19 -8.68,-10.9l-0.71 -92.43z"/>
   <rect class="fil3 str0" x="51.53" y="139.05" width="34.45" height="65.76"/>
   <g>
    <circle class="fil0 str0" cx="159.02" cy="158.96" r="36.7"/>
    <path class="fil4" d="M149.05 146.62c5.28,0 11.57,-0.42 12.69,3.76l-10.81 0c-0.66,1.25 -1.22,2.04 -1.88,3.29l13.16 0c-0.21,9.43 -12.22,3.85 -12.22,7.52 0,3.1 0.51,2.42 3.76,6.58l8.18 10.15c2.14,2.89 2.78,2.07 7.33,2.07 -0.42,-1.56 -2.05,-3.11 -3.09,-4.43l-10.07 -12.96c5.44,0 11.17,-3.77 11.28,-8.93l4.7 0c0.37,-1.37 1.11,-1.83 1.88,-3.29l-6.58 0c-0.15,-1.75 -0.74,-2.49 -1.41,-3.76l6.11 0c1.21,-4.54 8.76,-3.76 -19.74,-3.76 -1.55,0 -2.68,2.61 -3.29,3.76z"/>
   </g>
  </g>
 </g>
</svg>
