<?xml version="1.0" encoding="UTF-8"?>
<!DOCTYPE svg PUBLIC "-//W3C//DTD SVG 1.1//EN" "http://www.w3.org/Graphics/SVG/1.1/DTD/svg11.dtd">
<!-- Creator: CorelDRAW 2020 (64-Bit) -->
<svg xmlns="http://www.w3.org/2000/svg" xml:space="preserve" width="8.2288mm" height="6.8801mm" version="1.1" style="shape-rendering:geometricPrecision; text-rendering:geometricPrecision; image-rendering:optimizeQuality; fill-rule:evenodd; clip-rule:evenodd"
viewBox="0 0 175.8 146.99"
 xmlns:xlink="http://www.w3.org/1999/xlink"
 xmlns:xodm="http://www.corel.com/coreldraw/odm/2003">
 <defs>
  <style type="text/css">
   <![CDATA[
    .str0 {stroke:black;stroke-width:3.62;stroke-miterlimit:22.9256}
    .fil1 {fill:#70403F}
    .fil0 {fill:#F5D9BA}
   ]]>
  </style>
 </defs>
 <g id="Layer_x0020_1">
  <metadata id="CorelCorpID_0Corel-Layer"/>
  <g id="_2773817544624">
   <path class="fil0 str0" d="M24.63 44.57l-0.71 -1.36c-5.71,-9.42 -22.11,-4.83 -22.11,0.32 0,6.3 10.18,5.19 14.52,5.19 0.13,5.71 1.92,6.01 4.15,9.33 -8.23,17.14 -6.22,31.14 -6.22,44.6 0,4.75 -0.94,4.71 -0.83,8.2l0.83 16.69c0,3.62 -3.79,17.63 11.41,17.63 12.23,0 10.37,-13.22 10.37,-20.74 5.47,0 12.22,1.67 18.2,2.54 16.2,2.36 51.19,2.38 67.46,0.14 6.1,-0.84 12.56,-2.68 18.06,-2.68 0,10.62 -1.92,20.74 12.45,20.74 9.11,0 9.4,-7.55 9.34,-16.59 -0.07,-10.59 0.94,-41.65 -0.42,-49.38 -1.07,-6.11 -5.81,-17.14 -5.81,-21.16l3.05 -5.25c1.59,-3.31 -0.65,-2.62 4.57,-3.73 4.6,-0.97 11.05,0.03 11.05,-5.54 0,-5.39 -12.72,-6.71 -18.34,-3.82 -4.88,2.51 -0.04,1.18 -4.48,2.78 -0.45,-5.41 -3.63,-14.05 -4.95,-18.9 -2.09,-7.63 -3.72,-11.66 -9.58,-15.32 -10.86,-6.78 -43.11,-6.78 -60.18,-6.27 -5.35,0.16 -6.35,1.12 -12.39,1.09 -30.59,-0.13 -31.75,12.54 -36.92,30.51 -1.16,4.03 -2.43,6.79 -2.52,10.96z"/>
   <path class="fil0" d="M152.06 44.62c3.17,2.16 2.11,-0.2 2.23,5.13l-2.23 -5.13z"/>
   <path class="fil0" d="M23.59 45.6l0 3.11 -2.08 0c0.68,-2.84 -0.42,-1.62 2.08,-3.11z"/>
   <path class="fil1" d="M75.45 9.3c20.26,0 52.14,-3.26 61.04,10.53 5.08,7.86 9.75,24.77 10.53,34.07 -19.73,0 -38.15,2.07 -58.09,2.07 -20.73,0 -39.91,-2.07 -60.16,-2.07 0.17,-7.63 7.22,-30.86 10.31,-35.33 2.99,-4.32 8.32,-7.49 14.71,-8.11 7.76,-0.76 13.53,-1.16 21.66,-1.16z"/>
   <path class="fil1" d="M33.96 98.5c-13.63,0 -14.05,-18.67 0,-18.67 11.46,0 12.66,18.67 0,18.67z"/>
   <path class="fil1" d="M132.5 90.2c0,-14.14 19.71,-13.11 19.71,-2.07 0,10.87 -11.69,12.72 -16.35,8.05 -0.68,-0.68 -3.36,-5.35 -3.36,-5.97z"/>
   <path class="fil1" d="M48.49 96.43l78.83 0c-15.63,13.58 -70.84,10.91 -78.83,0z"/>
  </g>
 </g>
</svg>
