<?xml version="1.0" encoding="UTF-8"?>
<!DOCTYPE svg PUBLIC "-//W3C//DTD SVG 1.1//EN" "http://www.w3.org/Graphics/SVG/1.1/DTD/svg11.dtd">
<!-- Creator: CorelDRAW 2020 (64-Bit) -->
<svg xmlns="http://www.w3.org/2000/svg" xml:space="preserve" width="10.5935mm" height="10.9694mm" version="1.1" style="shape-rendering:geometricPrecision; text-rendering:geometricPrecision; image-rendering:optimizeQuality; fill-rule:evenodd; clip-rule:evenodd"
viewBox="0 0 129.44 134.04"
 xmlns:xlink="http://www.w3.org/1999/xlink"
 xmlns:xodm="http://www.corel.com/coreldraw/odm/2003">
 <defs>
  <style type="text/css">
   <![CDATA[
    .str0 {stroke:black;stroke-width:2.44;stroke-miterlimit:22.9256}
    .fil1 {fill:none}
    .fil3 {fill:black}
    .fil2 {fill:#F5D9BA}
    .fil0 {fill:#FFD032}
   ]]>
  </style>
 </defs>
 <g id="Layer_x0020_1">
  <metadata id="CorelCorpID_0Corel-Layer"/>
  <rect class="fil0" x="93.3" y="6.43" width="15.52" height="39.31"/>
  <polygon class="fil1 str0" points="87.65,17.78 87.65,1.22 114.55,1.22 113.52,53.98 86.62,27.09 "/>
  <path class="fil2 str0" d="M15.23 64.33l-12.41 0c0,0 -5.17,-1.03 3.1,-8.28 8.28,-7.24 53.8,-49.66 53.8,-49.66 0,0 8.28,-4.14 12.41,0 4.14,4.14 49.66,47.59 49.66,47.59 0,0 14.48,10.35 0,11.38l-10.35 0 2.07 54.83c0,0 2.07,11.38 -5.17,12.41l-86.9 0c0,0 -7.81,2.11 -5.74,-7.21l-0.47 -61.08z"/>
  <g id="_2773802980656">
   <circle class="fil0" cx="64.73" cy="88.63" r="23.28"/>
   <path class="fil3" d="M53.49 75.25c4.77,0 10.44,-0.38 11.45,3.39l-9.75 0c-0.6,1.12 -1.1,1.84 -1.7,2.97l11.87 0c-0.19,8.5 -11.02,3.47 -11.02,6.78 0,2.8 0.46,2.18 3.39,5.93l7.38 9.16c1.93,2.6 2.5,1.87 6.61,1.87 -0.38,-1.41 -1.85,-2.81 -2.78,-4l-9.09 -11.69c4.9,0 10.07,-3.41 10.17,-8.06l4.24 0c0.33,-1.23 1,-1.65 1.7,-2.97l-5.93 0c-0.13,-1.58 -0.66,-2.24 -1.27,-3.39l5.51 0c1.09,-4.09 7.9,-3.39 -17.81,-3.39 -1.4,0 -2.42,2.35 -2.97,3.39z"/>
   <path class="fil1 str0" d="M64.73 120.36c-17.52,0 -31.72,-14.2 -31.72,-31.72 0,-14.64 10.01,-27.37 24.23,-30.83"/>
   <line class="fil1 str0" x1="57.58" y1="57.76" x2="46.92" y2= "57.2" />
   <path class="fil1 str0" d="M67.07 56.99c16.57,1.23 29.38,15.03 29.38,31.64 0,14.26 -9.52,26.77 -23.26,30.57"/>
   <line class="fil1 str0" x1="83.45" y1="119.64" x2="72.78" y2= "119.23" />
  </g>
 </g>
</svg>
