<?xml version="1.0" encoding="UTF-8"?>
<!DOCTYPE svg PUBLIC "-//W3C//DTD SVG 1.1//EN" "http://www.w3.org/Graphics/SVG/1.1/DTD/svg11.dtd">
<!-- Creator: CorelDRAW 2020 (64-Bit) -->
<svg xmlns="http://www.w3.org/2000/svg" xml:space="preserve" width="11.022mm" height="10.4343mm" version="1.1" style="shape-rendering:geometricPrecision; text-rendering:geometricPrecision; image-rendering:optimizeQuality; fill-rule:evenodd; clip-rule:evenodd"
viewBox="0 0 355.52 336.56"
 xmlns:xlink="http://www.w3.org/1999/xlink"
 xmlns:xodm="http://www.corel.com/coreldraw/odm/2003">
 <defs>
  <style type="text/css">
   <![CDATA[
    .str0 {stroke:black;stroke-width:6.45;stroke-miterlimit:22.9256}
    .fil0 {fill:none}
    .fil4 {fill:black}
    .fil2 {fill:#ED6262}
    .fil1 {fill:#F5D9BA}
    .fil3 {fill:#FFD032}
   ]]>
  </style>
 </defs>
 <g id="Layer_x0020_1">
  <metadata id="CorelCorpID_0Corel-Layer"/>
  <g id="_2773726790704">
   <path class="fil0 str0" d="M2.73 248.68l43.7 2.73c0,0 8.19,5.46 10.92,19.12l0 54.62c0,0 -5.46,8.19 -13.65,8.19l-43.7 0"/>
   <path class="fil1 str0" d="M142.01 248.68l71 0c0,0 27.31,-21.85 13.66,-43.7l-101.05 2.73c0,0 -57.35,43.34 -62.81,54.62 -5.46,11.28 -2.73,60.08 -2.73,60.08 0,0 180.24,-10.92 185.7,-16.39 5.46,-5.46 106.51,-65.54 106.51,-73.74 0,-8.19 -10.92,-32.77 -76.46,-2.73 0,0 -76.47,43.7 -133.82,19.12z"/>
   <rect class="fil2" x="19.11" y="254.14" width="34.28" height="76.47" rx="7.91" ry="7.91"/>
  </g>
  <g id="_2773726792576">
   <circle class="fil3" cx="200.07" cy="86.73" r="61.45"/>
   <path class="fil4" d="M170.41 51.41c12.58,0 27.56,-1 30.22,8.95l-25.74 0c-1.57,2.97 -2.91,4.86 -4.48,7.83l31.34 0c-0.5,22.45 -29.1,9.17 -29.1,17.91 0,7.39 1.22,5.76 8.95,15.67l19.48 24.17c5.1,6.87 6.61,4.93 17.45,4.93 -0.99,-3.72 -4.88,-7.42 -7.35,-10.56l-23.98 -30.85c12.94,0 26.58,-8.99 26.86,-21.27l11.19 0c0.87,-3.25 2.64,-4.36 4.48,-7.83l-15.67 0c-0.35,-4.17 -1.75,-5.92 -3.36,-8.95l14.55 0c2.88,-10.8 20.86,-8.95 -47,-8.95 -3.69,0 -6.38,6.21 -7.83,8.95z"/>
   <path class="fil0 str0" d="M200.07 170.48c-46.25,0 -83.74,-37.49 -83.74,-83.74 0,-38.64 26.43,-72.25 63.97,-81.38"/>
   <line class="fil0 str0" x1="181.21" y1="5.23" x2="153.06" y2= "3.75" />
   <path class="fil0 str0" d="M206.26 3.22c43.73,3.24 77.55,39.67 77.55,83.52 0,37.65 -25.12,70.67 -61.41,80.71"/>
   <line class="fil0 str0" x1="249.5" y1="168.59" x2="221.33" y2= "167.51" />
  </g>
 </g>
</svg>
