<?xml version="1.0" encoding="UTF-8"?>
<!DOCTYPE svg PUBLIC "-//W3C//DTD SVG 1.1//EN" "http://www.w3.org/Graphics/SVG/1.1/DTD/svg11.dtd">
<!-- Creator: CorelDRAW 2020 (64-Bit) -->
<svg xmlns="http://www.w3.org/2000/svg" xml:space="preserve" width="12.7mm" height="12.7mm" version="1.1" style="shape-rendering:geometricPrecision; text-rendering:geometricPrecision; image-rendering:optimizeQuality; fill-rule:evenodd; clip-rule:evenodd"
viewBox="0 0 1270 1270"
 xmlns:xlink="http://www.w3.org/1999/xlink"
 xmlns:xodm="http://www.corel.com/coreldraw/odm/2003">
 <defs>
  <style type="text/css">
   <![CDATA[
    .str0 {stroke:#F4F4F4;stroke-width:20;stroke-miterlimit:22.9256}
    .str1 {stroke:white;stroke-width:7.62;stroke-miterlimit:22.9256}
    .fil0 {fill:none}
    .fil4 {fill:#3A9A46}
    .fil7 {fill:#60BFC0}
    .fil9 {fill:#663333}
    .fil5 {fill:#7AC8C9}
    .fil1 {fill:#8DC9F6}
    .fil6 {fill:#9DD8D9}
    .fil2 {fill:#AED9F7}
    .fil3 {fill:#C6E4F8}
    .fil8 {fill:#F4F4F4}
   ]]>
  </style>
   <clipPath id="id0">
    <path d="M635 38.64c282.6,0 511.69,229.09 511.69,511.69 0,282.59 -229.09,511.68 -511.69,511.68 -282.59,0 -511.68,-229.09 -511.68,-511.68 0,-282.6 229.09,-511.69 511.68,-511.69z"/>
   </clipPath>
 </defs>
 <g id="Layer_x0020_1">
  <metadata id="CorelCorpID_0Corel-Layer"/>
  <rect class="fil0" width="1270" height="1270"/>
  <rect class="fil0" width="1270" height="1270"/>
  <path class="fil1" d="M635 38.64c282.6,0 511.69,229.09 511.69,511.69 0,282.59 -229.09,511.68 -511.69,511.68 -282.59,0 -511.68,-229.09 -511.68,-511.68 0,-282.6 229.09,-511.69 511.68,-511.69z"/>
  <g style="clip-path:url(#id0)">
   <g id="_1770667410064">
    <circle class="fil2" cx="635" cy="653.22" r="511.69"/>
    <circle class="fil3" cx="635" cy="796.4" r="511.69"/>
    <path class="fil4" d="M367.89 722.94c-42.61,-5.86 -61.01,14.52 -69.26,48.91 -7.84,5.52 2.68,0.37 -7.9,3.04 -17.76,4.47 -62.77,3.32 -57.99,68.78l-32.56 5.62 34.84 74.13 152.76 0.58c15.03,-52.15 39.42,-38.38 96.3,-39.54l0.76 -162.46c-40.89,-23.99 -62.5,-21.3 -89.15,17.1 -8.28,-3.37 -16.47,-10.39 -27.8,-16.16z"/>
    <path class="fil4" d="M967.38 722.94c42.61,-5.86 61.01,14.52 69.26,48.91 7.84,5.52 -2.68,0.37 7.9,3.04 17.76,4.47 62.77,3.32 57.99,68.78l32.56 5.62 -34.84 74.13 -152.76 0.58c-15.03,-52.15 -39.42,-38.38 -96.3,-39.54l-0.76 -162.46c40.89,-23.99 62.5,-21.3 89.15,17.1 8.28,-3.37 16.47,-10.39 27.8,-16.16z"/>
    <path class="fil5" d="M44.93 938.57c10.35,22.15 152.67,128.11 186.63,141.17 25.25,-18.93 60.79,8.75 62.23,15.44 24.39,-29.73 63.05,-26.52 91.17,-2.39 46.95,-40.3 79.47,-6.11 92.41,0.27 48.74,-44.25 83.46,-1.82 88.72,1.47 42.49,-30.35 47.08,-27.98 88.72,-1.79 56.9,-42.13 89.23,-1.04 89.97,2.44 24.49,-29.85 62.78,-26.75 91.17,-2.39 14.83,-12.73 21.13,-17.68 48.1,-18.1 26.15,-0.42 32.08,9.55 43.68,22.46 17.15,-23.38 57.43,-38.21 84.84,-3.16 10.85,-5.13 48.07,-43.33 93.23,-1.25 20.55,-15.22 22.03,-19.17 57.93,-18.8l-8.78 16.78c37.66,-12.6 188.97,-125.39 206.19,-152.65 -30.41,-15.68 -55.09,0.41 -73.27,15.55 -37.21,-30.17 -55.47,-27.52 -93.22,-0.67 -8.8,-9.67 -24.47,-20.07 -44.69,-20.88 -21.28,-0.84 -31.66,13.01 -44.16,19.6 -56.05,-29.27 -39.48,-27.69 -91.95,1.28 -50.07,-38.24 -45.69,-20.82 -89.18,1.01 -33.47,-30.77 -56.36,-27.4 -88.65,-1.32 -37.92,-30.08 -56.24,-25.38 -92.37,0.31 -7.87,-8.66 -26.44,-20.81 -44.47,-21.14 -21.44,-0.4 -31.76,13.21 -44.37,19.86 -14.98,-8.34 -25.73,-21.01 -47.9,-19.84 -23.89,1.25 -28.83,15.65 -45.73,21.98 -34.31,-41.15 -55.33,-16.43 -88.43,0.59 -23.33,-32.69 -58.01,-25.76 -87.72,-1.76 -37.56,-29.79 -56.16,-25.44 -92.37,0.31 -7.2,-7.91 -27.1,-21.09 -44.32,-21.2 -21.62,-0.13 -31.74,13.15 -44.52,19.96 -16.69,-8.22 -45.82,-42.96 -87.01,3.07l-10.33 -7.24c-5.15,-3.99 0.4,-0.28 -6.27,-5.25 -4.84,-3.61 -10.7,-7.04 -16.94,-8.53 -14.27,-3.39 -27.69,1.37 -38.34,4.81z"/>
    <path class="fil6" d="M626.4 1205.05l152.98 -0.01 52.86 -6.87c39.49,-5.47 170.42,-35.68 196.4,-47.45l120.2 -54.21c4.41,-3.46 3.92,-3.49 6.11,-5.79l8.78 -16.78c-35.9,-0.37 -37.38,3.58 -57.93,18.8 -45.16,-42.08 -82.38,-3.88 -93.23,1.25 -27.41,-35.05 -67.69,-20.22 -84.84,3.16 -11.6,-12.91 -17.53,-22.88 -43.68,-22.46 -26.97,0.42 -33.27,5.37 -48.1,18.1 -28.39,-24.36 -66.68,-27.46 -91.17,2.39 -0.74,-3.48 -33.07,-44.57 -89.97,-2.44 -41.64,-26.19 -46.23,-28.56 -88.72,1.79 -5.26,-3.29 -39.98,-45.72 -88.72,-1.47 -12.94,-6.38 -45.46,-40.57 -92.41,-0.27 -28.12,-24.13 -66.78,-27.34 -91.17,2.39 -1.44,-6.69 -36.98,-34.37 -62.23,-15.44 25.54,25.06 151.65,73.18 178.68,81.43 84.47,25.77 119.74,30.69 203.74,40.38l12.42 3.5z"/>
    <path class="fil4" d="M592.72 714.45c42.61,-5.86 61.01,14.52 69.26,48.91 7.84,5.52 -2.68,0.37 7.9,3.04 17.76,4.47 62.77,3.32 57.99,68.78l32.56 5.62 -34.84 74.13 -152.76 0.58c-15.03,-52.15 -39.42,-38.38 -96.3,-39.54l-0.76 -162.46c40.89,-23.99 62.5,-21.3 89.15,17.1 8.28,-3.37 16.47,-10.39 27.8,-16.16z"/>
    <path class="fil4" d="M796.72 714.45c-42.61,-5.86 -61.01,14.52 -69.26,48.91 -7.84,5.52 2.68,0.37 -7.9,3.04 -17.76,4.47 -62.77,3.32 -57.99,68.78l-32.56 5.62 34.84 74.13 152.76 0.58c15.03,-52.15 39.42,-38.38 96.3,-39.54l0.76 -162.46c-40.89,-23.99 -62.5,-21.3 -89.15,17.1 -8.28,-3.37 -16.47,-10.39 -27.8,-16.16z"/>
    <path class="fil7" d="M44.93 938.57c10.65,-3.44 24.07,-8.2 38.34,-4.81 6.24,1.49 12.1,4.92 16.94,8.53 6.67,4.97 1.12,1.26 6.27,5.25l10.33 7.24c41.19,-46.03 70.32,-11.29 87.01,-3.07 12.78,-6.81 22.9,-20.09 44.52,-19.96 17.22,0.11 37.12,13.29 44.32,21.2 36.21,-25.75 54.81,-30.1 92.37,-0.31 29.71,-24 64.39,-30.93 87.72,1.76 33.1,-17.02 54.12,-41.74 88.43,-0.59 16.9,-6.33 21.84,-20.73 45.73,-21.98 22.17,-1.17 32.92,11.5 47.9,19.84 12.61,-6.65 22.93,-20.26 44.37,-19.86 18.03,0.33 36.6,12.48 44.47,21.14 36.13,-25.69 54.45,-30.39 92.37,-0.31 32.29,-26.08 55.18,-29.45 88.65,1.32 43.49,-21.83 39.11,-39.25 89.18,-1.01 52.47,-28.97 35.9,-30.55 91.95,-1.28 12.5,-6.59 22.88,-20.44 44.16,-19.6 20.22,0.81 35.89,11.21 44.69,20.88 37.75,-26.85 56.01,-29.5 93.22,0.67 18.18,-15.14 42.86,-31.23 73.27,-15.55 13.69,-10.44 61.98,-59.25 70.52,-76.46 -23.42,-1.22 -28.4,-0.45 -44.03,11.49 -7.12,5.44 0.11,2.66 -11.97,8.3 -13.12,-7.88 -22.86,-22.65 -47.82,-20.01 -21.22,2.25 -29.89,13.01 -41.15,21.25 -15.15,-12.17 -19.33,-20.84 -44.13,-20.81 -29.51,0.04 -29.77,7.8 -48.04,18.35 -38.42,-37.6 -69.46,-11.54 -88.72,0.34 -61.31,-36.49 -51.95,-16.7 -92.41,-0.63 -39.54,-29.19 -54.01,-24.9 -88.51,2.75 -12.42,-9.84 -18.07,-22.54 -44.47,-21.16 -24.02,1.25 -32.81,13.64 -49.64,19.67 -9.19,-14.46 -19.75,-19.42 -42.78,-19.38 -24.62,0.05 -29.07,9.52 -44.46,18.41 -39.3,-38.47 -71.07,-10.54 -88.72,0.34 -39.63,-22.62 -50.52,-32.39 -91.37,1.02 -36.36,-29.33 -53.3,-27.89 -89.51,1.14 -28.17,-30.67 -57.21,-26.82 -88.97,-2.26 -7.58,-3.38 -1.2,-0.34 -7.26,-4.44 -41.49,-28.08 -57.86,-11.56 -85.16,4.2 -9.11,-8.91 -25.93,-19.18 -44.35,-19.33 -22.14,-0.18 -32.03,12.06 -44.37,19.67 -12.28,-5.65 -44.18,-44.08 -89.08,2.41 -8.35,-5.77 -29.68,-35.29 -71.19,-15.25l-20.87 12.84c-15.36,-11.99 -21.82,-17.86 -49.13,-18.15 14.09,21.3 53.33,62.16 71.38,76.2z"/>
   </g>
  </g>
  <path class="fil0" d="M635 38.64c282.6,0 511.69,229.09 511.69,511.69 0,282.59 -229.09,511.68 -511.69,511.68 -282.59,0 -511.68,-229.09 -511.68,-511.68 0,-282.6 229.09,-511.69 511.68,-511.69z"/>
  <path class="fil8" d="M930.18 231.44c-0.09,0.14 -2.81,5.39 -4.28,6.93 -27.08,-14.69 -27.43,0.27 -40.17,15.89 -11.57,14.18 -24.73,9.53 -22.33,40.75l117.57 0.73 60.84 -0.38c-1.65,-22.97 -11.03,-20.46 -24.52,-30.33 -14.56,-10.63 -7.01,-20.06 -38.23,-14.6 -11.11,-27.67 -22.27,-22.15 -48.88,-18.99z"/>
  <ellipse class="fil0 str0" cx="956.12" cy="248.56" rx="24.42" ry="22.75"/>
  <ellipse class="fil0 str0" cx="989.43" cy="263.72" rx="20.27" ry="18.88"/>
  <g id="_1770665983056">
   <path class="fil8" d="M597.09 98.33c-0.08,0.13 -2.8,5.38 -4.27,6.92 -27.09,-14.69 -27.43,0.27 -40.18,15.89 -11.56,14.18 -24.72,9.53 -22.32,40.75l117.57 0.73 60.84 -0.38c-1.66,-22.97 -11.03,-20.46 -24.53,-30.33 -14.56,-10.63 -7.01,-20.06 -38.23,-14.6 -11.11,-27.67 -22.26,-22.15 -48.88,-18.98z"/>
   <ellipse class="fil0 str0" cx="623.04" cy="115.44" rx="24.42" ry="22.75"/>
   <ellipse class="fil0 str0" cx="579.79" cy="122.9" rx="24.42" ry="22.75"/>
   <ellipse class="fil0 str0" cx="656.34" cy="130.6" rx="20.27" ry="18.88"/>
  </g>
  <path class="fil8" d="M228.32 303.39c-0.09,0.13 -2.8,5.38 -4.27,6.92 -27.09,-14.68 -27.44,0.28 -40.18,15.9 -11.57,14.18 -24.72,9.52 -22.32,40.74l117.57 0.73 60.84 -0.38c-1.66,-22.96 -11.03,-20.46 -24.53,-30.32 -14.56,-10.64 -7.01,-20.07 -38.23,-14.6 -11.11,-27.67 -22.26,-22.16 -48.88,-18.99z"/>
  <ellipse class="fil0 str0" cx="254.26" cy="320.51" rx="24.42" ry="22.75"/>
  <ellipse class="fil0 str0" cx="211.02" cy="327.97" rx="24.42" ry="22.75"/>
  <ellipse class="fil0 str0" cx="287.57" cy="335.66" rx="20.27" ry="18.88"/>
  <path class="fil9" d="M500.51 208.63c0,5.82 -3.13,4.99 -7.29,7.61 -3.57,2.25 -4.89,3.18 -8.12,6.78 -10.07,11.25 -8.8,17.33 -8.8,32.18l-26.08 0c0,24.6 -4.43,20.49 26.08,20.49l0 83.82 -26.08 0 0 52.16 -20.49 0c0,23.9 -3.41,20.49 20.49,20.49l0 154.62c-15.87,-18.26 -39.94,-36.65 -67.06,-37.26 0,-41.3 4.91,-35.39 -20.49,-35.39l0 35.39c-23.55,5.49 -42.71,12.81 -59.07,32.21 -13.69,16.22 -24.76,37.34 -24.76,66.52l0 188.14 745.12 0 0 -188.14c0,-29.18 -11.07,-50.3 -24.75,-66.52 -7.08,-8.39 -14.9,-14.12 -24.69,-20.02 -12.04,-7.25 -19.63,-8.75 -34.38,-12.19l0 -35.39c-25.4,0 -20.49,-5.91 -20.49,35.39 -27.13,0.61 -51.2,19 -67.06,37.26l0 -154.62c23.89,0 20.49,3.41 20.49,-20.49l-20.49 0 0 -52.16 -26.08 0 0 -83.82c30.5,0 26.08,4.11 26.08,-20.49l-26.08 0c0,-14.85 1.26,-20.93 -8.81,-32.18 -16.07,-17.95 -15.41,3.78 -15.41,-33.02l-18.63 0c0,9.35 -3.3,15.47 0,22.35 -23.77,12.58 -24.21,19.4 -24.21,42.85l-16.77 0 0 20.49 16.77 0 0 83.82 -20.5 0 0 52.16 -16.76 0c0,23.44 -2.85,20.49 16.76,20.49l0 37.26c-6.82,-4.57 -15.91,-24.4 -52.65,-38.63 -9.06,-3.51 -16.1,-3.87 -25.58,-6.08l0 -20.49 -18.63 0 0 20.49c-49.27,4.1 -72.21,40.67 -78.24,44.71l0 -37.26c19.61,0 16.77,2.95 16.77,-20.49l-16.77 0 0 -52.16c-27.87,0 -20.49,12.47 -20.49,-83.82l16.76 0 0 -20.49 -16.76 0c0,-13.24 0.98,-35.55 -22.35,-40.99 0,-26.46 4.23,-24.21 -20.5,-24.21l0 18.63z"/>
  <path class="fil9 str1" d="M496.79 244.02c0,-8.7 4.34,-13.04 13.04,-13.04 6.28,0 13.04,3.29 13.04,9.31l0 14.91 -26.08 0 0 -11.18z"/>
  <path class="fil9 str1" d="M776.9 238.08c0,-6.02 6.76,-9.31 13.04,-9.31 6.27,0 13.04,3.29 13.04,9.31l0 14.91 -26.08 0 0 -14.91z"/>
  <polygon class="fil9 str1" points="496.79,275.69 522.87,275.69 522.87,357.65 496.79,357.65 "/>
  <polygon class="fil9 str1" points="779.94,275.69 806.02,275.69 806.02,357.65 779.94,357.65 "/>
  <polygon class="fil9 str1" points="470.71,378.14 543.36,378.14 543.36,411.67 470.71,411.67 "/>
  <polygon class="fil9 str1" points="759.45,378.14 832.1,378.14 832.1,411.67 759.45,411.67 "/>
  <polygon class="fil9 str1" points="470.71,432.16 543.36,432.16 543.36,493.64 470.71,493.64 "/>
  <polygon class="fil9 str1" points="759.45,432.16 832.1,432.16 832.1,493.64 759.45,493.64 "/>
  <path class="fil9 str1" d="M647.68 445.2c32.42,0 61.8,12.22 77.02,38.48 3.82,6.6 9.83,18.34 10.53,26.72l-167.65 0c2.65,-31.91 40.4,-65.2 80.1,-65.2z"/>
  <path class="fil9 str1" d="M470.71 579.33l0 -65.2 72.65 0 0 29.8c-7.59,1.77 -10.88,5.2 -17.38,8.7l-55.27 26.7z"/>
  <path class="fil9 str1" d="M759.45 579.33l0 -65.2 72.65 0 0 29.8c-9.39,2.19 -57.78,31.93 -72.65,35.4z"/>
  <path class="fil9 str1" d="M602.97 625.9l0 190 -39.12 0 0 -285.01 175.1 0 0 285.01 -44.7 0 0 -195.59c0,-16.88 -14.42,-34.32 -27.31,-39.76 -36.63,-15.45 -63.97,16.24 -63.97,45.35z"/>
  <path class="fil9 str1" d="M342.18 590.5l0 11.18 -29.81 0c7.86,-11.74 11.2,-15.14 23.8,-22.77 30.21,-18.27 77.34,-12.58 101.01,22.77l-31.67 0 0 -16.77 -18.63 0 -1.86 16.77 -22.35 0c0,-18.84 2.08,-16.77 -14.91,-16.77 -4.29,0 -5.58,1.3 -5.58,5.59z"/>
  <path class="fil9 str1" d="M897.29 601.68l-31.66 0c6.79,-10.15 12.91,-16.17 23.78,-22.79 28.04,-17.07 76.56,-13.74 101.02,22.79l-29.8 0c0,-18.84 2.09,-16.77 -14.9,-16.77 -7.25,0 -5.59,4.78 -5.59,16.77l-24.22 0c2.55,-10.67 3.01,-3.86 0,-16.77l-18.63 0 0 16.77z"/>
  <path class="fil9 str1" d="M470.71 678.05l0 -74.51c12.96,-8.68 55.01,-27.92 72.65,-37.25l0 74.51c-24.1,12.75 -48.68,24.57 -72.65,37.25z"/>
  <path class="fil9 str1" d="M759.45 678.05l0 -74.51c12.96,-8.68 55.01,-27.92 72.65,-37.25l0 74.51c-24.07,12.73 -48.74,24.6 -72.65,37.25z"/>
  <path class="fil9 str1" d="M316.1 715.31l0 100.59 -16.77 0 0 -171.38c0,-7.86 0.04,-22.35 7.45,-22.35l135.99 0c7.54,0 7.45,15.34 7.45,26.08l0 167.65 -16.77 0 0 -91.27c0,-20.82 -4.93,-36.94 -15.33,-48.01 -50.97,-54.23 -102.02,-0.07 -102.02,38.69z"/>
  <path class="fil9 str1" d="M869.35 719.04l0 96.86 -16.76 0c0,-26.8 -1.24,-167.83 1.14,-183.27 0.93,-6.01 -0.18,-10.46 6.31,-10.46l135.98 0c7.42,0 7.45,14.49 7.45,22.35l0 171.38 -16.76 0 0 -106.18c0,-40.96 -45.5,-68.34 -83.89,-50.35 -21.05,9.86 -33.47,33.57 -33.47,59.67z"/>
  <path class="fil9 str1" d="M966.22 719.04l0 96.86 -76.38 0 0 -104.31c0,-21.39 20.54,-41.32 42.13,-38.45 16.22,2.16 30.69,14.75 33.82,27.78 2.63,10.92 0.43,12.5 0.43,18.12z"/>
  <path class="fil9 str1" d="M470.71 774.92l0 -74.51c24.15,-12.78 48.5,-24.48 72.65,-37.26l0 74.51c-24.03,12.72 -48.52,24.49 -72.65,37.26z"/>
  <path class="fil9 str1" d="M759.45 774.92l0 -74.51c24.15,-12.78 48.49,-24.48 72.65,-37.26l0 74.51c-24.08,12.74 -48.51,24.48 -72.65,37.26z"/>
  <path class="fil9 str1" d="M623.46 625.9c0,-18.09 8.45,-29.81 26.08,-29.81 14.02,0 24.22,9.73 24.22,24.22l0 193.73 -50.3 0 0 -188.14z"/>
  <path class="fil9 str1" d="M336.59 715.31c0,-55.19 76.37,-54.62 76.37,1.86l0 98.73 -76.37 0 0 -100.59z"/>
  <path class="fil9 str1" d="M470.71 801c0,-5.97 10.66,-9.08 16.14,-11.8l56.51 -29.18 0 55.88 -72.65 0 0 -14.9z"/>
  <path class="fil9 str1" d="M759.45 801c0,-6.7 45.45,-26.48 53.4,-30.42 7.75,-3.84 12.44,-6.96 19.25,-10.56l0 55.88 -72.65 0 0 -14.9z"/>
 </g>
</svg>
