<?xml version="1.0" encoding="UTF-8"?>
<!DOCTYPE svg PUBLIC "-//W3C//DTD SVG 1.1//EN" "http://www.w3.org/Graphics/SVG/1.1/DTD/svg11.dtd">
<!-- Creator: CorelDRAW 2020 (64-Bit) -->
<svg xmlns="http://www.w3.org/2000/svg" xml:space="preserve" width="12.7mm" height="12.7mm" version="1.1" style="shape-rendering:geometricPrecision; text-rendering:geometricPrecision; image-rendering:optimizeQuality; fill-rule:evenodd; clip-rule:evenodd"
viewBox="0 0 1270 1270"
 xmlns:xlink="http://www.w3.org/1999/xlink"
 xmlns:xodm="http://www.corel.com/coreldraw/odm/2003">
 <defs>
  <style type="text/css">
   <![CDATA[
    .str2 {stroke:#663333;stroke-width:16.93;stroke-miterlimit:22.9256}
    .str0 {stroke:#F4F4F4;stroke-width:20;stroke-miterlimit:22.9256}
    .str4 {stroke:white;stroke-width:20;stroke-miterlimit:22.9256}
    .str3 {stroke:#663333;stroke-width:7.62;stroke-miterlimit:22.9256}
    .str1 {stroke:white;stroke-width:7.62;stroke-miterlimit:22.9256}
    .fil0 {fill:none}
    .fil4 {fill:#3A9A46}
    .fil6 {fill:#60BFC0}
    .fil9 {fill:#663333}
    .fil5 {fill:#7AC8C9}
    .fil1 {fill:#8DC9F6}
    .fil7 {fill:#9DD8D9}
    .fil2 {fill:#AED9F7}
    .fil3 {fill:#C6E4F8}
    .fil8 {fill:#F4F4F4}
    .fil10 {fill:white}
   ]]>
  </style>
   <clipPath id="id0">
    <path d="M635 38.64c282.6,0 511.69,229.09 511.69,511.69 0,282.59 -229.09,511.68 -511.69,511.68 -282.59,0 -511.68,-229.09 -511.68,-511.68 0,-282.6 229.09,-511.69 511.68,-511.69z"/>
   </clipPath>
   <clipPath id="id1">
    <path d="M356.8 603.28l-11.25 13.81 0 258.43 594.88 0 -4.64 -257.27 -13.9 -15.45 -0.77 -22.4 -14.68 -18.54 10.81 0 -16.8 -15.07c0,0 20.47,-21.05 0.87,-38.44 -19.6,-17.38 -32.64,-37.47 -32.64,-37.47 0,0 -24.15,29.17 -34.19,39.4 -10.04,10.24 -10.81,34.58 2.32,36.12l-11.98 13.91 5.6 -0.1 -13.52 18.16 -31.67 -0.58 0.39 40.17 -18.74 -0.24 0.43 -41.57c0,0 -1.45,-3.28 -6.08,-2.7l0.48 -20.67 -7.43 -7.63 -0.2 -15.55 9.66 -7.72 0.2 -15.65 -245.68 1.55 0 11.97 6.95 8.11 1.45 1.65 0.29 15.06 -8.21 7.24 0.1 20.48 -7.2 0.19 -0.24 44.89 -17.58 0.39 0.77 -37.67 -29.35 0.39 -15.65 -17.96 4.82 0 5.8 0 -17.38 -16.42c0,0 16,-14.57 -1.57,-42.19 0,0 -27.79,-19.81 -28.56,-30.63 0,0 -26.37,26.66 -33.03,34.58 -6.66,7.92 -16.03,30.51 1.93,37.27l-14.68 13.91 -2.2 2.17 6.54 -0.14 1.12 -0.03 -14.3 18.16 -1.29 24.08z"/>
   </clipPath>
 </defs>
 <g id="Layer_x0020_1">
  <metadata id="CorelCorpID_0Corel-Layer"/>
  <rect class="fil0" width="1270" height="1270"/>
  <rect class="fil0" width="1270" height="1270"/>
  <path class="fil1" d="M635 38.64c282.6,0 511.69,229.09 511.69,511.69 0,282.59 -229.09,511.68 -511.69,511.68 -282.59,0 -511.68,-229.09 -511.68,-511.68 0,-282.6 229.09,-511.69 511.68,-511.69z"/>
  <g style="clip-path:url(#id0)">
   <g id="_1770882471024">
    <circle class="fil2" cx="635" cy="653.22" r="511.69"/>
    <circle class="fil3" cx="635" cy="796.4" r="511.69"/>
    <path class="fil4" d="M367.89 722.94c-42.61,-5.86 -61.01,14.52 -69.26,48.91 -7.84,5.52 2.68,0.37 -7.9,3.04 -17.76,4.47 -62.77,3.32 -57.99,68.78l-32.56 5.62 34.84 74.13 152.76 0.58c15.03,-52.15 39.42,-38.38 96.3,-39.54l0.76 -162.46c-40.89,-23.99 -62.5,-21.3 -89.15,17.1 -8.28,-3.37 -16.47,-10.39 -27.8,-16.16z"/>
    <path class="fil4" d="M967.38 722.94c42.61,-5.86 61.01,14.52 69.26,48.91 7.84,5.52 -2.68,0.37 7.9,3.04 17.76,4.47 62.77,3.32 57.99,68.78l32.56 5.62 -34.84 74.13 -152.76 0.58c-15.03,-52.15 -39.42,-38.38 -96.3,-39.54l-0.76 -162.46c40.89,-23.99 62.5,-21.3 89.15,17.1 8.28,-3.37 16.47,-10.39 27.8,-16.16z"/>
    <path class="fil5" d="M44.93 938.57c10.35,22.15 152.67,128.11 186.63,141.17 25.25,-18.93 60.79,8.75 62.23,15.44 24.39,-29.73 63.05,-26.52 91.17,-2.39 46.95,-40.3 79.47,-6.11 92.41,0.27 48.74,-44.25 83.46,-1.82 88.72,1.47 42.49,-30.35 47.08,-27.98 88.72,-1.79 56.9,-42.13 89.23,-1.04 89.97,2.44 24.49,-29.85 62.78,-26.75 91.17,-2.39 14.83,-12.73 21.13,-17.68 48.1,-18.1 26.15,-0.42 32.08,9.55 43.68,22.46 17.15,-23.38 57.43,-38.21 84.84,-3.16 10.85,-5.13 48.07,-43.33 93.23,-1.25 20.55,-15.22 22.03,-19.17 57.93,-18.8l-8.78 16.78c37.66,-12.6 188.97,-125.39 206.19,-152.65 -30.41,-15.68 -55.09,0.41 -73.27,15.55 -37.21,-30.17 -55.47,-27.52 -93.22,-0.67 -8.8,-9.67 -24.47,-20.07 -44.69,-20.88 -21.28,-0.84 -31.66,13.01 -44.16,19.6 -56.05,-29.27 -39.48,-27.69 -91.95,1.28 -50.07,-38.24 -45.69,-20.82 -89.18,1.01 -33.47,-30.77 -56.36,-27.4 -88.65,-1.32 -37.92,-30.08 -56.24,-25.38 -92.37,0.31 -7.87,-8.66 -26.44,-20.81 -44.47,-21.14 -21.44,-0.4 -31.76,13.21 -44.37,19.86 -14.98,-8.34 -25.73,-21.01 -47.9,-19.84 -23.89,1.25 -28.83,15.65 -45.73,21.98 -34.31,-41.15 -55.33,-16.43 -88.43,0.59 -23.33,-32.69 -58.01,-25.76 -87.72,-1.76 -37.56,-29.79 -56.16,-25.44 -92.37,0.31 -7.2,-7.91 -27.1,-21.09 -44.32,-21.2 -21.62,-0.13 -31.74,13.15 -44.52,19.96 -16.69,-8.22 -45.82,-42.96 -87.01,3.07l-10.33 -7.24c-5.15,-3.99 0.4,-0.28 -6.27,-5.25 -4.84,-3.61 -10.7,-7.04 -16.94,-8.53 -14.27,-3.39 -27.69,1.37 -38.34,4.81z"/>
    <path class="fil6" d="M44.93 938.57c10.65,-3.44 24.07,-8.2 38.34,-4.81 6.24,1.49 12.1,4.92 16.94,8.53 6.67,4.97 1.12,1.26 6.27,5.25l10.33 7.24c41.19,-46.03 70.32,-11.29 87.01,-3.07 12.78,-6.81 22.9,-20.09 44.52,-19.96 17.22,0.11 37.12,13.29 44.32,21.2 36.21,-25.75 54.81,-30.1 92.37,-0.31 29.71,-24 64.39,-30.93 87.72,1.76 33.1,-17.02 54.12,-41.74 88.43,-0.59 16.9,-6.33 21.84,-20.73 45.73,-21.98 22.17,-1.17 32.92,11.5 47.9,19.84 12.61,-6.65 22.93,-20.26 44.37,-19.86 18.03,0.33 36.6,12.48 44.47,21.14 36.13,-25.69 54.45,-30.39 92.37,-0.31 32.29,-26.08 55.18,-29.45 88.65,1.32 43.49,-21.83 39.11,-39.25 89.18,-1.01 52.47,-28.97 35.9,-30.55 91.95,-1.28 12.5,-6.59 22.88,-20.44 44.16,-19.6 20.22,0.81 35.89,11.21 44.69,20.88 37.75,-26.85 56.01,-29.5 93.22,0.67 18.18,-15.14 42.86,-31.23 73.27,-15.55 13.69,-10.44 61.98,-59.25 70.52,-76.46 -23.42,-1.22 -28.4,-0.45 -44.03,11.49 -7.12,5.44 0.11,2.66 -11.97,8.3 -13.12,-7.88 -22.86,-22.65 -47.82,-20.01 -21.22,2.25 -29.89,13.01 -41.15,21.25 -15.15,-12.17 -19.33,-20.84 -44.13,-20.81 -29.51,0.04 -29.77,7.8 -48.04,18.35 -38.42,-37.6 -69.46,-11.54 -88.72,0.34 -61.31,-36.49 -51.95,-16.7 -92.41,-0.63 -39.54,-29.19 -54.01,-24.9 -88.51,2.75 -12.42,-9.84 -18.07,-22.54 -44.47,-21.16 -24.02,1.25 -32.81,13.64 -49.64,19.67 -9.19,-14.46 -19.75,-19.42 -42.78,-19.38 -24.62,0.05 -29.07,9.52 -44.46,18.41 -39.3,-38.47 -71.07,-10.54 -88.72,0.34 -39.63,-22.62 -50.52,-32.39 -91.37,1.02 -36.36,-29.33 -53.3,-27.89 -89.51,1.14 -28.17,-30.67 -57.21,-26.82 -88.97,-2.26 -7.58,-3.38 -1.2,-0.34 -7.26,-4.44 -41.49,-28.08 -57.86,-11.56 -85.16,4.2 -9.11,-8.91 -25.93,-19.18 -44.35,-19.33 -22.14,-0.18 -32.03,12.06 -44.37,19.67 -12.28,-5.65 -44.18,-44.08 -89.08,2.41 -8.35,-5.77 -29.68,-35.29 -71.19,-15.25l-20.87 12.84c-15.36,-11.99 -21.82,-17.86 -49.13,-18.15 14.09,21.3 53.33,62.16 71.38,76.2z"/>
    <path class="fil7" d="M626.4 1205.05l152.98 -0.01 52.86 -6.87c39.49,-5.47 170.42,-35.68 196.4,-47.45l120.2 -54.21c4.41,-3.46 3.92,-3.49 6.11,-5.79l8.78 -16.78c-35.9,-0.37 -37.38,3.58 -57.93,18.8 -45.16,-42.08 -82.38,-3.88 -93.23,1.25 -27.41,-35.05 -67.69,-20.22 -84.84,3.16 -11.6,-12.91 -17.53,-22.88 -43.68,-22.46 -26.97,0.42 -33.27,5.37 -48.1,18.1 -28.39,-24.36 -66.68,-27.46 -91.17,2.39 -0.74,-3.48 -33.07,-44.57 -89.97,-2.44 -41.64,-26.19 -46.23,-28.56 -88.72,1.79 -5.26,-3.29 -39.98,-45.72 -88.72,-1.47 -12.94,-6.38 -45.46,-40.57 -92.41,-0.27 -28.12,-24.13 -66.78,-27.34 -91.17,2.39 -1.44,-6.69 -36.98,-34.37 -62.23,-15.44 25.54,25.06 151.65,73.18 178.68,81.43 84.47,25.77 119.74,30.69 203.74,40.38l12.42 3.5z"/>
   </g>
  </g>
  <path class="fil0" d="M635 38.64c282.6,0 511.69,229.09 511.69,511.69 0,282.59 -229.09,511.68 -511.69,511.68 -282.59,0 -511.68,-229.09 -511.68,-511.68 0,-282.6 229.09,-511.69 511.68,-511.69z"/>
  <path class="fil8" d="M930.18 231.44c-0.09,0.14 -2.81,5.39 -4.28,6.93 -27.08,-14.69 -27.43,0.27 -40.17,15.89 -11.57,14.18 -24.73,9.53 -22.33,40.75l117.57 0.73 60.84 -0.38c-1.65,-22.97 -11.03,-20.46 -24.52,-30.33 -14.56,-10.63 -7.01,-20.06 -38.23,-14.6 -11.11,-27.67 -22.27,-22.15 -48.88,-18.99z"/>
  <ellipse class="fil0 str0" cx="956.12" cy="248.56" rx="24.42" ry="22.75"/>
  <ellipse class="fil0 str0" cx="989.43" cy="263.72" rx="20.27" ry="18.88"/>
  <g id="_1770665940048">
   <path class="fil8" d="M597.09 98.33c-0.08,0.13 -2.8,5.38 -4.27,6.92 -27.09,-14.69 -27.43,0.27 -40.18,15.89 -11.56,14.18 -24.72,9.53 -22.32,40.75l117.57 0.73 60.84 -0.38c-1.66,-22.97 -11.03,-20.46 -24.53,-30.33 -14.56,-10.63 -7.01,-20.06 -38.23,-14.6 -11.11,-27.67 -22.26,-22.15 -48.88,-18.98z"/>
   <ellipse class="fil0 str0" cx="623.04" cy="115.44" rx="24.42" ry="22.75"/>
   <ellipse class="fil0 str0" cx="579.79" cy="122.9" rx="24.42" ry="22.75"/>
   <ellipse class="fil0 str0" cx="656.34" cy="130.6" rx="20.27" ry="18.88"/>
  </g>
  <path class="fil8" d="M228.32 303.39c-0.09,0.13 -2.8,5.38 -4.27,6.92 -27.09,-14.68 -27.44,0.28 -40.18,15.9 -11.57,14.18 -24.72,9.52 -22.32,40.74l117.57 0.73 60.84 -0.38c-1.66,-22.96 -11.03,-20.46 -24.53,-30.32 -14.56,-10.64 -7.01,-20.07 -38.23,-14.6 -11.11,-27.67 -22.26,-22.16 -48.88,-18.99z"/>
  <ellipse class="fil0 str0" cx="254.26" cy="320.51" rx="24.42" ry="22.75"/>
  <ellipse class="fil0 str0" cx="211.02" cy="327.97" rx="24.42" ry="22.75"/>
  <ellipse class="fil0 str0" cx="287.57" cy="335.66" rx="20.27" ry="18.88"/>
  <path class="fil9" d="M356.8 603.28l-11.25 13.81 0 258.43 594.88 0 -4.64 -257.27 -13.9 -15.45 -0.77 -22.4 -14.68 -18.54 10.81 0 -16.8 -15.07c0,0 20.47,-21.05 0.87,-38.44 -19.6,-17.38 -32.64,-37.47 -32.64,-37.47 0,0 -24.15,29.17 -34.19,39.4 -10.04,10.24 -10.81,34.58 2.32,36.12l-11.98 13.91 5.6 -0.1 -13.52 18.16 -31.67 -0.58 0.39 40.17 -18.74 -0.24 0.43 -41.57c0,0 -1.45,-3.28 -6.08,-2.7l0.48 -20.67 -7.43 -7.63 -0.2 -15.55 9.66 -7.72 0.2 -15.65 -245.68 1.55 0 11.97 6.95 8.11 1.45 1.65 0.29 15.06 -8.21 7.24 0.1 20.48 -7.2 0.19 -0.24 44.89 -17.58 0.39 0.77 -37.67 -29.35 0.39 -15.65 -17.96 4.82 0 5.8 0 -17.38 -16.42c0,0 16,-14.57 -1.57,-42.19 0,0 -27.79,-19.81 -28.56,-30.63 0,0 -26.37,26.66 -33.03,34.58 -6.66,7.92 -16.03,30.51 1.93,37.27l-14.68 13.91 -2.2 2.17 6.54 -0.14 1.12 -0.03 -14.3 18.16 -1.29 24.08z"/>
  <g style="clip-path:url(#id1)">
   <g id="_1770665945376">
    <rect class="fil0 str1" x="780.21" y="828.8" width="31.68" height="49.06"/>
    <rect class="fil0 str1" x="719.95" y="827.45" width="31.68" height="49.06"/>
    <rect class="fil0 str1" x="658.92" y="826.68" width="31.68" height="49.06"/>
    <rect class="fil0 str1" x="586.29" y="825.91" width="31.68" height="49.06"/>
    <rect class="fil0 str1" x="526.81" y="828.23" width="31.68" height="49.06"/>
    <rect class="fil0 str1" x="466.55" y="829" width="31.68" height="49.06"/>
    <line class="fil0 str1" x1="494.14" y1="603.21" x2="356.8" y2= "603.28" />
    <line class="fil0 str1" x1="509.29" y1="617.22" x2="341.73" y2= "617.29" />
    <line class="fil0 str1" x1="921.8" y1="604.48" x2="785.5" y2= "604.55" />
    <line class="fil0 str1" x1="935.23" y1="618.84" x2="764.17" y2= "618.9" />
    <line class="fil0 str1" x1="335.33" y1="545.06" x2="473.7" y2= "546.32" />
    <line class="fil0 str1" x1="491.63" y1="562.43" x2="358.41" y2= "561.14" />
    <line class="fil0 str1" x1="821.93" y1="546.34" x2="933.99" y2= "546.73" />
    <line class="fil0 str1" x1="815.48" y1="563.26" x2="931.77" y2= "564.89" />
   </g>
  </g>
  <path class="fil0" d="M356.8 603.28l-11.25 13.81 0 258.43 594.88 0 -4.64 -257.27 -13.9 -15.45 -0.77 -22.4 -14.68 -18.54 10.81 0 -16.8 -15.07c0,0 20.47,-21.05 0.87,-38.44 -19.6,-17.38 -32.64,-37.47 -32.64,-37.47 0,0 -24.15,29.17 -34.19,39.4 -10.04,10.24 -10.81,34.58 2.32,36.12l-11.98 13.91 5.6 -0.1 -13.52 18.16 -31.67 -0.58 0.39 40.17 -18.74 -0.24 0.43 -41.57c0,0 -1.45,-3.28 -6.08,-2.7l0.48 -20.67 -7.43 -7.63 -0.2 -15.55 9.66 -7.72 0.2 -15.65 -245.68 1.55 0 11.97 6.95 8.11 1.45 1.65 0.29 15.06 -8.21 7.24 0.1 20.48 -7.2 0.19 -0.24 44.89 -17.58 0.39 0.77 -37.67 -29.35 0.39 -15.65 -17.96 4.82 0 5.8 0 -17.38 -16.42c0,0 16,-14.57 -1.57,-42.19 0,0 -27.79,-19.81 -28.56,-30.63 0,0 -26.37,26.66 -33.03,34.58 -6.66,7.92 -16.03,30.51 1.93,37.27l-14.68 13.91 -2.2 2.17 6.54 -0.14 1.12 -0.03 -14.3 18.16 -1.29 24.08z"/>
  <polygon class="fil10 str2" points="465.29,618.31 425.11,659.26 853.89,658.49 817.58,619.09 "/>
  <polygon class="fil9 str1" points="766.06,574.61 766.89,617.72 511.41,617.37 511.65,572.48 "/>
  <polyline class="fil0 str3" points="513.67,489.1 514.06,479.83 767.85,479.83 767.95,492.19 "/>
  <polygon class="fil0 str3" points="543.9,457.14 543.9,479.83 737.43,478.48 737.34,456.41 "/>
  <path class="fil0 str3" d="M663.96 430.25c6.74,0.86 11.96,6.62 11.96,13.6 0,7.58 -6.14,13.72 -13.71,13.72 -7.57,0 -13.71,-6.14 -13.71,-13.72 0,-3.67 1.44,-7 3.79,-9.46l-25.09 -0.49c3.15,2.51 5.17,6.38 5.17,10.73 0,7.57 -6.14,13.71 -13.72,13.71 -7.57,0 -13.71,-6.14 -13.71,-13.71 0,-6.69 4.8,-12.27 11.14,-13.47 -1.63,-18.48 24.53,-32.67 24.53,-32.67 20.41,9.21 23.27,24.35 23.35,31.76z"/>
  <path class="fil9 str3" d="M607.05 343.2l64.51 0.2c0,0 54.66,33.61 75.14,64.51 0,0 10.82,40.99 -9.36,48.5l-193.44 2.68c0,0 -44.42,-40.94 32.25,-91.93l30.9 -23.96z"/>
  <rect class="fil0 str3" x="606.19" y="317.33" width="67.41" height="26.27"/>
  <rect class="fil0 str3" x="618.45" y="301.39" width="43.46" height="15.94"/>
  <path class="fil0 str3" d="M641.62 237.17l0.02 0c4.83,0 8.78,3.95 8.78,8.78l0 55.44 -17.58 0 0 -55.44c0,-4.83 3.95,-8.78 8.78,-8.78z"/>
  <path class="fil0 str3" d="M651.1 292.99c0,0 27.9,-18.26 21.14,-39.79 0,0 -14.29,-15.93 -21.82,3.28l0.68 36.51z"/>
  <path class="fil0 str3" d="M632.84 250.88c0,0 -17.28,-9.08 -22.88,0.97 -5.6,10.04 -2.18,31.62 22.55,41.86l0.33 -42.83z"/>
  <rect class="fil10 str1" x="468.63" y="659.18" width="31.29" height="39.65"/>
  <rect class="fil10 str1" x="530.05" y="659.18" width="31.29" height="39.65"/>
  <rect class="fil10 str1" x="589.54" y="660.73" width="31.29" height="39.65"/>
  <rect class="fil10 str1" x="659.84" y="658.8" width="31.29" height="39.65"/>
  <rect class="fil10 str1" x="720.49" y="658.41" width="31.29" height="39.65"/>
  <rect class="fil10 str1" x="781.91" y="658.41" width="31.29" height="39.65"/>
  <line class="fil0 str1" x1="463.61" y1="711.19" x2="501.85" y2= "711.58" />
  <line class="fil0 str1" x1="527.34" y1="710.68" x2="565.58" y2= "711.06" />
  <line class="fil0 str1" x1="585.67" y1="711.84" x2="623.91" y2= "712.22" />
  <line class="fil0 str1" x1="657.13" y1="711.06" x2="695.37" y2= "711.45" />
  <line class="fil0 str1" x1="718.16" y1="712.22" x2="756.41" y2= "712.61" />
  <line class="fil0 str1" x1="775.72" y1="711.06" x2="813.96" y2= "711.45" />
  <circle class="fil10 str1" cx="413.39" cy="689.76" r="12.55"/>
  <polygon class="fil10" points="388.28,713.71 373.21,729.74 449.89,728.77 436.76,714.48 "/>
  <polygon class="fil10" points="844.87,714.28 829.61,730.7 851.24,730.43 907.26,729.73 892.96,714.09 "/>
  <polygon class="fil10" points="851.53,780.68 885.96,781.05 885.36,733.04 851.91,733.45 "/>
  <line class="fil0 str1" x1="845.59" y1="791.73" x2="895.04" y2= "792.12" />
  <line class="fil0 str1" x1="796.15" y1="723.94" x2="796.34" y2= "820.13" />
  <line class="fil0 str1" x1="736.27" y1="725.29" x2="736.66" y2= "819.16" />
  <line class="fil0 str1" x1="676.21" y1="723.94" x2="676.59" y2= "817.8" />
  <line class="fil0 str1" x1="603.58" y1="724.71" x2="603.97" y2= "818.58" />
  <line class="fil0 str1" x1="544.87" y1="721.62" x2="545.25" y2= "815.49" />
  <line class="fil0 str1" x1="484.61" y1="727.8" x2="484.99" y2= "821.67" />
  <polygon class="fil10" points="396.13,733.32 396.5,781.59 431.27,781.2 430.66,732.88 "/>
  <ellipse class="fil10 str1" cx="870.79" cy="689.07" rx="11.59" ry="11.49"/>
  <rect class="fil10 str1" x="856.5" y="818.76" width="23.76" height="26.07"/>
  <line class="fil0 str1" x1="531.25" y1="589.31" x2="531.21" y2= "617.4" />
  <line class="fil0 str1" x1="550" y1="589.5" x2="549.96" y2= "617.59" />
  <line class="fil0 str1" x1="566.8" y1="589.5" x2="566.76" y2= "617.59" />
  <line class="fil0 str1" x1="584.18" y1="590.08" x2="584.14" y2= "618.17" />
  <line class="fil0 str1" x1="696.21" y1="589.69" x2="696.17" y2= "617.78" />
  <line class="fil0 str1" x1="714.75" y1="589.31" x2="714.71" y2= "617.4" />
  <line class="fil0 str1" x1="732.52" y1="588.53" x2="732.48" y2= "616.62" />
  <line class="fil0 str1" x1="749.51" y1="588.15" x2="749.47" y2= "616.24" />
  <line class="fil0 str1" x1="542.74" y1="535.37" x2="560.89" y2= "535.95" />
  <line class="fil0 str1" x1="577.33" y1="536.74" x2="595.48" y2= "537.32" />
  <line class="fil0 str1" x1="610.55" y1="536.35" x2="628.7" y2= "536.93" />
  <line class="fil0 str1" x1="650.72" y1="536.35" x2="668.88" y2= "536.93" />
  <line class="fil0 str1" x1="686.45" y1="536.92" x2="704.61" y2= "537.5" />
  <line class="fil0 str1" x1="720.46" y1="536.28" x2="738.62" y2= "536.86" />
  <line class="fil0 str3" x1="532.41" y1="482.45" x2="532.51" y2= "490.76" />
  <line class="fil0 str3" x1="553.37" y1="481.87" x2="553.46" y2= "490.18" />
  <line class="fil0 str3" x1="572.39" y1="481.68" x2="572.49" y2= "489.99" />
  <line class="fil0 str3" x1="592.86" y1="481.2" x2="592.96" y2= "489.5" />
  <line class="fil0 str3" x1="631.83" y1="481.97" x2="631.93" y2= "490.28" />
  <line class="fil0 str3" x1="612.9" y1="481.2" x2="613" y2= "489.5" />
  <line class="fil0 str3" x1="669.11" y1="482.74" x2="669.2" y2= "491.05" />
  <line class="fil0 str3" x1="689.58" y1="481.59" x2="689.67" y2= "489.89" />
  <line class="fil0 str3" x1="708.51" y1="482.16" x2="708.6" y2= "490.47" />
  <line class="fil0 str3" x1="728.4" y1="481.97" x2="728.5" y2= "490.28" />
  <line class="fil0 str3" x1="748.1" y1="481.59" x2="748.2" y2= "489.89" />
  <rect class="fil10 str1" x="399.53" y="817.17" width="27.81" height="32.45"/>
  <rect class="fil10 str1" x="854.47" y="815.57" width="27.81" height="32.45"/>
  <line class="fil0 str1" x1="387.52" y1="794.34" x2="436.97" y2= "794.73" />
  <line class="fil0 str4" x1="296.91" y1="893.74" x2="994.76" y2= "893.74" />
 </g>
</svg>
