<svg xmlns="http://www.w3.org/2000/svg" viewBox="0 0 1459 1271" width="1459" height="1271">
	<style>
		tspan { white-space:pre }
		.shp0 { fill: #8dc9f6 } 
		.shp1 { fill: #aed9f7 } 
		.shp2 { fill: #c6e4f8 } 
		.shp3 { fill: #3a9a46 } 
		.shp4 { fill: #7ac8c9 } 
		.shp5 { fill: #60bfc0 } 
		.shp6 { fill: #9dd8d9 } 
		.shp7 { fill: none } 
		.shp8 { fill: #f4f4f4 } 
		.shp9 { fill: #000000 } 
		.shp10 { fill: #663333 } 
		.shp11 { fill: #ffffff } 
	</style>
	<g id="Layer_x0020_1">
		<path id="Layer" fill-rule="evenodd" class="shp0" d="M662 0.64C944.6 0.64 1173.69 229.73 1173.69 512.33C1173.69 794.92 944.6 1024.01 662 1024.01C379.41 1024.01 150.32 794.92 150.32 512.33C150.32 229.73 379.41 0.64 662 0.64L662 0.64Z" />
		<g id="Layer">
			<g id="_2773386296912">
				<path id="Layer" class="shp1" d="M662 1126.91C379.04 1126.91 150.31 898.18 150.31 615.22C150.31 332.26 379.04 103.53 662 103.53C944.96 103.53 1173.69 332.26 1173.69 615.22C1173.69 898.18 944.96 1126.91 662 1126.91Z" />
				<path id="Layer" class="shp2" d="M662 1270.09C379.04 1270.09 150.31 1041.36 150.31 758.4C150.31 475.44 379.04 246.71 662 246.71C944.96 246.71 1173.69 475.44 1173.69 758.4C1173.69 1041.36 944.96 1270.09 662 1270.09Z" />
				<path id="Layer" fill-rule="evenodd" class="shp3" d="M394.89 684.94C352.28 679.08 333.88 699.46 325.63 733.85C317.79 739.37 328.31 734.22 317.73 736.89C299.97 741.36 254.96 740.21 259.74 805.67L227.18 811.29L262.02 885.42L414.78 886C429.81 833.85 454.2 847.62 511.08 846.46L511.84 684C470.95 660.01 449.34 662.7 422.69 701.1C414.41 697.73 406.22 690.71 394.89 684.94L394.89 684.94Z" />
				<path id="Layer" fill-rule="evenodd" class="shp3" d="M994.38 684.94C1036.99 679.08 1055.39 699.46 1063.64 733.85C1071.48 739.37 1060.96 734.22 1071.54 736.89C1089.3 741.36 1134.31 740.21 1129.53 805.67L1162.09 811.29L1127.25 885.42L974.49 886C959.46 833.85 935.07 847.62 878.19 846.46L877.43 684C918.32 660.01 939.93 662.7 966.58 701.1C974.86 697.73 983.05 690.71 994.38 684.94L994.38 684.94Z" />
				<path id="Layer" fill-rule="evenodd" class="shp4" d="M71.93 900.57C82.28 922.72 224.6 1028.68 258.56 1041.74C283.81 1022.81 319.35 1050.49 320.79 1057.18C345.18 1027.45 383.84 1030.66 411.96 1054.79C458.91 1014.49 491.43 1048.68 504.37 1055.06C553.11 1010.81 587.83 1053.24 593.09 1056.53C635.58 1026.18 640.17 1028.55 681.81 1054.74C738.71 1012.61 771.04 1053.7 771.78 1057.18C796.27 1027.33 834.56 1030.43 862.95 1054.79C877.78 1042.06 884.08 1037.11 911.05 1036.69C937.2 1036.27 943.13 1046.24 954.73 1059.15C971.88 1035.77 1012.16 1020.94 1039.57 1055.99C1050.42 1050.86 1087.64 1012.66 1132.8 1054.74C1153.35 1039.52 1154.83 1035.57 1190.73 1035.94L1181.95 1052.72C1219.61 1040.12 1370.92 927.33 1388.14 900.07C1357.73 884.39 1333.05 900.48 1314.87 915.62C1277.66 885.45 1259.4 888.1 1221.65 914.95C1212.85 905.28 1197.18 894.88 1176.96 894.07C1155.68 893.23 1145.3 907.08 1132.8 913.67C1076.75 884.4 1093.32 885.98 1040.85 914.95C990.78 876.71 995.16 894.13 951.67 915.96C918.2 885.19 895.31 888.56 863.02 914.64C825.1 884.56 806.78 889.26 770.65 914.95C762.78 906.29 744.21 894.14 726.18 893.81C704.74 893.41 694.42 907.02 681.81 913.67C666.83 905.33 656.08 892.66 633.91 893.83C610.02 895.08 605.08 909.48 588.18 915.81C553.87 874.66 532.85 899.38 499.75 916.4C476.42 883.71 441.74 890.64 412.03 914.64C374.47 884.85 355.87 889.2 319.66 914.95C312.46 907.04 292.56 893.86 275.34 893.75C253.72 893.62 243.6 906.9 230.82 913.71C214.13 905.49 185 870.75 143.81 916.78L133.48 909.54C128.33 905.55 133.88 909.26 127.21 904.29C122.37 900.68 116.51 897.25 110.27 895.76C96 892.37 82.58 897.13 71.93 900.57L71.93 900.57Z" />
				<path id="Layer" fill-rule="evenodd" class="shp5" d="M71.93 900.57C82.58 897.13 96 892.37 110.27 895.76C116.51 897.25 122.37 900.68 127.21 904.29C133.88 909.26 128.33 905.55 133.48 909.54L143.81 916.78C185 870.75 214.13 905.49 230.82 913.71C243.6 906.9 253.72 893.62 275.34 893.75C292.56 893.86 312.46 907.04 319.66 914.95C355.87 889.2 374.47 884.85 412.03 914.64C441.74 890.64 476.42 883.71 499.75 916.4C532.85 899.38 553.87 874.66 588.18 915.81C605.08 909.48 610.02 895.08 633.91 893.83C656.08 892.66 666.83 905.33 681.81 913.67C694.42 907.02 704.74 893.41 726.18 893.81C744.21 894.14 762.78 906.29 770.65 914.95C806.78 889.26 825.1 884.56 863.02 914.64C895.31 888.56 918.2 885.19 951.67 915.96C995.16 894.13 990.78 876.71 1040.85 914.95C1093.32 885.98 1076.75 884.4 1132.8 913.67C1145.3 907.08 1155.68 893.23 1176.96 894.07C1197.18 894.88 1212.85 905.28 1221.65 914.95C1259.4 888.1 1277.66 885.45 1314.87 915.62C1333.05 900.48 1357.73 884.39 1388.14 900.07C1401.83 889.63 1450.12 840.82 1458.66 823.61C1435.24 822.39 1430.26 823.16 1414.63 835.1C1407.51 840.54 1414.74 837.76 1402.66 843.4C1389.54 835.52 1379.8 820.75 1354.84 823.39C1333.62 825.64 1324.95 836.4 1313.69 844.64C1298.54 832.47 1294.36 823.8 1269.56 823.83C1240.05 823.87 1239.79 831.63 1221.52 842.18C1183.1 804.58 1152.06 830.64 1132.8 842.52C1071.49 806.03 1080.85 825.82 1040.39 841.89C1000.85 812.7 986.38 816.99 951.88 844.64C939.46 834.8 933.81 822.1 907.41 823.48C883.39 824.73 874.6 837.12 857.77 843.15C848.58 828.69 838.02 823.73 814.99 823.77C790.37 823.82 785.92 833.29 770.53 842.18C731.23 803.71 699.46 831.64 681.81 842.52C642.18 819.9 631.29 810.13 590.44 843.54C554.08 814.21 537.14 815.65 500.93 844.68C472.76 814.01 443.72 817.86 411.96 842.42C404.38 839.04 410.76 842.08 404.7 837.98C363.21 809.9 346.84 826.42 319.54 842.18C310.43 833.27 293.61 823 275.19 822.85C253.05 822.67 243.16 834.91 230.82 842.52C218.54 836.87 186.64 798.44 141.74 844.93C133.39 839.16 112.06 809.64 70.55 829.68L49.68 842.52C34.32 830.53 27.86 824.66 0.55 824.37C14.64 845.67 53.88 886.53 71.93 900.57L71.93 900.57Z" />
				<path id="Layer" fill-rule="evenodd" class="shp6" d="M653.4 1167.05L806.38 1167.04L859.24 1160.17C898.73 1154.7 1029.66 1124.49 1055.64 1112.72L1175.84 1058.51C1180.25 1055.05 1179.76 1055.02 1181.95 1052.72L1190.73 1035.94C1154.83 1035.57 1153.35 1039.52 1132.8 1054.74C1087.64 1012.66 1050.42 1050.86 1039.57 1055.99C1012.16 1020.94 971.88 1035.77 954.73 1059.15C943.13 1046.24 937.2 1036.27 911.05 1036.69C884.08 1037.11 877.78 1042.06 862.95 1054.79C834.56 1030.43 796.27 1027.33 771.78 1057.18C771.04 1053.7 738.71 1012.61 681.81 1054.74C640.17 1028.55 635.58 1026.18 593.09 1056.53C587.83 1053.24 553.11 1010.81 504.37 1055.06C491.43 1048.68 458.91 1014.49 411.96 1054.79C383.84 1030.66 345.18 1027.45 320.79 1057.18C319.35 1050.49 283.81 1022.81 258.56 1041.74C284.1 1066.8 410.21 1114.92 437.24 1123.17C521.71 1148.94 556.98 1153.86 640.98 1163.55L653.4 1167.05L653.4 1167.05Z" />
			</g>
		</g>
		<path id="Layer" fill-rule="evenodd" class="shp7" d="M662 0.64C944.6 0.64 1173.69 229.73 1173.69 512.33C1173.69 794.92 944.6 1024.01 662 1024.01C379.41 1024.01 150.32 794.92 150.32 512.33C150.32 229.73 379.41 0.64 662 0.64L662 0.64Z" />
		<path id="Layer" fill-rule="evenodd" class="shp8" d="M957.18 193.44C957.09 193.58 954.37 198.83 952.9 200.37C925.82 185.68 925.47 200.64 912.73 216.26C901.16 230.44 888 225.79 890.4 257.01L1007.97 257.74L1068.81 257.36C1067.16 234.39 1057.78 236.9 1044.29 227.03C1029.73 216.4 1037.28 206.97 1006.06 212.43C994.95 184.76 983.79 190.28 957.18 193.44L957.18 193.44Z" />
		<path id="Layer" class="shp9" d="M983.12 233.31C969.62 233.31 958.7 223.14 958.7 210.56C958.7 197.98 969.62 187.81 983.12 187.81C996.62 187.81 1007.54 197.98 1007.54 210.56C1007.54 223.14 996.62 233.31 983.12 233.31Z" />
		<path id="Layer" class="shp9" d="M1016.43 244.6C1005.22 244.6 996.16 236.16 996.16 225.72C996.16 215.28 1005.22 206.84 1016.43 206.84C1027.64 206.84 1036.7 215.28 1036.7 225.72C1036.7 236.16 1027.64 244.6 1016.43 244.6Z" />
		<g id="_2773386305168">
			<path id="Layer" fill-rule="evenodd" class="shp8" d="M624.09 60.33C624.01 60.46 621.29 65.71 619.82 67.25C592.73 52.56 592.39 67.52 579.64 83.14C568.08 97.32 554.92 92.67 557.32 123.89L674.89 124.62L735.73 124.24C734.07 101.27 724.7 103.78 711.2 93.91C696.64 83.28 704.19 73.85 672.97 79.31C661.86 51.64 650.71 57.16 624.09 60.33L624.09 60.33Z" />
			<path id="Layer" class="shp9" d="M650.04 100.19C636.54 100.19 625.62 90.02 625.62 77.44C625.62 64.86 636.54 54.69 650.04 54.69C663.54 54.69 674.46 64.86 674.46 77.44C674.46 90.02 663.54 100.19 650.04 100.19Z" />
			<path id="Layer" class="shp9" d="M606.79 107.65C593.29 107.65 582.37 97.48 582.37 84.9C582.37 72.32 593.29 62.15 606.79 62.15C620.29 62.15 631.21 72.32 631.21 84.9C631.21 97.48 620.29 107.65 606.79 107.65Z" />
			<path id="Layer" class="shp9" d="M683.34 111.48C672.13 111.48 663.07 103.04 663.07 92.6C663.07 82.16 672.13 73.72 683.34 73.72C694.55 73.72 703.61 82.16 703.61 92.6C703.61 103.04 694.55 111.48 683.34 111.48Z" />
		</g>
		<path id="Layer" fill-rule="evenodd" class="shp8" d="M255.32 265.39C255.23 265.52 252.52 270.77 251.05 272.31C223.96 257.63 223.61 272.59 210.87 288.21C199.3 302.39 186.15 297.73 188.55 328.95L306.12 329.68L366.96 329.3C365.3 306.34 355.93 308.84 342.43 298.98C327.87 288.34 335.42 278.91 304.2 284.38C293.09 256.71 281.94 262.22 255.32 265.39L255.32 265.39Z" />
		<path id="Layer" class="shp9" d="M281.26 305.26C267.76 305.26 256.84 295.09 256.84 282.51C256.84 269.93 267.76 259.76 281.26 259.76C294.76 259.76 305.68 269.93 305.68 282.51C305.68 295.09 294.76 305.26 281.26 305.26Z" />
		<path id="Layer" class="shp9" d="M238.02 312.72C224.52 312.72 213.6 302.55 213.6 289.97C213.6 277.39 224.52 267.22 238.02 267.22C251.52 267.22 262.44 277.39 262.44 289.97C262.44 302.55 251.52 312.72 238.02 312.72Z" />
		<path id="Layer" class="shp9" d="M314.57 316.54C303.36 316.54 294.3 308.1 294.3 297.66C294.3 287.22 303.36 278.78 314.57 278.78C325.78 278.78 334.84 287.22 334.84 297.66C334.84 308.1 325.78 316.54 314.57 316.54Z" />
		<path id="Layer" fill-rule="evenodd" class="shp10" d="M383.8 565.28L372.55 579.09L372.55 837.52L967.43 837.52L962.79 580.25L948.89 564.8L948.12 542.4L933.44 523.86L944.25 523.86L927.45 508.79C927.45 508.79 947.92 487.74 928.32 470.35C908.72 452.97 895.68 432.88 895.68 432.88C895.68 432.88 871.53 462.05 861.49 472.28C851.45 482.52 850.68 506.86 863.81 508.4L851.83 522.31L857.43 522.21L843.91 540.37L812.24 539.79L812.63 579.96L793.89 579.72L794.32 538.15C794.32 538.15 792.87 534.87 788.24 535.45L788.72 514.78L781.29 507.15L781.09 491.6L790.75 483.88L790.95 468.23L545.27 469.78L545.27 481.75L552.22 489.86L553.67 491.51L553.96 506.57L545.75 513.81L545.85 534.29L538.65 534.48L538.41 579.37L520.83 579.76L521.6 542.09L492.25 542.48L476.6 524.52L481.42 524.52L487.22 524.52L469.84 508.1C469.84 508.1 485.84 493.53 468.27 465.91C468.27 465.91 440.48 446.1 439.71 435.28C439.71 435.28 413.34 461.94 406.68 469.86C400.02 477.78 390.65 500.37 408.61 507.13L393.93 521.04L391.73 523.21L398.27 523.07L399.39 523.04L385.09 541.2L383.8 565.28L383.8 565.28Z" />
		<g id="Layer">
			<g id="_2773386310976">
				<path id="Layer" class="shp9" d="M807.21 790.8L838.89 790.8L838.89 839.86L807.21 839.86L807.21 790.8Z" />
				<path id="Layer" class="shp9" d="M746.95 789.45L778.63 789.45L778.63 838.51L746.95 838.51L746.95 789.45Z" />
				<path id="Layer" class="shp9" d="M685.92 788.68L717.6 788.68L717.6 837.74L685.92 837.74L685.92 788.68Z" />
				<path id="Layer" class="shp9" d="M613.29 787.91L644.97 787.91L644.97 836.97L613.29 836.97L613.29 787.91Z" />
				<path id="Layer" class="shp9" d="M553.81 790.23L585.49 790.23L585.49 839.29L553.81 839.29L553.81 790.23Z" />
				<path id="Layer" class="shp9" d="M493.55 791L525.23 791L525.23 840.06L493.55 840.06L493.55 791Z" />
				<path id="Layer" class="shp9" d="M521.14 565.21L383.8 565.28" />
				<path id="Layer" class="shp9" d="M536.29 579.22L368.73 579.29" />
				<path id="Layer" class="shp9" d="M948.8 566.48L812.5 566.55" />
				<path id="Layer" class="shp9" d="M962.23 580.84L791.17 580.9" />
				<path id="Layer" class="shp9" d="M362.33 507.06L500.7 508.32" />
				<path id="Layer" class="shp9" d="M518.63 524.43L385.41 523.14" />
				<path id="Layer" class="shp9" d="M848.93 508.34L960.99 508.73" />
				<path id="Layer" class="shp9" d="M842.48 525.26L958.77 526.89" />
			</g>
		</g>
		<path id="Layer" fill-rule="evenodd" class="shp7" d="M383.8 565.28L372.55 579.09L372.55 837.52L967.43 837.52L962.79 580.25L948.89 564.8L948.12 542.4L933.44 523.86L944.25 523.86L927.45 508.79C927.45 508.79 947.92 487.74 928.32 470.35C908.72 452.97 895.68 432.88 895.68 432.88C895.68 432.88 871.53 462.05 861.49 472.28C851.45 482.52 850.68 506.86 863.81 508.4L851.83 522.31L857.43 522.21L843.91 540.37L812.24 539.79L812.63 579.96L793.89 579.72L794.32 538.15C794.32 538.15 792.87 534.87 788.24 535.45L788.72 514.78L781.29 507.15L781.09 491.6L790.75 483.88L790.95 468.23L545.27 469.78L545.27 481.75L552.22 489.86L553.67 491.51L553.96 506.57L545.75 513.81L545.85 534.29L538.65 534.48L538.41 579.37L520.83 579.76L521.6 542.09L492.25 542.48L476.6 524.52L481.42 524.52L487.22 524.52L469.84 508.1C469.84 508.1 485.84 493.53 468.27 465.91C468.27 465.91 440.48 446.1 439.71 435.28C439.71 435.28 413.34 461.94 406.68 469.86C400.02 477.78 390.65 500.37 408.61 507.13L393.93 521.04L391.73 523.21L398.27 523.07L399.39 523.04L385.09 541.2L383.8 565.28L383.8 565.28Z" />
		<path id="Layer" class="shp9" d="M492.29 580.31L452.11 621.26L880.89 620.49L844.58 581.09L492.29 580.31Z" />
		<path id="Layer" class="shp9" d="M793.06 536.61L793.89 579.72L538.41 579.37L538.65 534.48L793.06 536.61Z" />
		<path id="Layer" class="shp9" d="M540.67 451.1L541.06 441.83L794.85 441.83L794.95 454.19" />
		<path id="Layer" class="shp9" d="M570.9 419.14L570.9 441.83L764.43 440.48L764.34 418.41L570.9 419.14Z" />
		<path id="Layer" fill-rule="evenodd" class="shp9" d="M690.96 392.25C697.7 393.11 702.92 398.87 702.92 405.85C702.92 413.43 696.78 419.57 689.21 419.57C681.64 419.57 675.5 413.43 675.5 405.85C675.5 402.18 676.94 398.85 679.29 396.39L654.2 395.9C657.35 398.41 659.37 402.28 659.37 406.63C659.37 414.2 653.23 420.34 645.65 420.34C638.08 420.34 631.94 414.2 631.94 406.63C631.94 399.94 636.74 394.36 643.08 393.16C641.45 374.68 667.61 360.49 667.61 360.49C688.02 369.7 690.88 384.84 690.96 392.25L690.96 392.25Z" />
		<path id="Layer" fill-rule="evenodd" class="shp9" d="M634.05 305.2L698.56 305.4C698.56 305.4 753.22 339.01 773.7 369.91C773.7 369.91 784.52 410.9 764.34 418.41L570.9 421.09C570.9 421.09 526.48 380.15 603.15 329.16L634.05 305.2L634.05 305.2Z" />
		<path id="Layer" class="shp9" d="M633.19 279.33L700.6 279.33L700.6 305.6L633.19 305.6L633.19 279.33Z" />
		<path id="Layer" class="shp9" d="M645.45 263.39L688.91 263.39L688.91 279.33L645.45 279.33L645.45 263.39Z" />
		<path id="Layer" fill-rule="evenodd" class="shp9" d="M668.62 199.17L668.64 199.17C673.47 199.17 677.42 203.12 677.42 207.95L677.42 263.39L659.84 263.39L659.84 207.95C659.84 203.12 663.79 199.17 668.62 199.17L668.62 199.17Z" />
		<path id="Layer" fill-rule="evenodd" class="shp9" d="M678.1 254.99C678.1 254.99 706 236.73 699.24 215.2C699.24 215.2 684.95 199.27 677.42 218.48L678.1 254.99L678.1 254.99Z" />
		<path id="Layer" fill-rule="evenodd" class="shp9" d="M659.84 212.88C659.84 212.88 642.56 203.8 636.96 213.85C631.36 223.89 634.78 245.47 659.51 255.71L659.84 212.88Z" />
		<path id="Layer" class="shp9" d="M495.63 621.18L526.92 621.18L526.92 660.83L495.63 660.83L495.63 621.18Z" />
		<path id="Layer" class="shp9" d="M557.05 621.18L588.34 621.18L588.34 660.83L557.05 660.83L557.05 621.18Z" />
		<path id="Layer" class="shp9" d="M616.54 622.73L647.83 622.73L647.83 662.38L616.54 662.38L616.54 622.73Z" />
		<path id="Layer" class="shp9" d="M686.84 620.8L718.13 620.8L718.13 660.45L686.84 660.45L686.84 620.8Z" />
		<path id="Layer" class="shp9" d="M747.49 620.41L778.78 620.41L778.78 660.06L747.49 660.06L747.49 620.41Z" />
		<path id="Layer" class="shp9" d="M808.91 620.41L840.2 620.41L840.2 660.06L808.91 660.06L808.91 620.41Z" />
		<path id="Layer" class="shp9" d="M490.61 673.19L528.85 673.58" />
		<path id="Layer" class="shp9" d="M554.34 672.68L592.58 673.06" />
		<path id="Layer" class="shp9" d="M612.67 673.84L650.91 674.22" />
		<path id="Layer" class="shp9" d="M684.13 673.06L722.37 673.45" />
		<path id="Layer" class="shp9" d="M745.16 674.22L783.41 674.61" />
		<path id="Layer" class="shp9" d="M802.72 673.06L840.96 673.45" />
		<path id="Layer" class="shp9" d="M440.39 664.31C433.45 664.31 427.84 658.7 427.84 651.76C427.84 644.82 433.45 639.21 440.39 639.21C447.33 639.21 452.94 644.82 452.94 651.76C452.94 658.7 447.33 664.31 440.39 664.31Z" />
		<path id="Layer" class="shp11" d="M415.28 675.71L400.21 691.74L476.89 690.77L463.76 676.48L415.28 675.71Z" />
		<path id="Layer" class="shp11" d="M871.87 676.28L856.61 692.7L878.24 692.43L934.26 691.73L919.96 676.09L871.87 676.28Z" />
		<path id="Layer" class="shp11" d="M878.53 742.68L912.96 743.05L912.36 695.04L878.91 695.45L878.53 742.68Z" />
		<path id="Layer" class="shp9" d="M872.59 753.73L922.04 754.12" />
		<path id="Layer" class="shp9" d="M823.15 685.94L823.34 782.13" />
		<path id="Layer" class="shp9" d="M763.27 687.29L763.66 781.16" />
		<path id="Layer" class="shp9" d="M703.21 685.94L703.59 779.8" />
		<path id="Layer" class="shp9" d="M630.58 686.71L630.97 780.58" />
		<path id="Layer" class="shp9" d="M571.87 683.62L572.25 777.49" />
		<path id="Layer" class="shp9" d="M511.61 689.8L511.99 783.67" />
		<path id="Layer" class="shp11" d="M423.13 695.32L423.5 743.59L458.27 743.2L457.66 694.88L423.13 695.32Z" />
		<path id="Layer" class="shp9" d="M897.79 662.56C891.38 662.56 886.2 657.42 886.2 651.07C886.2 644.72 891.38 639.58 897.79 639.58C904.2 639.58 909.38 644.72 909.38 651.07C909.38 657.42 904.2 662.56 897.79 662.56Z" />
		<path id="Layer" class="shp9" d="M883.5 780.76L907.26 780.76L907.26 806.83L883.5 806.83L883.5 780.76Z" />
		<path id="Layer" class="shp9" d="M558.25 551.31L558.21 579.4" />
		<path id="Layer" class="shp9" d="M577 551.5L576.96 579.59" />
		<path id="Layer" class="shp9" d="M593.8 551.5L593.76 579.59" />
		<path id="Layer" class="shp9" d="M611.18 552.08L611.14 580.17" />
		<path id="Layer" class="shp9" d="M723.21 551.69L723.17 579.78" />
		<path id="Layer" class="shp9" d="M741.75 551.31L741.71 579.4" />
		<path id="Layer" class="shp9" d="M759.52 550.53L759.48 578.62" />
		<path id="Layer" class="shp9" d="M776.51 550.15L776.47 578.24" />
		<path id="Layer" class="shp9" d="M569.74 497.37L587.89 497.95" />
		<path id="Layer" class="shp9" d="M604.33 498.74L622.48 499.32" />
		<path id="Layer" class="shp9" d="M637.55 498.35L655.7 498.93" />
		<path id="Layer" class="shp9" d="M677.72 498.35L695.88 498.93" />
		<path id="Layer" class="shp9" d="M713.45 498.92L731.61 499.5" />
		<path id="Layer" class="shp9" d="M747.46 498.28L765.62 498.86" />
		<path id="Layer" class="shp9" d="M559.41 444.45L559.51 452.76" />
		<path id="Layer" class="shp9" d="M580.37 443.87L580.46 452.18" />
		<path id="Layer" class="shp9" d="M599.39 443.68L599.49 451.99" />
		<path id="Layer" class="shp9" d="M619.86 443.2L619.96 451.5" />
		<path id="Layer" class="shp9" d="M658.83 443.97L658.93 452.28" />
		<path id="Layer" class="shp9" d="M639.9 443.2L640 451.5" />
		<path id="Layer" class="shp9" d="M696.11 444.74L696.2 453.05" />
		<path id="Layer" class="shp9" d="M716.58 443.59L716.67 451.89" />
		<path id="Layer" class="shp9" d="M735.51 444.16L735.6 452.47" />
		<path id="Layer" class="shp9" d="M755.4 443.97L755.5 452.28" />
		<path id="Layer" class="shp9" d="M775.1 443.59L775.2 451.89" />
		<path id="Layer" class="shp9" d="M426.53 779.17L454.34 779.17L454.34 811.62L426.53 811.62L426.53 779.17Z" />
		<path id="Layer" class="shp9" d="M881.47 777.57L909.28 777.57L909.28 810.02L881.47 810.02L881.47 777.57Z" />
		<path id="Layer" class="shp9" d="M414.52 756.34L463.97 756.73" />
		<path id="Layer" class="shp9" d="M323.91 855.74L1021.76 855.74" />
	</g>
</svg>