<?xml version="1.0" encoding="UTF-8"?>
<!DOCTYPE svg PUBLIC "-//W3C//DTD SVG 1.1//EN" "http://www.w3.org/Graphics/SVG/1.1/DTD/svg11.dtd">
<!-- Creator: CorelDRAW 2020 (64-Bit) -->
<svg xmlns="http://www.w3.org/2000/svg" xml:space="preserve" width="12.7mm" height="12.7mm" version="1.1" style="shape-rendering:geometricPrecision; text-rendering:geometricPrecision; image-rendering:optimizeQuality; fill-rule:evenodd; clip-rule:evenodd"
viewBox="0 0 1270 1270"
 xmlns:xlink="http://www.w3.org/1999/xlink"
 xmlns:xodm="http://www.corel.com/coreldraw/odm/2003">
 <defs>
  <style type="text/css">
   <![CDATA[
    .str1 {stroke:#663333;stroke-width:20;stroke-miterlimit:22.9256}
    .str0 {stroke:#F4F4F4;stroke-width:20;stroke-miterlimit:22.9256}
    .str2 {stroke:#663333;stroke-width:7.62;stroke-miterlimit:22.9256}
    .fil0 {fill:none}
    .fil4 {fill:#3A9A46}
    .fil6 {fill:#60BFC0}
    .fil9 {fill:#663333}
    .fil5 {fill:#7AC8C9}
    .fil1 {fill:#8DC9F6}
    .fil7 {fill:#9DD8D9}
    .fil2 {fill:#AED9F7}
    .fil3 {fill:#C6E4F8}
    .fil8 {fill:#F4F4F4}
    .fil10 {fill:white}
   ]]>
  </style>
   <clipPath id="id0">
    <path d="M635 38.64c282.6,0 511.69,229.09 511.69,511.69 0,282.59 -229.09,511.68 -511.69,511.68 -282.59,0 -511.68,-229.09 -511.68,-511.68 0,-282.6 229.09,-511.69 511.68,-511.69z"/>
   </clipPath>
   <clipPath id="id1">
    <path d="M576.21 464.78l134.16 0 0 415.06 -134.16 0 0 -415.06z"/>
   </clipPath>
   <clipPath id="id2">
    <path d="M203.32 722.69l355.37 0 0 155.5 -355.37 0 0 -155.5z"/>
   </clipPath>
   <clipPath id="id3">
    <path d="M727.89 722.69l355.37 0 0 155.5 -355.37 0 0 -155.5z"/>
   </clipPath>
   <clipPath id="id4">
    <path d="M90.52 661.91l97.46 0 0 217.38 -97.46 0 0 -217.38z"/>
   </clipPath>
   <clipPath id="id5">
    <path d="M1099.14 661.91l97.47 0 0 217.38 -97.47 0 0 -217.38z"/>
   </clipPath>
 </defs>
 <g id="Layer_x0020_1">
  <metadata id="CorelCorpID_0Corel-Layer"/>
  <rect class="fil0" width="1270" height="1270"/>
  <rect class="fil0" width="1270" height="1270"/>
  <path class="fil1" d="M635 38.64c282.6,0 511.69,229.09 511.69,511.69 0,282.59 -229.09,511.68 -511.69,511.68 -282.59,0 -511.68,-229.09 -511.68,-511.68 0,-282.6 229.09,-511.69 511.68,-511.69z"/>
  <g style="clip-path:url(#id0)">
   <g id="_1770663219280">
    <circle class="fil2" cx="635" cy="653.22" r="511.69"/>
    <circle class="fil3" cx="635" cy="796.4" r="511.69"/>
    <path class="fil4" d="M367.89 722.94c-42.61,-5.86 -61.01,14.52 -69.26,48.91 -7.84,5.52 2.68,0.37 -7.9,3.04 -17.76,4.47 -62.77,3.32 -57.99,68.78l-32.56 5.62 34.84 74.13 152.76 0.58c15.03,-52.15 39.42,-38.38 96.3,-39.54l0.76 -162.46c-40.89,-23.99 -62.5,-21.3 -89.15,17.1 -8.28,-3.37 -16.47,-10.39 -27.8,-16.16z"/>
    <path class="fil4" d="M967.38 722.94c42.61,-5.86 61.01,14.52 69.26,48.91 7.84,5.52 -2.68,0.37 7.9,3.04 17.76,4.47 62.77,3.32 57.99,68.78l32.56 5.62 -34.84 74.13 -152.76 0.58c-15.03,-52.15 -39.42,-38.38 -96.3,-39.54l-0.76 -162.46c40.89,-23.99 62.5,-21.3 89.15,17.1 8.28,-3.37 16.47,-10.39 27.8,-16.16z"/>
    <path class="fil5" d="M44.93 938.57c10.35,22.15 152.67,128.11 186.63,141.17 25.25,-18.93 60.79,8.75 62.23,15.44 24.39,-29.73 63.05,-26.52 91.17,-2.39 46.95,-40.3 79.47,-6.11 92.41,0.27 48.74,-44.25 83.46,-1.82 88.72,1.47 42.49,-30.35 47.08,-27.98 88.72,-1.79 56.9,-42.13 89.23,-1.04 89.97,2.44 24.49,-29.85 62.78,-26.75 91.17,-2.39 14.83,-12.73 21.13,-17.68 48.1,-18.1 26.15,-0.42 32.08,9.55 43.68,22.46 17.15,-23.38 57.43,-38.21 84.84,-3.16 10.85,-5.13 48.07,-43.33 93.23,-1.25 20.55,-15.22 22.03,-19.17 57.93,-18.8l-8.78 16.78c37.66,-12.6 188.97,-125.39 206.19,-152.65 -30.41,-15.68 -55.09,0.41 -73.27,15.55 -37.21,-30.17 -55.47,-27.52 -93.22,-0.67 -8.8,-9.67 -24.47,-20.07 -44.69,-20.88 -21.28,-0.84 -31.66,13.01 -44.16,19.6 -56.05,-29.27 -39.48,-27.69 -91.95,1.28 -50.07,-38.24 -45.69,-20.82 -89.18,1.01 -33.47,-30.77 -56.36,-27.4 -88.65,-1.32 -37.92,-30.08 -56.24,-25.38 -92.37,0.31 -7.87,-8.66 -26.44,-20.81 -44.47,-21.14 -21.44,-0.4 -31.76,13.21 -44.37,19.86 -14.98,-8.34 -25.73,-21.01 -47.9,-19.84 -23.89,1.25 -28.83,15.65 -45.73,21.98 -34.31,-41.15 -55.33,-16.43 -88.43,0.59 -23.33,-32.69 -58.01,-25.76 -87.72,-1.76 -37.56,-29.79 -56.16,-25.44 -92.37,0.31 -7.2,-7.91 -27.1,-21.09 -44.32,-21.2 -21.62,-0.13 -31.74,13.15 -44.52,19.96 -16.69,-8.22 -45.82,-42.96 -87.01,3.07l-10.33 -7.24c-5.15,-3.99 0.4,-0.28 -6.27,-5.25 -4.84,-3.61 -10.7,-7.04 -16.94,-8.53 -14.27,-3.39 -27.69,1.37 -38.34,4.81z"/>
    <path class="fil6" d="M44.93 938.57c10.65,-3.44 24.07,-8.2 38.34,-4.81 6.24,1.49 12.1,4.92 16.94,8.53 6.67,4.97 1.12,1.26 6.27,5.25l10.33 7.24c41.19,-46.03 70.32,-11.29 87.01,-3.07 12.78,-6.81 22.9,-20.09 44.52,-19.96 17.22,0.11 37.12,13.29 44.32,21.2 36.21,-25.75 54.81,-30.1 92.37,-0.31 29.71,-24 64.39,-30.93 87.72,1.76 33.1,-17.02 54.12,-41.74 88.43,-0.59 16.9,-6.33 21.84,-20.73 45.73,-21.98 22.17,-1.17 32.92,11.5 47.9,19.84 12.61,-6.65 22.93,-20.26 44.37,-19.86 18.03,0.33 36.6,12.48 44.47,21.14 36.13,-25.69 54.45,-30.39 92.37,-0.31 32.29,-26.08 55.18,-29.45 88.65,1.32 43.49,-21.83 39.11,-39.25 89.18,-1.01 52.47,-28.97 35.9,-30.55 91.95,-1.28 12.5,-6.59 22.88,-20.44 44.16,-19.6 20.22,0.81 35.89,11.21 44.69,20.88 37.75,-26.85 56.01,-29.5 93.22,0.67 18.18,-15.14 42.86,-31.23 73.27,-15.55 13.69,-10.44 61.98,-59.25 70.52,-76.46 -23.42,-1.22 -28.4,-0.45 -44.03,11.49 -7.12,5.44 0.11,2.66 -11.97,8.3 -13.12,-7.88 -22.86,-22.65 -47.82,-20.01 -21.22,2.25 -29.89,13.01 -41.15,21.25 -15.15,-12.17 -19.33,-20.84 -44.13,-20.81 -29.51,0.04 -29.77,7.8 -48.04,18.35 -38.42,-37.6 -69.46,-11.54 -88.72,0.34 -61.31,-36.49 -51.95,-16.7 -92.41,-0.63 -39.54,-29.19 -54.01,-24.9 -88.51,2.75 -12.42,-9.84 -18.07,-22.54 -44.47,-21.16 -24.02,1.25 -32.81,13.64 -49.64,19.67 -9.19,-14.46 -19.75,-19.42 -42.78,-19.38 -24.62,0.05 -29.07,9.52 -44.46,18.41 -39.3,-38.47 -71.07,-10.54 -88.72,0.34 -39.63,-22.62 -50.52,-32.39 -91.37,1.02 -36.36,-29.33 -53.3,-27.89 -89.51,1.14 -28.17,-30.67 -57.21,-26.82 -88.97,-2.26 -7.58,-3.38 -1.2,-0.34 -7.26,-4.44 -41.49,-28.08 -57.86,-11.56 -85.16,4.2 -9.11,-8.91 -25.93,-19.18 -44.35,-19.33 -22.14,-0.18 -32.03,12.06 -44.37,19.67 -12.28,-5.65 -44.18,-44.08 -89.08,2.41 -8.35,-5.77 -29.68,-35.29 -71.19,-15.25l-20.87 12.84c-15.36,-11.99 -21.82,-17.86 -49.13,-18.15 14.09,21.3 53.33,62.16 71.38,76.2z"/>
    <path class="fil7" d="M626.4 1205.05l152.98 -0.01 52.86 -6.87c39.49,-5.47 170.42,-35.68 196.4,-47.45l120.2 -54.21c4.41,-3.46 3.92,-3.49 6.11,-5.79l8.78 -16.78c-35.9,-0.37 -37.38,3.58 -57.93,18.8 -45.16,-42.08 -82.38,-3.88 -93.23,1.25 -27.41,-35.05 -67.69,-20.22 -84.84,3.16 -11.6,-12.91 -17.53,-22.88 -43.68,-22.46 -26.97,0.42 -33.27,5.37 -48.1,18.1 -28.39,-24.36 -66.68,-27.46 -91.17,2.39 -0.74,-3.48 -33.07,-44.57 -89.97,-2.44 -41.64,-26.19 -46.23,-28.56 -88.72,1.79 -5.26,-3.29 -39.98,-45.72 -88.72,-1.47 -12.94,-6.38 -45.46,-40.57 -92.41,-0.27 -28.12,-24.13 -66.78,-27.34 -91.17,2.39 -1.44,-6.69 -36.98,-34.37 -62.23,-15.44 25.54,25.06 151.65,73.18 178.68,81.43 84.47,25.77 119.74,30.69 203.74,40.38l12.42 3.5z"/>
   </g>
  </g>
  <path class="fil0" d="M635 38.64c282.6,0 511.69,229.09 511.69,511.69 0,282.59 -229.09,511.68 -511.69,511.68 -282.59,0 -511.68,-229.09 -511.68,-511.68 0,-282.6 229.09,-511.69 511.68,-511.69z"/>
  <path class="fil8" d="M930.18 231.44c-0.09,0.14 -2.81,5.39 -4.28,6.93 -27.08,-14.69 -27.43,0.27 -40.17,15.89 -11.57,14.18 -24.73,9.53 -22.33,40.75l117.57 0.73 60.84 -0.38c-1.65,-22.97 -11.03,-20.46 -24.52,-30.33 -14.56,-10.63 -7.01,-20.06 -38.23,-14.6 -11.11,-27.67 -22.27,-22.15 -48.88,-18.99z"/>
  <ellipse class="fil0 str0" cx="956.12" cy="248.56" rx="24.42" ry="22.75"/>
  <ellipse class="fil0 str0" cx="912.88" cy="256.02" rx="24.42" ry="22.75"/>
  <ellipse class="fil0 str0" cx="989.43" cy="263.72" rx="20.27" ry="18.88"/>
  <g id="_1770663245392">
   <path class="fil8" d="M597.09 98.33c-0.08,0.13 -2.8,5.38 -4.27,6.92 -27.09,-14.69 -27.43,0.27 -40.18,15.89 -11.56,14.18 -24.72,9.53 -22.32,40.75l117.57 0.73 60.84 -0.38c-1.66,-22.97 -11.03,-20.46 -24.53,-30.33 -14.56,-10.63 -7.01,-20.06 -38.23,-14.6 -11.11,-27.67 -22.26,-22.15 -48.88,-18.98z"/>
   <ellipse class="fil0 str0" cx="623.04" cy="115.44" rx="24.42" ry="22.75"/>
   <ellipse class="fil0 str0" cx="579.79" cy="122.9" rx="24.42" ry="22.75"/>
   <ellipse class="fil0 str0" cx="656.34" cy="130.6" rx="20.27" ry="18.88"/>
  </g>
  <path class="fil8" d="M228.32 303.39c-0.09,0.13 -2.8,5.38 -4.27,6.92 -27.09,-14.68 -27.44,0.28 -40.18,15.9 -11.57,14.18 -24.72,9.52 -22.32,40.74l117.57 0.73 60.84 -0.38c-1.66,-22.96 -11.03,-20.46 -24.53,-30.32 -14.56,-10.64 -7.01,-20.07 -38.23,-14.6 -11.11,-27.67 -22.26,-22.16 -48.88,-18.99z"/>
  <ellipse class="fil0 str0" cx="254.26" cy="320.51" rx="24.42" ry="22.75"/>
  <ellipse class="fil0 str0" cx="211.02" cy="327.97" rx="24.42" ry="22.75"/>
  <ellipse class="fil0 str0" cx="287.57" cy="335.66" rx="20.27" ry="18.88"/>
  <rect class="fil9" x="205.51" y="655.89" width="355.37" height="50.38"/>
  <rect class="fil9" x="726.79" y="656.98" width="355.37" height="50.38"/>
  <polygon class="fil9" points="576.21,464.78 710.37,464.78 710.37,879.84 576.21,879.84 "/>
  <g style="clip-path:url(#id1)">
   <g id="_1770663255712">
    <path id="1" class="fil10 str1" d="M644.33 756.1l0.01 0c20.49,0 37.24,16.75 37.24,37.23l0 88.71 -74.47 0 0 -88.71c0,-20.48 16.74,-37.23 37.22,-37.23z"/>
   </g>
  </g>
  <polygon class="fil0 str1" points="576.21,464.78 710.37,464.78 710.37,879.84 576.21,879.84 "/>
  <polygon class="fil9" points="203.32,722.69 558.69,722.69 558.69,878.19 203.32,878.19 "/>
  <g style="clip-path:url(#id2)">
   <g id="_1770663256816">
    <rect class="fil10 str1" x="247.07" y="817.42" width="50.92" height="74.47" rx="25.46" ry="25.46"/>
    <rect class="fil10 str1" x="357.13" y="817.42" width="50.92" height="74.47" rx="25.46" ry="25.46"/>
    <rect class="fil10 str1" x="466.64" y="817.42" width="50.92" height="74.47" rx="25.46" ry="25.46"/>
   </g>
  </g>
  <polygon class="fil0" points="203.32,722.69 558.69,722.69 558.69,878.19 203.32,878.19 "/>
  <polygon class="fil9" points="727.89,722.69 1083.26,722.69 1083.26,878.19 727.89,878.19 "/>
  <g style="clip-path:url(#id3)">
   <g id="_1770663261232">
    <rect class="fil10 str1" x="770" y="817.42" width="50.92" height="74.47" rx="25.46" ry="25.46"/>
    <rect class="fil10 str1" x="879.51" y="817.42" width="50.92" height="74.47" rx="25.46" ry="25.46"/>
    <rect class="fil10 str1" x="987.93" y="817.42" width="50.92" height="74.47" rx="25.46" ry="25.46"/>
   </g>
  </g>
  <polygon class="fil0" points="727.89,722.69 1083.26,722.69 1083.26,878.19 727.89,878.19 "/>
  <polygon class="fil9" points="90.52,661.91 187.98,661.91 187.98,879.29 90.52,879.29 "/>
  <g style="clip-path:url(#id4)">
   <g id="_1770663263104">
    <rect class="fil10 str1" x="117.29" y="817.42" width="50.92" height="74.47" rx="25.46" ry="25.46"/>
   </g>
  </g>
  <polygon class="fil0" points="90.52,661.91 187.98,661.91 187.98,879.29 90.52,879.29 "/>
  <polygon class="fil9" points="1099.14,661.91 1196.61,661.91 1196.61,879.29 1099.14,879.29 "/>
  <g style="clip-path:url(#id5)">
   <g id="_1770663266368">
    <rect class="fil10 str1" x="1123.73" y="817.42" width="50.92" height="74.47" rx="25.46" ry="25.46"/>
   </g>
  </g>
  <polygon class="fil0" points="1099.14,661.91 1196.61,661.91 1196.61,879.29 1099.14,879.29 "/>
  <path class="fil9" d="M166.08 572.38l-51.47 -0.28 -21.9 71.19 34.49 0c0,0 12.05,-42.17 31.21,0.82l29.57 -0.28 -21.9 -71.45z"/>
  <polygon class="fil9" points="237.54,587.71 276.69,587.71 294.76,640.55 220.02,641.1 "/>
  <polygon class="fil9" points="1012.49,590.58 1051.64,590.58 1069.71,643.42 994.96,643.97 "/>
  <rect class="fil9 str1" x="119.12" y="541.98" width="45.59" height="17.11" rx="5.34" ry="5.34"/>
  <line class="fil0 str2" x1="141.84" y1="502.82" x2="141.91" y2= "541.98" />
  <line class="fil0 str2" x1="124.13" y1="519.28" x2="124.2" y2= "541.98" />
  <line class="fil0 str2" x1="161.73" y1="520.1" x2="161.8" y2= "542.8" />
  <rect class="fil9" x="239.91" y="572.46" width="37.37" height="11.68" rx="4.38" ry="3.64"/>
  <line class="fil0 str2" x1="246.03" y1="551.42" x2="246.11" y2= "571.45" />
  <line class="fil0 str2" x1="257.53" y1="539.25" x2="257.6" y2= "571.32" />
  <line class="fil0 str2" x1="269.14" y1="550.75" x2="269.21" y2= "570.78" />
  <path class="fil9" d="M1171.42 571.28l-51.47 -0.27 -21.91 71.18 34.5 0c0,0 12.05,-42.16 31.21,0.82l29.57 -0.27 -21.9 -71.46z"/>
  <rect class="fil9 str1" x="1121.96" y="542.96" width="45.59" height="17.11" rx="5.34" ry="5.34"/>
  <line class="fil0 str2" x1="1144.68" y1="503.81" x2="1144.76" y2= "542.96" />
  <line class="fil0 str2" x1="1126.97" y1="520.27" x2="1127.04" y2= "542.96" />
  <line class="fil0 str2" x1="1164.57" y1="521.09" x2="1164.64" y2= "543.79" />
  <ellipse class="fil10" cx="141.95" cy="667.12" rx="10.4" ry="15.88"/>
  <ellipse class="fil10" cx="1147.88" cy="661.91" rx="10.4" ry="15.88"/>
  <rect class="fil10" x="596.42" y="608.53" width="97.47" height="30.66"/>
  <path class="fil10 str1" d="M624.21 531.32l0 0c10.62,0 19.3,8.68 19.3,19.31l0 56.53 -38.6 0 0 -56.53c0,-10.63 8.68,-19.31 19.3,-19.31z"/>
  <path class="fil10 str1" d="M663.91 531.32l0 0c10.62,0 19.3,8.68 19.3,19.31l0 56.53 -38.6 0 0 -56.53c0,-10.63 8.68,-19.31 19.3,-19.31z"/>
  <rect class="fil10" x="226.81" y="768.69" width="315.4" height="23"/>
  <rect class="fil10" x="742.62" y="769.78" width="315.4" height="23"/>
  <rect class="fil10" x="114.28" y="750.34" width="55.31" height="13.96"/>
  <rect class="fil10" x="1117.69" y="749.93" width="55.31" height="13.96"/>
  <path class="fil10" d="M1130.9 748.97l0 -33.95c0,-3.84 3.14,-6.98 6.98,-6.98l0 0c3.84,0 6.98,3.14 6.98,6.98l0 33.95 -13.96 0z"/>
  <path class="fil10" d="M1146.99 748.97l0 -33.95c0,-3.84 3.14,-6.98 6.98,-6.98l0 0c3.84,0 6.98,3.14 6.98,6.98l0 33.95 -13.96 0z"/>
  <path class="fil10" d="M124.54 749.72l0 -33.95c0,-3.84 3.14,-6.98 6.98,-6.98l0 0c3.84,0 6.98,3.14 6.98,6.98l0 33.95 -13.96 0z"/>
  <path class="fil10" d="M140.62 749.72l0 -33.95c0,-3.84 3.14,-6.98 6.98,-6.98l0 0c3.84,0 6.98,3.14 6.98,6.98l0 33.95 -13.96 0z"/>
  <path class="fil10" d="M241.78 767.99l0 -19.93c0,-3.84 3.14,-6.98 6.98,-6.98l0 0c3.84,0 6.98,3.14 6.98,6.98l0 19.93 -13.96 0z"/>
  <path class="fil10" d="M257.86 767.99l0 -19.93c0,-3.84 3.15,-6.98 6.98,-6.98l0 0c3.85,0 6.98,3.14 6.98,6.98l0 19.93 -13.96 0z"/>
  <path class="fil10" d="M306.25 767.99l0 -19.93c0,-3.84 3.14,-6.98 6.98,-6.98l0 0c3.84,0 6.98,3.14 6.98,6.98l0 19.93 -13.96 0z"/>
  <path class="fil10" d="M322.34 767.99l0 -19.93c0,-3.84 3.14,-6.98 6.98,-6.98l0 0c3.84,0 6.98,3.14 6.98,6.98l0 19.93 -13.96 0z"/>
  <path class="fil10" d="M366.35 767.31l0 -19.93c0,-3.84 3.14,-6.98 6.98,-6.98l0 0c3.84,0 6.98,3.14 6.98,6.98l0 19.93 -13.96 0z"/>
  <path class="fil10" d="M382.44 767.31l0 -19.93c0,-3.84 3.14,-6.98 6.98,-6.98l0 0c3.84,0 6.97,3.14 6.97,6.98l0 19.93 -13.95 0z"/>
  <path class="fil10" d="M432.46 767.68l0 -19.93c0,-3.84 3.14,-6.98 6.98,-6.98l0 0c3.84,0 6.98,3.14 6.98,6.98l0 19.93 -13.96 0z"/>
  <path class="fil10" d="M448.55 767.68l0 -19.93c0,-3.84 3.14,-6.98 6.98,-6.98l0 0c3.84,0 6.98,3.14 6.98,6.98l0 19.93 -13.96 0z"/>
  <path class="fil10" d="M493.24 766.59l0 -19.93c0,-3.84 3.14,-6.98 6.98,-6.98l0 0c3.84,0 6.98,3.14 6.98,6.98l0 19.93 -13.96 0z"/>
  <path class="fil10" d="M509.33 766.59l0 -19.93c0,-3.84 3.14,-6.98 6.98,-6.98l0 0c3.84,0 6.98,3.14 6.98,6.98l0 19.93 -13.96 0z"/>
  <path class="fil10" d="M762.17 769.32l0 -19.93c0,-3.84 3.14,-6.98 6.98,-6.98l0 0c3.84,0 6.98,3.14 6.98,6.98l0 19.93 -13.96 0z"/>
  <path class="fil10" d="M778.25 769.32l0 -19.93c0,-3.84 3.14,-6.98 6.98,-6.98l0 0c3.84,0 6.98,3.14 6.98,6.98l0 19.93 -13.96 0z"/>
  <path class="fil10" d="M824.52 767.95l0 -19.93c0,-3.84 3.14,-6.98 6.98,-6.98l0 0c3.84,0 6.98,3.14 6.98,6.98l0 19.93 -13.96 0z"/>
  <path class="fil10" d="M840.61 767.95l0 -19.93c0,-3.84 3.14,-6.98 6.98,-6.98l0 0c3.84,0 6.98,3.14 6.98,6.98l0 19.93 -13.96 0z"/>
  <path class="fil10" d="M888.59 768.5l0 -19.93c0,-3.84 3.14,-6.98 6.98,-6.98l0 0c3.84,0 6.98,3.14 6.98,6.98l0 19.93 -13.96 0z"/>
  <path class="fil10" d="M904.67 768.5l0 -19.93c0,-3.84 3.15,-6.98 6.98,-6.98l0 0c3.85,0 6.98,3.14 6.98,6.98l0 19.93 -13.96 0z"/>
  <path class="fil10" d="M950.19 768.5l0 -19.93c0,-3.84 3.14,-6.98 6.98,-6.98l0 0c3.84,0 6.98,3.14 6.98,6.98l0 19.93 -13.96 0z"/>
  <path class="fil10" d="M966.28 768.5l0 -19.93c0,-3.84 3.14,-6.98 6.98,-6.98l0 0c3.84,0 6.98,3.14 6.98,6.98l0 19.93 -13.96 0z"/>
  <path class="fil10" d="M1015.35 769.6l0 -19.93c0,-3.84 3.14,-6.98 6.98,-6.98l0 0c3.84,0 6.98,3.14 6.98,6.98l0 19.93 -13.96 0z"/>
  <path class="fil10" d="M1031.44 769.6l0 -19.93c0,-3.84 3.14,-6.98 6.98,-6.98l0 0c3.84,0 6.98,3.14 6.98,6.98l0 19.93 -13.96 0z"/>
  <g id="_1770912553552">
   <path class="fil9 str1" d="M667.5 379.74l-51.47 -0.27 -21.9 71.18 34.5 0c0,0 12.04,-42.16 31.21,0.83l29.57 -0.28 -21.91 -71.46z"/>
   <rect class="fil9 str1" x="620.54" y="349.35" width="45.59" height="17.11" rx="5.34" ry="5.34"/>
   <line class="fil0 str1" x1="643.26" y1="310.19" x2="643.34" y2= "349.35" />
   <line class="fil0 str1" x1="625.55" y1="326.65" x2="625.62" y2= "349.35" />
   <line class="fil0 str1" x1="663.15" y1="327.47" x2="663.22" y2= "350.17" />
  </g>
  <circle class="fil9" cx="645.05" cy="466.53" r="15.47"/>
  <rect class="fil9" x="1014.54" y="570.72" width="37.37" height="11.68" rx="4.38" ry="3.64"/>
  <line class="fil0 str2" x1="1019.96" y1="551.42" x2="1020.03" y2= "571.45" />
  <line class="fil0 str2" x1="1033.21" y1="539.04" x2="1033.28" y2= "571.11" />
  <line class="fil0 str2" x1="1046.57" y1="551.84" x2="1046.64" y2= "571.87" />
 </g>
</svg>
