<svg xmlns="http://www.w3.org/2000/svg" viewBox="0 0 1459 1271" width="1459" height="1271">
	<style>
		tspan { white-space:pre }
		.shp0 { fill: #8dc9f6 } 
		.shp1 { fill: #aed9f7 } 
		.shp2 { fill: #c6e4f8 } 
		.shp3 { fill: #3a9a46 } 
		.shp4 { fill: #7ac8c9 } 
		.shp5 { fill: #60bfc0 } 
		.shp6 { fill: #9dd8d9 } 
		.shp7 { fill: none } 
		.shp8 { fill: #f4f4f4 } 
		.shp9 { fill: #663333 } 
		.shp10 { fill: #000000 } 
		.shp11 { fill: #ffffff } 
	</style>
	<g id="Layer_x0020_1">
		<path id="Layer" fill-rule="evenodd" class="shp0" d="M662 0.64C944.6 0.64 1173.69 229.73 1173.69 512.33C1173.69 794.92 944.6 1024.01 662 1024.01C379.41 1024.01 150.32 794.92 150.32 512.33C150.32 229.73 379.41 0.64 662 0.64L662 0.64Z" />
		<g id="Layer">
			<g id="_2773552951056">
				<path id="Layer" class="shp1" d="M662 1126.91C379.04 1126.91 150.31 898.18 150.31 615.22C150.31 332.26 379.04 103.53 662 103.53C944.96 103.53 1173.69 332.26 1173.69 615.22C1173.69 898.18 944.96 1126.91 662 1126.91Z" />
				<path id="Layer" class="shp2" d="M662 1270.09C379.04 1270.09 150.31 1041.36 150.31 758.4C150.31 475.44 379.04 246.71 662 246.71C944.96 246.71 1173.69 475.44 1173.69 758.4C1173.69 1041.36 944.96 1270.09 662 1270.09Z" />
				<path id="Layer" fill-rule="evenodd" class="shp3" d="M394.89 684.94C352.28 679.08 333.88 699.46 325.63 733.85C317.79 739.37 328.31 734.22 317.73 736.89C299.97 741.36 254.96 740.21 259.74 805.67L227.18 811.29L262.02 885.42L414.78 886C429.81 833.85 454.2 847.62 511.08 846.46L511.84 684C470.95 660.01 449.34 662.7 422.69 701.1C414.41 697.73 406.22 690.71 394.89 684.94L394.89 684.94Z" />
				<path id="Layer" fill-rule="evenodd" class="shp3" d="M994.38 684.94C1036.99 679.08 1055.39 699.46 1063.64 733.85C1071.48 739.37 1060.96 734.22 1071.54 736.89C1089.3 741.36 1134.31 740.21 1129.53 805.67L1162.09 811.29L1127.25 885.42L974.49 886C959.46 833.85 935.07 847.62 878.19 846.46L877.43 684C918.32 660.01 939.93 662.7 966.58 701.1C974.86 697.73 983.05 690.71 994.38 684.94L994.38 684.94Z" />
				<path id="Layer" fill-rule="evenodd" class="shp4" d="M71.93 900.57C82.28 922.72 224.6 1028.68 258.56 1041.74C283.81 1022.81 319.35 1050.49 320.79 1057.18C345.18 1027.45 383.84 1030.66 411.96 1054.79C458.91 1014.49 491.43 1048.68 504.37 1055.06C553.11 1010.81 587.83 1053.24 593.09 1056.53C635.58 1026.18 640.17 1028.55 681.81 1054.74C738.71 1012.61 771.04 1053.7 771.78 1057.18C796.27 1027.33 834.56 1030.43 862.95 1054.79C877.78 1042.06 884.08 1037.11 911.05 1036.69C937.2 1036.27 943.13 1046.24 954.73 1059.15C971.88 1035.77 1012.16 1020.94 1039.57 1055.99C1050.42 1050.86 1087.64 1012.66 1132.8 1054.74C1153.35 1039.52 1154.83 1035.57 1190.73 1035.94L1181.95 1052.72C1219.61 1040.12 1370.92 927.33 1388.14 900.07C1357.73 884.39 1333.05 900.48 1314.87 915.62C1277.66 885.45 1259.4 888.1 1221.65 914.95C1212.85 905.28 1197.18 894.88 1176.96 894.07C1155.68 893.23 1145.3 907.08 1132.8 913.67C1076.75 884.4 1093.32 885.98 1040.85 914.95C990.78 876.71 995.16 894.13 951.67 915.96C918.2 885.19 895.31 888.56 863.02 914.64C825.1 884.56 806.78 889.26 770.65 914.95C762.78 906.29 744.21 894.14 726.18 893.81C704.74 893.41 694.42 907.02 681.81 913.67C666.83 905.33 656.08 892.66 633.91 893.83C610.02 895.08 605.08 909.48 588.18 915.81C553.87 874.66 532.85 899.38 499.75 916.4C476.42 883.71 441.74 890.64 412.03 914.64C374.47 884.85 355.87 889.2 319.66 914.95C312.46 907.04 292.56 893.86 275.34 893.75C253.72 893.62 243.6 906.9 230.82 913.71C214.13 905.49 185 870.75 143.81 916.78L133.48 909.54C128.33 905.55 133.88 909.26 127.21 904.29C122.37 900.68 116.51 897.25 110.27 895.76C96 892.37 82.58 897.13 71.93 900.57L71.93 900.57Z" />
				<path id="Layer" fill-rule="evenodd" class="shp5" d="M71.93 900.57C82.58 897.13 96 892.37 110.27 895.76C116.51 897.25 122.37 900.68 127.21 904.29C133.88 909.26 128.33 905.55 133.48 909.54L143.81 916.78C185 870.75 214.13 905.49 230.82 913.71C243.6 906.9 253.72 893.62 275.34 893.75C292.56 893.86 312.46 907.04 319.66 914.95C355.87 889.2 374.47 884.85 412.03 914.64C441.74 890.64 476.42 883.71 499.75 916.4C532.85 899.38 553.87 874.66 588.18 915.81C605.08 909.48 610.02 895.08 633.91 893.83C656.08 892.66 666.83 905.33 681.81 913.67C694.42 907.02 704.74 893.41 726.18 893.81C744.21 894.14 762.78 906.29 770.65 914.95C806.78 889.26 825.1 884.56 863.02 914.64C895.31 888.56 918.2 885.19 951.67 915.96C995.16 894.13 990.78 876.71 1040.85 914.95C1093.32 885.98 1076.75 884.4 1132.8 913.67C1145.3 907.08 1155.68 893.23 1176.96 894.07C1197.18 894.88 1212.85 905.28 1221.65 914.95C1259.4 888.1 1277.66 885.45 1314.87 915.62C1333.05 900.48 1357.73 884.39 1388.14 900.07C1401.83 889.63 1450.12 840.82 1458.66 823.61C1435.24 822.39 1430.26 823.16 1414.63 835.1C1407.51 840.54 1414.74 837.76 1402.66 843.4C1389.54 835.52 1379.8 820.75 1354.84 823.39C1333.62 825.64 1324.95 836.4 1313.69 844.64C1298.54 832.47 1294.36 823.8 1269.56 823.83C1240.05 823.87 1239.79 831.63 1221.52 842.18C1183.1 804.58 1152.06 830.64 1132.8 842.52C1071.49 806.03 1080.85 825.82 1040.39 841.89C1000.85 812.7 986.38 816.99 951.88 844.64C939.46 834.8 933.81 822.1 907.41 823.48C883.39 824.73 874.6 837.12 857.77 843.15C848.58 828.69 838.02 823.73 814.99 823.77C790.37 823.82 785.92 833.29 770.53 842.18C731.23 803.71 699.46 831.64 681.81 842.52C642.18 819.9 631.29 810.13 590.44 843.54C554.08 814.21 537.14 815.65 500.93 844.68C472.76 814.01 443.72 817.86 411.96 842.42C404.38 839.04 410.76 842.08 404.7 837.98C363.21 809.9 346.84 826.42 319.54 842.18C310.43 833.27 293.61 823 275.19 822.85C253.05 822.67 243.16 834.91 230.82 842.52C218.54 836.87 186.64 798.44 141.74 844.93C133.39 839.16 112.06 809.64 70.55 829.68L49.68 842.52C34.32 830.53 27.86 824.66 0.55 824.37C14.64 845.67 53.88 886.53 71.93 900.57L71.93 900.57Z" />
				<path id="Layer" fill-rule="evenodd" class="shp6" d="M653.4 1167.05L806.38 1167.04L859.24 1160.17C898.73 1154.7 1029.66 1124.49 1055.64 1112.72L1175.84 1058.51C1180.25 1055.05 1179.76 1055.02 1181.95 1052.72L1190.73 1035.94C1154.83 1035.57 1153.35 1039.52 1132.8 1054.74C1087.64 1012.66 1050.42 1050.86 1039.57 1055.99C1012.16 1020.94 971.88 1035.77 954.73 1059.15C943.13 1046.24 937.2 1036.27 911.05 1036.69C884.08 1037.11 877.78 1042.06 862.95 1054.79C834.56 1030.43 796.27 1027.33 771.78 1057.18C771.04 1053.7 738.71 1012.61 681.81 1054.74C640.17 1028.55 635.58 1026.18 593.09 1056.53C587.83 1053.24 553.11 1010.81 504.37 1055.06C491.43 1048.68 458.91 1014.49 411.96 1054.79C383.84 1030.66 345.18 1027.45 320.79 1057.18C319.35 1050.49 283.81 1022.81 258.56 1041.74C284.1 1066.8 410.21 1114.92 437.24 1123.17C521.71 1148.94 556.98 1153.86 640.98 1163.55L653.4 1167.05L653.4 1167.05Z" />
			</g>
		</g>
		<path id="Layer" fill-rule="evenodd" class="shp7" d="M662 0.64C944.6 0.64 1173.69 229.73 1173.69 512.33C1173.69 794.92 944.6 1024.01 662 1024.01C379.41 1024.01 150.32 794.92 150.32 512.33C150.32 229.73 379.41 0.64 662 0.64L662 0.64Z" />
		<path id="Layer" fill-rule="evenodd" class="shp8" d="M957.18 193.44C957.09 193.58 954.37 198.83 952.9 200.37C925.82 185.68 925.47 200.64 912.73 216.26C901.16 230.44 888 225.79 890.4 257.01L1007.97 257.74L1068.81 257.36C1067.16 234.39 1057.78 236.9 1044.29 227.03C1029.73 216.4 1037.28 206.97 1006.06 212.43C994.95 184.76 983.79 190.28 957.18 193.44L957.18 193.44Z" />
		<g id="_2773552983888">
			<path id="Layer" fill-rule="evenodd" class="shp8" d="M624.09 60.33C624.01 60.46 621.29 65.71 619.82 67.25C592.73 52.56 592.39 67.52 579.64 83.14C568.08 97.32 554.92 92.67 557.32 123.89L674.89 124.62L735.73 124.24C734.07 101.27 724.7 103.78 711.2 93.91C696.64 83.28 704.19 73.85 672.97 79.31C661.86 51.64 650.71 57.16 624.09 60.33L624.09 60.33Z" />
		</g>
		<path id="Layer" fill-rule="evenodd" class="shp8" d="M255.32 265.39C255.23 265.52 252.52 270.77 251.05 272.31C223.96 257.63 223.61 272.59 210.87 288.21C199.3 302.39 186.15 297.73 188.55 328.95L306.12 329.68L366.96 329.3C365.3 306.34 355.93 308.84 342.43 298.98C327.87 288.34 335.42 278.91 304.2 284.38C293.09 256.71 281.94 262.22 255.32 265.39L255.32 265.39Z" />
		<path id="Layer" class="shp9" d="M232.51 617.89L587.88 617.89L587.88 668.27L232.51 668.27L232.51 617.89Z" />
		<path id="Layer" class="shp9" d="M753.79 618.98L1109.16 618.98L1109.16 669.36L753.79 669.36L753.79 618.98Z" />
		<path id="Layer" class="shp9" d="M603.21 426.78L737.37 426.78L737.37 841.84L603.21 841.84L603.21 426.78Z" />
		<g id="Layer">
			<g id="_2773552929504">
				<path id="1" fill-rule="evenodd" class="shp9" d="M671.33 718.1L671.34 718.1C691.83 718.1 708.58 734.85 708.58 755.33L708.58 844.04L634.11 844.04L634.11 755.33C634.11 734.85 650.85 718.1 671.33 718.1Z" />
			</g>
		</g>
		<path id="Layer" class="shp9" d="M603.21 426.78L737.37 426.78L737.37 841.84L603.21 841.84L603.21 426.78Z" />
		<path id="Layer" class="shp9" d="M230.32 684.69L585.69 684.69L585.69 840.19L230.32 840.19L230.32 684.69Z" />
		<g id="Layer">
			<g id="_2773552929600">
				<path id="Layer" class="shp9" d="M299.53 779.42L299.53 779.42C313.61 779.42 324.99 790.8 324.99 804.88L324.99 828.43C324.99 842.51 313.61 853.89 299.53 853.89L299.53 853.89C285.45 853.89 274.07 842.51 274.07 828.43L274.07 804.88C274.07 790.8 285.45 779.42 299.53 779.42Z" />
				<path id="Layer" class="shp9" d="M409.59 779.42L409.59 779.42C423.67 779.42 435.05 790.8 435.05 804.88L435.05 828.43C435.05 842.51 423.67 853.89 409.59 853.89L409.59 853.89C395.51 853.89 384.13 842.51 384.13 828.43L384.13 804.88C384.13 790.8 395.51 779.42 409.59 779.42Z" />
				<path id="Layer" class="shp9" d="M519.1 779.42L519.1 779.42C533.18 779.42 544.56 790.8 544.56 804.88L544.56 828.43C544.56 842.51 533.18 853.89 519.1 853.89L519.1 853.89C505.02 853.89 493.64 842.51 493.64 828.43L493.64 804.88C493.64 790.8 505.02 779.42 519.1 779.42Z" />
			</g>
		</g>
		<path id="Layer" class="shp9" d="M230.32 684.69L585.69 684.69L585.69 840.19L230.32 840.19L230.32 684.69Z" />
		<path id="Layer" class="shp9" d="M754.89 684.69L1110.26 684.69L1110.26 840.19L754.89 840.19L754.89 684.69Z" />
		<g id="Layer">
			<g id="_2773552938000">
				<path id="Layer" class="shp9" d="M822.46 779.42L822.46 779.42C836.54 779.42 847.92 790.8 847.92 804.88L847.92 828.43C847.92 842.51 836.54 853.89 822.46 853.89L822.46 853.89C808.38 853.89 797 842.51 797 828.43L797 804.88C797 790.8 808.38 779.42 822.46 779.42Z" />
				<path id="Layer" class="shp9" d="M931.97 779.42L931.97 779.42C946.05 779.42 957.43 790.8 957.43 804.88L957.43 828.43C957.43 842.51 946.05 853.89 931.97 853.89L931.97 853.89C917.89 853.89 906.51 842.51 906.51 828.43L906.51 804.88C906.51 790.8 917.89 779.42 931.97 779.42Z" />
				<path id="Layer" class="shp9" d="M1040.39 779.42L1040.39 779.42C1054.47 779.42 1065.85 790.8 1065.85 804.88L1065.85 828.43C1065.85 842.51 1054.47 853.89 1040.39 853.89L1040.39 853.89C1026.31 853.89 1014.93 842.51 1014.93 828.43L1014.93 804.88C1014.93 790.8 1026.31 779.42 1040.39 779.42Z" />
			</g>
		</g>
		<path id="Layer" class="shp7" d="M754.89 684.69L1110.26 684.69L1110.26 840.19L754.89 840.19L754.89 684.69Z" />
		<path id="Layer" class="shp9" d="M117.52 623.91L214.98 623.91L214.98 841.29L117.52 841.29L117.52 623.91Z" />
		<g id="Layer">
			<g id="_2773552942272">
				<path id="Layer" class="shp9" d="M169.75 779.42L169.75 779.42C183.83 779.42 195.21 790.8 195.21 804.88L195.21 828.43C195.21 842.51 183.83 853.89 169.75 853.89L169.75 853.89C155.67 853.89 144.29 842.51 144.29 828.43L144.29 804.88C144.29 790.8 155.67 779.42 169.75 779.42Z" />
			</g>
		</g>
		<path id="Layer" class="shp7" d="M117.52 623.91L214.98 623.91L214.98 841.29L117.52 841.29L117.52 623.91Z" />
		<path id="Layer" class="shp9" d="M1126.14 623.91L1223.61 623.91L1223.61 841.29L1126.14 841.29L1126.14 623.91Z" />
		<g id="Layer">
			<g id="_2773552944624">
				<path id="Layer" class="shp9" d="M1176.19 779.42L1176.19 779.42C1190.27 779.42 1201.65 790.8 1201.65 804.88L1201.65 828.43C1201.65 842.51 1190.27 853.89 1176.19 853.89L1176.19 853.89C1162.11 853.89 1150.73 842.51 1150.73 828.43L1150.73 804.88C1150.73 790.8 1162.11 779.42 1176.19 779.42Z" />
			</g>
		</g>
		<path id="Layer" class="shp7" d="M1126.14 623.91L1223.61 623.91L1223.61 841.29L1126.14 841.29L1126.14 623.91Z" />
		<path id="Layer" fill-rule="evenodd" class="shp9" d="M193.08 534.38L141.61 534.1L119.71 605.29L154.2 605.29C154.2 605.29 166.25 563.12 185.41 606.11L214.98 605.83L193.08 534.38Z" />
		<path id="Layer" class="shp9" d="M264.54 549.71L303.69 549.71L321.76 602.55L247.02 603.1L264.54 549.71Z" />
		<path id="Layer" class="shp9" d="M1039.49 552.58L1078.64 552.58L1096.71 605.42L1021.96 605.97L1039.49 552.58Z" />
		<path id="Layer" class="shp9" d="M151.46 503.98L186.37 503.98C189.32 503.98 191.71 506.37 191.71 509.32L191.71 515.75C191.71 518.7 189.32 521.09 186.37 521.09L151.46 521.09C148.51 521.09 146.12 518.7 146.12 515.75L146.12 509.32C146.12 506.37 148.51 503.98 151.46 503.98Z" />
		<path id="Layer" class="shp10" d="M168.84 464.82L168.91 503.98" />
		<path id="Layer" class="shp10" d="M151.13 481.28L151.2 503.98" />
		<path id="Layer" class="shp10" d="M188.73 482.1L188.8 504.8" />
		<path id="Layer" class="shp9" d="M271.29 534.46L299.9 534.46C302.32 534.46 304.28 536.42 304.28 538.84L304.28 541.76C304.28 544.18 302.32 546.14 299.9 546.14L271.29 546.14C268.87 546.14 266.91 544.18 266.91 541.76L266.91 538.84C266.91 536.42 268.87 534.46 271.29 534.46Z" />
		<path id="Layer" class="shp10" d="M273.03 513.42L273.11 533.45" />
		<path id="Layer" class="shp10" d="M284.53 501.25L284.6 533.32" />
		<path id="Layer" class="shp10" d="M296.14 512.75L296.21 532.78" />
		<path id="Layer" fill-rule="evenodd" class="shp9" d="M1198.42 533.28L1146.95 533.01L1125.04 604.19L1159.54 604.19C1159.54 604.19 1171.59 562.03 1190.75 605.01L1220.32 604.74L1198.42 533.28L1198.42 533.28Z" />
		<path id="Layer" class="shp9" d="M1154.3 504.96L1189.21 504.96C1192.16 504.96 1194.55 507.35 1194.55 510.3L1194.55 516.73C1194.55 519.68 1192.16 522.07 1189.21 522.07L1154.3 522.07C1151.35 522.07 1148.96 519.68 1148.96 516.73L1148.96 510.3C1148.96 507.35 1151.35 504.96 1154.3 504.96Z" />
		<path id="Layer" class="shp10" d="M1171.68 465.81L1171.76 504.96" />
		<path id="Layer" class="shp10" d="M1153.97 482.27L1154.04 504.96" />
		<path id="Layer" class="shp10" d="M1191.57 483.09L1191.64 505.79" />
		<path id="Layer" class="shp11" d="M168.95 645C163.2 645 158.55 637.9 158.55 629.12C158.55 620.34 163.2 613.24 168.95 613.24C174.7 613.24 179.35 620.34 179.35 629.12C179.35 637.9 174.7 645 168.95 645Z" />
		<path id="Layer" class="shp11" d="M1174.88 639.79C1169.13 639.79 1164.48 632.69 1164.48 623.91C1164.48 615.13 1169.13 608.03 1174.88 608.03C1180.63 608.03 1185.28 615.13 1185.28 623.91C1185.28 632.69 1180.63 639.79 1174.88 639.79Z" />
		<path id="Layer" class="shp11" d="M623.42 570.53L720.89 570.53L720.89 601.19L623.42 601.19L623.42 570.53Z" />
		<path id="Layer" fill-rule="evenodd" class="shp9" d="M651.21 493.32L651.21 493.32C661.83 493.32 670.51 502 670.51 512.63L670.51 569.16L631.91 569.16L631.91 512.63C631.91 502 640.59 493.32 651.21 493.32L651.21 493.32Z" />
		<path id="Layer" fill-rule="evenodd" class="shp9" d="M690.91 493.32L690.91 493.32C701.53 493.32 710.21 502 710.21 512.63L710.21 569.16L671.61 569.16L671.61 512.63C671.61 502 680.29 493.32 690.91 493.32L690.91 493.32Z" />
		<path id="Layer" class="shp11" d="M253.81 730.69L569.21 730.69L569.21 753.69L253.81 753.69L253.81 730.69Z" />
		<path id="Layer" class="shp11" d="M769.62 731.78L1085.02 731.78L1085.02 754.78L769.62 754.78L769.62 731.78Z" />
		<path id="Layer" class="shp11" d="M141.28 712.34L196.59 712.34L196.59 726.3L141.28 726.3L141.28 712.34Z" />
		<path id="Layer" class="shp11" d="M1144.69 711.93L1200 711.93L1200 725.89L1144.69 725.89L1144.69 711.93Z" />
		<path id="Layer" fill-rule="evenodd" class="shp11" d="M1157.9 710.97L1157.9 677.02C1157.9 673.18 1161.04 670.04 1164.88 670.04L1164.88 670.04C1168.72 670.04 1171.86 673.18 1171.86 677.02L1171.86 710.97L1157.9 710.97Z" />
		<path id="Layer" fill-rule="evenodd" class="shp11" d="M1173.99 710.97L1173.99 677.02C1173.99 673.18 1177.13 670.04 1180.97 670.04L1180.97 670.04C1184.81 670.04 1187.95 673.18 1187.95 677.02L1187.95 710.97L1173.99 710.97Z" />
		<path id="Layer" fill-rule="evenodd" class="shp11" d="M151.54 711.72L151.54 677.77C151.54 673.93 154.68 670.79 158.52 670.79L158.52 670.79C162.36 670.79 165.5 673.93 165.5 677.77L165.5 711.72L151.54 711.72L151.54 711.72Z" />
		<path id="Layer" fill-rule="evenodd" class="shp11" d="M167.62 711.72L167.62 677.77C167.62 673.93 170.76 670.79 174.6 670.79L174.6 670.79C178.44 670.79 181.58 673.93 181.58 677.77L181.58 711.72L167.62 711.72L167.62 711.72Z" />
		<path id="Layer" fill-rule="evenodd" class="shp11" d="M268.78 729.99L268.78 710.06C268.78 706.22 271.92 703.08 275.76 703.08L275.76 703.08C279.6 703.08 282.74 706.22 282.74 710.06L282.74 729.99L268.78 729.99L268.78 729.99Z" />
		<path id="Layer" fill-rule="evenodd" class="shp11" d="M284.86 729.99L284.86 710.06C284.86 706.22 288.01 703.08 291.84 703.08L291.84 703.08C295.69 703.08 298.82 706.22 298.82 710.06L298.82 729.99L284.86 729.99L284.86 729.99Z" />
		<path id="Layer" fill-rule="evenodd" class="shp11" d="M333.25 729.99L333.25 710.06C333.25 706.22 336.39 703.08 340.23 703.08L340.23 703.08C344.07 703.08 347.21 706.22 347.21 710.06L347.21 729.99L333.25 729.99L333.25 729.99Z" />
		<path id="Layer" fill-rule="evenodd" class="shp11" d="M349.34 729.99L349.34 710.06C349.34 706.22 352.48 703.08 356.32 703.08L356.32 703.08C360.16 703.08 363.3 706.22 363.3 710.06L363.3 729.99L349.34 729.99L349.34 729.99Z" />
		<path id="Layer" fill-rule="evenodd" class="shp11" d="M393.35 729.31L393.35 709.38C393.35 705.54 396.49 702.4 400.33 702.4L400.33 702.4C404.17 702.4 407.31 705.54 407.31 709.38L407.31 729.31L393.35 729.31L393.35 729.31Z" />
		<path id="Layer" fill-rule="evenodd" class="shp11" d="M409.44 729.31L409.44 709.38C409.44 705.54 412.58 702.4 416.42 702.4L416.42 702.4C420.26 702.4 423.39 705.54 423.39 709.38L423.39 729.31L409.44 729.31L409.44 729.31Z" />
		<path id="Layer" fill-rule="evenodd" class="shp11" d="M459.46 729.68L459.46 709.75C459.46 705.91 462.6 702.77 466.44 702.77L466.44 702.77C470.28 702.77 473.42 705.91 473.42 709.75L473.42 729.68L459.46 729.68L459.46 729.68Z" />
		<path id="Layer" fill-rule="evenodd" class="shp11" d="M475.55 729.68L475.55 709.75C475.55 705.91 478.69 702.77 482.53 702.77L482.53 702.77C486.37 702.77 489.51 705.91 489.51 709.75L489.51 729.68L475.55 729.68L475.55 729.68Z" />
		<path id="Layer" fill-rule="evenodd" class="shp11" d="M520.24 728.59L520.24 708.66C520.24 704.82 523.38 701.68 527.22 701.68L527.22 701.68C531.06 701.68 534.2 704.82 534.2 708.66L534.2 728.59L520.24 728.59L520.24 728.59Z" />
		<path id="Layer" fill-rule="evenodd" class="shp11" d="M536.33 728.59L536.33 708.66C536.33 704.82 539.47 701.68 543.31 701.68L543.31 701.68C547.15 701.68 550.29 704.82 550.29 708.66L550.29 728.59L536.33 728.59Z" />
		<path id="Layer" fill-rule="evenodd" class="shp11" d="M789.17 731.32L789.17 711.39C789.17 707.55 792.31 704.41 796.15 704.41L796.15 704.41C799.99 704.41 803.13 707.55 803.13 711.39L803.13 731.32L789.17 731.32Z" />
		<path id="Layer" fill-rule="evenodd" class="shp11" d="M805.25 731.32L805.25 711.39C805.25 707.55 808.39 704.41 812.23 704.41L812.23 704.41C816.07 704.41 819.21 707.55 819.21 711.39L819.21 731.32L805.25 731.32Z" />
		<path id="Layer" fill-rule="evenodd" class="shp11" d="M851.52 729.95L851.52 710.02C851.52 706.18 854.66 703.04 858.5 703.04L858.5 703.04C862.34 703.04 865.48 706.18 865.48 710.02L865.48 729.95L851.52 729.95Z" />
		<path id="Layer" fill-rule="evenodd" class="shp11" d="M867.61 729.95L867.61 710.02C867.61 706.18 870.75 703.04 874.59 703.04L874.59 703.04C878.43 703.04 881.57 706.18 881.57 710.02L881.57 729.95L867.61 729.95Z" />
		<path id="Layer" fill-rule="evenodd" class="shp11" d="M915.59 730.5L915.59 710.57C915.59 706.73 918.73 703.59 922.57 703.59L922.57 703.59C926.41 703.59 929.55 706.73 929.55 710.57L929.55 730.5L915.59 730.5Z" />
		<path id="Layer" fill-rule="evenodd" class="shp11" d="M931.67 730.5L931.67 710.57C931.67 706.73 934.82 703.59 938.65 703.59L938.65 703.59C942.5 703.59 945.63 706.73 945.63 710.57L945.63 730.5L931.67 730.5Z" />
		<path id="Layer" fill-rule="evenodd" class="shp11" d="M977.19 730.5L977.19 710.57C977.19 706.73 980.33 703.59 984.17 703.59L984.17 703.59C988.01 703.59 991.15 706.73 991.15 710.57L991.15 730.5L977.19 730.5Z" />
		<path id="Layer" fill-rule="evenodd" class="shp11" d="M993.28 730.5L993.28 710.57C993.28 706.73 996.42 703.59 1000.26 703.59L1000.26 703.59C1004.1 703.59 1007.24 706.73 1007.24 710.57L1007.24 730.5L993.28 730.5Z" />
		<path id="Layer" fill-rule="evenodd" class="shp11" d="M1042.35 731.6L1042.35 711.67C1042.35 707.83 1045.49 704.69 1049.33 704.69L1049.33 704.69C1053.17 704.69 1056.31 707.83 1056.31 711.67L1056.31 731.6L1042.35 731.6L1042.35 731.6Z" />
		<path id="Layer" fill-rule="evenodd" class="shp11" d="M1058.44 731.6L1058.44 711.67C1058.44 707.83 1061.58 704.69 1065.42 704.69L1065.42 704.69C1069.26 704.69 1072.4 707.83 1072.4 711.67L1072.4 731.6L1058.44 731.6Z" />
		<g id="_2773656185856">
			<path id="Layer" fill-rule="evenodd" class="shp9" d="M694.5 341.74L643.03 341.47L621.13 412.65L655.63 412.65C655.63 412.65 667.67 370.49 686.84 413.48L716.41 413.2L694.5 341.74L694.5 341.74Z" />
			<path id="Layer" class="shp9" d="M652.88 311.35L687.79 311.35C690.74 311.35 693.13 313.74 693.13 316.69L693.13 323.12C693.13 326.07 690.74 328.46 687.79 328.46L652.88 328.46C649.93 328.46 647.54 326.07 647.54 323.12L647.54 316.69C647.54 313.74 649.93 311.35 652.88 311.35Z" />
			<path id="Layer" class="shp10" d="M670.26 272.19L670.34 311.35" />
			<path id="Layer" class="shp10" d="M652.55 288.65L652.62 311.35" />
			<path id="Layer" class="shp10" d="M690.15 289.47L690.22 312.17" />
		</g>
		<path id="Layer" class="shp9" d="M672.05 444C663.5 444 656.58 437.08 656.58 428.53C656.58 419.98 663.5 413.06 672.05 413.06C680.6 413.06 687.52 419.98 687.52 428.53C687.52 437.08 680.6 444 672.05 444Z" />
		<path id="Layer" class="shp9" d="M1045.92 532.72L1074.53 532.72C1076.95 532.72 1078.91 534.68 1078.91 537.1L1078.91 540.02C1078.91 542.44 1076.95 544.4 1074.53 544.4L1045.92 544.4C1043.5 544.4 1041.54 542.44 1041.54 540.02L1041.54 537.1C1041.54 534.68 1043.5 532.72 1045.92 532.72Z" />
		<path id="Layer" class="shp10" d="M1046.96 513.42L1047.03 533.45" />
		<path id="Layer" class="shp10" d="M1060.21 501.04L1060.28 533.11" />
		<path id="Layer" class="shp10" d="M1073.57 513.84L1073.64 533.87" />
	</g>
</svg>