<?xml version="1.0" encoding="UTF-8"?>
<!DOCTYPE svg PUBLIC "-//W3C//DTD SVG 1.1//EN" "http://www.w3.org/Graphics/SVG/1.1/DTD/svg11.dtd">
<!-- Creator: CorelDRAW 2020 (64-Bit) -->
<svg xmlns="http://www.w3.org/2000/svg" xml:space="preserve" width="12.7mm" height="12.7mm" version="1.1" style="shape-rendering:geometricPrecision; text-rendering:geometricPrecision; image-rendering:optimizeQuality; fill-rule:evenodd; clip-rule:evenodd"
viewBox="0 0 1270 1270"
 xmlns:xlink="http://www.w3.org/1999/xlink"
 xmlns:xodm="http://www.corel.com/coreldraw/odm/2003">
 <defs>
  <style type="text/css">
   <![CDATA[
    .str0 {stroke:#F4F4F4;stroke-width:20;stroke-miterlimit:22.9256}
    .str1 {stroke:white;stroke-width:7.62;stroke-miterlimit:22.9256}
    .fil0 {fill:none}
    .fil4 {fill:#3A9A46}
    .fil6 {fill:#60BFC0}
    .fil9 {fill:#663333}
    .fil5 {fill:#7AC8C9}
    .fil1 {fill:#8DC9F6}
    .fil7 {fill:#9DD8D9}
    .fil2 {fill:#AED9F7}
    .fil3 {fill:#C6E4F8}
    .fil8 {fill:#F4F4F4}
    .fil10 {fill:white}
   ]]>
  </style>
   <clipPath id="id0">
    <path d="M635 38.64c282.6,0 511.69,229.09 511.69,511.69 0,282.59 -229.09,511.68 -511.69,511.68 -282.59,0 -511.68,-229.09 -511.68,-511.68 0,-282.6 229.09,-511.69 511.68,-511.69z"/>
   </clipPath>
 </defs>
 <g id="Layer_x0020_1">
  <metadata id="CorelCorpID_0Corel-Layer"/>
  <rect class="fil0" width="1270" height="1270"/>
  <rect class="fil0" width="1270" height="1270"/>
  <path class="fil1" d="M635 38.64c282.6,0 511.69,229.09 511.69,511.69 0,282.59 -229.09,511.68 -511.69,511.68 -282.59,0 -511.68,-229.09 -511.68,-511.68 0,-282.6 229.09,-511.69 511.68,-511.69z"/>
  <g style="clip-path:url(#id0)">
   <g id="_1770882463584">
    <circle class="fil2" cx="635" cy="653.22" r="511.69"/>
    <circle class="fil3" cx="635" cy="796.4" r="511.69"/>
    <path class="fil4" d="M367.89 722.94c-42.61,-5.86 -61.01,14.52 -69.26,48.91 -7.84,5.52 2.68,0.37 -7.9,3.04 -17.76,4.47 -62.77,3.32 -57.99,68.78l-32.56 5.62 34.84 74.13 152.76 0.58c15.03,-52.15 39.42,-38.38 96.3,-39.54l0.76 -162.46c-40.89,-23.99 -62.5,-21.3 -89.15,17.1 -8.28,-3.37 -16.47,-10.39 -27.8,-16.16z"/>
    <path class="fil4" d="M967.38 722.94c42.61,-5.86 61.01,14.52 69.26,48.91 7.84,5.52 -2.68,0.37 7.9,3.04 17.76,4.47 62.77,3.32 57.99,68.78l32.56 5.62 -34.84 74.13 -152.76 0.58c-15.03,-52.15 -39.42,-38.38 -96.3,-39.54l-0.76 -162.46c40.89,-23.99 62.5,-21.3 89.15,17.1 8.28,-3.37 16.47,-10.39 27.8,-16.16z"/>
    <path class="fil5" d="M44.93 938.57c10.35,22.15 152.67,128.11 186.63,141.17 25.25,-18.93 60.79,8.75 62.23,15.44 24.39,-29.73 63.05,-26.52 91.17,-2.39 46.95,-40.3 79.47,-6.11 92.41,0.27 48.74,-44.25 83.46,-1.82 88.72,1.47 42.49,-30.35 47.08,-27.98 88.72,-1.79 56.9,-42.13 89.23,-1.04 89.97,2.44 24.49,-29.85 62.78,-26.75 91.17,-2.39 14.83,-12.73 21.13,-17.68 48.1,-18.1 26.15,-0.42 32.08,9.55 43.68,22.46 17.15,-23.38 57.43,-38.21 84.84,-3.16 10.85,-5.13 48.07,-43.33 93.23,-1.25 20.55,-15.22 22.03,-19.17 57.93,-18.8l-8.78 16.78c37.66,-12.6 188.97,-125.39 206.19,-152.65 -30.41,-15.68 -55.09,0.41 -73.27,15.55 -37.21,-30.17 -55.47,-27.52 -93.22,-0.67 -8.8,-9.67 -24.47,-20.07 -44.69,-20.88 -21.28,-0.84 -31.66,13.01 -44.16,19.6 -56.05,-29.27 -39.48,-27.69 -91.95,1.28 -50.07,-38.24 -45.69,-20.82 -89.18,1.01 -33.47,-30.77 -56.36,-27.4 -88.65,-1.32 -37.92,-30.08 -56.24,-25.38 -92.37,0.31 -7.87,-8.66 -26.44,-20.81 -44.47,-21.14 -21.44,-0.4 -31.76,13.21 -44.37,19.86 -14.98,-8.34 -25.73,-21.01 -47.9,-19.84 -23.89,1.25 -28.83,15.65 -45.73,21.98 -34.31,-41.15 -55.33,-16.43 -88.43,0.59 -23.33,-32.69 -58.01,-25.76 -87.72,-1.76 -37.56,-29.79 -56.16,-25.44 -92.37,0.31 -7.2,-7.91 -27.1,-21.09 -44.32,-21.2 -21.62,-0.13 -31.74,13.15 -44.52,19.96 -16.69,-8.22 -45.82,-42.96 -87.01,3.07l-10.33 -7.24c-5.15,-3.99 0.4,-0.28 -6.27,-5.25 -4.84,-3.61 -10.7,-7.04 -16.94,-8.53 -14.27,-3.39 -27.69,1.37 -38.34,4.81z"/>
    <path class="fil6" d="M44.93 938.57c10.65,-3.44 24.07,-8.2 38.34,-4.81 6.24,1.49 12.1,4.92 16.94,8.53 6.67,4.97 1.12,1.26 6.27,5.25l10.33 7.24c41.19,-46.03 70.32,-11.29 87.01,-3.07 12.78,-6.81 22.9,-20.09 44.52,-19.96 17.22,0.11 37.12,13.29 44.32,21.2 36.21,-25.75 54.81,-30.1 92.37,-0.31 29.71,-24 64.39,-30.93 87.72,1.76 33.1,-17.02 54.12,-41.74 88.43,-0.59 16.9,-6.33 21.84,-20.73 45.73,-21.98 22.17,-1.17 32.92,11.5 47.9,19.84 12.61,-6.65 22.93,-20.26 44.37,-19.86 18.03,0.33 36.6,12.48 44.47,21.14 36.13,-25.69 54.45,-30.39 92.37,-0.31 32.29,-26.08 55.18,-29.45 88.65,1.32 43.49,-21.83 39.11,-39.25 89.18,-1.01 52.47,-28.97 35.9,-30.55 91.95,-1.28 12.5,-6.59 22.88,-20.44 44.16,-19.6 20.22,0.81 35.89,11.21 44.69,20.88 37.75,-26.85 56.01,-29.5 93.22,0.67 18.18,-15.14 42.86,-31.23 73.27,-15.55 13.69,-10.44 61.98,-59.25 70.52,-76.46 -23.42,-1.22 -28.4,-0.45 -44.03,11.49 -7.12,5.44 0.11,2.66 -11.97,8.3 -13.12,-7.88 -22.86,-22.65 -47.82,-20.01 -21.22,2.25 -29.89,13.01 -41.15,21.25 -15.15,-12.17 -19.33,-20.84 -44.13,-20.81 -29.51,0.04 -29.77,7.8 -48.04,18.35 -38.42,-37.6 -69.46,-11.54 -88.72,0.34 -61.31,-36.49 -51.95,-16.7 -92.41,-0.63 -39.54,-29.19 -54.01,-24.9 -88.51,2.75 -12.42,-9.84 -18.07,-22.54 -44.47,-21.16 -24.02,1.25 -32.81,13.64 -49.64,19.67 -9.19,-14.46 -19.75,-19.42 -42.78,-19.38 -24.62,0.05 -29.07,9.52 -44.46,18.41 -39.3,-38.47 -71.07,-10.54 -88.72,0.34 -39.63,-22.62 -50.52,-32.39 -91.37,1.02 -36.36,-29.33 -53.3,-27.89 -89.51,1.14 -28.17,-30.67 -57.21,-26.82 -88.97,-2.26 -7.58,-3.38 -1.2,-0.34 -7.26,-4.44 -41.49,-28.08 -57.86,-11.56 -85.16,4.2 -9.11,-8.91 -25.93,-19.18 -44.35,-19.33 -22.14,-0.18 -32.03,12.06 -44.37,19.67 -12.28,-5.65 -44.18,-44.08 -89.08,2.41 -8.35,-5.77 -29.68,-35.29 -71.19,-15.25l-20.87 12.84c-15.36,-11.99 -21.82,-17.86 -49.13,-18.15 14.09,21.3 53.33,62.16 71.38,76.2z"/>
    <path class="fil7" d="M626.4 1205.05l152.98 -0.01 52.86 -6.87c39.49,-5.47 170.42,-35.68 196.4,-47.45l120.2 -54.21c4.41,-3.46 3.92,-3.49 6.11,-5.79l8.78 -16.78c-35.9,-0.37 -37.38,3.58 -57.93,18.8 -45.16,-42.08 -82.38,-3.88 -93.23,1.25 -27.41,-35.05 -67.69,-20.22 -84.84,3.16 -11.6,-12.91 -17.53,-22.88 -43.68,-22.46 -26.97,0.42 -33.27,5.37 -48.1,18.1 -28.39,-24.36 -66.68,-27.46 -91.17,2.39 -0.74,-3.48 -33.07,-44.57 -89.97,-2.44 -41.64,-26.19 -46.23,-28.56 -88.72,1.79 -5.26,-3.29 -39.98,-45.72 -88.72,-1.47 -12.94,-6.38 -45.46,-40.57 -92.41,-0.27 -28.12,-24.13 -66.78,-27.34 -91.17,2.39 -1.44,-6.69 -36.98,-34.37 -62.23,-15.44 25.54,25.06 151.65,73.18 178.68,81.43 84.47,25.77 119.74,30.69 203.74,40.38l12.42 3.5z"/>
   </g>
  </g>
  <path class="fil0" d="M635 38.64c282.6,0 511.69,229.09 511.69,511.69 0,282.59 -229.09,511.68 -511.69,511.68 -282.59,0 -511.68,-229.09 -511.68,-511.68 0,-282.6 229.09,-511.69 511.68,-511.69z"/>
  <g id="_1770882485040">
   <path class="fil8" d="M930.18 231.44c-0.09,0.14 -2.81,5.39 -4.28,6.93 -27.08,-14.69 -27.43,0.27 -40.17,15.89 -11.57,14.18 -24.73,9.53 -22.33,40.75l117.57 0.73 60.84 -0.38c-1.65,-22.97 -11.03,-20.46 -24.52,-30.33 -14.56,-10.63 -7.01,-20.06 -38.23,-14.6 -11.11,-27.67 -22.27,-22.15 -48.88,-18.99z"/>
   <ellipse class="fil0 str0" cx="956.12" cy="248.56" rx="24.42" ry="22.75"/>
   <ellipse class="fil0 str0" cx="912.88" cy="256.02" rx="24.42" ry="22.75"/>
   <ellipse class="fil0 str0" cx="989.43" cy="263.72" rx="20.27" ry="18.88"/>
  </g>
  <g id="_1770882487824">
   <path class="fil8" d="M597.09 98.33c-0.08,0.13 -2.8,5.38 -4.27,6.92 -27.09,-14.69 -27.43,0.27 -40.18,15.89 -11.56,14.18 -24.72,9.53 -22.32,40.75l117.57 0.73 60.84 -0.38c-1.66,-22.97 -11.03,-20.46 -24.53,-30.33 -14.56,-10.63 -7.01,-20.06 -38.23,-14.6 -11.11,-27.67 -22.26,-22.15 -48.88,-18.98z"/>
   <ellipse class="fil0 str0" cx="623.04" cy="115.44" rx="24.42" ry="22.75"/>
   <ellipse class="fil0 str0" cx="579.79" cy="122.9" rx="24.42" ry="22.75"/>
   <ellipse class="fil0 str0" cx="656.34" cy="130.6" rx="20.27" ry="18.88"/>
  </g>
  <g id="_1770882486144">
   <path class="fil8" d="M228.32 303.39c-0.09,0.13 -2.8,5.38 -4.27,6.92 -27.09,-14.68 -27.44,0.28 -40.18,15.9 -11.57,14.18 -24.72,9.52 -22.32,40.74l117.57 0.73 60.84 -0.38c-1.66,-22.96 -11.03,-20.46 -24.53,-30.32 -14.56,-10.64 -7.01,-20.07 -38.23,-14.6 -11.11,-27.67 -22.26,-22.16 -48.88,-18.99z"/>
   <ellipse class="fil0 str0" cx="254.26" cy="320.51" rx="24.42" ry="22.75"/>
   <ellipse class="fil0 str0" cx="211.02" cy="327.97" rx="24.42" ry="22.75"/>
   <ellipse class="fil0 str0" cx="287.57" cy="335.66" rx="20.27" ry="18.88"/>
  </g>
  <path class="fil9 str1" d="M736.32 883.66l4.6 -7.82c0.54,-0.12 1.1,-0.27 1.72,-0.37l237.63 0.38c3.97,0.98 2.4,0.4 4.73,1.96l0.06 5.85c-7.35,5.63 -51.79,2.85 -61.11,2.85l-187.63 -2.85zm-157.01 -7.69c3.17,-0.4 136.96,-2.71 147.47,-0.13 4,0.98 2.46,0.42 4.77,1.97l0.06 5.85c-0.46,0.35 -1.23,0.15 -1.55,0.85 -0.31,0.7 -1.15,0.64 -1.59,0.77 -0.45,0.14 -1.11,0.48 -1.67,0.62 -0.58,0.15 -1.11,0.31 -1.77,0.43 -1.73,0.32 -7.67,0.27 -9.7,0.24l-58.55 -0.1c-21.54,0.02 -57.62,2.1 -77.45,-0.69l-0.02 -9.81zm-254.04 -0.53l249.32 -0.01 -0.01 10.73 -249.27 0.36 -0.04 -11.08zm64.08 -64.15l6.67 -0.82 0.42 -14.02 8.16 -2.4c0.54,-19.17 1.06,-21.04 12.32,-29.32 11.71,4.99 13.71,12.81 14.39,29.09l7.53 4.03 0.01 12.13c12.4,5.67 8.27,-1.52 7.65,59.46 -2.79,1.42 -0.27,1.06 -4.37,1.63l-23.26 0.04c-9.71,-0.02 -20.29,0.83 -29.63,-0.58 -2.32,-5.46 -3.73,-52.38 0.11,-59.24zm595.16 58.81c-0.4,0.18 -1,0.04 -1.22,0.53l-12.56 0.84c-6.04,-0.04 -7.83,0.66 -13.47,-1.46 -1.62,-7.33 -2.32,-3.94 0.87,-10.73 7.43,-2.41 20.17,-2.62 26.69,0.54l-0.31 10.28zm-47.42 -137.34l15.93 -1.57 0.04 139.27 -17.02 -0.01 1.05 -137.69zm-9.24 126.79c2.92,1.85 2.8,-3.95 3.55,4.74 0.79,9.11 -1.43,4.87 -3.55,6.03 -2.38,-5.39 -2.28,-5.33 0,-10.77zm-64.88 -46.1l8.01 -3.9 0.42 -11.7 7.46 -3.48c0.52,-15.62 1.74,-24.55 13.89,-29.68 13.33,6.96 10.62,11.61 13.5,29.26 5.5,2.42 3.18,0.18 7.44,3.9l0.21 11.71 7.84 3.04 -0.21 57.37 -58.42 0.68 -0.14 -57.2zm-7.28 45.91c0.31,0.33 2.57,-1.32 2.52,4.85 -0.09,12.18 0.35,2.29 -2.52,6.42 -0.3,-0.55 -6.74,-2.19 0,-11.27zm-19.5 -0.06c3.63,1.08 2.82,-2.24 4.21,3.22 2.04,8.04 -2.2,7.96 -2.26,8.04 -4.86,-2.03 -3.5,1.39 -4.63,-4.52 -1.2,-6.28 1.89,-5.93 2.68,-6.74zm-65.87 0.55l52.22 -0.55c5.53,1.12 3.06,0.16 6.24,2.91l0.05 5.85c-2.67,1.91 -0.07,1.09 -4.55,2.11l-54.06 -0.02 0.1 -10.3zm-15.94 -0.41l11.08 0.28 0.1 10.28 -11.13 0.58 -0.05 -11.14zm-202.9 -0.12c1.1,1.84 1.48,0.86 2.14,4.84 0.3,1.81 0.14,4.5 0.13,6.35 -7.4,-0.76 -6.04,3.66 -7.24,-4.46 -1.57,-10.7 2.69,-5.71 4.97,-6.73zm-67.98 0.36l58.55 -0.48 0.07 11.38 -58.62 -0.05 0 -10.85zm-15.29 -0.36l9.8 0.2 0.83 10.41 -11.25 0.76 0.62 -11.37zm-14.24 0.14c3.09,4.65 2.16,-5.64 2.41,4.78 0.27,11.62 -0.05,2.96 -2.41,6.32 -6.43,-10.38 -0.02,-11.07 0,-11.1zm-72.15 -0.11c0.26,0.5 6.13,0.22 0,11.24 -2.43,-2.83 -2.79,1.25 -2.95,-4.61 -0.34,-12.38 -0.14,-2.82 2.95,-6.63zm-24.87 -127.46l16.22 -0.15 0.85 138.73 -17.31 -0.06 0.24 -138.52zm-31.63 127.55l26.87 0.06 -0.05 10.61 -26.88 0.56 0.06 -11.23zm632.7 -31.28l26.69 -0.81 0.34 27.29 -27.15 -0.4 0.12 -26.08zm-28.22 15.29c2.49,4.81 1.98,6.64 0,10.78 -2.62,-1.16 -4.02,3.04 -3.82,-5.64 0.18,-7.5 1.33,-4.2 3.82,-5.14zm-74.11 -0.11c0.41,0.46 2.74,-2.23 2.61,5.24 -0.18,10.76 -0.22,2.91 -2.61,5.89 -1.11,-1.71 -2.41,3.38 -2.14,-5.89 0.23,-7.73 1.21,-3.96 2.14,-5.24zm-71.34 0.44c7.15,-0.41 17.41,-0.91 24.59,-0.45 9.19,0.58 11.36,5.45 15.23,10.86l-49.18 0.44 9.36 -10.85zm-286.83 -0.15c29.16,-1.33 29.43,-2.45 39.98,10.35l-49.45 0.46c3.95,-3.26 6.58,-7.29 9.47,-10.81zm-43.55 -0.41c0.51,0.59 2.8,-2.28 2.67,5.36 -0.19,11.3 0.17,2.44 -2.67,6.01 -1.35,-2.06 -2.52,3.92 -2.23,-6.01 0.25,-8.43 1.12,-3.86 2.23,-5.36zm-72.15 -0.22c0.46,0.58 2.72,-2.47 2.59,5.59 -0.18,11.89 -0.09,2.84 -2.59,6.42 -2.67,-1.87 -3.82,1.75 -3.66,-6.45 0.14,-7.46 1.15,-4.25 3.66,-5.56zm-56.38 -15.53l26.4 0.09 0.31 26.51 -26.89 0.54 0.18 -27.14zm497.27 15.9c9.15,0.28 12.05,4.33 15.25,10.85 -10.64,-0.04 -9.71,-5.1 -15.25,-10.85zm-54.28 11.06l-10.44 0.05c1.61,-3.51 3.72,-6.14 7.22,-8.64 4.86,-3.47 3.72,-2.75 11.35,-1.93 -2.56,3.24 -5.62,6.99 -8.13,10.52zm-233.04 -10.28c9.29,-1.89 12.45,4.15 15.78,10 -12.19,0.18 -10.05,-8.34 -15.78,-10zm-64.11 10.25c1.61,-3.56 3.67,-6.05 7.24,-8.56 5.04,-3.55 3.04,-2.75 11.36,-1.96 -6.47,6.9 -3.88,10.86 -18.6,10.52zm362.51 -123l14.06 -0.01 1.1 139.23c-0.56,-0.45 -1.02,-1.87 -1.16,-1.57l-1.69 -3.28c-0.18,-0.57 -0.35,-1.12 -0.51,-1.76 -0.91,-3.55 0.03,-4.29 -1.07,-8.53 -1.31,-5.04 -5.13,-7.16 -7.82,-11.32 -5.99,-9.26 -3.31,-98.89 -2.91,-112.76zm-275.11 138.48c-0.73,-26 -2.24,-13.22 -10.68,-29.32 -3.89,-3.05 -2.91,-52.69 -1.27,-60.91 8.12,-3.15 19.25,-2.13 28.13,-1.13 0.95,3.48 1.7,86.8 0.72,91.49l-12.3 1.49c-3.81,-0.57 -2.56,-0.65 -4.6,-1.62zm-96.65 -0.3l0.24 -137.73 14.32 0.1 0.03 93.2c-0.01,21.03 -0.98,15 -10.15,26.24 -3.05,3.73 -1.55,0.25 -3.05,5.26 -1.43,4.78 0.05,8.15 -1.39,12.93zm467.77 -41.9c2.42,4.3 2.39,6.2 0,10.61 -2.44,-1 -3.87,2.49 -3.79,-5.33 0.08,-7.81 1.06,-4.18 3.79,-5.28zm-74.11 -0.09c0.93,1.04 2.84,-2.76 2.63,5.37 -0.25,9.5 -0.7,3.29 -2.63,5.5 -0.79,-1.08 -2.44,2.75 -2.24,-5.51 0.21,-9.1 0.71,-3.39 2.24,-5.36zm-38.73 -15.81l11.87 -0.5 -0.14 27.12 -11.29 -0.1 -0.44 -26.52zm-15.15 0.39l10.33 -0.52 -0.06 26.24 -10.01 0.28 -0.26 -26zm-17.29 -0.71l12.56 0.01 -0.19 26.82 -11.67 0.24 -0.7 -27.07zm-16.23 0.39l11.65 -0.57 -0.14 27.24 -11.23 -0.28 -0.28 -26.39zm-237.21 0.6l11 -1.32 -0.11 27.37 -10.88 -0.51 -0.01 -25.54zm-15.88 -0.27l11 -0.91 -0.14 27.23 -10.76 -0.35 -0.1 -25.97zm-17.34 -0.76l12.46 0.1 -0.12 26.74 -11.8 0.12 -0.54 -26.96zm-16.27 0.34l11.6 -0.4 -0.17 26.97 -11.13 -0.06 -0.3 -26.51zm-27.62 15.76c1.09,1.18 3,-2.94 2.75,5.44 -0.28,9.37 -0.9,3.44 -2.75,5.48 -0.99,-1.33 -2.48,3.08 -2.26,-5.49 0.23,-9.01 0.87,-3.58 2.26,-5.43zm-72.15 0.1c0.79,1.1 2.25,-2.72 2.09,5.34 -0.19,9.28 -0.64,3.43 -2.09,5.56 -5.06,-2.8 -5.31,-8.29 0,-10.9zm577.02 -32.35l24.63 0.58c1.75,2.89 1.1,-0.23 1.81,4.13l0.07 21.95c-7.73,3.14 -19.32,2.56 -27.69,0.84 -0.63,-4.97 -0.65,-8.22 -0.69,-13.21l0.59 -11.41c0.12,-0.47 0.48,-1.11 0.59,-1.48 0.11,-0.36 0.46,-0.93 0.69,-1.4zm-29.04 16.27c0.02,0.03 5.23,1.9 0,11.04 -2.2,-0.9 -3.73,2.16 -3.78,-5.26 -0.07,-9.15 0.93,-4.46 3.78,-5.78zm-74.11 -0.1c1.82,2.25 3.03,-4.04 2.64,5.9 -0.31,7.89 -1.72,4.27 -2.64,5.33 -0.33,-0.43 -2.45,1.76 -2.37,-5.34 0.12,-11.47 -0.53,-2.01 2.37,-5.89zm-473.87 0.04c1.4,2.21 2.36,-3.72 2.08,5.87 -0.23,7.87 -1.31,4.21 -2.08,5.32 -2.35,-1.15 -3.54,1.63 -3.57,-5.34 -0.04,-8.4 0.79,-4.31 3.57,-5.85zm-56.59 -16.03l26.85 0.11 -0.13 26.77 -26.25 0.3 -0.47 -27.18zm128.74 16.05c2.73,2.93 2.62,-1.59 2.77,4.16 0.34,12.77 -0.16,3.05 -2.77,6.82 -2.24,-4.35 -1.85,5.05 -2.06,-5.12 -0.21,-10.58 -0.19,-2.69 2.06,-5.86zm347.36 -32.19l10.45 -0.25 0.91 27.59 -10.54 0.16 -0.82 -27.5zm-286.01 0.35l9.83 -0.32 0.85 27.23 -10.1 -0.17 -0.58 -26.74zm-61.35 15.28c2.62,2.12 3.77,-1.64 3.47,6.78 -0.22,6.2 -1.14,3.96 -3.47,5.19 -0.34,-0.38 -2.76,0.96 -2.7,-5.21 0.1,-12.41 -0.14,-2.6 2.7,-6.76zm475.83 0.46c0.19,0.36 5.21,0.02 0,11.16 -2.85,-1.95 -2.87,3.61 -3.67,-4.93 -0.86,-9.1 1.22,-4.82 3.67,-6.23zm-74.11 0.01c2.75,3.83 2.51,2.12 2.51,11.08 -5.53,-2.18 -3.6,5.17 -5.13,-4.63 -1.43,-9.16 2.13,-5.79 2.62,-6.45zm-37.8 -15.92c8.57,-0.18 7.12,-2.03 10.96,2.76l-0.03 24.29 -10.18 0.04c-2.66,-6.48 -2.45,-19.02 -0.75,-27.09zm-33.3 2.76c4.31,-4.73 2.9,-2.85 11.52,-2.85 1.17,5.2 1.02,7.22 1.07,12.57l-1.3 13.01c-0.11,0.4 -0.41,1.03 -0.64,1.53l-10.54 0.15 -0.11 -24.41zm-15.44 -2.75l9.66 -0.15 1.26 27.17 -10.18 0.04 -1.67 -12.58c-0.01,-5.4 -0.1,-9.23 0.93,-14.48zm-235.23 -0.21l5.85 -0.05c1.06,1.8 1.38,1.19 2.11,4.96l-2.11 22.5c-9.18,-0.01 -7.6,-1.59 -8.67,-4.83l-0.22 -15.81c1.84,-9.8 0.12,-2.92 3.04,-6.77zm-35.82 1.01l11.32 -0.96c1.08,5.25 0.93,7.38 0.97,12.63 0.06,7.69 0.56,9.29 -1.82,14.5l-10.52 0.09 0.05 -26.26zm-15.59 -0.7l9.53 -0.23 1.3 27.11 -10.12 0.07c-2.61,-6.35 -2.42,-18.92 -0.71,-26.95zm-100.69 15.85c0.95,1.66 1.31,0.8 1.84,4.47 0.28,1.94 0.13,4.6 0.12,6.55 -5.86,-1.16 -4.84,2.56 -5.72,-4.74 -1.04,-8.63 1.87,-5.21 3.76,-6.28zm354.31 -15.74l26.44 -0.24c2.03,10.84 1.07,39.41 0.88,51.67 -0.38,24.1 -13.06,6.38 -13.96,39.44l-10.8 0.07c-3.59,-5.81 -2.24,-15.25 -2.14,-22.09l-0.42 -68.85zm247.22 10.31l-24.36 0.62c-0.82,-1.48 -1.28,-1.02 -1.83,-4.51 -0.26,-1.71 -0.21,-5.85 -0.21,-7.75 0,-5.54 -0.07,-9.37 0.84,-14.84 8.2,-1.62 19.85,-2.3 27.29,0.73 0.61,7.84 1.48,20.85 -1.73,25.75zm-53.55 -10.79c2.25,4.4 1.78,-5.07 1.95,5.01 0.16,9.68 -0.82,4.32 -1.95,6.36 -3.11,-1.84 -2.95,3.78 -3.66,-4.61 -0.8,-9.41 1.57,-5.29 3.66,-6.76zm-74.11 0.1c3.21,5 2.17,-5.85 2.41,4.92 0.25,10.95 -0.44,3.52 -2.41,6.35 -3.43,-4.54 -2.34,5.43 -2.61,-4.59 -0.35,-12.71 -0.5,-2.36 2.61,-6.68zm-401.72 -0.17c2.51,1.12 3.64,-1.1 3.73,5.08 0.12,9.24 -0.71,4.64 -3.73,7.09 -2.18,-3.33 -3.32,5.22 -2.75,-7.06 0.3,-6.43 1.95,-4.26 2.75,-5.11zm-72.15 0.26c3.24,4.14 1.97,4.88 1.99,11.18 -7.37,-1.18 -4.46,2.83 -5.86,-4.52 -1.42,-7.46 1.53,-5.9 3.87,-6.66zm-56.3 -16l25.99 0.18 0.66 26.44 -26.82 0.63 0.17 -27.25zm604.28 0.15c0.43,0.52 2.37,-1.67 2.28,5.06 -0.13,10.5 -0.24,3 -2.28,5.94 -2.66,-1.39 -4.06,2.72 -3.8,-5.94 0.21,-6.95 1.49,-4.17 3.8,-5.06zm-72.49 10.67l-3.35 0.44c-0.06,-0.08 -7.33,-0.25 -0.22,-12.39 1.49,0.47 9.93,0.13 3.57,11.95zm-40.17 -26.35l11.12 -0.26 0.64 26.95 -11.84 -0.31 0.08 -26.38zm-5.79 26.72l-8.5 -0.12c-1.05,-1.88 -1.1,-0.37 -1.62,-4.08l0.42 -22.67 10.66 -0.6c0.56,5.31 0.57,8.75 0.63,13.67 0.02,1.89 0.21,6.25 0.06,7.88l-1.65 5.92zm-26.53 -27.04l11.68 0.16 0.64 26.5 -12.43 0.44 0.11 -27.1zm-16.4 0.38l10.89 -0.32 0.76 26.97 -11.74 -0.27 0.09 -26.38zm-47.05 15.54l41.51 0.15 0.54 10.17 -42.61 0.78 0.56 -11.1zm-174.3 0.93l42.05 -0.85 0.47 10.07 -42.01 0.92 -0.51 -10.14zm-15.93 -15.98l10.31 -0.93 0.7 27.06 -11.27 -0.61 0.26 -25.52zm-15.83 -0.3l10.27 -0.45 0.65 26.77 -11.05 -0.34 0.13 -25.98zm-17.15 -0.51l11.68 0.16 0.49 26.54 -12.35 0.37 0.18 -27.07zm-16.39 0.3l10.78 -0.29 0.67 26.77 -11.62 -0.07 0.17 -26.41zm-25.85 15.71c6.18,11.52 -1.92,10.76 -1.95,10.77 -0.54,-0.77 -2.93,2.48 -2.35,-5.89 0.53,-7.5 1.19,-3.95 4.3,-4.88zm-76.06 -0.03c4.01,1.22 2.52,-2.92 3.98,3.33 1.75,7.51 -2.02,7.64 -2.02,7.65 -4.94,-2.28 -2.49,2.97 -3.88,-4.2 -1.15,-5.88 1.27,-5.88 1.92,-6.78zm527.42 -2.81c7.64,-7.11 4.51,-0.69 5.54,0 -0.93,0.77 2.88,9.21 -5.54,0zm50.62 -28.59l26.93 -0.98 0.15 27.52 -27.04 -0.3 -0.04 -26.24zm-28.1 15.24c0.52,0.63 3.05,-2.79 2.62,5.67 -0.47,9.21 -1,4.25 -4.57,5.48 -5.87,-11.45 0.19,-10.34 1.95,-11.15zm-74.11 -0.01c1.28,1.46 2.94,-3.66 2.68,5.56 -0.29,10.61 -0.3,2.88 -2.68,5.73 -4.88,-3.22 -5.05,-8.25 0,-11.29zm-127.68 9.46l-11.67 2.69c-1.57,21.08 -3.21,19.15 14.41,20.09l0.83 90.95 -152.36 -0.07 -0.16 -90.7 15.11 -1.04 0.02 -19.5 -12.81 -0.93c2.59,-36.5 18.29,-68.2 45.08,-88.33 4.81,-3.61 20.76,-16.05 27.26,-16.94 11.7,-1.61 44.12,30.61 49.3,38.03 12.04,17.27 21.55,39.37 24.99,65.75zm-272.09 -9.34c2.51,4.58 2.38,6.44 0,11.02 -2.8,-0.99 -4.67,3.29 -4.52,-5.58 0.14,-8.85 1.54,-4.45 4.52,-5.44zm-55.95 40.54c-1.79,1.34 -1.22,1.14 -4.21,2.56 -0.13,0.06 -3.19,1.17 -3.6,1.34 -0.81,6.29 0.44,10.48 -2.54,14.39l-0.97 -73.9 58.34 -1.09 -0.01 75.22c-3.94,-4.38 -3.37,-4.35 -3.52,-14.35 -9.19,-4.49 -5.31,0.41 -9.4,-15.43 -6.01,-23.27 -32.48,-25.08 -34.09,11.26zm-20.11 -40.65c5.05,1.89 2.7,-2.76 4.07,3.8 1.42,6.8 -1.85,7.06 -2.11,7.45 -5.07,-2.03 -2.66,2.73 -4.06,-3.95 -1.62,-7.69 2.01,-7.17 2.1,-7.3zm-54.55 -16.03l26.63 0.15 0.15 26.8 -26.78 0.39 0 -27.34zm574.5 33.67c-3.67,-6.02 -2.54,-4.53 -9.95,-6.33 -5.23,6.77 -9.64,6.41 -13.08,15.37 -1.84,4.79 -1.24,7.85 -2.5,11.6 -4.51,13.39 -7.09,-6.19 -8.22,20.66 -6.37,-5.79 -3.19,-62.39 -3.05,-74.99l58.52 0.1c-0.05,13.08 1.79,67.16 -1.48,74.57 -6.32,-13.78 6.04,-7.71 -7.22,-16.37 -0.34,-0.22 -1.02,-0.62 -1.3,-0.8 -0.29,-0.18 -0.93,-0.47 -1.32,-0.8 -0.6,-10.15 -1.39,-13.81 -5.65,-21 19.96,6.29 12.62,-19.07 2.01,-12.27 -4.41,2.84 -3.7,6.63 -6.76,10.26zm29.99 -33.67c0.78,1.1 3.06,-3.11 2.51,6.08 -0.5,8.33 -0.96,4.01 -4.46,4.95 -0.19,-0.32 -2.01,0.32 -1.75,-5.17 0.45,-9.34 0.05,-3.99 3.7,-5.86zm-76.69 -0.38l4.24 0.85c3.19,5.38 2.69,7.73 -1.66,12.99 -1.81,-1.44 -5.75,-0.46 -4.77,-9.32 0.43,-3.86 1.57,-3.52 2.19,-4.52zm-36.14 -15.18l11.79 -0.37 -0.09 27.35 -11.25 -0.17 -0.45 -26.81zm-15.2 0.39l10.41 -0.48 -0.13 26.57 -9.93 0.26 -0.35 -26.35zm-17.26 -0.83l12.52 0.21 -0.11 26.98 -11.67 0.24 -0.74 -27.43zm-16.24 0.5l11.65 -0.46 -0.14 27.46 -11.16 -0.31 -0.35 -26.69zm-237.03 0.15l10.75 -0.62 -0.07 27.49 -10.66 -0.58 -0.02 -26.29zm-16.05 0.3l10.91 -0.94 -0.07 27.48 -10.71 -0.49 -0.13 -26.05zm-17.34 -0.82l12.38 0.12 -0.03 27.11 -11.65 0 -0.7 -27.23zm-16.3 0.32l11.56 -0.35 -0.1 27.17 -11.05 -0.06 -0.41 -26.76zm-27.58 15.53c4.6,2.59 2.29,-2.46 3.52,4.28 0.81,4.42 -0.79,5.44 -1.57,6.85 -4.19,-1.27 -2.61,3.24 -4.17,-3.43 -1.81,-7.7 2.18,-7.64 2.22,-7.7zm-72.15 -0.06c0.61,1.01 2.8,-3 2.2,6.13 -0.53,8.13 -0.82,3.99 -4.16,5.1 -0.26,-0.37 -2.47,1.72 -2.15,-5.32 0.46,-10.03 0.11,-4.1 4.11,-5.91zm602.79 -30.31l0.23 24.38c-1.91,0.99 -0.78,1.15 -4.42,1.68l-22.2 -0.38c-2.09,-7.89 -2.59,-19.72 0.42,-26.98 7.05,-1.07 20.08,-2.09 25.97,1.3zm-104.08 14.31l7.93 0.48c3.38,5.22 2.38,5.12 1,10.48l-9.18 0.73c-1.37,-4.77 -2.71,-5.59 0.25,-11.69zm-429.2 -0.38c6.08,2.04 8.68,4.19 4.59,11.57 -6.89,-1.64 -4.65,-2.8 -4.59,-11.57zm-16.28 1.46l11.89 -1.02 -0.33 10.32 -10.73 0.76 -0.83 -10.06zm-53.23 -0.77c1.45,1.73 3.73,-3.76 2.88,6.2 -0.59,6.95 -1.82,3.93 -4.84,4.64 -3.2,-5.5 -2.47,-8.01 1.96,-10.84zm-56.69 -16.12l26.93 0.22 -0.28 26.69 -25.43 0.13 -1.22 -27.04zm602.72 16.25c3.43,1.66 2.77,-3.59 3.79,4.17 1.3,9.85 -1.33,5.6 -1.84,6.65 -1.79,-1.17 -7.71,1.19 -1.95,-10.82zm-19.04 0.27l12.71 -0.31 -0.1 10.39 -12.54 0.07 -0.07 -10.15zm-14.07 -0.4l9.28 0.26 -0.65 10.38 -6.72 0.34c-1.5,-2.96 -0.8,2.61 -1.85,-4.86 -0.34,-2.42 -0.12,-3.73 -0.06,-6.12zm-31.61 -0.16l11.79 0.22 0.06 10.48 -11.85 0.59 0 -11.29zm-7.44 0.08c3.35,4.55 2.21,-4.99 2.44,4.47 0.31,12.78 0.27,2.46 -2.44,6.63 -1.63,-2.44 -2.36,0.12 -2.46,-4.94 -0.21,-10.83 0.57,-3.6 2.46,-6.16zm-435.49 8.18l0.04 -8.19 10.1 0.09c0,0.5 0.08,6.09 0.03,6.25 -1.35,4.62 -0.15,4.69 -10.18,4.67l0.01 -2.82zm-14.25 -8.1l9.45 -0.17 -0.04 10.95c-12.65,0 -9.41,2.94 -9.41,-10.78zm-16.48 -0.02l11.64 0.03 -0.05 10.75 -11.75 0.28 0.16 -11.06zm125.77 -31.65l10.28 -0.57 0.59 26.68 -10.12 0.55 -0.75 -26.66zm-99.72 16.21l-0.1 10.01c-0.02,0 0.04,3.82 -10.05,-0.1l-1.14 -9.72c10.42,-3.18 4.62,-3.89 11.29,-0.19zm512.33 0.07c0.07,0.14 1.71,0.25 1.87,4.25 0.21,5.58 -0.1,3.4 -1.87,6.04 -0.81,-1.82 -1.4,1.99 -1.51,-4.54 -0.1,-6.07 1.09,-4.96 1.51,-5.75zm-18.92 -0.14l12.52 -0.38 0.15 10.54 -12.79 0.29 0.12 -10.45zm-14.31 -0.53l7.88 0.09c1.77,4.42 1.3,-4.56 1.45,4.7 0.1,5.99 -0.48,3.95 -1.45,6.17l-7.92 0.38 0.04 -11.34zm-5.79 11.04l-8.54 0.54c-2.08,-5.67 -2.22,-4.53 -0.24,-11.87l9.53 0.17c0.4,2.36 0.91,2.31 0.79,4.96l-1.54 6.2zm-25.82 -11.09l11.89 0.08 -0.01 10.9 -11.73 0.15 -0.15 -11.13zm-45.82 -15.85l10.86 -0.21 0.86 27.31 -11.83 -0.3 0.11 -26.8zm-5.98 27.21l-8.28 -0.12 -1.84 -12.36c0.02,-5.57 -0.11,-9.33 0.86,-14.79l10.22 -0.56 -0.32 26.37c-0.1,0.38 -0.42,0.97 -0.64,1.46zm-26.59 -27.59l10.62 0.16c0.62,1.44 0.9,0.14 1.64,5.14l0.19 22.03 -12.48 0.21 0.03 -27.54zm-16.54 19.01l0.24 -11.73 0.41 -6.85 10.52 -0.26 0.83 27.31 -10.19 -0.03 -1.81 -8.44zm-236.98 -18.19l10.21 -0.73 0.88 27.38 -10.23 -0.33 -0.86 -26.32zm-33.09 0.14l11.74 -0.9 0.67 27.2 -11.61 -0.06 -0.8 -26.24zm-16.2 -0.48l10.6 -0.32 0.93 7.11 -0.16 3.92 -0.04 16.3 -11.5 -0.21 0.17 -26.8zm-27.84 16.37c4.34,11.97 0.47,10.26 0,11.32 -3.33,-5.44 -2.25,6.04 -2.54,-5.35 -0.35,-13.75 -0.29,-2.83 2.54,-5.97zm-18.5 -0.27l10.72 -0.05 1.01 10.89 -10.79 -0.12 -0.94 -10.72zm-15.26 -0.37l8.41 0.07c0.05,0.17 2.78,1.12 1.8,6.61 -1.41,7.92 1.19,1.86 -3.75,4.59l-6.44 -0.06 -0.02 -11.21zm-30.79 0.07l11.69 0.03 0.07 11 -11.8 0.22 0.04 -11.25zm-7.6 0.8c2.06,2.13 2.54,-2.25 2.71,4 0.35,12.34 0.32,2.44 -2.71,6.39 -1.14,-2.22 -1.56,-0.11 -1.54,-4.6 0,-3.33 0.65,-3.49 1.54,-5.79zm576.2 -32.09l26.52 -0.76 0.55 27.25 -27.17 -0.4 0.1 -26.09zm-48.84 15.5l11.77 -0.16 0.55 10.55 -12.68 0.28 0.36 -10.67zm-14.19 -0.31l8.42 0.19 0.68 10.48 -9.42 0.59 0.32 -11.26zm-6.51 10.95l-7.84 0.38c-0.7,-1.28 -1.37,-0.91 -1.69,-4.31 -0.37,-3.9 0.09,-3.75 0.64,-7.18l10.24 -0.19c1.11,10.94 1.83,6.55 -1.35,11.3zm-25 -10.93l10.82 0.05 0.74 10.85 -11.93 0.3 0.37 -11.2zm-418.18 10.83l-9.31 0.44c-2.68,-4.92 -1.95,-5.23 -0.94,-11.41l12.04 -0.13c0.64,12.56 0.17,8.42 -1.79,11.1zm-24.54 -10.81l8.86 0.09 0.88 10.83 -10.27 0.27 0.53 -11.19zm-14.26 0.49l8.06 -0.68 1.08 11.29 -6.52 0.02c-4.81,-3.06 -3.63,-1.98 -2.62,-10.63zm-16.67 -0.35l10.7 -0.16 0.71 11.03 -11.93 0.14 0.52 -11.01zm-64.39 -15.97l26.43 0.07 0.25 26.48 -26.88 0.45 0.2 -27zm583.51 0.1c6.28,1.88 6.93,4.67 9.46,10.87l-9.36 -0.26 -0.1 -10.61zm-14.2 -0.18l9.15 0.14 0.02 10.51 -9.15 0.39 -0.02 -11.04zm-14.83 0.58l9.64 -0.03 0.24 9.56 -9.93 0.73 0.05 -10.26zm-6.68 -0.23c2.79,4.21 1.77,4.07 1.47,10.46l-8.83 -0.01c2.16,-4.09 3.65,-7.28 7.36,-10.45zm-56.03 -15.37l10.7 -0.32 0.97 26.32 -11.69 -0.08 0.02 -25.92zm-6.8 26.14l-6.73 -0.09c-5.26,-3.12 -2.77,-20.56 -1.67,-26.2l10.07 -0.52 0.91 21.2c-1.36,8.82 0.51,2.53 -2.58,5.61zm-25.86 -26.57l10.69 0.21c0.71,1.6 0.82,-0.53 1.64,5.05l0.03 21.15 -12.11 0.21 -0.25 -26.62zm-16.04 0.44l10.58 -0.27 1.04 7.03 -0.18 5.87 -0.05 13.5 -11.52 -0.32 0.13 -25.81zm-237.33 0.33l10.11 -0.69 0.85 26.49 -11.12 -0.53 0.16 -25.27zm-15.98 14.25l0.02 -5.85 0.35 -8.47 9.88 -0.53 0.93 8.99 -0.16 3.91 -0.12 13.42 -10.86 -0.4 -0.04 -11.07zm-17.28 -14.83l12.41 0.1 -0.01 26.06 -12.05 0.14 -0.35 -26.3zm-16.06 0.4l10.32 -0.36 1.05 26.2 -11.51 -0.11 0.14 -25.73zm-46.23 15.29c5.51,3.1 6.38,5.45 8.47,10.56l-8.69 -0.27 0.22 -10.29zm-15.17 -0.41l9.57 0.12 0.23 10.64 -9.84 0.23 0.04 -10.99zm-14.34 0.65l8.86 -0.73 0.42 11.1 -9.2 -0.48 -0.08 -9.89zm-5.33 -0.57l0.25 10.9 -9.5 -0.02c3.03,-6.07 3.4,-8.5 9.25,-10.88zm557.08 -31.3l27.12 -1.06 -0.16 27.56 -26.67 -0.33 -0.29 -26.17zm-63.23 7.27l13.23 18.58 -12.87 0.63 -0.36 -19.21zm-4.82 0.65l-0.11 17.58 -12.71 1.05c1.47,-4.36 8.53,-15.79 12.82,-18.63zm-469.31 0.13c4.47,4.13 10.35,13.33 12.86,17.78l-12.71 0.74 -0.15 -18.52zm-5.74 -0.24l0.54 18.72 -12.84 -0.34c3.11,-5.8 7.64,-13.88 12.3,-18.38zm-89.55 -8.63l27.03 0.09 -0.28 26.81 -26.3 0.36 -0.45 -27.26zm491.88 -16.45l11.43 -0.4 0.23 28.64 -11.67 0.04 0.01 -28.28zm-15.22 0.32l10.06 -0.51 0.25 28.06 -10.36 0.26 0.05 -27.81zm-17.17 -0.72l11.96 0.12 0.4 28.56 -12.29 0.17 -0.07 -28.85zm-16.34 0.43l11.11 -0.47 0.57 9.48 -0.09 5.85 -0.1 13.42 -11.49 -0.16 0 -28.12zm-193.49 139.22l-10.14 0.36c3.38,-45.84 21.17,-79.18 55.03,-103.21 33.9,-24.06 35.78,-23.94 68.47,-0.3 11.4,8.24 18.62,15.59 26.96,25.7 14.81,17.98 27.36,47.65 29.17,77.66l-9.58 0.09c-9.29,-13.24 -1.61,-33.15 -26.81,-68.58 -9.61,-13.51 -41.27,-42.41 -53.06,-42.3 -19.71,0.2 -57.89,38.8 -70.24,72.14 -3.22,8.71 -7.32,34.17 -9.8,38.44zm-43.76 -138.83l10.49 -0.94 0.5 28.98 -11.18 -0.57 0.19 -27.47zm-15.88 -0.26l10.58 -0.55 0.48 7.48 -0.08 7.8 -0.11 13.47 -10.84 -0.37 -0.03 -27.83zm-17.2 -0.42l11.99 0.01 0.31 28.58 -12.2 0.09 -0.1 -28.68zm-16.37 0.18l11.21 -0.29 0.25 28.73 -11.36 -0.13 -0.1 -28.31zm362.32 107.61l-10.31 -0.03 -0.02 -91.06 53.92 -0.09 -26.44 41.06c-4.11,6.51 -8.21,14.02 -10.29,22.98 -4.09,17.63 0.68,23.35 -6.86,27.14zm-421.33 -90.8l53.88 -0.2 0 90.66 -13.56 0.19c-9.97,-36.08 4.87,-24.01 -27.45,-70.1l-12.87 -20.55zm474.34 0.02l55.92 -0.36 -0.16 91.14 -15.45 -0.34c-4.93,-24.49 -0.92,-30.07 -14.1,-50.56 -8.19,-12.75 -19.62,-26.4 -26.21,-39.88zm-524.27 90.48l-15.02 0.17 -0.81 -90.42 56.15 -0.61c-5.07,12.3 -18.44,27.48 -25.67,39.18 -12.8,20.72 -9.98,25.96 -14.65,51.68zm611.65 -96.23l-2.48 1.05c-4.79,0.84 -17.53,1.47 -24.73,-1.06 -1.77,-8.03 -2.12,-18.9 0.34,-26.93 8.1,-1.95 20.16,-2.69 27.51,0.58l-0.64 26.36zm-435.3 128.15c-4.76,-2.22 -2.64,-26.3 -2.62,-36.5 0.05,-24.9 -1.73,-104.11 0.52,-117.55 8.02,-2.78 200.71,-3.1 216.17,-0.6 2.72,9.71 1.25,94.59 1.21,116.2l-0.19 34.94c-1.11,4.63 -0.22,1.68 -2.07,4.15l-12.8 -0.77c-3.43,-45.46 -20.18,-69.26 -43.69,-94.89 -8.69,-9.46 -43.27,-31.94 -50.65,-31.84 -11.9,0.18 -52.93,28.87 -65.01,45 -20.07,26.82 -24.31,43.07 -30.5,82.29l-10.37 -0.43zm-223.49 -154.77l25.76 0.32 0.85 26.21 -26.94 0.83 0.33 -27.36zm31.44 16.86c6.52,-2.4 113.09,-2.44 119.47,0 -2.82,5.54 -51.7,2.77 -59.58,2.76 -10.4,0 -20.8,-0.01 -31.21,-0.01l-23.37 0.07c-11.69,-1.58 1.41,-0.1 -5.31,-2.82zm476.85 -15.9l118.36 -0.78 1.03 10.9 -119.03 0.07 -0.36 -10.19zm-16.49 -0.73l10.52 -0.08 0.69 10.22 -10.97 -0.08 -0.24 -10.06zm-8.49 10.24l-3.92 -0.1c-4.37,-3.1 -5.05,0.75 -2.95,-10.23 6.32,-0.78 5.34,-1.57 10.41,1.12 0.96,12.35 0.05,6.72 -3.54,9.21zm-23.98 -0.5l-0.33 -9.83 8.7 -0.04c4.61,2.84 1.4,-3 3.31,3.26 1.12,3.65 0.26,3.73 -0.19,6.99l-11.49 -0.38zm-16.25 -9.62l10.43 -0.26 0.57 10.42 -10.92 -0.24 -0.08 -9.92zm-226.07 0.27l-1.04 9.84 -8.28 0c-2.15,-1.84 -4.77,0.96 -2.19,-10.25 2.47,-0.83 0.54,-1.41 5.01,-1.34l6.5 1.75zm-16.34 0.56l0.13 8.7 -11.45 0.89 -0.26 -10.63c2.79,-0.39 2.7,-1 5.74,-0.79l5.84 1.83zm-16.03 0.47l0.29 7.63c-0.65,0.45 1.84,5.54 -12.7,0.73l-0.27 -9.61c3.51,-0.81 2.93,-1.53 7.15,-1.12 7.68,0.76 3.08,0.05 5.53,2.37zm-28.35 -1.42l10.45 -0.09 0.59 10.29 -10.85 -0.16 -0.19 -10.04zm-124.58 0.25l118.78 -0.25 0.56 10.25 -119.67 0.72 0.33 -10.72zm609.55 -32.16c2.35,3.02 0.72,-3.02 2.54,5.05 0.23,1.04 0.5,5.26 0.61,6.47 0.47,5.22 0.96,10.25 1.29,15.49l-8.28 -0.05c0.21,-5 0.67,-9.52 1.12,-14.52 0.2,-2.1 0.2,-4.67 0.61,-6.8 1.28,-6.72 -0.1,-2.08 2.11,-5.64zm-23.4 -0.06c3.5,5.22 3.71,19.95 4.09,27.1l-8.17 -0.16c0.13,-4.91 0.54,-9.43 0.96,-14.19 0.82,-9.22 -0.01,-8.48 3.12,-12.75zm-23.4 0.1c2.6,4.53 2.04,6.8 2.67,13.16 0.62,6.3 1.77,9.15 -0.72,13.75l-6.46 -0.05 1.68 -21.57c2.16,-8.71 -0.13,-1.93 2.83,-5.29zm-23.4 0.2l3.59 26.49 -8.52 -0.23 1.64 -20.39c2.11,-11.49 -0.73,-2.24 3.29,-5.87zm-23.41 0.09l3.28 26.03 -8.55 0.39c0.34,-4.71 0.76,-8.98 1.14,-13.35 0.65,-7.51 -0.84,-10.65 4.13,-13.07zm-111.73 24.81c5.8,-2.78 10.37,-1.79 18.13,-1.74 13.07,0.08 49.73,-2.03 55.79,1.74 -4.92,3.78 -53.35,2.98 -65.68,2.28l-8.24 -2.28zm-286.66 0c0.47,-0.23 1.14,-1.12 1.4,-0.67l36.22 -1.08c9.04,0.03 29.44,-2.33 36.16,1.75 -4.82,4.09 -53.23,3.04 -65.55,2.32l-8.23 -2.32zm-36.48 -24.98c1.97,4.37 2.05,11.12 2.74,17.03 1.34,11.38 2.72,9.45 -7.77,9.79 0.59,-7.2 -0.49,-22.19 5.03,-26.82zm-25.35 0.14c5.71,3.21 4.69,19.49 4.94,26.71l-6.89 -0.21c-2.18,-5.35 -0.67,-20.54 1.95,-26.5zm-23.4 -0.23c1.9,2.02 1.75,0.34 2.84,4.72l1.96 22.22 -6.75 -0.08c-1.07,-1.99 -2.23,1.58 -0.82,-11.6 0.64,-6.03 0.42,-10.6 2.77,-15.26zm-23.41 -0.11c1.88,2.35 1.05,-1.88 2.65,5.54l1.67 21.38 -8.15 0c0.27,-8.29 0.21,-21.08 3.83,-26.92zm-23.4 -0.14c3.47,5.32 3.67,19.79 3.96,26.99l-8.12 0.12c0.15,-4.91 0.56,-9.58 0.97,-14.26 0.88,-10.01 0.16,-8.59 3.19,-12.85zm418.76 17.52c6.29,-3.31 28.13,-1.9 37.57,-1.92 8.8,-0.02 30.43,-2.15 36.22,1.92 -5.03,3.63 -53.28,2.84 -65.61,2.19 -0.3,-0.02 -3.07,-0.15 -3.74,-0.28 -3.58,-0.69 -2.93,-1.02 -4.44,-1.91zm-268.6 -1.84c11.74,-0.03 48.41,-3.17 55.7,1.84 -5.6,4.02 -61.9,1.94 -73.79,1.94 2.47,-4.97 -6.89,-3.73 18.09,-3.78zm-72.42 -15.84l10.4 0.13c-0.87,11.03 -1.04,20.24 -3.5,25.9 -0.12,0.28 -0.51,0.8 -0.78,1.19 -6.38,-2.65 -4.51,-7.19 -6.12,-27.22zm434.43 -0.02l10.59 0.14c-1.35,16.34 0.1,24.27 -5.98,27.22 -3.15,-4.22 -2.33,-2.74 -3.16,-12.24 -0.44,-5.04 -0.95,-10.08 -1.45,-15.12zm-406.86 27.06c-3.55,-6.19 -3.2,-18.68 -3.93,-26.93l10.67 -0.12c-2.85,26.16 0.43,24.86 -6.74,27.05zm454.5 -26.86l10.4 -0.06 -1.93 22.25c-2.42,8.72 1.44,2.71 -4.69,4.71 -3.4,-6.25 -3.15,-18.57 -3.78,-26.9zm-23.79 -0.09l10.2 0.06 -1.7 21.97c-2.27,8.81 1.61,2.72 -4.33,5.07 -3.64,-5.88 -3.41,-18.67 -4.17,-27.1zm-475.56 26.99c-6.02,-2.08 -4.12,0.1 -4.93,-9.6 -0.48,-5.79 -1.06,-11.53 -1.55,-17.32l10.5 -0.06c-0.81,8.35 -0.34,20.74 -4.02,26.98zm578.18 0c-6.98,-1.75 -5.43,1.07 -6.33,-10.07 -0.45,-5.67 -0.96,-11.23 -1.5,-16.9l10.53 0.14 -2.7 26.83zm-131.09 -25.56l2.16 25.73 -12.22 0 -0.58 -15.71 -16.43 -0.72 -0.3 -10.3c8.75,-0.69 19.39,-1.74 27.37,1zm-48.55 -1.17l16.42 0.37 -0.55 10.41 -15.68 -0.37 -0.19 -10.41zm-23.04 0.2l18.36 -0.16 -0.65 10.92 -17.48 -0.98 -0.23 -9.78zm-242.49 0.01l237.54 -0.47 -0.04 9.79 -16.83 2.13 -0.24 15.23 -203.05 0.01 -0.4 -15.31 -16.51 -0.96 -0.47 -10.42zm-21.17 -0.15l16.44 0.11 -0.47 10.63 -15.68 -0.46 -0.29 -10.28zm-22.81 -0.25l18.18 0.08 -0.73 10.95 -17.45 -1.31 0 -9.72zm-22.28 27.07l-12.94 0.04 2.59 -27.19 27.7 0.07 -0.32 11.1 -16.71 0.67 -0.32 15.31zm487.08 -0.5c-6.23,-1.17 -4.78,1.59 -5.63,-8.96 -0.47,-5.9 -0.99,-11.76 -1.52,-17.66 11.62,-0.06 10.83,-1.11 9.45,11.86 -0.55,5.16 -0.47,10.41 -2.3,14.76zm-29.25 -26.38l8.9 -0.32 -1.91 22.62c-1.67,5.53 0.06,3.07 -5.04,4.21 -1.97,-4.27 -1.79,-7.82 -2.3,-13.01 -0.6,-6.07 -1.66,-9.12 0.35,-13.5zm-547.08 26.76c-6.85,-1.73 -5.44,1.24 -6.31,-10.1 -0.44,-5.78 -0.84,-11.09 -1.55,-16.88l10.43 0.09 -2.57 26.89zm-55.2 -26.54l10.49 -0.52c-0.43,5.35 -1.02,10.53 -1.44,15.79 -0.8,9.88 1.47,9.99 -5.46,10.98l-3.59 -26.25zm676.16 26.54l-15.15 0.22 2.43 -26.67 20.73 -0.63 -8.01 27.08zm-693.19 -0.5l-8.3 -26.44 20.55 0.35 2.36 26.86 -14.61 -0.77zm48.57 0.25c-7.25,-0.85 -5.36,0.47 -6.23,-9 -0.54,-5.91 -1.1,-11.84 -1.55,-17.75l10.53 0.35 -2.75 26.4zm444.8 -74.95l16.11 -0.05c1.83,9.63 2.21,34.54 -0.28,43.9l-16.44 -0.5 0.61 -43.35zm-265.07 43.52c2.2,-3.5 -2.38,-1.33 3.22,-3.02l233.73 1.87c-11.27,4.37 -206.9,1.2 -236.95,1.15zm-21.52 -43.6l16.04 0.01c1.99,9.53 2.22,34.42 -0.24,43.85l-16.49 -0.33 0.69 -43.53zm-4.68 1.22l-0.1 41.32c-4.72,3.78 -13.51,2.16 -19.31,0.91l0.6 -43.57 12.84 -0.91c10.45,0.51 3.63,0.38 5.97,2.25zm268.19 -0.95l18.24 0.21 -0.06 42.94 -18.19 0.13 0.01 -43.28zm-292.62 43.15l-188.07 -0.85 -2.84 -10.16 192.26 0.12 -1.35 10.89zm50.34 -8.77c0.33,-0.29 0.85,-0.6 1.1,-0.7l236.4 -1.6c-3.21,5.48 -2.24,3.76 -11.8,3.7 -38.92,-0.23 -219.35,1.57 -225.7,-1.4zm286.35 -2.23l192.36 0.71 -4.35 10.24 -187.43 -0.19 -0.58 -10.76zm193.35 -7.52c-2.82,2.13 -0.04,1.12 -4.59,2.5l-188.61 -0.4 -0.05 -10.29 46.34 -0.23c5.55,0 138.97,-3.27 146.95,2.57l-0.04 5.85zm-256.01 2.93c-49.08,-0.12 -201.25,1.81 -223.94,-0.69l-0.03 -10.51 228.02 -0.58c8.54,0.42 9.72,-2.51 9.7,8.85 -0.42,0.35 -1.04,0.68 -1.41,0.83 -0.37,0.16 -0.99,0.59 -1.46,0.76l-10.88 1.34zm-273 -11.26c-0.05,13.87 -0.31,10.7 -9.62,11.21l-183.66 -0.28 -0.08 -11.09 193.36 0.16zm336.3 -16.02c20.48,-0.91 151.3,-2.62 161.25,0.94l0.33 10.12 -162.31 -0.5 0.73 -10.56zm-86.81 -36.63l11.02 0.86 0.12 46.33 -11.13 0.28 -0.01 -47.47zm-15.9 -0.05l10.94 0.7 0.32 46.42 -11.29 0.46 0.02 -9.96 -0.01 -9.75 -0.01 -11.7 0.03 -16.17zm-13.35 47.65c-2.92,-4.01 -2.49,-3.87 -2.56,-11.86l-0.07 -27.67c0.83,-8.56 -2.88,-8.03 8.49,-7.92 1.58,1.97 2.73,-0.78 2.88,11.96l-0.18 35.59 -8.56 -0.1zm-18.32 -47.51l8.57 0.03c5.28,7.09 2.52,38.61 2.65,47.59l-11.21 -0.07 -0.01 -47.55zm-14.84 0.32l10.19 -0.33 0.02 47.7 -11.06 -0.77 0.85 -46.6zm-16.81 0.19l11.06 -0.43 0.06 47.59 -11.13 -0.87 0.01 -46.29zm-15.73 -0.11l10.9 -0.26 -0.05 47.42 -10.75 -0.69 -0.1 -46.47zm-15.9 -0.25l11.15 0.08 -0.03 47.21 -11.1 -0.22 -0.02 -47.07zm-15.87 -0.23l11.09 0.73 0 46.54 -10.99 0.2 -0.09 -9.91 0.02 -21.45 -0.03 -16.11zm-15.72 0.01l10.74 0.6 0.19 46.39 -10.85 0.54 -0.08 -47.53zm-15.92 0.04c13.46,0.12 11.18,0.47 11.33,10.02l-0.16 36.9 -11.13 0.71 -0.04 -47.63zm-15.87 47.7c-0.05,-8.41 -2.56,-40.88 2.63,-47.63l5.85 -0.02c4.36,5.53 2.73,13.73 2.7,23.81 -0.03,7.9 0.03,15.78 -0.04,23.65l-11.14 0.19zm-236.4 -11.33l160.73 -0.03 0.45 11.26 -162.13 0 0.95 -11.23zm568.96 -47.85l90.05 -0.24 -0.22 43.29 -89.79 -0.39 -0.04 -42.66zm-31.2 31.94l26.24 0.37 0.16 10.6 -26.95 0.1 0.55 -11.07zm-95.24 0.15l59.81 -0.06 0.22 10.98 -60.31 -0.13 0.28 -10.79zm-286.61 -0.03l59.63 0 0.32 10.93 -60.48 -0.1 0.53 -10.83zm-61.13 -0.1c8.21,0 19.6,-1.08 25.96,1.43l0.07 9.67 -26.75 -0.06 0.72 -11.04zm-95.62 -32.02l90.22 0.03 -0.13 43.09 -90.05 -0.05 -0.04 -43.07zm538.12 -0.05l27.02 0.52 -0.35 26.49 -9 0.3 -5.85 -0.01 -11.58 0.01 -0.3 -9.41 -0.02 -5.85 0.08 -12.05zm-95.08 25.7l7.27 -2.05c2,-0.11 5.75,0.14 7.95,0.17l33.24 -0.08c14.06,-0.19 10.35,0.28 11.87,3.67 -12.49,-0.03 -52.55,2.64 -60.33,-1.71zm-286.86 0c2.45,-1.78 -0.51,-1.03 3.89,-1.99 0.62,-0.14 3.47,-0.3 3.59,-0.31l49.05 0.14c5.81,1.46 2.22,-0.77 3.97,3.99 -10.51,-0.02 -54.13,1.83 -60.5,-1.83zm-61.2 -25.6l26.88 -0.03 -0.46 27.26 -26.37 -0.09 -0.05 -27.14zm402.68 0.06l35.73 -0.03 -0.21 43.01 -24.8 0.09 -0.17 -21.43c-5.64,-5 -3.8,-1.06 -10.33,-3.9l-0.22 -17.74zm-4.78 12.46l-0.34 6.13 -15.81 -0.84 -0.19 -5.66 16.34 0.37zm-21.1 1.38c-0.49,2.44 2.93,8.72 -17.81,4.24l-0.33 -4.96c5.81,-1.74 13.02,-2.62 18.14,0.72zm-44.52 -2.37l21.52 -0.03c-0.93,11.44 0.87,3.82 -10.56,10.2l3.31 24.72c8.02,3.52 6.84,1.85 7.41,12.7l-21.7 -0.29 0.02 -47.3zm-205.78 9.03c-10.78,-3.47 -9.18,1.89 -10.44,-6.66 5.3,-4.4 8.99,-2.46 21.5,-2.42l-0.05 47.66 -21.53 -0.39 0.27 -10.22 10.27 -2.21 -0.02 -25.76zm-15.2 -8.59l-0.26 6.66 -15.73 -0.03 -0.42 -6.83 16.41 0.2zm-21.09 -0.41l-0.45 7.18 -17.54 -0.6 -0.44 -6.11 18.43 -0.47zm-58.59 -11.57l35.57 -0.12 -0.43 17.93c-4.43,1.83 -5.85,0.85 -10.24,3.9l-0.03 21.22 -24.93 0.11 0.06 -43.04zm350.43 -32.12l15.32 0.01c2.52,8.28 2.42,31.03 -0.06,39.62l-16.3 -0.41 1.04 -39.22zm-23.5 0.18l18.27 0.37 0.02 8.43 0.13 9.75 -0.99 20.49 -16.09 0.02c-1.28,-4.21 -1.32,-1.72 -1.3,-6.86l-0.04 -32.2zm-262.95 0.21l15.64 0 -1.04 38.42 -15.15 -0.16 0.55 -38.26zm45.38 38.52c-27.01,0.19 -22.83,2.27 -24.88,-4.58 3.77,-3.02 -1.24,-0.93 5.53,-2.11l173.42 -0.15c7.89,0.01 52.41,-2.13 58.66,2.26 -2.19,6 1.03,2.07 -4.33,4.2l-208.4 0.38zm-69.12 -38.75l18.24 0.14 0.05 38.53 -18.34 0.13 0.05 -38.8zm252.44 27.08c-47.95,-0.02 -179.43,2.26 -208.25,-0.5l-0.01 -10.49c66.16,-1.76 149.96,-0.3 218.01,-0.3 6.72,0 15.07,-1.18 19.72,2.78l0 5.85c-7.84,6.27 -0.13,1.34 -6.14,2.5l-23.33 0.16zm78.4 -11.25l171.68 0.03 -7.65 9.37c-8.86,4.86 -139.2,1.8 -164,1.32l-0.03 -10.72zm-507.52 -0.03l115.15 -0.01c10.21,0 49.84,-3.19 56.83,2.78l-0.04 5.85c-3.21,2.55 0.59,0.73 -4.46,2.11l-159.95 0.14 -7.53 -10.87zm508.39 -15.78l161.11 0.68 -0.52 10.51 -161.67 -0.49 1.08 -10.7zm-286.78 0l236.49 -0.05 0.65 11.22 -238.04 -0.38 0.9 -10.79zm-210.82 -0.05l160.95 1.04 0.22 10.16 -162.47 -0.02 1.3 -11.18zm444.39 -15.94l57.92 -0.17 0.09 11.29 -58.3 -0.35 0.29 -10.77zm-286.74 0.06l57.96 -0.21 0.09 11.27 -58.44 -0.14 0.39 -10.92zm501.17 -16.23l-0.01 27.29 -151.3 0.02 -0.35 -15.32 -15.92 -1 -0.19 -10.92 167.77 -0.07zm-184.02 -32.01l9.83 0.34c4.16,9.68 2.19,30.51 1.1,42.72l-10.89 0.25 -0.04 -43.31zm-14.46 1.62c0.11,-0.9 0.54,-1.05 0.89,-1.54l5.85 -0.01c5.45,6.77 3.26,34.6 2.22,43.13l-10.07 0.07 1.11 -41.65zm-20.85 42.03l-0.48 15.64 -218.19 -0.14 -0.33 -15.08 -15.96 -1.29 -0.21 -10.71 249.26 0.13 -0.27 9.57c-4.81,2.45 -7.12,1.47 -13.82,1.88zm-251.46 -43.52l9.93 0.32c3.98,10.22 1.99,30.15 0.98,42.55l-10.8 0.12 -0.11 -42.99zm-15.46 42.95c-1.09,-7 -1.94,-32.56 0.29,-39.88l7.55 -3.17c2.24,2.93 1.09,0.09 2.39,4.8l-0.35 38.37 -9.88 -0.12zm-173.39 -11.01l167.74 -0.09 -0.31 9.79c-4.76,2.48 -6.97,1.47 -13.92,1.79l-0.15 15.7 -153.43 -0.07 0.07 -27.12zm454.52 -62.21l-0.12 56.46c-9.08,4.16 -249.19,1.2 -249.79,1.15l0.43 -59.36c48.9,-3.01 159.07,-0.28 219.96,-0.38 7.98,-0.01 22.93,-1.99 29.52,2.13zm21.67 -1.61l10.62 0.4 0.18 26.49 -11.54 0.19 0.74 -27.08zm-6.09 27.22l-9.87 -0.21c-3.11,-5.82 -2.74,-21.21 -0.07,-28.41l11.11 1.65 0.49 22.53c-1.14,8 0.05,1.1 -1.66,4.44zm-280.62 -27.21l10.57 0.42 0.21 26.39 -11.56 0.33 0.78 -27.14zm-6.21 27.1l-9.89 -0.01c-0.22,-0.44 -0.56,-1 -0.66,-1.33 -0.1,-0.34 -0.45,-0.98 -0.56,-1.42l0.08 -23.91c6.93,-2.81 5.07,-2.82 12.1,-0.06 1.2,7.51 1.76,21.23 -1.07,26.73zm265.71 -33.55c4.07,-2.78 44.45,-3.51 50.27,0 -2.44,1.66 1.99,1.26 -5.9,2.2l-19.6 -0.16c-7.72,-0.03 -19.71,1.64 -24.77,-2.04zm-68.87 -15.29l26.39 0.9 -0.04 15.92 -26.89 0.33 0.54 -17.15zm-31.95 0.34l26.6 -0.16 0.11 17.05 -26.9 -0.98 0.19 -15.91zm-31.45 -0.07l26.38 -0.14 0 17.05 -26.69 -0.62 0.31 -16.29zm-31.63 -0.18l26.45 0.3 -0.08 16.63 -26.97 0.1 0.6 -17.03zm-31.63 -0.1l26.35 0.82 -0.03 16.05 -26.8 0.26 0.48 -17.13zm-91.14 15.3c3.8,-2.66 38.06,-3.25 46.09,-1.92 4.32,0.72 1.72,0.37 4.06,1.92 -6.4,4.13 -46.59,2.63 -50.15,0zm313.89 -15.63l10.58 0.9 -0.37 8.47 -10.37 -0.3 0.16 -9.07zm-15.94 0.46l11.19 0.13 -0.41 8.66 -11.05 -1.42 0.27 -7.37zm-270.92 -0.75l10.76 1.23 -0.58 8.56 -10.3 -0.24 0.12 -9.55zm-4.56 0.88l-0.42 8.43 -10.76 0.09 -0.3 -8.09 11.48 -0.43zm301.69 -6.41c-5.4,3.28 -7.98,3.38 -10.21,-1.95 4.29,-3.57 8.27,-5.16 10.21,1.95zm-20.54 1.94c-8.76,0.1 -4.64,-1.25 -6.08,-3.89 3.73,-2.57 -5.49,-2.16 6.08,-2.39 9.05,-0.18 4.19,1.29 5.7,2.39 -1.34,2.77 2.46,3.79 -5.7,3.89zm-272.61 -0.38c-5.59,-0.62 -2.4,-0.73 -3.51,-3.51 0.26,-0.22 0.06,-5.73 9.9,0 -1.44,2.18 2.91,4.55 -6.39,3.51zm-14.05 0.34c-8.66,0.1 -4.74,-1.38 -6.16,-3.85 3.67,-2.4 -5.16,-2.11 6.15,-2.34 8.98,-0.18 4.09,1.2 5.65,2.34 -1.23,2.64 2.65,3.76 -5.64,3.85zm10.81 -20.12c3.68,-4.49 3.53,-4.25 11.56,-1.22l-1.67 11.02c-7.87,1.76 -6.93,1.69 -10.45,-2.27l0.56 -7.53zm286.24 -1.2l7.2 -0.74 2.96 1.24c-0.01,9.63 0.63,10.55 -9.65,9.64l-0.51 -10.14zm-16.4 -0.62l11.76 0.11 -0.14 10.92 -11.76 0.08 0.14 -11.11zm-286.85 -0.07l11.91 0.23 -0.1 10.84 -11.77 0.21 -0.04 -11.28zm14.01 -4.64c-7.6,-0.01 -16.19,1.93 -19.74,-2.55 6.84,-1.74 37.36,-4.11 40.09,1.95 -6.16,1.46 -13.82,0.62 -20.35,0.6zm286.67 -8.03c-3.2,-5.78 -2.25,-13.02 1.22,-18.17 2.53,21.02 1.01,15.24 -1.22,18.17zm-7.8 0.09c-0.86,-1.41 -2.75,-2.49 -1.34,-9.26 1.05,-4.99 1.28,-4.02 3.08,-6.82 0.77,7.66 1.35,10.26 -1.74,16.08zm-278.87 -0.08c-2.13,-2.92 -1.79,2.53 -2.49,-6.19l3.22 -14.55c0.79,3.27 1.83,7.31 2.11,10.65 1.09,13.02 -0.33,7.41 -2.84,10.09zm-14.2 -0.84c-6.76,0.85 -6.45,-0.14 -11.52,2.41 3.45,28.93 7.02,-15.1 6.85,44.85l-7.72 2.43c-0.42,0.18 -1.1,0.56 -1.44,0.72 -0.34,0.16 -1,0.43 -1.43,0.75 -0.44,14.14 0.81,7.7 9.75,11.7l0.1 57.69 -172.09 -0.06 -0.33 46.94 -14.02 1.89c4.33,17.91 14.36,3.42 14.1,31.91 -0.14,15.23 -0.36,31.06 0.06,46.25l-30.37 1.12c-4.8,21.1 9.77,49.92 14.66,68.69l15.1 0.19 0.53 268.02c-0.08,8.66 -0.86,12.27 1.59,19.05 31.48,2.64 191.8,0.34 237.19,0.34 135.2,0 282.89,-1.84 417.51,0.16 17.73,0.26 12.9,4.11 13.18,-46.86 0.29,-51.82 -2.7,-201.86 0.4,-239.86l15.3 -1.58c4.04,-17.72 20.67,-50.22 14.13,-66.87 -6.84,-3 -20.73,-1.49 -29.98,-1.46 0.92,-91.68 -0.28,-49.16 14.01,-78.3 -5.25,-2.64 -7.31,-1.7 -13.98,-1.71l0 -46.7c-16.66,-4.18 -138.19,0.75 -171.92,-1.52l-0.79 -57.32c11.2,-5.05 12.69,6.19 11.97,-11.71l-6.43 -2.47c-3.53,-1.08 -1.06,0.78 -5.66,-1.43l-0.37 -31.2c0.51,-0.32 1.27,-1.06 1.46,-0.68 0,0 5.95,0.05 7.22,-12.97l-11.42 -2.67c-1.78,-25.9 -6.61,-14.12 -12.39,-34.17l-2.38 -5.86c-6.92,10.49 4.79,-0.43 -8.4,18.65 -4.48,6.48 -5.15,13.19 -5.92,21.71 -6.67,0.78 -6.18,-0.25 -11.34,2.34 2.67,23.4 10.21,-5.24 6.61,44.85 -15.41,5.79 -4.64,-2.95 -12.15,9.4l-31.01 0.05 0 -16.53c5.51,-0.23 10.28,-0.17 15.45,-0.12 6.75,0.07 11.02,0.89 15.53,-2.55 -6.84,-5.09 -105.02,-2.33 -113.09,-2.34 -15.81,-0.01 -104.52,-3.82 -112.56,2.34 6.17,4.92 21.78,2.48 30.82,2.48l0.43 16.69c-44.39,0.02 -25.89,-0.81 -33.18,-6.11 -5.5,-3.99 -3.93,-0.44 -10.03,-3.31l-0.36 -31.2c0.43,-0.32 1.21,-1.08 1.41,-0.69 0.03,0.06 5.74,0.2 7.34,-12.96l-11.46 -2.59c-2.04,-24.61 -5.17,-12.29 -12.84,-35.82 -0.16,-0.48 -0.39,-1.07 -0.55,-1.49l-1.37 -2.8c-4.44,6.43 -0.56,4.16 -2.91,10.75 -3.2,8.99 -9.92,5.18 -11.29,29.54z"/>
  <path class="fil9" d="M728.01 756.9c-3.44,-26.38 -12.95,-48.48 -24.99,-65.75 -5.18,-7.42 -37.6,-39.64 -49.3,-38.03 -6.5,0.89 -22.45,13.33 -27.26,16.94 -26.79,20.13 -42.49,51.83 -45.08,88.33l12.81 0.93 -0.02 19.5 -15.11 1.04 0.16 90.7 152.36 0.07 -0.83 -90.95c-17.62,-0.94 -15.98,0.99 -14.41,-20.09l11.67 -2.69z"/>
  <path class="fil9" d="M563.39 641.53c5.54,-5.61 14.09,-12.22 22.46,-2.9 8.58,9.56 1.58,17.38 -4.64,22.68 -8.19,2.83 -15.21,-4.56 -18.27,-7.22l0.45 -12.56zm165.54 19.36c-16.68,-14.5 -4.41,-31.15 10.33,-25.62 11.78,4.41 13.96,27.74 -10.33,25.62zm-179.85 97.41l10.37 0.43c6.19,-39.22 10.43,-55.47 30.5,-82.29 12.08,-16.13 53.11,-44.82 65.01,-45 7.38,-0.1 41.96,22.38 50.65,31.84 23.51,25.63 40.26,49.43 43.69,94.89l12.8 0.77 0.67 -154.22 -214.49 -0.04 0.8 153.62z"/>
  <path class="fil9" d="M530.74 422.49l15.96 1.29 0.33 15.08 218.19 0.14 0.48 -15.64c6.7,-0.41 9.01,0.57 13.82,-1.88l0.27 -9.57 -249.26 -0.13 0.21 10.71z"/>
  <polygon class="fil9" points="756.71,598.75 756.95,583.52 773.78,581.39 773.82,571.6 536.28,572.07 536.75,582.49 553.26,583.45 553.66,598.76 "/>
  <path class="fil9" d="M542.28 360.09l225.35 -0.97 0.41 36.31c-23.94,1.35 -215.76,2.07 -224.76,-0.8l-1 -34.54zm237.51 45.94l0.12 -56.46 -249.28 -0.14 0.37 56.24 248.79 0.36z"/>
  <polygon class="fil10" points="547.77,390.36 763.27,390.3 763.01,364.4 547.84,364.56 "/>
  <path class="fil9" d="M863.11 870.65l58.42 -0.68 0.21 -57.37 -7.84 -3.04 -0.21 -11.71c-4.26,-3.72 -1.94,-1.48 -7.44,-3.9 -2.88,-17.65 -0.17,-22.3 -13.5,-29.26 -12.15,5.13 -13.37,14.06 -13.89,29.68l-7.46 3.48 -0.42 11.7 -8.01 3.9 0.14 57.2z"/>
  <path class="fil9" d="M389.35 811.29l0.02 58.27 57.13 -0.12c0.62,-60.98 4.75,-53.79 -7.65,-59.46l-0.01 -12.13 -7.53 -4.03c-0.68,-16.28 -2.68,-24.1 -14.39,-29.09 -11.26,8.28 -11.78,10.15 -12.32,29.32l-8.16 2.4 -0.42 14.02 -6.67 0.82z"/>
  <path class="fil9" d="M325.32 438.9l153.43 0.07 0.15 -15.7c6.95,-0.32 9.16,0.69 13.92,-1.79l0.31 -9.79 -167.74 0.09 -0.07 27.12z"/>
  <polygon class="fil9" points="817.45,422.71 833.37,423.71 833.72,439.03 985.02,439.01 985.03,411.72 817.26,411.79 "/>
  <polygon class="fil9" points="325.3,518.85 415.35,518.9 415.48,475.81 325.26,475.78 "/>
  <polygon class="fil9" points="895.1,518.5 984.89,518.89 985.11,475.6 895.06,475.84 "/>
  <path class="fil9" d="M574.88 758.4c2.48,-4.27 6.58,-29.73 9.8,-38.44 12.35,-33.34 50.53,-71.94 70.24,-72.14 11.79,-0.11 43.45,28.79 53.06,42.3 25.2,35.43 17.52,55.34 26.81,68.58l9.58 -0.09c-1.81,-30.01 -14.36,-59.68 -29.17,-77.66 -8.34,-10.11 -15.56,-17.46 -26.96,-25.7 -32.69,-23.64 -34.57,-23.76 -68.47,0.3 -33.86,24.03 -51.65,57.37 -55.03,103.21l10.14 -0.36z"/>
  <path class="fil9" d="M536.29 470.44c28.82,2.76 160.3,0.48 208.25,0.5l23.33 -0.16c6.01,-1.16 -1.7,3.77 6.14,-2.5l0 -5.85c-4.65,-3.96 -13,-2.78 -19.72,-2.78 -68.05,0 -151.85,-1.46 -218.01,0.3l0.01 10.49z"/>
  <path class="fil9" d="M536.3 550.48c22.69,2.5 174.86,0.57 223.94,0.69l10.88 -1.34c0.47,-0.17 1.09,-0.6 1.46,-0.76 0.37,-0.15 0.99,-0.48 1.41,-0.83 0.02,-11.36 -1.16,-8.43 -9.7,-8.85l-228.02 0.58 0.03 10.51z"/>
  <path class="fil9" d="M897 635.9c6.59,13.48 18.02,27.13 26.21,39.88 13.18,20.49 9.17,26.07 14.1,50.56l15.45 0.34 0.16 -91.14 -55.92 0.36z"/>
  <path class="fil9" d="M372.73 726.38c4.67,-25.72 1.85,-30.96 14.65,-51.68 7.23,-11.7 20.6,-26.88 25.67,-39.18l-56.15 0.61 0.81 90.42 15.02 -0.17z"/>
  <polygon class="fil9" points="325.31,886.52 574.58,886.16 574.59,875.43 325.27,875.44 "/>
  <polygon class="fil9" points="536.13,454.67 774.17,455.05 773.52,443.83 537.03,443.88 "/>
  <path class="fil9" d="M422.66 635.88l12.87 20.55c32.32,46.09 17.48,34.02 27.45,70.1l13.56 -0.19 0 -90.66 -53.88 0.2z"/>
  <path class="fil9" d="M843.99 726.68c7.54,-3.79 2.77,-9.51 6.86,-27.14 2.08,-8.96 6.18,-16.47 10.29,-22.98l26.44 -41.06 -53.92 0.09 0.02 91.06 10.31 0.03z"/>
  <path class="fil9" d="M742.64 875.47c-0.62,0.1 -1.18,0.25 -1.72,0.37l-4.6 7.82 187.63 2.85c9.32,0 53.76,2.78 61.11,-2.85l-0.06 -5.85c-2.33,-1.56 -0.76,-0.98 -4.73,-1.96l-237.63 -0.38z"/>
  <path class="fil9" d="M867.41 756.44c4.17,-4.97 9.69,-2.08 13.97,0.42l-1.28 10.54c-10.25,2.11 -13.61,1.48 -12.69,-10.96zm32.4 8.65c3.06,-3.63 2.35,-7.42 6.76,-10.26 10.61,-6.8 17.95,18.56 -2.01,12.27 4.26,7.19 5.05,10.85 5.65,21 0.39,0.33 1.03,0.62 1.32,0.8 0.28,0.18 0.96,0.58 1.3,0.8 13.26,8.66 0.9,2.59 7.22,16.37 3.27,-7.41 1.43,-61.49 1.48,-74.57l-58.52 -0.1c-0.14,12.6 -3.32,69.2 3.05,74.99 1.13,-26.85 3.71,-7.27 8.22,-20.66 1.26,-3.75 0.66,-6.81 2.5,-11.6 3.44,-8.96 7.85,-8.6 13.08,-15.37 7.41,1.8 6.28,0.31 9.95,6.33z"/>
  <polygon class="fil9" points="356.71,870.41 374.02,870.47 373.17,731.74 356.95,731.89 "/>
  <polygon class="fil9" points="936.04,870.45 953.06,870.46 953.02,731.19 937.09,732.76 "/>
  <path class="fil9" d="M429.18 757.13c5,-3.75 6.15,-5.4 12.83,-0.23l0.3 9.47c-9.24,3.77 -14.75,2.28 -13.13,-9.24zm-23.18 10.3c-10.58,2.14 -13.57,1.26 -12.5,-11.16 10.21,-5.61 16,-1.92 12.5,11.16zm-6.03 20.67c1.61,-36.34 28.08,-34.53 34.09,-11.26 4.09,15.84 0.21,10.94 9.4,15.43 0.15,10 -0.42,9.97 3.52,14.35l0.01 -75.22 -58.34 1.09 0.97 73.9c2.98,-3.91 1.73,-8.1 2.54,-14.39 0.41,-0.17 3.47,-1.28 3.6,-1.34 2.99,-1.42 2.42,-1.22 4.21,-2.56z"/>
  <path class="fil9" d="M749.49 870.58c0.9,-33.06 13.58,-15.34 13.96,-39.44 0.19,-12.26 1.15,-40.83 -0.88,-51.67l-26.44 0.24 0.42 68.85c-0.1,6.84 -1.45,16.28 2.14,22.09l10.8 -0.07z"/>
  <path class="fil9" d="M293.96 550.84l183.66 0.28c9.31,-0.51 9.57,2.66 9.62,-11.21l-193.36 -0.16 0.08 11.09z"/>
  <path class="fil9" d="M823.05 550.34l188.61 0.4c4.55,-1.38 1.77,-0.37 4.59,-2.5l0.04 -5.85c-7.98,-5.84 -141.4,-2.57 -146.95,-2.57l-46.34 0.23 0.05 10.29z"/>
  <path class="fil9" d="M548 840.56c8.44,16.1 9.95,3.32 10.68,29.32l15.14 -0.11 0.25 -89.88 -26.48 0.08 0.41 60.59z"/>
  <polygon class="fil9" points="298.14,565.91 486.21,566.76 487.56,555.87 295.3,555.75 "/>
  <polygon class="fil9" points="823.48,566.52 1010.91,566.71 1015.26,556.47 822.9,555.76 "/>
  <path class="fil9" d="M822.97 470.41c24.8,0.48 155.14,3.54 164,-1.32l7.65 -9.37 -171.68 -0.03 0.03 10.72z"/>
  <path class="fil9" d="M822.81 534.45l162.31 0.5 -0.33 -10.12c-9.95,-3.56 -140.77,-1.85 -161.25,-0.94l-0.73 10.56z"/>
  <path class="fil9" d="M322.95 470.53l159.95 -0.14c5.05,-1.38 1.25,0.44 4.46,-2.11l0.04 -5.85c-6.99,-5.97 -46.62,-2.78 -56.83,-2.78l-115.15 0.01 7.53 10.87z"/>
  <polygon class="fil9" points="325.15,534.92 487.28,534.92 486.83,523.66 326.1,523.69 "/>
  <path class="fil9" d="M833.79 731.4c-0.4,13.87 -3.08,103.5 2.91,112.76 2.69,4.16 6.51,6.28 7.82,11.32 1.1,4.24 0.16,4.98 1.07,8.53 0.16,0.64 0.33,1.19 0.51,1.76l1.69 3.28c0.14,-0.3 0.6,1.12 1.16,1.57l-1.1 -139.23 -14.06 0.01z"/>
  <path class="fil9" d="M726.78 875.84c-10.51,-2.58 -144.3,-0.27 -147.47,0.13l0.02 9.81c19.83,2.79 55.91,0.71 77.45,0.69l58.55 0.1c2.03,0.03 7.97,0.08 9.7,-0.24 0.66,-0.12 1.19,-0.28 1.77,-0.43 0.56,-0.14 1.22,-0.48 1.67,-0.62 0.44,-0.13 1.28,-0.07 1.59,-0.77 0.32,-0.7 1.09,-0.5 1.55,-0.85l-0.06 -5.85c-2.31,-1.55 -0.77,-0.99 -4.77,-1.97z"/>
  <polygon class="fil9" points="324.91,455.01 487.38,455.03 487.16,444.87 326.21,443.83 "/>
  <polygon class="fil9" points="822.73,454.58 984.4,455.07 984.92,444.56 823.81,443.88 "/>
  <path class="fil9" d="M462.03 869.58c1.44,-4.78 -0.04,-8.15 1.39,-12.93 1.5,-5.01 0,-1.53 3.05,-5.26 9.17,-11.24 10.14,-5.21 10.15,-26.24l-0.03 -93.2 -14.32 -0.1 -0.24 137.73z"/>
  <path class="fil9" d="M546.23 364.35c9.5,-3.87 196.24,-3.36 217.45,-1.31 2.4,8.65 2.91,20.23 -0.33,28.48 -17.01,1.95 -208.31,1.7 -216.58,-0.76l-0.54 -26.41zm-2.95 30.28c9,2.87 200.82,2.15 224.76,0.8l-0.41 -36.31 -225.35 0.97 1 34.54z"/>
  <path class="fil9" d="M536.34 478.03c2.05,6.85 -2.13,4.77 24.88,4.58l208.4 -0.38c5.36,-2.13 2.14,1.8 4.33,-4.2 -6.25,-4.39 -50.77,-2.25 -58.66,-2.26l-173.42 0.15c-6.77,1.18 -1.76,-0.91 -5.53,2.11z"/>
  <path class="fil9" d="M823.14 493.63c6.53,2.84 4.69,-1.1 10.33,3.9l0.17 21.43 24.8 -0.09 0.21 -43.01 -35.73 0.03 0.22 17.74z"/>
  <path class="fil9" d="M451.8 518.86l24.93 -0.11 0.03 -21.22c4.39,-3.05 5.81,-2.07 10.24,-3.9l0.43 -17.93 -35.57 0.12 -0.06 43.04z"/>
  <polygon class="fil9" points="834.24,614.68 953.27,614.61 952.24,603.71 833.88,604.49 "/>
  <polygon class="fil9" points="356.97,614.73 476.64,614.01 476.08,603.76 357.3,604.01 "/>
  <path class="fil9" d="M549.08 758.3l-0.8 -153.62 214.49 0.04 -0.67 154.22c1.85,-2.47 0.96,0.48 2.07,-4.15l0.19 -34.94c0.04,-21.61 1.51,-106.49 -1.21,-116.2 -15.46,-2.5 -208.15,-2.18 -216.17,0.6 -2.25,13.44 -0.47,92.65 -0.52,117.55 -0.02,10.2 -2.14,34.28 2.62,36.5z"/>
  <path class="fil9" d="M779.79 406.03l-248.79 -0.36 -0.37 -56.24 249.28 0.14c-6.59,-4.12 -21.54,-2.14 -29.52,-2.13 -60.89,0.1 -171.06,-2.63 -219.96,0.38l-0.43 59.36c0.6,0.05 240.71,3.01 249.79,-1.15z"/>
  <path class="fil9" d="M547.84 364.56l215.17 -0.16 0.26 25.9 -215.5 0.06 0.07 -25.8zm-1.07 26.2c8.27,2.46 199.57,2.71 216.58,0.76 3.24,-8.25 2.73,-19.83 0.33,-28.48 -21.21,-2.05 -207.95,-2.56 -217.45,1.31l0.54 26.41z"/>
  <polygon class="fil9" points="778.82,566.89 797.01,566.76 797.07,523.82 778.83,523.61 "/>
  <path class="fil9" d="M752.5 534.66l21.7 0.29c-0.57,-10.85 0.61,-9.18 -7.41,-12.7l-3.31 -24.72c11.43,-6.38 9.63,1.24 10.56,-10.2l-21.52 0.03 -0.02 47.3z"/>
  <polygon class="fil9" points="510.54,565.88 510.64,524.56 492.93,524.15 492.96,566.28 "/>
  <polygon class="fil9" points="957.94,758.45 984.98,758.75 984.83,731.23 957.9,732.21 "/>
  <polygon class="fil9" points="863.3,487.78 863.32,493.63 863.62,503.04 875.2,503.03 881.05,503.04 890.05,502.74 890.4,476.25 863.38,475.73 "/>
  <path class="fil9" d="M536.3 489.73c1.26,8.55 -0.34,3.19 10.44,6.66l0.02 25.76 -10.27 2.21 -0.27 10.22 21.53 0.39 0.05 -47.66c-12.51,-0.04 -16.2,-1.98 -21.5,2.42z"/>
  <polygon class="fil9" points="420.29,502.97 446.66,503.06 447.12,475.8 420.24,475.83 "/>
  <polygon class="fil9" points="325.31,758.76 352.09,758.37 351.94,731.57 325.31,731.42 "/>
  <polygon class="fil9" points="958.16,662.59 984.83,662.92 984.99,635.36 957.87,636.42 "/>
  <polygon class="fil9" points="325.67,662.86 351.97,662.5 352.25,635.69 325.22,635.6 "/>
  <polygon class="fil9" points="957.9,854.24 985.05,854.64 984.71,827.35 958.02,828.16 "/>
  <polygon class="fil9" points="325.7,822.63 351.95,822.33 352.08,795.56 325.23,795.45 "/>
  <polygon class="fil9" points="957.92,694.39 985.09,694.79 984.54,667.54 958.02,668.3 "/>
  <polygon class="fil9" points="325.26,854.61 352.15,854.07 351.84,827.56 325.44,827.47 "/>
  <polygon class="fil9" points="325.24,694.7 352.12,694.25 351.87,667.77 325.44,667.7 "/>
  <path class="fil9" d="M536.55 557.99c6.35,2.97 186.78,1.17 225.7,1.4 9.56,0.06 8.59,1.78 11.8,-3.7l-236.4 1.6c-0.25,0.1 -0.77,0.41 -1.1,0.7z"/>
  <polygon class="fil9" points="325.35,790.67 352.17,790.04 351.51,763.6 325.52,763.42 "/>
  <polygon class="fil9" points="492.05,482.66 510.39,482.53 510.34,444 492.1,443.86 "/>
  <polygon class="fil9" points="325.26,630.89 352.2,630.06 351.35,603.85 325.59,603.53 "/>
  <polygon class="fil9" points="326.35,726.57 351.78,726.44 352.06,699.75 325.13,699.53 "/>
  <path class="fil9" d="M778.83 476.08c-0.02,5.14 0.02,2.65 1.3,6.86l16.09 -0.02 0.99 -20.49 -0.13 -9.75 -0.02 -8.43 -18.27 -0.37 0.04 32.2z"/>
  <polygon class="fil9" points="984.38,630.15 984.28,604.1 958.35,604.15 958.06,629.99 "/>
  <path class="fil9" d="M536.84 566.94c30.05,0.05 225.68,3.22 236.95,-1.15l-233.73 -1.87c-5.6,1.69 -1.02,-0.48 -3.22,3.02z"/>
  <polygon class="fil9" points="768.34,518.72 828.65,518.85 828.43,507.87 768.62,507.93 "/>
  <polygon class="fil9" points="481.48,518.73 541.96,518.83 541.64,507.9 482.01,507.9 "/>
  <polygon class="fil9" points="483.5,870.53 542.12,870.58 542.05,859.2 483.5,859.68 "/>
  <polygon class="fil9" points="983.47,795.85 958.84,795.27 958.85,821.85 983.37,822.03 "/>
  <polygon class="fil9" points="483.47,438.87 541.91,439.01 541.82,427.74 483.86,427.95 "/>
  <polygon class="fil9" points="770.31,438.66 828.61,439.01 828.52,427.72 770.6,427.89 "/>
  <polygon class="fil9" points="958.99,790.64 983.35,790.02 983.49,764.32 958.83,764.2 "/>
  <polygon class="fil9" points="984.84,725.41 984.61,701.03 958.76,701 958.85,725.52 "/>
  <path class="fil9" d="M828.78 862.21c-3.18,-2.75 -0.71,-1.79 -6.24,-2.91l-52.22 0.55 -0.1 10.3 54.06 0.02c4.48,-1.02 1.88,-0.2 4.55,-2.11l-0.05 -5.85z"/>
  <polygon class="fil9" points="516.24,565.59 531.16,564.94 530.93,525.14 516.41,525.13 "/>
  <polygon class="fil9" points="515.29,482.35 530.44,482.51 531.48,444.09 515.84,444.09 "/>
  <polygon class="fil9" points="802.94,565.25 817.71,565.1 817.41,524.99 802.89,525.08 "/>
  <path class="fil9" d="M689.17 534.9l11.21 0.07c-0.13,-8.98 2.63,-40.5 -2.65,-47.59l-8.57 -0.03 0.01 47.55z"/>
  <path class="fil9" d="M562.5 535.02l11.14 -0.19c0.07,-7.87 0.01,-15.75 0.04,-23.65 0.03,-10.08 1.66,-18.28 -2.7,-23.81l-5.85 0.02c-5.19,6.75 -2.68,39.22 -2.63,47.63z"/>
  <path class="fil9" d="M578.41 534.95l11.13 -0.71 0.16 -36.9c-0.15,-9.55 2.13,-9.9 -11.33,-10.02l0.04 47.63z"/>
  <polygon class="fil9" points="625.9,534.57 637,534.79 637.03,487.58 625.88,487.5 "/>
  <path class="fil9" d="M707.48 534.86l8.56 0.1 0.18 -35.59c-0.15,-12.74 -1.3,-9.99 -2.88,-11.96 -11.37,-0.11 -7.66,-0.64 -8.49,7.92l0.07 27.67c0.07,7.99 -0.36,7.85 2.56,11.86z"/>
  <polygon class="fil9" points="720.8,503.38 720.81,515.08 720.82,524.83 720.8,534.79 732.09,534.33 731.77,487.91 720.83,487.21 "/>
  <polygon class="fil9" points="657.5,534.15 668.63,535.02 668.57,487.43 657.51,487.86 "/>
  <polygon class="fil9" points="610.04,503.38 610.02,524.83 610.11,534.74 621.1,534.54 621.1,488 610.01,487.27 "/>
  <polygon class="fil9" points="802.97,481.14 817.37,481.38 817.58,445.69 802.78,445.61 "/>
  <polygon class="fil9" points="736.74,534.73 747.87,534.45 747.75,488.12 736.73,487.26 "/>
  <polygon class="fil9" points="470.34,583.43 487.05,582.76 487.37,571.66 459.67,571.59 457.08,598.78 470.02,598.74 "/>
  <path class="fil9" d="M476.5 620.39c-6.38,-2.44 -112.95,-2.4 -119.47,0 6.72,2.72 -6.38,1.24 5.31,2.82l23.37 -0.07c10.41,0 20.81,0.01 31.21,0.01 7.88,0.01 56.76,2.78 59.58,-2.76z"/>
  <polygon class="fil9" points="641.88,534.22 652.63,534.91 652.68,487.49 641.78,487.75 "/>
  <polygon class="fil9" points="594.37,534.81 605.22,534.27 605.03,487.88 594.29,487.28 "/>
  <path class="fil9" d="M801.05 423.02l10.89 -0.25c1.09,-12.21 3.06,-33.04 -1.1,-42.72l-9.83 -0.34 0.04 43.31z"/>
  <polygon class="fil9" points="673.47,534.27 684.53,535.04 684.51,487.34 674.32,487.67 "/>
  <path class="fil9" d="M514.35 422.83l10.8 -0.12c1.01,-12.4 3,-32.33 -0.98,-42.55l-9.93 -0.32 0.11 42.99z"/>
  <path class="fil9" d="M823.29 582.33l16.43 0.72 0.58 15.71 12.22 0 -2.16 -25.73c-7.98,-2.74 -18.62,-1.69 -27.37,-1l0.3 10.3z"/>
  <polygon class="fil9" points="1009.74,571.54 989.01,572.17 986.58,598.84 1001.73,598.62 "/>
  <polygon class="fil9" points="308.54,598.12 323.15,598.89 320.79,572.03 300.24,571.68 "/>
  <polygon class="fil9" points="609.87,343.35 636.84,343.25 636.92,326.62 610.47,326.32 "/>
  <path class="fil9" d="M498.78 422.79l9.88 0.12 0.35 -38.37c-1.3,-4.71 -0.15,-1.87 -2.39,-4.8l-7.55 3.17c-2.23,7.32 -1.38,32.88 -0.29,39.88z"/>
  <polygon class="fil9" points="720.81,774.59 763.42,773.81 762.88,763.64 721.37,763.49 "/>
  <polygon class="fil9" points="641.79,342.79 668.48,343.41 668.48,326.36 642.1,326.5 "/>
  <polygon class="fil9" points="578.36,343.35 605.16,343.09 605.19,327.04 578.84,326.22 "/>
  <polygon class="fil9" points="673.36,342.48 700.26,343.46 700.15,326.41 673.55,326.57 "/>
  <polygon class="fil9" points="704.96,343.38 731.85,343.05 731.89,327.13 705.5,326.23 "/>
  <path class="fil9" d="M774.99 854.63l49.18 -0.44c-3.87,-5.41 -6.04,-10.28 -15.23,-10.86 -7.18,-0.46 -17.44,0.04 -24.59,0.45l-9.36 10.85z"/>
  <path class="fil9" d="M785.44 422.98l10.07 -0.07c1.04,-8.53 3.23,-36.36 -2.22,-43.13l-5.85 0.01c-0.35,0.49 -0.78,0.64 -0.89,1.54l-1.11 41.65z"/>
  <path class="fil9" d="M497.52 843.63c-2.89,3.52 -5.52,7.55 -9.47,10.81l49.45 -0.46c-10.55,-12.8 -10.82,-11.68 -39.98,-10.35z"/>
  <polygon class="fil9" points="547.58,774.56 589.59,773.64 589.12,763.57 547.07,764.42 "/>
  <path class="fil9" d="M548 840.56l-0.41 -60.59 26.48 -0.08 -0.25 89.88 -15.14 0.11c2.04,0.97 0.79,1.05 4.6,1.62l12.3 -1.49c0.98,-4.69 0.23,-88.01 -0.72,-91.49 -8.88,-1 -20.01,-2.02 -28.13,1.13 -1.64,8.22 -2.62,57.86 1.27,60.91z"/>
  <polygon class="fil9" points="784.78,647.6 797.07,647.43 796.67,618.87 784.71,618.75 "/>
  <polygon class="fil9" points="498.14,647.57 510.34,647.48 510.03,618.9 498.04,618.89 "/>
  <path class="fil10" d="M568.73 654.18c-1.78,-8.56 -1.92,-7.51 1.98,-14.04 22.43,-3.48 17.19,22.57 -1.98,14.04zm-5.34 -12.65l-0.45 12.56c3.06,2.66 10.08,10.05 18.27,7.22 6.22,-5.3 13.22,-13.12 4.64,-22.68 -8.37,-9.32 -16.92,-2.71 -22.46,2.9z"/>
  <path class="fil10" d="M726.87 654c-1.74,-8.53 -1.81,-7.32 2.12,-13.71 16.43,-3 18.32,8.87 7.26,16.77l-9.38 -3.06zm2.06 6.89c24.29,2.12 22.11,-21.21 10.33,-25.62 -14.74,-5.53 -27.01,11.12 -10.33,25.62z"/>
  <path class="fil9" d="M784.59 710.85l12.48 -0.21 -0.19 -22.03c-0.74,-5 -1.02,-3.7 -1.64,-5.14l-10.62 -0.16 -0.03 27.54z"/>
  <polygon class="fil9" points="785.25,742.85 796.92,742.61 797.03,715.63 784.51,715.42 "/>
  <polygon class="fil9" points="817.09,647.43 828.76,647.39 828.53,618.75 817.1,619.15 "/>
  <polygon class="fil9" points="768.37,647.3 779.86,647.46 779.96,634.04 780.05,628.19 779.48,618.71 768.37,619.18 "/>
  <polygon class="fil9" points="498.55,742.78 510.2,742.78 510.23,715.67 497.85,715.55 "/>
  <polygon class="fil9" points="785.22,838.53 796.89,838.29 797.08,811.47 784.52,811.46 "/>
  <polygon class="fil9" points="498.4,838.38 510.2,838.26 510.32,811.52 497.86,811.42 "/>
  <path class="fil9" d="M784.7 806.66l10.54 -0.15c0.23,-0.5 0.53,-1.13 0.64,-1.53l1.3 -13.01c-0.05,-5.35 0.1,-7.37 -1.07,-12.57 -8.62,0 -7.21,-1.88 -11.52,2.85l0.11 24.41z"/>
  <polygon class="fil9" points="784.71,774.67 797.14,774.23 796.5,747.73 784.82,747.57 "/>
  <polygon class="fil9" points="497.98,774.7 510.33,774.33 509.84,747.79 498.16,747.63 "/>
  <path class="fil9" d="M498.05 806.56l10.52 -0.09c2.38,-5.21 1.88,-6.81 1.82,-14.5 -0.04,-5.25 0.11,-7.38 -0.97,-12.63l-11.32 0.96 -0.05 26.26z"/>
  <polygon class="fil9" points="481.77,647.38 493.13,647.51 492.88,618.78 481.67,619.07 "/>
  <polygon class="fil9" points="498.27,678.66 510.32,678.52 510.33,652.46 497.92,652.36 "/>
  <path class="fil9" d="M784.8 678.79l12.11 -0.21 -0.03 -21.15c-0.82,-5.58 -0.93,-3.45 -1.64,-5.05l-10.69 -0.21 0.25 26.62z"/>
  <path class="fil9" d="M492.97 587.35c-24.98,0.05 -15.62,-1.19 -18.09,3.78 11.89,0 68.19,2.08 73.79,-1.94 -7.29,-5.01 -43.96,-1.87 -55.7,-1.84z"/>
  <path class="fil9" d="M817.89 779.49c-1.7,8.07 -1.91,20.61 0.75,27.09l10.18 -0.04 0.03 -24.29c-3.84,-4.79 -2.39,-2.94 -10.96,-2.76z"/>
  <path class="fil9" d="M761.57 589.19c1.51,0.89 0.86,1.22 4.44,1.91 0.67,0.13 3.44,0.26 3.74,0.28 12.33,0.65 60.58,1.44 65.61,-2.19 -5.79,-4.07 -27.42,-1.94 -36.22,-1.92 -9.44,0.02 -31.28,-1.39 -37.57,1.92z"/>
  <polygon class="fil9" points="498.81,710.51 510.42,710.57 509.75,683.37 498.01,684.27 "/>
  <polygon class="fil9" points="817.42,742.67 828.67,742.84 828.76,715.49 816.97,715.86 "/>
  <polygon class="fil9" points="817.4,838.3 828.69,838.4 828.83,811.28 816.96,811.78 "/>
  <polygon class="fil9" points="515.27,647.14 526.11,647.51 526.22,634.04 526.3,626.24 525.82,618.76 515.24,619.31 "/>
  <polygon class="fil9" points="768.62,742.61 779.78,742.92 779.92,715.46 768.27,715.92 "/>
  <polygon class="fil9" points="481.64,710.59 493.14,710.8 493.18,694.5 493.34,690.58 492.41,683.47 481.81,683.79 "/>
  <polygon class="fil9" points="817.08,710.49 828.91,710.79 828.05,683.48 817.19,683.69 "/>
  <polygon class="fil9" points="768.57,838.24 779.8,838.52 779.94,811.28 768.29,811.85 "/>
  <polygon class="fil9" points="817.06,774.27 828.9,774.58 828.26,747.63 817.14,747.89 "/>
  <polygon class="fil9" points="530.93,647.04 542.11,647.61 541.61,618.63 531.12,619.57 "/>
  <path class="fil9" d="M761.51 596.99l8.24 2.28c12.33,0.7 60.76,1.5 65.68,-2.28 -6.06,-3.77 -42.72,-1.66 -55.79,-1.74 -7.76,-0.05 -12.33,-1.04 -18.13,1.74z"/>
  <polygon class="fil9" points="481.96,742.63 493.01,742.69 493.11,715.52 481.55,715.87 "/>
  <polygon class="fil9" points="481.89,838.27 493.02,838.33 493.19,811.36 481.59,811.76 "/>
  <polygon class="fil9" points="769.89,710.76 780.08,710.79 779.25,683.48 768.73,683.74 768.32,690.59 768.08,702.32 "/>
  <polygon class="fil9" points="768.33,774.33 780.07,774.6 779.31,747.63 768.42,747.95 "/>
  <polygon class="fil9" points="768.38,678.42 779.9,678.74 779.95,665.24 780.13,659.37 779.09,652.34 768.51,652.61 "/>
  <polygon class="fil9" points="481.6,774.34 493.22,774.41 492.55,747.64 481.77,747.93 "/>
  <polygon class="fil9" points="800.84,375.04 812.38,374.85 812.2,348.36 801.58,347.96 "/>
  <polygon class="fil9" points="514.09,375.11 525.65,374.78 525.44,348.39 514.87,347.97 "/>
  <path class="fil9" d="M482.51 779.6c-1.71,8.03 -1.9,20.6 0.71,26.95l10.12 -0.07 -1.3 -27.11 -9.53 0.23z"/>
  <polygon class="fil9" points="325.26,870.67 352.14,870.11 352.19,859.5 325.32,859.44 "/>
  <path class="fil9" d="M474.85 596.99l8.23 2.32c12.32,0.72 60.73,1.77 65.55,-2.32 -6.72,-4.08 -27.12,-1.72 -36.16,-1.75l-36.22 1.08c-0.26,-0.45 -0.93,0.44 -1.4,0.67z"/>
  <polygon class="fil9" points="817.19,678.52 828.88,678.6 827.91,652.28 817.21,652.6 "/>
  <path class="fil9" d="M769.15 779.5c-1.03,5.25 -0.94,9.08 -0.93,14.48l1.67 12.58 10.18 -0.04 -1.26 -27.17 -9.66 0.15z"/>
  <path class="fil9" d="M420.16 518.84l26.75 0.06 -0.07 -9.67c-6.36,-2.51 -17.75,-1.43 -25.96,-1.43l-0.72 11.04z"/>
  <polygon class="fil9" points="515.32,742.42 526.03,742.91 526.1,715.43 515.19,716.37 "/>
  <polygon class="fil9" points="515.3,838.15 526.06,838.5 526.2,811.27 515.2,812.18 "/>
  <polygon class="fil9" points="531.09,837.99 541.97,838.5 542.08,811.13 531.08,812.45 "/>
  <polygon class="fil9" points="863.31,518.85 890.26,518.75 890.1,508.15 863.86,507.78 "/>
  <polygon class="fil9" points="531.26,742.36 541.92,742.94 541.99,715.45 531.24,716.07 "/>
  <polygon class="fil9" points="801.83,647.28 812.19,647.02 811.94,618.96 801.88,619.47 "/>
  <polygon class="fil9" points="530.88,773.96 542.15,774.57 541.45,747.51 531.14,748.44 "/>
  <polygon class="fil9" points="481.72,678.49 493.23,678.6 492.18,652.4 481.86,652.76 "/>
  <polygon class="fil9" points="515.18,774.12 526.23,774.46 525.58,747.69 515.31,748.14 "/>
  <polygon class="fil9" points="515.24,678.26 526.1,678.66 526.22,665.24 526.38,661.33 525.45,652.34 515.57,652.87 515.22,661.34 515.2,667.19 "/>
  <polygon class="fil9" points="531.02,678.21 542.14,678.74 541.29,652.25 531.18,652.94 "/>
  <polygon class="fil9" points="531.96,710.45 542.19,710.78 541.31,683.4 531.1,684.13 "/>
  <polygon class="fil9" points="515.99,710.64 526.11,710.09 525.52,683.41 515.24,683.98 "/>
  <polygon class="fil9" points="802.12,742.6 812.05,742.34 812.18,715.77 801.77,716.25 "/>
  <polygon class="fil9" points="515.9,806.4 526,806.57 525.15,779.34 515.32,779.66 "/>
  <polygon class="fil9" points="802.07,838.17 812.08,837.89 812.14,811.65 801.81,812.17 "/>
  <path class="fil9" d="M785.62 374.97l9.87 0.21c0,-7.78 1.78,-19.96 -2.2,-26.66l-7.7 -0.1 0.03 26.55z"/>
  <path class="fil9" d="M533.92 779.29c-2.92,3.85 -1.2,-3.03 -3.04,6.77l0.22 15.81c1.07,3.24 -0.51,4.82 8.67,4.83l2.11 -22.5c-0.73,-3.77 -1.05,-3.16 -2.11,-4.96l-5.85 0.05z"/>
  <path class="fil9" d="M984.51 870.1l-0.33 -10.12c-4.48,-0.05 -8.99,-0.15 -13.46,-0.18 -10.16,-0.05 -8.11,-0.28 -12.37,2.41l-0.09 5.85c6.89,3.12 15.85,1.43 26.25,2.04z"/>
  <path class="fil9" d="M481.44 501.43c6.37,3.66 49.99,1.81 60.5,1.83 -1.75,-4.76 1.84,-2.53 -3.97,-3.99l-49.05 -0.14c-0.12,0.01 -2.97,0.17 -3.59,0.31 -4.4,0.96 -1.44,0.21 -3.89,1.99z"/>
  <path class="fil9" d="M498.77 375.06l9.89 0.01c0.02,-4.7 0.11,-9.4 0.13,-14.1l-2.17 -12.51 -7.23 3.06c-0.89,3.47 -0.24,-0.11 -0.65,3.54l0.03 20z"/>
  <path class="fil9" d="M568.73 654.18c19.17,8.53 24.41,-17.52 1.98,-14.04 -3.9,6.53 -3.76,5.48 -1.98,14.04z"/>
  <path class="fil9" d="M726.87 654l9.38 3.06c11.06,-7.9 9.17,-19.77 -7.26,-16.77 -3.93,6.39 -3.86,5.18 -2.12,13.71z"/>
  <path class="fil9" d="M768.3 501.43c7.78,4.35 47.84,1.68 60.33,1.71 -1.52,-3.39 2.19,-3.86 -11.87,-3.67l-33.24 0.08c-2.2,-0.03 -5.95,-0.28 -7.95,-0.17l-7.27 2.05z"/>
  <path class="fil9" d="M802.85 774.49l8.5 0.12c-0.76,-30.36 4.05,-24.66 -6.36,-26.51 -3.88,7.03 -2.05,18.44 -2.14,26.39z"/>
  <path class="fil9" d="M448.12 598.55c7.17,-2.19 3.89,-0.89 6.74,-27.05l-10.67 0.12c0.73,8.25 0.38,20.74 3.93,26.93z"/>
  <path class="fil9" d="M802.93 710.78l8.28 0.12c0.21,-30.98 2.98,-25.32 -6.22,-26.43 -1.15,1.86 -1.28,0.55 -1.92,4.26 -0.3,1.78 -0.24,5.68 -0.24,7.63 0.02,4.8 0.09,9.61 0.1,14.42z"/>
  <path class="fil9" d="M856.43 586.61c0.83,9.5 0.01,8.02 3.16,12.24 6.08,-2.95 4.63,-10.88 5.98,-27.22l-10.59 -0.14c0.5,5.04 1.01,10.08 1.45,15.12z"/>
  <path class="fil9" d="M403.27 598.59c3.68,-6.24 3.21,-18.63 4.02,-26.98l-10.5 0.06c0.49,5.79 1.07,11.53 1.55,17.32 0.81,9.7 -1.09,7.52 4.93,9.6z"/>
  <path class="fil9" d="M426.67 598.73c0.27,-0.39 0.66,-0.91 0.78,-1.19 2.46,-5.66 2.63,-14.87 3.5,-25.9l-10.4 -0.13c1.61,20.03 -0.26,24.57 6.12,27.22z"/>
  <path class="fil9" d="M906.4 598.59c6.13,-2 2.27,4.01 4.69,-4.71l1.93 -22.25 -10.4 0.06c0.63,8.33 0.38,20.65 3.78,26.9z"/>
  <path class="fil9" d="M957.1 598.24c1.83,-4.35 1.75,-9.6 2.3,-14.76 1.38,-12.97 2.17,-11.92 -9.45,-11.86 0.53,5.9 1.05,11.76 1.52,17.66 0.85,10.55 -0.6,7.79 5.63,8.96z"/>
  <path class="fil9" d="M984.15 571.76l-10.53 -0.14c0.54,5.67 1.05,11.23 1.5,16.9 0.9,11.14 -0.65,8.32 6.33,10.07l2.7 -26.83z"/>
  <path class="fil9" d="M359.86 571.97l-10.53 -0.35c0.45,5.91 1.01,11.84 1.55,17.75 0.87,9.47 -1.02,8.15 6.23,9l2.75 -26.4z"/>
  <path class="fil9" d="M883 598.7c5.94,-2.35 2.06,3.74 4.33,-5.07l1.7 -21.97 -10.2 -0.06c0.76,8.43 0.53,21.22 4.17,27.1z"/>
  <path class="fil9" d="M929.8 598.37c5.1,-1.14 3.37,1.32 5.04,-4.21l1.91 -22.62 -8.9 0.32c-2.01,4.38 -0.95,7.43 -0.35,13.5 0.51,5.19 0.33,8.74 2.3,13.01z"/>
  <path class="fil9" d="M383.34 571.73l-10.43 -0.09c0.71,5.79 1.11,11.1 1.55,16.88 0.87,11.34 -0.54,8.37 6.31,10.1l2.57 -26.89z"/>
  <polygon class="fil9" points="802.86,805.05 811.31,804.95 811.32,780.98 802.84,780.81 "/>
  <path class="fil9" d="M487.7 341.52c3.56,2.63 43.75,4.13 50.15,0 -2.34,-1.55 0.26,-1.2 -4.06,-1.92 -8.03,-1.33 -42.29,-0.74 -46.09,1.92z"/>
  <path class="fil9" d="M803.68 678.65l6.73 0.09 1.03 -19.43c-1.32,-8.71 0.03,-2.49 -2.55,-5.8l-3.9 -0.1c-4.09,6.1 -2.38,18 -1.31,25.24z"/>
  <path class="fil9" d="M334.62 587.35c0.42,-5.26 1.01,-10.44 1.44,-15.79l-10.49 0.52 3.59 26.25c6.93,-0.99 4.66,-1.1 5.46,-10.98z"/>
  <path class="fil9" d="M446.5 869.44l-57.13 0.12 -0.02 -58.27c-3.84,6.86 -2.43,53.78 -0.11,59.24 9.34,1.41 19.92,0.56 29.63,0.58l23.26 -0.04c4.1,-0.57 1.58,-0.21 4.37,-1.63z"/>
  <path class="fil9" d="M774.37 341.52c5.06,3.68 17.05,2.01 24.77,2.04l19.6 0.16c7.89,-0.94 3.46,-0.54 5.9,-2.2 -5.82,-3.51 -46.2,-2.78 -50.27,0z"/>
  <polygon class="fil9" points="779,581.84 796.48,582.82 797.13,571.9 778.77,572.06 "/>
  <polygon class="fil9" points="492.3,581.39 509.75,582.7 510.48,571.75 492.3,571.67 "/>
  <path class="fil9" d="M802.89 525.08l14.52 -0.09 0.3 40.11 -14.77 0.15 -0.05 -40.17zm-1.59 41.69l16.44 0.5c2.49,-9.36 2.11,-34.27 0.28,-43.9l-16.11 0.05 -0.61 43.35z"/>
  <path class="fil9" d="M516.41 525.13l14.52 0.01 0.23 39.8 -14.92 0.65 0.17 -40.46zm-1.78 41.74l16.49 0.33c2.46,-9.43 2.23,-34.32 0.24,-43.85l-16.04 -0.01 -0.69 43.53z"/>
  <path class="fil9" d="M413.02 572.15c-2.62,5.96 -4.13,21.15 -1.95,26.5l6.89 0.21c-0.25,-7.22 0.77,-23.5 -4.94,-26.71z"/>
  <polygon class="fil9" points="515.4,582.2 531.08,582.66 531.55,572.03 515.11,571.92 "/>
  <polygon class="fil9" points="802,582.27 817.68,582.64 818.23,572.23 801.81,571.86 "/>
  <path class="fil9" d="M438.37 572.01c-5.52,4.63 -4.44,19.62 -5.03,26.82 10.49,-0.34 9.11,1.59 7.77,-9.79 -0.69,-5.91 -0.77,-12.66 -2.74,-17.03z"/>
  <path class="fil9" d="M366.21 571.81c-3.62,5.84 -3.56,18.63 -3.83,26.92l8.15 0 -1.67 -21.38c-1.6,-7.42 -0.77,-3.19 -2.65,-5.54z"/>
  <path class="fil9" d="M342.81 571.67c-3.03,4.26 -2.31,2.84 -3.19,12.85 -0.41,4.68 -0.82,9.35 -0.97,14.26l8.12 -0.12c-0.29,-7.2 -0.49,-21.67 -3.96,-26.99z"/>
  <path class="fil9" d="M943.45 571.79c-3.13,4.27 -2.3,3.53 -3.12,12.75 -0.42,4.76 -0.83,9.28 -0.96,14.19l8.17 0.16c-0.38,-7.15 -0.59,-21.88 -4.09,-27.1z"/>
  <path class="fil9" d="M964.13 584.29c-0.45,5 -0.91,9.52 -1.12,14.52l8.28 0.05c-0.33,-5.24 -0.82,-10.27 -1.29,-15.49 -0.11,-1.21 -0.38,-5.43 -0.61,-6.47 -1.82,-8.07 -0.19,-2.03 -2.54,-5.05 -2.21,3.56 -0.83,-1.08 -2.11,5.64 -0.41,2.13 -0.41,4.7 -0.61,6.8z"/>
  <path class="fil9" d="M389.62 571.92c-2.35,4.66 -2.13,9.23 -2.77,15.26 -1.41,13.18 -0.25,9.61 0.82,11.6l6.75 0.08 -1.96 -22.22c-1.09,-4.38 -0.94,-2.7 -2.84,-4.72z"/>
  <path class="fil9" d="M397.54 760.8c1.52,-1.04 -0.7,-4.68 5.07,0 -5.86,6.21 -3.28,1.66 -5.07,0zm8.46 6.63c3.5,-13.08 -2.29,-16.77 -12.5,-11.16 -1.07,12.42 1.92,13.3 12.5,11.16z"/>
  <path class="fil9" d="M920.05 571.89c-2.96,3.36 -0.67,-3.42 -2.83,5.29l-1.68 21.57 6.46 0.05c2.49,-4.6 1.34,-7.45 0.72,-13.75 -0.63,-6.36 -0.07,-8.63 -2.67,-13.16z"/>
  <path class="fil9" d="M802.78 445.61l14.8 0.08 -0.21 35.69 -14.4 -0.24 -0.19 -35.53zm-1.53 37.31l16.3 0.41c2.48,-8.59 2.58,-31.34 0.06,-39.62l-15.32 -0.01 -1.04 39.22z"/>
  <path class="fil9" d="M875.2 758.53c2.27,5.62 3.21,3.1 -1.85,5.42 -1.66,-2.13 -3.45,1.86 -1.2,-2.89 1.59,-3.34 -1.75,-1.4 3.05,-2.53zm-7.79 -2.09c-0.92,12.44 2.44,13.07 12.69,10.96l1.28 -10.54c-4.28,-2.5 -9.8,-5.39 -13.97,-0.42z"/>
  <path class="fil9" d="M492.73 292.77c3.55,4.48 12.14,2.54 19.74,2.55 6.53,0.02 14.19,0.86 20.35,-0.6 -2.73,-6.06 -33.25,-3.69 -40.09,-1.95z"/>
  <path class="fil9" d="M984.38 630.15l-26.32 -0.16 0.29 -25.84 25.93 -0.05 0.1 26.05zm0 0l0.64 -26.36c-7.35,-3.27 -19.41,-2.53 -27.51,-0.58 -2.46,8.03 -2.11,18.9 -0.34,26.93 7.2,2.53 19.94,1.9 24.73,1.06l2.48 -1.05z"/>
  <path class="fil9" d="M873.24 572.18c-4.97,2.42 -3.48,5.56 -4.13,13.07 -0.38,4.37 -0.8,8.64 -1.14,13.35l8.55 -0.39 -3.28 -26.03z"/>
  <path class="fil9" d="M896.65 572.09c-4.02,3.63 -1.18,-5.62 -3.29,5.87l-1.64 20.39 8.52 0.23 -3.59 -26.49z"/>
  <path class="fil9" d="M433.47 760.8c7.23,-5.97 4.04,-0.7 5.08,0 -1.56,1.29 0.59,6.38 -5.08,0zm-4.29 -3.67c-1.62,11.52 3.89,13.01 13.13,9.24l-0.3 -9.47c-6.68,-5.17 -7.83,-3.52 -12.83,0.23z"/>
  <path class="fil9" d="M958.99 790.64l-0.16 -26.44 24.66 0.12 -0.14 25.7c3.21,-4.9 2.34,-17.91 1.73,-25.75 -7.44,-3.03 -19.09,-2.35 -27.29,-0.73 -0.91,5.47 -0.84,9.3 -0.84,14.84 0,1.9 -0.05,6.04 0.21,7.75 0.55,3.49 1.01,3.03 1.83,4.51z"/>
  <path class="fil9" d="M983.47 795.85l-0.1 26.18 -24.52 -0.18 -0.01 -26.58c-0.23,0.47 -0.58,1.04 -0.69,1.4 -0.11,0.37 -0.47,1.01 -0.59,1.48l-0.59 11.41c0.04,4.99 0.06,8.24 0.69,13.21 8.37,1.72 19.96,2.3 27.69,-0.84l-0.07 -21.95c-0.71,-4.36 -0.06,-1.24 -1.81,-4.13z"/>
  <polygon class="fil9" points="908.81,710.57 921.6,710.28 921.45,699.74 908.93,700.12 "/>
  <path class="fil9" d="M414.77 644.23c-4.66,4.5 -9.19,12.58 -12.3,18.38l12.84 0.34 -0.54 -18.72z"/>
  <path class="fil9" d="M889.82 644.34c-4.29,2.84 -11.35,14.27 -12.82,18.63l12.71 -1.05 0.11 -17.58z"/>
  <polygon class="fil9" points="498.5,311.24 510.27,311.03 510.37,300.19 498.46,299.96 "/>
  <polygon class="fil9" points="389.38,710.84 401.18,710.62 401.11,699.62 389.42,699.59 "/>
  <polygon class="fil9" points="863.16,710.67 874.89,710.52 874.9,699.62 863.01,699.54 "/>
  <polygon class="fil9" points="908.82,694.47 921.5,694.19 920.95,683.64 909.18,683.8 "/>
  <polygon class="fil9" points="908.88,726.2 921.42,726.13 921.52,715.74 908.81,716.05 "/>
  <polygon class="fil9" points="785.17,311.14 796.93,311.06 797.07,300.14 785.31,300.03 "/>
  <polygon class="fil9" points="863.13,726.78 874.98,726.19 874.92,715.71 863.13,715.49 "/>
  <path class="fil9" d="M984.84 725.41l-25.99 0.11 -0.09 -24.52 25.85 0.03c-5.89,-3.39 -18.92,-2.37 -25.97,-1.3 -3.01,7.26 -2.51,19.09 -0.42,26.98l22.2 0.38c3.64,-0.53 2.51,-0.69 4.42,-1.68z"/>
  <path class="fil9" d="M420.66 662.99l12.71 -0.74c-2.51,-4.45 -8.39,-13.65 -12.86,-17.78l0.15 18.52z"/>
  <polygon class="fil9" points="389.31,726.69 401.06,726.41 401.11,715.66 389.47,715.63 "/>
  <polygon class="fil9" points="863.11,694.71 875.04,694.41 874.3,683.56 863.48,683.51 "/>
  <polygon class="fil9" points="389.31,694.68 401.24,694.54 400.53,683.51 389.83,683.67 "/>
  <polygon class="fil9" points="895,662.9 907.87,662.27 894.64,643.69 "/>
  <path class="fil9" d="M779.23 493.97c20.74,4.48 17.32,-1.8 17.81,-4.24 -5.12,-3.34 -12.33,-2.46 -18.14,-0.72l0.33 4.96z"/>
  <path class="fil9" d="M510.54 565.88l-17.58 0.4 -0.03 -42.13 17.71 0.41c-2.34,-1.87 4.48,-1.74 -5.97,-2.25l-12.84 0.91 -0.6 43.57c5.8,1.25 14.59,2.87 19.31,-0.91z"/>
  <polygon class="fil9" points="492.46,493.97 510,494.57 510.45,487.39 492.02,487.86 "/>
  <polygon class="fil9" points="754.43,870.58 765.56,870 765.46,859.72 754.38,859.44 "/>
  <path class="fil9" d="M796.6 606.89c-1.91,-6.26 1.3,-0.42 -3.31,-3.26l-8.7 0.04 0.33 9.83 11.49 0.38c0.45,-3.26 1.31,-3.34 0.19,-6.99z"/>
  <polygon class="fil9" points="436.41,710.61 447.2,710.73 446.19,699.84 435.47,699.89 "/>
  <polygon class="fil9" points="435.88,726.48 446.61,725.72 446.94,715.4 435.05,716.42 "/>
  <polygon class="fil9" points="467.59,870.69 478.84,869.93 478.01,859.52 468.21,859.32 "/>
  <path class="fil9" d="M768.43 854.43c2.51,-3.53 5.57,-7.28 8.13,-10.52 -7.63,-0.82 -6.49,-1.54 -11.35,1.93 -3.5,2.5 -5.61,5.13 -7.22,8.64l10.44 -0.05z"/>
  <path class="fil9" d="M498.77 375.06l-0.03 -20c0.41,-3.65 -0.24,-0.07 0.65,-3.54l7.23 -3.06 2.17 12.51c-0.02,4.7 -0.11,9.4 -0.13,14.1 2.83,-5.5 2.27,-19.22 1.07,-26.73 -7.03,-2.76 -5.17,-2.75 -12.1,0.06l-0.08 23.91c0.11,0.44 0.46,1.08 0.56,1.42 0.1,0.33 0.44,0.89 0.66,1.33z"/>
  <path class="fil9" d="M471.28 854.4c14.72,0.34 12.13,-3.62 18.6,-10.52 -8.32,-0.79 -6.32,-1.59 -11.36,1.96 -3.57,2.51 -5.63,5 -7.24,8.56z"/>
  <path class="fil9" d="M430.42 706.2c0.98,-5.49 -1.75,-6.44 -1.8,-6.61l-8.41 -0.07 0.02 11.21 6.44 0.06c4.94,-2.73 2.34,3.33 3.75,-4.59z"/>
  <polygon class="fil9" points="817.63,613.82 828.6,613.9 827.91,603.68 817.39,603.76 "/>
  <polygon class="fil9" points="768.75,613.8 779.67,614.04 779.1,603.62 768.67,603.88 "/>
  <polygon class="fil9" points="515.55,494.43 531.28,494.46 531.54,487.8 515.13,487.6 "/>
  <polygon class="fil9" points="482.07,613.8 492.92,613.96 492.33,603.67 481.88,603.76 "/>
  <path class="fil9" d="M984.51 870.1c-10.4,-0.61 -19.36,1.08 -26.25,-2.04l0.09 -5.85c4.26,-2.69 2.21,-2.46 12.37,-2.41 4.47,0.03 8.98,0.13 13.46,0.18l0.33 10.12zm0 0l0.31 -10.28c-6.52,-3.16 -19.26,-2.95 -26.69,-0.54 -3.19,6.79 -2.49,3.4 -0.87,10.73 5.64,2.12 7.43,1.42 13.47,1.46l12.56 -0.84c0.22,-0.49 0.82,-0.35 1.22,-0.53z"/>
  <path class="fil9" d="M430.37 721.9c0.05,-0.16 -0.03,-5.75 -0.03,-6.25l-10.1 -0.09 -0.04 8.19 -0.01 2.82c10.03,0.02 8.83,-0.05 10.18,-4.67z"/>
  <polygon class="fil9" points="420.23,694.72 430.5,694.45 429.62,683.62 420.76,683.53 "/>
  <path class="fil9" d="M405.95 715.65c0,13.72 -3.24,10.78 9.41,10.78l0.04 -10.95 -9.45 0.17z"/>
  <polygon class="fil9" points="420.42,678.63 430.26,678.4 430.03,667.76 420.46,667.64 "/>
  <path class="fil9" d="M803.68 678.65c-1.07,-7.24 -2.78,-19.14 1.31,-25.24l3.9 0.1c2.58,3.31 1.23,-2.91 2.55,5.8l-1.03 19.43c3.09,-3.08 1.22,3.21 2.58,-5.61l-0.91 -21.2 -10.07 0.52c-1.1,5.64 -3.59,23.08 1.67,26.2z"/>
  <path class="fil9" d="M802.22 310.79c10.28,0.91 9.64,-0.01 9.65,-9.64l-2.96 -1.24 -7.2 0.74 0.51 10.14z"/>
  <path class="fil9" d="M903.95 704.38c-0.15,-9.26 0.32,-0.28 -1.45,-4.7l-7.88 -0.09 -0.04 11.34 7.92 -0.38c0.97,-2.22 1.55,-0.18 1.45,-6.17z"/>
  <polygon class="fil9" points="894.77,678.66 903.92,678.27 903.9,667.76 894.75,667.62 "/>
  <path class="fil9" d="M435.99 694.78l9.31 -0.44c0.4,-6.83 0.94,-5.06 -1.08,-10.09l-8.5 -0.21 0.27 10.74z"/>
  <polygon class="fil9" points="879.87,678.46 889.8,677.73 889.56,668.17 879.92,668.2 "/>
  <polygon class="fil9" points="894.67,694.75 904.09,694.16 903.41,683.68 894.99,683.49 "/>
  <path class="fil9" d="M406.5 684.02c-1.01,8.65 -2.19,7.57 2.62,10.63l6.52 -0.02 -1.08 -11.29 -8.06 0.68z"/>
  <polygon class="fil9" points="406.2,678.18 415.4,678.66 414.98,667.56 406.12,668.29 "/>
  <polygon class="fil9" points="801.99,493.64 817.8,494.48 818.14,488.35 801.8,487.98 "/>
  <polygon class="fil9" points="533.28,613.99 541.56,613.99 542.6,604.15 531.42,604.39 "/>
  <path class="fil9" d="M785.62 374.97l-0.03 -26.55 7.7 0.1c3.98,6.7 2.2,18.88 2.2,26.66 1.71,-3.34 0.52,3.56 1.66,-4.44l-0.49 -22.53 -11.11 -1.65c-2.67,7.2 -3.04,22.59 0.07,28.41z"/>
  <path class="fil9" d="M896.65 726.63l6.72 -0.34 0.65 -10.38 -9.28 -0.26c-0.06,2.39 -0.28,3.7 0.06,6.12 1.05,7.47 0.35,1.9 1.85,4.86z"/>
  <polygon class="fil9" points="498.69,326.91 498.99,335 509.75,334.91 510.17,326.48 "/>
  <polygon class="fil9" points="510.52,612.81 510.23,605.18 499.3,604.89 499.14,613.46 "/>
  <polygon class="fil9" points="785.38,333.72 796.43,335.14 796.84,326.48 785.65,326.35 "/>
  <path class="fil9" d="M526.39 613.41l-0.13 -8.7c-2.33,-0.04 -3.54,-0.46 -5.91,0.08 -3.57,0.83 -2.63,0.87 -4.42,1.95 1.12,9.72 -2.56,6.27 10.46,6.67z"/>
  <polygon class="fil9" points="514.91,309.38 524.69,310.99 524.75,300.47 515.47,301.85 "/>
  <path class="fil9" d="M802.84 780.81l8.48 0.17 -0.01 23.97 -8.45 0.1 -0.02 -24.24zm-0.69 26l10.54 -0.16 -0.91 -27.59 -10.45 0.25 0.82 27.5z"/>
  <path class="fil9" d="M802.85 774.49c0.09,-7.95 -1.74,-19.36 2.14,-26.39 10.41,1.85 5.6,-3.85 6.36,26.51l1.65 -5.92c0.15,-1.63 -0.04,-5.99 -0.06,-7.88 -0.06,-4.92 -0.07,-8.36 -0.63,-13.67l-10.66 0.6 -0.42 22.67c0.52,3.71 0.57,2.2 1.62,4.08z"/>
  <polygon class="fil9" points="880.29,711.17 888.83,710.63 888.33,701.01 880.48,700.93 "/>
  <path class="fil9" d="M880.64 694.82l7.84 -0.38c0.02,-1.9 0.19,-3.83 -0.05,-5.74 -0.94,-7.48 -0.08,-1.39 -1.53,-4.43 -8.95,1.07 -6.76,-1.95 -6.26,10.55z"/>
  <path class="fil9" d="M553.62 864.16c-0.66,-3.98 -1.04,-3 -2.14,-4.84 -2.28,1.02 -6.54,-3.97 -4.97,6.73 1.2,8.12 -0.16,3.7 7.24,4.46 0.01,-1.85 0.17,-4.54 -0.13,-6.35z"/>
  <path class="fil9" d="M415.42 710.2l0.1 -10.01 -9.12 2.11 -0.14 5.85c1.74,0.93 0,0.63 4.88,1.87 0.21,0.05 3.77,0.17 4.28,0.18z"/>
  <polygon class="fil9" points="888.46,715.82 880.53,715.34 880.6,725.14 888.48,725.32 "/>
  <path class="fil9" d="M512.47 287.3c2.51,-2.68 3.93,2.93 2.84,-10.09 -0.28,-3.34 -1.32,-7.38 -2.11,-10.65l-3.22 14.55c0.7,8.72 0.36,3.27 2.49,6.19z"/>
  <path class="fil9" d="M822.71 843.37c5.54,5.75 4.61,10.81 15.25,10.85 -3.2,-6.52 -6.1,-10.57 -15.25,-10.85z"/>
  <path class="fil9" d="M838.14 870.56c0.06,-0.08 4.3,0 2.26,-8.04 -1.39,-5.46 -0.58,-2.14 -4.21,-3.22 -0.79,0.81 -3.88,0.46 -2.68,6.74 1.13,5.91 -0.23,2.49 4.63,4.52z"/>
  <path class="fil9" d="M535.39 844.15c5.73,1.66 3.59,10.18 15.78,10 -3.33,-5.85 -6.49,-11.89 -15.78,-10z"/>
  <path class="fil9" d="M453.97 791.33c3.02,-2.45 3.85,2.15 3.73,-7.09 -0.09,-6.18 -1.22,-3.96 -3.73,-5.08 -0.8,0.85 -2.45,-1.32 -2.75,5.11 -0.57,12.28 0.57,3.73 2.75,7.06z"/>
  <path class="fil9" d="M909.05 678.41l9.36 0.26c-2.53,-6.2 -3.18,-8.99 -9.46,-10.87l0.1 10.61z"/>
  <path class="fil9" d="M785.24 318.12c1.44,2.64 -2.68,3.99 6.08,3.89 8.16,-0.1 4.36,-1.12 5.7,-3.89 -1.51,-1.1 3.35,-2.57 -5.7,-2.39 -11.57,0.23 -2.35,-0.18 -6.08,2.39z"/>
  <path class="fil9" d="M381.82 855.01c2.5,-3.58 2.41,5.47 2.59,-6.42 0.13,-8.06 -2.13,-5.01 -2.59,-5.59 -2.51,1.31 -3.52,-1.9 -3.66,5.56 -0.16,8.2 0.99,4.58 3.66,6.45z"/>
  <path class="fil9" d="M400.79 667.72c-5.85,2.38 -6.22,4.81 -9.25,10.88l9.5 0.02 -0.25 -10.9z"/>
  <path class="fil9" d="M498.5 318.12c1.42,2.47 -2.5,3.95 6.16,3.85 8.29,-0.09 4.41,-1.21 5.64,-3.85 -1.56,-1.14 3.33,-2.52 -5.65,-2.34 -11.31,0.23 -2.48,-0.06 -6.15,2.34z"/>
  <path class="fil9" d="M379.86 742.57c3.34,-1.11 3.63,3.03 4.16,-5.1 0.6,-9.13 -1.59,-5.12 -2.2,-6.13 -4,1.81 -3.65,-4.12 -4.11,5.91 -0.32,7.04 1.89,4.95 2.15,5.32z"/>
  <path class="fil9" d="M927.85 758.6c3.57,-1.23 4.1,3.73 4.57,-5.48 0.43,-8.46 -2.1,-5.04 -2.62,-5.67 -1.76,0.81 -7.82,-0.3 -1.95,11.15z"/>
  <path class="fil9" d="M381.82 758.7c0.26,-0.39 3.53,-0.65 2.11,-7.45 -1.37,-6.56 0.98,-1.91 -4.07,-3.8 -0.09,0.13 -3.72,-0.39 -2.1,7.3 1.4,6.68 -1.01,1.92 4.06,3.95z"/>
  <path class="fil9" d="M453.97 806.91c2.33,-1.23 3.25,1.01 3.47,-5.19 0.3,-8.42 -0.85,-4.66 -3.47,-6.78 -2.84,4.16 -2.6,-5.65 -2.7,6.76 -0.06,6.17 2.36,4.83 2.7,5.21z"/>
  <path class="fil9" d="M927.85 742.45c3.5,-0.94 3.96,3.38 4.46,-4.95 0.55,-9.19 -1.73,-4.98 -2.51,-6.08 -3.65,1.87 -3.25,-3.48 -3.7,5.86 -0.26,5.49 1.56,4.85 1.75,5.17z"/>
  <path class="fil9" d="M802.93 710.78c-0.01,-4.81 -0.08,-9.62 -0.1,-14.42 0,-1.95 -0.06,-5.85 0.24,-7.63 0.64,-3.71 0.77,-2.4 1.92,-4.26 9.2,1.11 6.43,-4.55 6.22,26.43 0.22,-0.49 0.54,-1.08 0.64,-1.46l0.32 -26.37 -10.22 0.56c-0.97,5.46 -0.84,9.22 -0.86,14.79l1.84 12.36z"/>
  <path class="fil9" d="M379.86 726.49c3.02,-0.71 4.25,2.31 4.84,-4.64 0.85,-9.96 -1.43,-4.47 -2.88,-6.2 -4.43,2.83 -5.16,5.34 -1.96,10.84z"/>
  <path class="fil9" d="M929.8 774.57c2.04,-2.94 2.15,4.56 2.28,-5.94 0.09,-6.73 -1.85,-4.54 -2.28,-5.06 -2.31,0.89 -3.59,-1.89 -3.8,5.06 -0.26,8.66 1.14,4.55 3.8,5.94z"/>
  <path class="fil9" d="M451.4 753c-0.15,8.87 1.72,4.59 4.52,5.58 2.38,-4.58 2.51,-6.44 0,-11.02 -2.98,0.99 -4.38,-3.41 -4.52,5.44z"/>
  <path class="fil9" d="M377.95 786.08c1.4,7.35 -1.51,3.34 5.86,4.52 -0.02,-6.3 1.25,-7.04 -1.99,-11.18 -2.34,0.76 -5.29,-0.8 -3.87,6.66z"/>
  <path class="fil9" d="M451.62 768.52c-0.58,8.37 1.81,5.12 2.35,5.89 0.03,-0.01 8.13,0.75 1.95,-10.77 -3.11,0.93 -3.77,-2.62 -4.3,4.88z"/>
  <path class="fil9" d="M381.82 774.59c0,-0.01 3.77,-0.14 2.02,-7.65 -1.46,-6.25 0.03,-2.11 -3.98,-3.33 -0.65,0.9 -3.07,0.9 -1.92,6.78 1.39,7.17 -1.06,1.92 3.88,4.2z"/>
  <path class="fil9" d="M873.24 667.97c-3.71,3.17 -5.2,6.36 -7.36,10.45l8.83 0.01c0.3,-6.39 1.32,-6.25 -1.47,-10.46z"/>
  <path class="fil9" d="M451.33 714.96c-0.06,8.77 -2.3,9.93 4.59,11.57 4.09,-7.38 1.49,-9.53 -4.59,-11.57z"/>
  <path class="fil9" d="M455.92 742.53c0.78,-1.41 2.38,-2.43 1.57,-6.85 -1.23,-6.74 1.08,-1.69 -3.52,-4.28 -0.04,0.06 -4.03,0 -2.22,7.7 1.56,6.67 -0.02,2.16 4.17,3.43z"/>
  <path class="fil9" d="M931.75 784.24c-0.17,-10.08 0.3,-0.61 -1.95,-5.01 -2.09,1.47 -4.46,-2.65 -3.66,6.76 0.71,8.39 0.55,2.77 3.66,4.61 1.13,-2.04 2.11,3.32 1.95,-6.36z"/>
  <path class="fil9" d="M857.35 731.89l-1.66 10.5c-2.82,-4.33 -2.59,-4.29 -2.58,-11.35 -0.62,1 -1.76,0.66 -2.19,4.52 -0.98,8.86 2.96,7.88 4.77,9.32 4.35,-5.26 4.85,-7.61 1.66,-12.99z"/>
  <path class="fil9" d="M510.52 612.81l-11.38 0.65 0.16 -8.57 10.93 0.29c-2.45,-2.32 2.15,-1.61 -5.53,-2.37 -4.22,-0.41 -3.64,0.31 -7.15,1.12l0.27 9.61c14.54,4.81 12.05,-0.28 12.7,-0.73z"/>
  <path class="fil9" d="M381.82 822.67c0.77,-1.11 1.85,2.55 2.08,-5.32 0.28,-9.59 -0.68,-3.66 -2.08,-5.87 -2.78,1.54 -3.61,-2.55 -3.57,5.85 0.03,6.97 1.22,4.19 3.57,5.34z"/>
  <path class="fil9" d="M435.41 678.34l8.69 0.27c-2.09,-5.11 -2.96,-7.46 -8.47,-10.56l-0.22 10.29z"/>
  <path class="fil9" d="M855.69 758.73c2.38,-2.85 2.39,4.88 2.68,-5.73 0.26,-9.22 -1.4,-4.1 -2.68,-5.56 -5.05,3.04 -4.88,8.07 0,11.29z"/>
  <path class="fil9" d="M383.66 799.92c-0.53,-3.67 -0.89,-2.81 -1.84,-4.47 -1.89,1.07 -4.8,-2.35 -3.76,6.28 0.88,7.3 -0.14,3.58 5.72,4.74 0.01,-1.95 0.16,-4.61 -0.12,-6.55z"/>
  <path class="fil9" d="M931.64 719.95c-1.02,-7.76 -0.36,-2.51 -3.79,-4.17 -5.76,12.01 0.16,9.65 1.95,10.82 0.51,-1.05 3.14,3.2 1.84,-6.65z"/>
  <path class="fil9" d="M926.02 817.32c0.05,7.42 1.58,4.36 3.78,5.26 5.23,-9.14 0.02,-11.01 0,-11.04 -2.85,1.32 -3.85,-3.37 -3.78,5.78z"/>
  <path class="fil9" d="M804.98 613.9l3.92 0.1 2.49 -7.26c-1.56,-0.77 0.09,-0.58 -4.56,-1.6 -0.53,-0.11 -3.17,-0.04 -4.47,0.07l2.62 8.69z"/>
  <path class="fil9" d="M804.98 613.9l-2.62 -8.69c1.3,-0.11 3.94,-0.18 4.47,-0.07 4.65,1.02 3,0.83 4.56,1.6l-2.49 7.26c3.59,-2.49 4.5,3.14 3.54,-9.21 -5.07,-2.69 -4.09,-1.9 -10.41,-1.12 -2.1,10.98 -1.42,7.13 2.95,10.23z"/>
  <path class="fil9" d="M929.8 806.56c5.21,-11.14 0.19,-10.8 0,-11.16 -2.45,1.41 -4.53,-2.87 -3.67,6.23 0.8,8.54 0.82,2.98 3.67,4.93z"/>
  <path class="fil9" d="M799.14 287.29c2.23,-2.93 3.75,2.85 1.22,-18.17 -3.47,5.15 -4.42,12.39 -1.22,18.17z"/>
  <path class="fil9" d="M415.42 710.2c-0.51,-0.01 -4.07,-0.13 -4.28,-0.18 -4.88,-1.24 -3.14,-0.94 -4.88,-1.87l0.14 -5.85 9.12 -2.11c-6.67,-3.7 -0.87,-2.99 -11.29,0.19l1.14 9.72c10.09,3.92 10.03,0.1 10.05,0.1z"/>
  <path class="fil9" d="M521.63 327.35c-5.74,-3.52 -5.69,2.34 -5.85,2.47 4.58,5.66 -5.65,4.11 8.09,4.4 -0.72,-8.02 1.32,-4.68 -2.24,-6.87z"/>
  <path class="fil9" d="M514.91 309.38c3.52,3.96 2.58,4.03 10.45,2.27l1.67 -11.02c-8.03,-3.03 -7.88,-3.27 -11.56,1.22l9.28 -1.38 -0.06 10.52 -9.78 -1.61z"/>
  <path class="fil9" d="M853.96 774.68c-0.65,-5.82 -1.45,-5.76 1.73,-10.81 0.51,1.15 0.86,-0.68 1.54,4.7 0.2,1.61 0.09,3.99 0.08,5.67 6.36,-11.82 -2.08,-11.48 -3.57,-11.95 -7.11,12.14 0.16,12.31 0.22,12.39z"/>
  <path class="fil9" d="M801.65 318.12c2.23,5.33 4.81,5.23 10.21,1.95 -1.94,-7.11 -5.92,-5.52 -10.21,-1.95z"/>
  <path class="fil9" d="M858.2 806.49c0,-8.96 0.24,-7.25 -2.51,-11.08 -0.49,0.66 -4.05,-2.71 -2.62,6.45 1.53,9.8 -0.4,2.45 5.13,4.63z"/>
  <path class="fil9" d="M855.69 822.67c0.92,-1.06 2.33,2.56 2.64,-5.33 0.39,-9.94 -0.82,-3.65 -2.64,-5.9 -2.9,3.88 -2.25,-5.58 -2.37,5.89 -0.08,7.1 2.04,4.91 2.37,5.34z"/>
  <path class="fil9" d="M453.97 854.59c2.84,-3.57 2.48,5.29 2.67,-6.01 0.13,-7.64 -2.16,-4.77 -2.67,-5.36 -1.11,1.5 -1.98,-3.07 -2.23,5.36 -0.29,9.93 0.88,3.95 2.23,6.01z"/>
  <path class="fil9" d="M453.97 838.44c1.85,-2.04 2.47,3.89 2.75,-5.48 0.25,-8.38 -1.66,-4.26 -2.75,-5.44 -1.39,1.85 -2.03,-3.58 -2.26,5.43 -0.22,8.57 1.27,4.16 2.26,5.49z"/>
  <path class="fil9" d="M381.82 838.52c1.45,-2.13 1.9,3.72 2.09,-5.56 0.16,-8.06 -1.3,-4.24 -2.09,-5.34 -5.31,2.61 -5.06,8.1 0,10.9z"/>
  <path class="fil9" d="M515.2 318.12c1.11,2.78 -2.08,2.89 3.51,3.51 9.3,1.04 4.95,-1.33 6.39,-3.51 -9.84,-5.73 -9.64,-0.22 -9.9,0z"/>
  <path class="fil9" d="M925.98 848.59c-0.2,8.68 1.2,4.48 3.82,5.64 1.98,-4.14 2.49,-5.97 0,-10.78 -2.49,0.94 -3.64,-2.36 -3.82,5.14z"/>
  <path class="fil9" d="M926.01 832.96c-0.08,7.82 1.35,4.33 3.79,5.33 2.39,-4.41 2.42,-6.31 0,-10.61 -2.73,1.1 -3.71,-2.53 -3.79,5.28z"/>
  <path class="fil9" d="M858.1 784.25c-0.24,-10.77 0.8,0.08 -2.41,-4.92 -3.11,4.32 -2.96,-6.03 -2.61,6.68 0.27,10.02 -0.82,0.05 2.61,4.59 1.97,-2.83 2.66,4.6 2.41,-6.35z"/>
  <path class="fil9" d="M381.82 870.59c6.13,-11.02 0.26,-10.74 0,-11.24 -3.09,3.81 -3.29,-5.75 -2.95,6.63 0.16,5.86 0.52,1.78 2.95,4.61z"/>
  <path class="fil9" d="M802.69 331.77c1.67,-5.32 -0.09,-2.89 4.25,-4.83 3.84,2.7 4.59,-0.82 1.95,7.22 -11.79,-0.16 -2.55,0.24 -6.2,-2.39zm-1.26 3.19l10.37 0.3 0.37 -8.47 -10.58 -0.9 -0.16 9.07z"/>
  <path class="fil9" d="M855.69 838.46c1.93,-2.21 2.38,4 2.63,-5.5 0.21,-8.13 -1.7,-4.33 -2.63,-5.37 -1.53,1.97 -2.03,-3.74 -2.24,5.36 -0.2,8.26 1.45,4.43 2.24,5.51z"/>
  <path class="fil9" d="M855.69 854.47c2.39,-2.98 2.43,4.87 2.61,-5.89 0.13,-7.47 -2.2,-4.78 -2.61,-5.24 -0.93,1.28 -1.91,-2.49 -2.14,5.24 -0.27,9.27 1.03,4.18 2.14,5.89z"/>
  <path class="fil9" d="M855.69 870.63c2.87,-4.13 2.43,5.76 2.52,-6.42 0.05,-6.17 -2.21,-4.52 -2.52,-4.85 -6.74,9.08 -0.3,10.72 0,11.27z"/>
  <path class="fil9" d="M931.4 864.29c-0.75,-8.69 -0.63,-2.89 -3.55,-4.74 -2.28,5.44 -2.38,5.38 0,10.77 2.12,-1.16 4.34,3.08 3.55,-6.03z"/>
  <path class="fil9" d="M858.13 720.04c-0.23,-9.46 0.91,0.08 -2.44,-4.47 -1.89,2.56 -2.67,-4.67 -2.46,6.16 0.1,5.06 0.83,2.5 2.46,4.94 2.71,-4.17 2.75,6.15 2.44,-6.63z"/>
  <path class="fil9" d="M456.74 815.66c-0.15,-5.75 -0.04,-1.23 -2.77,-4.16 -2.25,3.17 -2.27,-4.72 -2.06,5.86 0.21,10.17 -0.18,0.77 2.06,5.12 2.61,-3.77 3.11,5.95 2.77,-6.82z"/>
  <path class="fil9" d="M456.38 864.24c-0.25,-10.42 0.68,-0.13 -2.41,-4.78 -0.02,0.03 -6.43,0.72 0,11.1 2.36,-3.36 2.68,5.3 2.41,-6.32z"/>
  <path class="fil9" d="M791.34 287.38c3.09,-5.82 2.51,-8.42 1.74,-16.08 -1.8,2.8 -2.03,1.83 -3.08,6.82 -1.41,6.77 0.48,7.85 1.34,9.26z"/>
  <path class="fil9" d="M880.64 694.82c-0.5,-12.5 -2.69,-9.48 6.26,-10.55 1.45,3.04 0.59,-3.05 1.53,4.43 0.24,1.91 0.07,3.84 0.05,5.74 3.18,-4.75 2.46,-0.36 1.35,-11.3l-10.24 0.19c-0.55,3.43 -1.01,3.28 -0.64,7.18 0.32,3.4 0.99,3.03 1.69,4.31z"/>
  <path class="fil9" d="M515.78 329.82c0.16,-0.13 0.11,-5.99 5.85,-2.47 3.56,2.19 1.52,-1.15 2.24,6.87 -13.74,-0.29 -3.51,1.26 -8.09,-4.4zm-1.17 5.33l10.3 0.24 0.58 -8.56 -10.76 -1.23 -0.12 9.55z"/>
  <path class="fil9" d="M806.94 326.94c-4.34,1.94 -2.58,-0.49 -4.25,4.83 3.65,2.63 -5.59,2.23 6.2,2.39 2.64,-8.04 1.89,-4.52 -1.95,-7.22z"/>
  <path class="fil9" d="M888.46 715.82l0.02 9.5 -7.88 -0.18 -0.07 -9.8c-2.96,6.1 -1.62,6.92 -0.25,11.69l9.18 -0.73c1.38,-5.36 2.38,-5.26 -1,-10.48z"/>
  <path class="fil9" d="M435.99 694.78l-0.27 -10.74 8.5 0.21c2.02,5.03 1.48,3.26 1.08,10.09 1.96,-2.68 2.43,1.46 1.79,-11.1l-12.04 0.13c-1.01,6.18 -1.74,6.49 0.94,11.41z"/>
  <path class="fil9" d="M453.97 711.48c0.47,-1.06 4.34,0.65 0,-11.32 -2.83,3.14 -2.89,-7.78 -2.54,5.97 0.29,11.39 -0.79,-0.09 2.54,5.35z"/>
  <path class="fil9" d="M880.29 711.17l0.19 -10.24 7.85 0.08 0.5 9.62 1.54 -6.2c0.12,-2.65 -0.39,-2.6 -0.79,-4.96l-9.53 -0.17c-1.98,7.34 -1.84,6.2 0.24,11.87z"/>
  <path class="fil9" d="M384.53 704.39c-0.17,-6.25 -0.65,-1.87 -2.71,-4 -0.89,2.3 -1.54,2.46 -1.54,5.79 -0.02,4.49 0.4,2.38 1.54,4.6 3.03,-3.95 3.06,5.95 2.71,-6.39z"/>
  <path class="fil9" d="M853.96 774.68l3.35 -0.44c0.01,-1.68 0.12,-4.06 -0.08,-5.67 -0.68,-5.38 -1.03,-3.55 -1.54,-4.7 -3.18,5.05 -2.38,4.99 -1.73,10.81z"/>
  <path class="fil9" d="M526.39 613.41c-13.02,-0.4 -9.34,3.05 -10.46,-6.67 1.79,-1.08 0.85,-1.12 4.42,-1.95 2.37,-0.54 3.58,-0.12 5.91,-0.08l-5.84 -1.83c-3.04,-0.21 -2.95,0.4 -5.74,0.79l0.26 10.63 11.45 -0.89z"/>
  <path class="fil9" d="M857.35 731.89l-4.24 -0.85c-0.01,7.06 -0.24,7.02 2.58,11.35l1.66 -10.5z"/>
  <path class="fil9" d="M533.28 613.99l-1.86 -9.6 11.18 -0.24 -6.5 -1.75c-4.47,-0.07 -2.54,0.51 -5.01,1.34 -2.58,11.21 0.04,8.41 2.19,10.25z"/>
  <path class="fil9" d="M929.72 704.51c-0.16,-4 -1.8,-4.11 -1.87,-4.25 -0.42,0.79 -1.61,-0.32 -1.51,5.75 0.11,6.53 0.7,2.72 1.51,4.54 1.77,-2.64 2.08,-0.46 1.87,-6.04z"/>
  <path class="fil9" d="M907.28 760.8c8.42,9.21 4.61,0.77 5.54,0 -1.03,-0.69 2.1,-7.11 -5.54,0z"/>
  <path class="fil9" d="M875.2 758.53c-4.8,1.13 -1.46,-0.81 -3.05,2.53 -2.25,4.75 -0.46,0.76 1.2,2.89 5.06,-2.32 4.12,0.2 1.85,-5.42z"/>
  <path class="fil9" d="M433.47 760.8c5.67,6.38 3.52,1.29 5.08,0 -1.04,-0.7 2.15,-5.97 -5.08,0z"/>
  <path class="fil9" d="M397.54 760.8c1.79,1.66 -0.79,6.21 5.07,0 -5.77,-4.68 -3.55,-1.04 -5.07,0z"/>
 </g>
</svg>
