<?xml version="1.0" encoding="UTF-8"?>
<!DOCTYPE svg PUBLIC "-//W3C//DTD SVG 1.1//EN" "http://www.w3.org/Graphics/SVG/1.1/DTD/svg11.dtd">
<!-- Creator: CorelDRAW 2020 (64-Bit) -->
<svg xmlns="http://www.w3.org/2000/svg" xml:space="preserve" width="12.7mm" height="12.7mm" version="1.1" style="shape-rendering:geometricPrecision; text-rendering:geometricPrecision; image-rendering:optimizeQuality; fill-rule:evenodd; clip-rule:evenodd"
viewBox="0 0 1270 1270"
 xmlns:xlink="http://www.w3.org/1999/xlink"
 xmlns:xodm="http://www.corel.com/coreldraw/odm/2003">
 <defs>
  <style type="text/css">
   <![CDATA[
    .str2 {stroke:#663333;stroke-width:20;stroke-miterlimit:22.9256}
    .str0 {stroke:#F4F4F4;stroke-width:20;stroke-miterlimit:22.9256}
    .str3 {stroke:#663333;stroke-width:7.62;stroke-miterlimit:22.9256}
    .str1 {stroke:white;stroke-width:7.62;stroke-miterlimit:22.9256}
    .fil0 {fill:none}
    .fil4 {fill:#3A9A46}
    .fil7 {fill:#60BFC0}
    .fil9 {fill:#663333}
    .fil5 {fill:#7AC8C9}
    .fil1 {fill:#8DC9F6}
    .fil6 {fill:#9DD8D9}
    .fil2 {fill:#AED9F7}
    .fil3 {fill:#C6E4F8}
    .fil8 {fill:#F4F4F4}
    .fil10 {fill:white}
   ]]>
  </style>
   <clipPath id="id0">
    <path d="M635 38.64c282.6,0 511.69,229.09 511.69,511.69 0,282.59 -229.09,511.68 -511.69,511.68 -282.59,0 -511.68,-229.09 -511.68,-511.68 0,-282.6 229.09,-511.69 511.68,-511.69z"/>
   </clipPath>
    <clipPath id="id1">
     <path d="M433.03 114.75c0,0 -49.81,23.87 -30.05,53.72l0.4 53.1 -14.2 0 0.41 52.48 12.56 0.21 -0.63 79.04 -16.67 0.41 0 20.89 7.71 0.11 0.2 18.11 -12.76 0.41 0.82 22.23 14.82 -0.21 -1.03 106.21 -18.53 -0.41 -0.82 108.46c0,0 19.76,1.45 16.88,19.35 -2.88,17.9 -1.86,222.08 -1.86,222.08l161.3 0.77 0.81 -107.83c0,0 7.82,-54.34 97.14,-81.92 0,0 82.33,28.41 95.5,72.04l3.02 118.65 -0.11 0 159.35 0.76 0.63 -231.55c0,0 0,-12.35 14.81,-12.76l-0.41 -24.9 -10.65 -0.15 0.41 -18.32 8.54 -5.35 0.41 -18.63 -9.05 0.1 0.56 -21.19 8.13 -4.89 0.41 -13.43 -17.39 -0.21 -0.21 -108.77 9.47 -0.21 -1.34 -58.55 -15.95 0.51 1.23 -80.78 12.76 -0.41 -0.83 -50.23 -11.11 0 -3.3 0.05 0.16 -52.39 -54.95 -0.39 0 49.8 -0.11 5.25 -10.91 0.21 -0.2 7.3 0 40.91 7.91 0.21c0,0 3.92,1.03 3.51,9.67l-0.83 70.8 -18.11 -0.41 0 60.1 13.59 0 -0.21 28.4 -31.29 -1.23 0 -60.3c0,0 -0.83,-9.68 7.51,-7.52l0.42 -13.79 -5.98 -0.1 -0.3 -12.96c0,0 1.13,-6.38 6.28,-5.05l0.3 -7.4 -8.44 0.2 0.82 -47.13c0,0 21.61,-11.94 -23.67,-40.55 0,0 -45.08,18.52 -22.23,48.17l-0.93 38.49 -12.81 0.15 -0.42 39.72c0,0 12.56,-2.47 12.35,12.35l-0.41 58.04 -214.46 -2.47 0.93 -66.17c0,0 4.94,-5.66 11.42,-2.16l0.41 -38.69 -10.7 -1.03 -0.21 -39.31c0,0 19.35,-20.58 -23.46,-49.81 0,0 -44.87,25.94 -22.64,47.75l-0.41 41.99 -10.3 0.21 0.21 40.54c0,0 11.94,-3.5 11.11,13.79l-0.81 53.31 -31.08 0.41 -0.21 -28.81 13.38 0.2 0.62 -60.71 -17.09 -0.42 -0.42 -77.8 9.47 0 -1.24 -52.68 -9.26 -0.16 -0.32 -48.99c0,0 19.76,-32.51 -27.37,-58.53z"/>
    </clipPath>
 </defs>
 <g id="Layer_x0020_1">
  <metadata id="CorelCorpID_0Corel-Layer"/>
  <rect class="fil0" width="1270" height="1270"/>
  <rect class="fil0" width="1270" height="1270"/>
  <path class="fil1" d="M635 38.64c282.6,0 511.69,229.09 511.69,511.69 0,282.59 -229.09,511.68 -511.69,511.68 -282.59,0 -511.68,-229.09 -511.68,-511.68 0,-282.6 229.09,-511.69 511.68,-511.69z"/>
  <g style="clip-path:url(#id0)">
   <g id="_1770556219264">
    <circle class="fil2" cx="635" cy="653.22" r="511.69"/>
    <circle class="fil3" cx="635" cy="796.4" r="511.69"/>
    <path class="fil4" d="M367.89 722.94c-42.61,-5.86 -61.01,14.52 -69.26,48.91 -7.84,5.52 2.68,0.37 -7.9,3.04 -17.76,4.47 -62.77,3.32 -57.99,68.78l-32.56 5.62 34.84 74.13 152.76 0.58c15.03,-52.15 39.42,-38.38 96.3,-39.54l0.76 -162.46c-40.89,-23.99 -62.5,-21.3 -89.15,17.1 -8.28,-3.37 -16.47,-10.39 -27.8,-16.16z"/>
    <path class="fil4" d="M967.38 722.94c42.61,-5.86 61.01,14.52 69.26,48.91 7.84,5.52 -2.68,0.37 7.9,3.04 17.76,4.47 62.77,3.32 57.99,68.78l32.56 5.62 -34.84 74.13 -152.76 0.58c-15.03,-52.15 -39.42,-38.38 -96.3,-39.54l-0.76 -162.46c40.89,-23.99 62.5,-21.3 89.15,17.1 8.28,-3.37 16.47,-10.39 27.8,-16.16z"/>
    <path class="fil5" d="M44.93 938.57c10.35,22.15 152.67,128.11 186.63,141.17 25.25,-18.93 60.79,8.75 62.23,15.44 24.39,-29.73 63.05,-26.52 91.17,-2.39 46.95,-40.3 79.47,-6.11 92.41,0.27 48.74,-44.25 83.46,-1.82 88.72,1.47 42.49,-30.35 47.08,-27.98 88.72,-1.79 56.9,-42.13 89.23,-1.04 89.97,2.44 24.49,-29.85 62.78,-26.75 91.17,-2.39 14.83,-12.73 21.13,-17.68 48.1,-18.1 26.15,-0.42 32.08,9.55 43.68,22.46 17.15,-23.38 57.43,-38.21 84.84,-3.16 10.85,-5.13 48.07,-43.33 93.23,-1.25 20.55,-15.22 22.03,-19.17 57.93,-18.8l-8.78 16.78c37.66,-12.6 188.97,-125.39 206.19,-152.65 -30.41,-15.68 -55.09,0.41 -73.27,15.55 -37.21,-30.17 -55.47,-27.52 -93.22,-0.67 -8.8,-9.67 -24.47,-20.07 -44.69,-20.88 -21.28,-0.84 -31.66,13.01 -44.16,19.6 -56.05,-29.27 -39.48,-27.69 -91.95,1.28 -50.07,-38.24 -45.69,-20.82 -89.18,1.01 -33.47,-30.77 -56.36,-27.4 -88.65,-1.32 -37.92,-30.08 -56.24,-25.38 -92.37,0.31 -7.87,-8.66 -26.44,-20.81 -44.47,-21.14 -21.44,-0.4 -31.76,13.21 -44.37,19.86 -14.98,-8.34 -25.73,-21.01 -47.9,-19.84 -23.89,1.25 -28.83,15.65 -45.73,21.98 -34.31,-41.15 -55.33,-16.43 -88.43,0.59 -23.33,-32.69 -58.01,-25.76 -87.72,-1.76 -37.56,-29.79 -56.16,-25.44 -92.37,0.31 -7.2,-7.91 -27.1,-21.09 -44.32,-21.2 -21.62,-0.13 -31.74,13.15 -44.52,19.96 -16.69,-8.22 -45.82,-42.96 -87.01,3.07l-10.33 -7.24c-5.15,-3.99 0.4,-0.28 -6.27,-5.25 -4.84,-3.61 -10.7,-7.04 -16.94,-8.53 -14.27,-3.39 -27.69,1.37 -38.34,4.81z"/>
    <path class="fil6" d="M626.4 1205.05l152.98 -0.01 52.86 -6.87c39.49,-5.47 170.42,-35.68 196.4,-47.45l120.2 -54.21c4.41,-3.46 3.92,-3.49 6.11,-5.79l8.78 -16.78c-35.9,-0.37 -37.38,3.58 -57.93,18.8 -45.16,-42.08 -82.38,-3.88 -93.23,1.25 -27.41,-35.05 -67.69,-20.22 -84.84,3.16 -11.6,-12.91 -17.53,-22.88 -43.68,-22.46 -26.97,0.42 -33.27,5.37 -48.1,18.1 -28.39,-24.36 -66.68,-27.46 -91.17,2.39 -0.74,-3.48 -33.07,-44.57 -89.97,-2.44 -41.64,-26.19 -46.23,-28.56 -88.72,1.79 -5.26,-3.29 -39.98,-45.72 -88.72,-1.47 -12.94,-6.38 -45.46,-40.57 -92.41,-0.27 -28.12,-24.13 -66.78,-27.34 -91.17,2.39 -1.44,-6.69 -36.98,-34.37 -62.23,-15.44 25.54,25.06 151.65,73.18 178.68,81.43 84.47,25.77 119.74,30.69 203.74,40.38l12.42 3.5z"/>
    <path class="fil4" d="M592.72 714.45c42.61,-5.86 61.01,14.52 69.26,48.91 7.84,5.52 -2.68,0.37 7.9,3.04 17.76,4.47 62.77,3.32 57.99,68.78l32.56 5.62 -34.84 74.13 -152.76 0.58c-15.03,-52.15 -39.42,-38.38 -96.3,-39.54l-0.76 -162.46c40.89,-23.99 62.5,-21.3 89.15,17.1 8.28,-3.37 16.47,-10.39 27.8,-16.16z"/>
    <path class="fil4" d="M796.72 714.45c-42.61,-5.86 -61.01,14.52 -69.26,48.91 -7.84,5.52 2.68,0.37 -7.9,3.04 -17.76,4.47 -62.77,3.32 -57.99,68.78l-32.56 5.62 34.84 74.13 152.76 0.58c15.03,-52.15 39.42,-38.38 96.3,-39.54l0.76 -162.46c-40.89,-23.99 -62.5,-21.3 -89.15,17.1 -8.28,-3.37 -16.47,-10.39 -27.8,-16.16z"/>
    <path class="fil7" d="M44.93 938.57c10.65,-3.44 24.07,-8.2 38.34,-4.81 6.24,1.49 12.1,4.92 16.94,8.53 6.67,4.97 1.12,1.26 6.27,5.25l10.33 7.24c41.19,-46.03 70.32,-11.29 87.01,-3.07 12.78,-6.81 22.9,-20.09 44.52,-19.96 17.22,0.11 37.12,13.29 44.32,21.2 36.21,-25.75 54.81,-30.1 92.37,-0.31 29.71,-24 64.39,-30.93 87.72,1.76 33.1,-17.02 54.12,-41.74 88.43,-0.59 16.9,-6.33 21.84,-20.73 45.73,-21.98 22.17,-1.17 32.92,11.5 47.9,19.84 12.61,-6.65 22.93,-20.26 44.37,-19.86 18.03,0.33 36.6,12.48 44.47,21.14 36.13,-25.69 54.45,-30.39 92.37,-0.31 32.29,-26.08 55.18,-29.45 88.65,1.32 43.49,-21.83 39.11,-39.25 89.18,-1.01 52.47,-28.97 35.9,-30.55 91.95,-1.28 12.5,-6.59 22.88,-20.44 44.16,-19.6 20.22,0.81 35.89,11.21 44.69,20.88 37.75,-26.85 56.01,-29.5 93.22,0.67 18.18,-15.14 42.86,-31.23 73.27,-15.55 13.69,-10.44 61.98,-59.25 70.52,-76.46 -23.42,-1.22 -28.4,-0.45 -44.03,11.49 -7.12,5.44 0.11,2.66 -11.97,8.3 -13.12,-7.88 -22.86,-22.65 -47.82,-20.01 -21.22,2.25 -29.89,13.01 -41.15,21.25 -15.15,-12.17 -19.33,-20.84 -44.13,-20.81 -29.51,0.04 -29.77,7.8 -48.04,18.35 -38.42,-37.6 -69.46,-11.54 -88.72,0.34 -61.31,-36.49 -51.95,-16.7 -92.41,-0.63 -39.54,-29.19 -54.01,-24.9 -88.51,2.75 -12.42,-9.84 -18.07,-22.54 -44.47,-21.16 -24.02,1.25 -32.81,13.64 -49.64,19.67 -9.19,-14.46 -19.75,-19.42 -42.78,-19.38 -24.62,0.05 -29.07,9.52 -44.46,18.41 -39.3,-38.47 -71.07,-10.54 -88.72,0.34 -39.63,-22.62 -50.52,-32.39 -91.37,1.02 -36.36,-29.33 -53.3,-27.89 -89.51,1.14 -28.17,-30.67 -57.21,-26.82 -88.97,-2.26 -7.58,-3.38 -1.2,-0.34 -7.26,-4.44 -41.49,-28.08 -57.86,-11.56 -85.16,4.2 -9.11,-8.91 -25.93,-19.18 -44.35,-19.33 -22.14,-0.18 -32.03,12.06 -44.37,19.67 -12.28,-5.65 -44.18,-44.08 -89.08,2.41 -8.35,-5.77 -29.68,-35.29 -71.19,-15.25l-20.87 12.84c-15.36,-11.99 -21.82,-17.86 -49.13,-18.15 14.09,21.3 53.33,62.16 71.38,76.2z"/>
   </g>
  </g>
  <path class="fil0" d="M635 38.64c282.6,0 511.69,229.09 511.69,511.69 0,282.59 -229.09,511.68 -511.69,511.68 -282.59,0 -511.68,-229.09 -511.68,-511.68 0,-282.6 229.09,-511.69 511.68,-511.69z"/>
  <path class="fil8" d="M930.18 231.44c-0.09,0.14 -2.81,5.39 -4.28,6.93 -27.08,-14.69 -27.43,0.27 -40.17,15.89 -11.57,14.18 -24.73,9.53 -22.33,40.75l117.57 0.73 60.84 -0.38c-1.65,-22.97 -11.03,-20.46 -24.52,-30.33 -14.56,-10.63 -7.01,-20.06 -38.23,-14.6 -11.11,-27.67 -22.27,-22.15 -48.88,-18.99z"/>
  <ellipse class="fil0 str0" cx="956.12" cy="248.56" rx="24.42" ry="22.75"/>
  <ellipse class="fil0 str0" cx="989.43" cy="263.72" rx="20.27" ry="18.88"/>
  <g id="_1770556221856">
   <path class="fil8" d="M597.09 98.33c-0.08,0.13 -2.8,5.38 -4.27,6.92 -27.09,-14.69 -27.43,0.27 -40.18,15.89 -11.56,14.18 -24.72,9.53 -22.32,40.75l117.57 0.73 60.84 -0.38c-1.66,-22.97 -11.03,-20.46 -24.53,-30.33 -14.56,-10.63 -7.01,-20.06 -38.23,-14.6 -11.11,-27.67 -22.26,-22.15 -48.88,-18.98z"/>
   <ellipse class="fil0 str0" cx="623.04" cy="115.44" rx="24.42" ry="22.75"/>
   <ellipse class="fil0 str0" cx="579.79" cy="122.9" rx="24.42" ry="22.75"/>
   <ellipse class="fil0 str0" cx="656.34" cy="130.6" rx="20.27" ry="18.88"/>
  </g>
  <path class="fil8" d="M228.32 303.39c-0.09,0.13 -2.8,5.38 -4.27,6.92 -27.09,-14.68 -27.44,0.28 -40.18,15.9 -11.57,14.18 -24.72,9.52 -22.32,40.74l117.57 0.73 60.84 -0.38c-1.66,-22.96 -11.03,-20.46 -24.53,-30.32 -14.56,-10.64 -7.01,-20.07 -38.23,-14.6 -11.11,-27.67 -22.26,-22.16 -48.88,-18.99z"/>
  <ellipse class="fil0 str0" cx="254.26" cy="320.51" rx="24.42" ry="22.75"/>
  <ellipse class="fil0 str0" cx="211.02" cy="327.97" rx="24.42" ry="22.75"/>
  <ellipse class="fil0 str0" cx="287.57" cy="335.66" rx="20.27" ry="18.88"/>
  <g id="_1770556224256">
   <path class="fil9" d="M433.03 114.75c0,0 -49.81,23.87 -30.05,53.72l0.4 53.1 -14.2 0 0.41 52.48 12.56 0.21 -0.63 79.04 -16.67 0.41 0 20.89 7.71 0.11 0.2 18.11 -12.76 0.41 0.82 22.23 14.82 -0.21 -1.03 106.21 -18.53 -0.41 -0.82 108.46c0,0 19.76,1.45 16.88,19.35 -2.88,17.9 -1.86,222.08 -1.86,222.08l161.3 0.77 0.81 -107.83c0,0 7.82,-54.34 97.14,-81.92 0,0 82.33,28.41 95.5,72.04l3.02 118.65 -0.11 0 159.35 0.76 0.63 -231.55c0,0 0,-12.35 14.81,-12.76l-0.41 -24.9 -10.65 -0.15 0.41 -18.32 8.54 -5.35 0.41 -18.63 -9.05 0.1 0.56 -21.19 8.13 -4.89 0.41 -13.43 -17.39 -0.21 -0.21 -108.77 9.47 -0.21 -1.34 -58.55 -15.95 0.51 1.23 -80.78 12.76 -0.41 -0.83 -50.23 -11.11 0 -3.3 0.05 0.16 -52.39 -54.95 -0.39 0 49.8 -0.11 5.25 -10.91 0.21 -0.2 7.3 0 40.91 7.91 0.21c0,0 3.92,1.03 3.51,9.67l-0.83 70.8 -18.11 -0.41 0 60.1 13.59 0 -0.21 28.4 -31.29 -1.23 0 -60.3c0,0 -0.83,-9.68 7.51,-7.52l0.42 -13.79 -5.98 -0.1 -0.3 -12.96c0,0 1.13,-6.38 6.28,-5.05l0.3 -7.4 -8.44 0.2 0.82 -47.13c0,0 21.61,-11.94 -23.67,-40.55 0,0 -45.08,18.52 -22.23,48.17l-0.93 38.49 -12.81 0.15 -0.42 39.72c0,0 12.56,-2.47 12.35,12.35l-0.41 58.04 -214.46 -2.47 0.93 -66.17c0,0 4.94,-5.66 11.42,-2.16l0.41 -38.69 -10.7 -1.03 -0.21 -39.31c0,0 19.35,-20.58 -23.46,-49.81 0,0 -44.87,25.94 -22.64,47.75l-0.41 41.99 -10.3 0.21 0.21 40.54c0,0 11.94,-3.5 11.11,13.79l-0.81 53.31 -31.08 0.41 -0.21 -28.81 13.38 0.2 0.62 -60.71 -17.09 -0.42 -0.42 -77.8 9.47 0 -1.24 -52.68 -9.26 -0.16 -0.32 -48.99c0,0 19.76,-32.51 -27.37,-58.53z"/>
   <g style="clip-path:url(#id1)">
    <g>
     <path id="1" class="fil10 str1" d="M1208.25 1164.14l0.82 -110.32c0,0 7.82,-54.34 97.15,-81.92 0,0 82.33,28.4 95.5,72.04l3.01 118.64 -196.48 1.56z"/>
    </g>
   </g>
   <path class="fil0" d="M433.03 114.75c0,0 -49.81,23.87 -30.05,53.72l0.4 53.1 -14.2 0 0.41 52.48 12.56 0.21 -0.63 79.04 -16.67 0.41 0 20.89 7.71 0.11 0.2 18.11 -12.76 0.41 0.82 22.23 14.82 -0.21 -1.03 106.21 -18.53 -0.41 -0.82 108.46c0,0 19.76,1.45 16.88,19.35 -2.88,17.9 -1.86,222.08 -1.86,222.08l161.3 0.77 0.81 -107.83c0,0 7.82,-54.34 97.14,-81.92 0,0 82.33,28.41 95.5,72.04l3.02 118.65 -0.11 0 159.35 0.76 0.63 -231.55c0,0 0,-12.35 14.81,-12.76l-0.41 -24.9 -10.65 -0.15 0.41 -18.32 8.54 -5.35 0.41 -18.63 -9.05 0.1 0.56 -21.19 8.13 -4.89 0.41 -13.43 -17.39 -0.21 -0.21 -108.77 9.47 -0.21 -1.34 -58.55 -15.95 0.51 1.23 -80.78 12.76 -0.41 -0.83 -50.23 -11.11 0 -3.3 0.05 0.16 -52.39 -54.95 -0.39 0 49.8 -0.11 5.25 -10.91 0.21 -0.2 7.3 0 40.91 7.91 0.21c0,0 3.92,1.03 3.51,9.67l-0.83 70.8 -18.11 -0.41 0 60.1 13.59 0 -0.21 28.4 -31.29 -1.23 0 -60.3c0,0 -0.83,-9.68 7.51,-7.52l0.42 -13.79 -5.98 -0.1 -0.3 -12.96c0,0 1.13,-6.38 6.28,-5.05l0.3 -7.4 -8.44 0.2 0.82 -47.13c0,0 21.61,-11.94 -23.67,-40.55 0,0 -45.08,18.52 -22.23,48.17l-0.93 38.49 -12.81 0.15 -0.42 39.72c0,0 12.56,-2.47 12.35,12.35l-0.41 58.04 -214.46 -2.47 0.93 -66.17c0,0 4.94,-5.66 11.42,-2.16l0.41 -38.69 -10.7 -1.03 -0.21 -39.31c0,0 19.35,-20.58 -23.46,-49.81 0,0 -44.87,25.94 -22.64,47.75l-0.41 41.99 -10.3 0.21 0.21 40.54c0,0 11.94,-3.5 11.11,13.79l-0.81 53.31 -31.08 0.41 -0.21 -28.81 13.38 0.2 0.62 -60.71 -17.09 -0.42 -0.42 -77.8 9.47 0 -1.24 -52.68 -9.26 -0.16 -0.32 -48.99c0,0 19.76,-32.51 -27.37,-58.53z"/>
   <path class="fil10" d="M511.33 827.07l0.72 0c5.66,0 10.29,4.63 10.29,10.29l0 25.21 -22.02 0 0 -24.49c0,-6.06 4.95,-11.01 11.01,-11.01z"/>
   <path class="fil10" d="M510.92 759.15l0.72 0c5.66,0 10.29,4.63 10.29,10.29l0 25.21 -22.02 0 0 -24.49c0,-6.06 4.95,-11.01 11.01,-11.01z"/>
   <path class="fil10" d="M510.51 706.66l0.72 0c5.66,0 10.29,4.63 10.29,10.29l0 13.89 -22.02 0 0 -13.17c0,-6.06 4.95,-11.01 11.01,-11.01z"/>
   <path class="fil10" d="M510.4 654.49l0.72 0c5.66,0 10.29,4.63 10.29,10.29l0 13.89 -22.02 0 0 -13.17c0,-6.06 4.95,-11.01 11.01,-11.01z"/>
   <path class="fil10" d="M789.49 653.82l0.72 0c5.66,0 10.29,4.63 10.29,10.29l0 13.89 -22.02 0 0 -13.17c0,-6.06 4.95,-11.01 11.01,-11.01z"/>
   <path class="fil10" d="M788.67 707.74l0.72 0c5.66,0 10.29,4.63 10.29,10.29l0 13.89 -22.02 0 0 -13.17c0,-6.06 4.95,-11.01 11.01,-11.01z"/>
   <path class="fil10" d="M789.19 758.73l0.72 0c5.66,0 10.29,4.63 10.29,10.29l0 25.21 -22.02 0 0 -24.49c0,-6.06 4.95,-11.01 11.01,-11.01z"/>
   <path class="fil10" d="M789.6 825.01l0.72 0c5.66,0 10.29,4.63 10.29,10.29l0 25.21 -22.02 0 0 -24.49c0,-6.06 4.95,-11.01 11.01,-11.01z"/>
   <polygon class="fil10" points="512.77,568.14 498.36,582.96 498.57,610.75 525.32,611.16 525.53,580.7 "/>
   <polygon class="fil10" points="558.46,568.55 544.05,583.37 544.26,611.16 571.01,611.57 571.22,581.11 "/>
   <polygon class="fil10" points="603.74,568.96 589.33,583.78 589.54,611.57 616.3,611.98 616.5,581.52 "/>
   <polygon class="fil10" points="649.84,569.38 635.44,584.2 635.64,611.98 662.4,612.39 662.61,581.93 "/>
   <polygon class="fil10" points="695.95,567.73 681.54,582.55 681.75,610.33 708.5,610.75 708.71,580.28 "/>
   <polygon class="fil10" points="742.87,567.73 728.47,582.55 728.67,610.33 755.43,610.75 755.64,580.28 "/>
   <polygon class="fil10" points="786.92,568.55 772.51,583.37 772.72,611.16 799.48,611.57 799.68,581.11 "/>
   <path class="fil10" d="M492.7 498.4l0.57 0c4.47,0 8.12,3.65 8.12,8.12l0 10.97 -17.38 0 0 -10.4c0,-4.78 3.91,-8.69 8.69,-8.69z"/>
   <path class="fil10" d="M518.84 498.4l0.57 0c4.47,0 8.12,3.65 8.12,8.12l0 10.97 -17.38 0 0 -10.4c0,-4.78 3.91,-8.69 8.69,-8.69z"/>
   <path class="fil10" d="M545.18 498.4l0.57 0c4.47,0 8.12,3.65 8.12,8.12l0 10.97 -17.38 0 0 -10.4c0,-4.78 3.91,-8.69 8.69,-8.69z"/>
   <path class="fil10" d="M571.11 498.4l0.57 0c4.47,0 8.12,3.65 8.12,8.12l0 10.97 -17.38 0 0 -10.4c0,-4.78 3.91,-8.69 8.69,-8.69z"/>
   <path class="fil10" d="M597.66 498.4l0.57 0c4.47,0 8.12,3.65 8.12,8.12l0 10.97 -17.37 0 0 -10.4c0,-4.78 3.91,-8.69 8.68,-8.69z"/>
   <path class="fil10" d="M623.19 498.4l0.57 0c4.47,0 8.12,3.65 8.12,8.12l0 10.97 -17.38 0 0 -10.4c0,-4.78 3.91,-8.69 8.69,-8.69z"/>
   <path class="fil10" d="M649.33 498.4l0.57 0c4.47,0 8.12,3.65 8.12,8.12l0 10.97 -17.38 0 0 -10.4c0,-4.78 3.91,-8.69 8.69,-8.69z"/>
   <path class="fil10" d="M676.5 498.4l0.56 0c4.48,0 8.12,3.65 8.12,8.12l0 10.97 -17.37 0 0 -10.4c0,-4.78 3.91,-8.69 8.69,-8.69z"/>
   <path class="fil10" d="M702.84 498.4l0.57 0c4.47,0 8.12,3.65 8.12,8.12l0 10.97 -17.38 0 0 -10.4c0,-4.78 3.91,-8.69 8.69,-8.69z"/>
   <path class="fil10" d="M728.57 498.4l0.57 0c4.47,0 8.12,3.65 8.12,8.12l0 10.97 -17.38 0 0 -10.4c0,-4.78 3.91,-8.69 8.69,-8.69z"/>
   <path class="fil10" d="M754.3 498.4l0.57 0c4.47,0 8.12,3.65 8.12,8.12l0 10.97 -17.38 0 0 -10.4c0,-4.78 3.91,-8.69 8.69,-8.69z"/>
   <path class="fil10" d="M780.44 498.4l0.57 0c4.47,0 8.12,3.65 8.12,8.12l0 10.97 -17.38 0 0 -10.4c0,-4.78 3.91,-8.69 8.69,-8.69z"/>
   <path class="fil10" d="M806.06 498.4l0.57 0c4.47,0 8.12,3.65 8.12,8.12l0 10.97 -17.38 0 0 -10.4c0,-4.78 3.91,-8.69 8.69,-8.69z"/>
   <path class="fil10" d="M493.35 472.45l0.57 0c4.47,0 8.12,-3.65 8.12,-8.12l0 -10.97 -17.38 0 0 10.4c0,4.78 3.91,8.69 8.69,8.69z"/>
   <path class="fil10" d="M519.49 472.45l0.57 0c4.47,0 8.12,-3.65 8.12,-8.12l0 -10.97 -17.38 0 0 10.4c0,4.78 3.91,8.69 8.69,8.69z"/>
   <path class="fil10" d="M545.84 472.45l0.57 0c4.47,0 8.12,-3.65 8.12,-8.12l0 -10.97 -17.38 0 0 10.4c0,4.78 3.91,8.69 8.69,8.69z"/>
   <path class="fil10" d="M571.77 472.45l0.57 0c4.47,0 8.12,-3.65 8.12,-8.12l0 -10.97 -17.38 0 0 10.4c0,4.78 3.91,8.69 8.69,8.69z"/>
   <path class="fil10" d="M598.32 472.45l0.57 0c4.47,0 8.12,-3.65 8.12,-8.12l0 -10.97 -17.38 0 0 10.4c0,4.78 3.91,8.69 8.69,8.69z"/>
   <path class="fil10" d="M623.84 472.45l0.57 0c4.47,0 8.12,-3.65 8.12,-8.12l0 -10.97 -17.38 0 0 10.4c0,4.78 3.91,8.69 8.69,8.69z"/>
   <path class="fil10" d="M649.98 472.45l0.57 0c4.47,0 8.12,-3.65 8.12,-8.12l0 -10.97 -17.38 0 0 10.4c0,4.78 3.91,8.69 8.69,8.69z"/>
   <path class="fil10" d="M677.15 472.45l0.57 0c4.47,0 8.12,-3.65 8.12,-8.12l0 -10.97 -17.38 0 0 10.4c0,4.78 3.91,8.69 8.69,8.69z"/>
   <path class="fil10" d="M703.5 472.45l0.57 0c4.47,0 8.12,-3.65 8.12,-8.12l0 -10.97 -17.38 0 0 10.4c0,4.78 3.91,8.69 8.69,8.69z"/>
   <path class="fil10" d="M729.22 472.45l0.57 0c4.47,0 8.12,-3.65 8.12,-8.12l0 -10.97 -17.38 0 0 10.4c0,4.78 3.91,8.69 8.69,8.69z"/>
   <path class="fil10" d="M754.95 472.45l0.57 0c4.47,0 8.12,-3.65 8.12,-8.12l0 -10.97 -17.38 0 0 10.4c0,4.78 3.91,8.69 8.69,8.69z"/>
   <path class="fil10" d="M781.09 472.45l0.57 0c4.47,0 8.12,-3.65 8.12,-8.12l0 -10.97 -17.38 0 0 10.4c0,4.78 3.91,8.69 8.69,8.69z"/>
   <path class="fil10" d="M806.72 472.45l0.57 0c4.47,0 8.12,-3.65 8.12,-8.12l0 -10.97 -17.38 0 0 10.4c0,4.78 3.91,8.69 8.69,8.69z"/>
   <polygon class="fil10" points="404.61,577.36 395.36,586.88 395.49,604.73 412.68,604.99 412.81,585.43 "/>
   <polygon class="fil10" points="430.96,576.33 421.7,585.85 421.84,603.7 439.02,603.96 439.15,584.4 "/>
   <polygon class="fil10" points="458.13,576.33 448.87,585.85 449,603.7 466.19,603.96 466.32,584.4 "/>
   <polygon class="fil10" points="457.71,533.32 448.46,542.84 448.59,560.68 465.78,560.95 465.91,541.38 "/>
   <polygon class="fil10" points="431.37,532.49 422.12,542.01 422.25,559.86 439.43,560.12 439.57,540.56 "/>
   <polygon class="fil10" points="404.61,532.7 395.36,542.22 395.49,560.06 412.68,560.33 412.81,540.76 "/>
   <polygon class="fil10" points="404.2,576.95 394.95,586.47 395.08,604.32 412.26,604.58 412.4,585.02 "/>
   <polygon class="fil10" points="404.61,532.29 395.36,541.8 395.49,559.65 412.68,559.92 412.81,540.35 "/>
   <polygon class="fil10" points="841.96,578.11 832.71,587.63 832.84,605.48 850.02,605.74 850.16,586.17 "/>
   <polygon class="fil10" points="869.13,576.67 859.87,586.19 860.01,604.04 877.19,604.3 877.32,584.73 "/>
   <polygon class="fil10" points="895.68,577.08 886.42,586.6 886.56,604.45 903.74,604.71 903.87,585.15 "/>
   <polygon class="fil10" points="896.09,532.21 886.84,541.73 886.97,559.58 904.15,559.84 904.29,540.28 "/>
   <polygon class="fil10" points="869.95,533.04 860.7,542.56 860.83,560.4 878.02,560.67 878.15,541.1 "/>
   <polygon class="fil10" points="841.96,532.42 832.71,541.94 832.84,559.78 850.02,560.05 850.16,540.48 "/>
   <rect class="fil10" x="400.68" y="372.08" width="13.91" height="19.17" rx="5.27" ry="5.27"/>
   <rect class="fil10" x="424.27" y="372.08" width="13.91" height="19.17" rx="5.27" ry="5.27"/>
   <rect class="fil10" x="446.3" y="372.08" width="13.91" height="19.17" rx="5.27" ry="5.27"/>
   <rect class="fil10" x="838.82" y="373.12" width="13.91" height="19.17" rx="5.27" ry="5.27"/>
   <rect class="fil10" x="862.41" y="373.12" width="13.91" height="19.17" rx="5.27" ry="5.27"/>
   <rect class="fil10" x="884.44" y="373.12" width="13.91" height="19.17" rx="5.27" ry="5.27"/>
   <rect class="fil10" x="838.86" y="234.51" width="13.91" height="19.17" rx="5.27" ry="5.27"/>
   <rect class="fil10" x="862.46" y="234.51" width="13.91" height="19.17" rx="5.27" ry="5.27"/>
   <rect class="fil10" x="884.48" y="234.51" width="13.91" height="19.17" rx="5.27" ry="5.27"/>
   <rect class="fil10" x="400.88" y="234.51" width="13.91" height="19.17" rx="5.27" ry="5.27"/>
   <rect class="fil10" x="424.48" y="234.51" width="13.91" height="19.17" rx="5.27" ry="5.27"/>
   <rect class="fil10" x="446.5" y="234.51" width="13.91" height="19.17" rx="5.27" ry="5.27"/>
   <rect class="fil10" x="407.06" y="201.82" width="11.73" height="16.17" rx="4.44" ry="4.44"/>
   <rect class="fil10" x="426.96" y="201.82" width="11.73" height="16.17" rx="4.44" ry="4.44"/>
   <rect class="fil10" x="445.54" y="201.82" width="11.73" height="16.17" rx="4.44" ry="4.44"/>
   <rect class="fil10" x="494.88" y="345.86" width="11.73" height="16.17" rx="4.44" ry="4.44"/>
   <rect class="fil10" x="514.78" y="345.86" width="11.73" height="16.17" rx="4.44" ry="4.44"/>
   <rect class="fil10" x="533.36" y="345.86" width="11.73" height="16.17" rx="4.44" ry="4.44"/>
   <rect class="fil10" x="754.1" y="345.51" width="11.73" height="16.17" rx="4.44" ry="4.44"/>
   <rect class="fil10" x="774.01" y="345.51" width="11.73" height="16.17" rx="4.44" ry="4.44"/>
   <rect class="fil10" x="792.58" y="345.51" width="11.73" height="16.17" rx="4.44" ry="4.44"/>
   <rect class="fil10" x="759.25" y="316.75" width="9.9" height="13.64" rx="3.75" ry="3.75"/>
   <rect class="fil10" x="776.04" y="316.75" width="9.9" height="13.64" rx="3.75" ry="3.75"/>
   <rect class="fil10" x="791.72" y="316.75" width="9.9" height="13.64" rx="3.75" ry="3.75"/>
   <path class="fil9 str2" d="M893.91 171.35l-52.84 1.08c0,0 -13.81,-31.64 25.26,-47.49 0,0 41.45,23.97 27.58,46.41z"/>
   <line class="fil0 str3" x1="432.92" y1="130.44" x2="431.69" y2= "86.09" />
   <line class="fil0 str3" x1="520.15" y1="262.55" x2="518.92" y2= "218.2" />
   <line class="fil0 str3" x1="781.45" y1="261.69" x2="780.21" y2= "217.35" />
   <line class="fil0 str3" x1="867.41" y1="141.26" x2="866.18" y2= "96.91" />
  </g>
  <line class="fil0 str2" x1="277.62" y1="873.43" x2="995.31" y2= "880.05" />
 </g>
</svg>
