<svg xmlns="http://www.w3.org/2000/svg" viewBox="0 0 1459 1271" width="1459" height="1271">
	<style>
		tspan { white-space:pre }
		.shp0 { fill: #8dc9f6 } 
		.shp1 { fill: #aed9f7 } 
		.shp2 { fill: #c6e4f8 } 
		.shp3 { fill: #3a9a46 } 
		.shp4 { fill: #7ac8c9 } 
		.shp5 { fill: #9dd8d9 } 
		.shp6 { fill: #60bfc0 } 
		.shp7 { fill: none } 
		.shp8 { fill: #f4f4f4 } 
		.shp9 { fill: #663333 } 
		.shp10 { fill: #ffffff } 
		.shp11 { fill: #000000 } 
	</style>
	<g id="Layer_x0020_1">
		<g id="_2773654070864">
			<path id="Layer" fill-rule="evenodd" class="shp0" d="M662 0.64C944.6 0.64 1173.69 229.73 1173.69 512.33C1173.69 794.92 944.6 1024.01 662 1024.01C379.41 1024.01 150.32 794.92 150.32 512.33C150.32 229.73 379.41 0.64 662 0.64L662 0.64Z" />
			<g id="Layer">
				<g id="Layer">
					<path id="Layer" class="shp1" d="M662 1126.91C379.04 1126.91 150.31 898.18 150.31 615.22C150.31 332.26 379.04 103.53 662 103.53C944.96 103.53 1173.69 332.26 1173.69 615.22C1173.69 898.18 944.96 1126.91 662 1126.91Z" />
					<path id="Layer" class="shp2" d="M662 1270.09C379.04 1270.09 150.31 1041.36 150.31 758.4C150.31 475.44 379.04 246.71 662 246.71C944.96 246.71 1173.69 475.44 1173.69 758.4C1173.69 1041.36 944.96 1270.09 662 1270.09Z" />
					<path id="Layer" fill-rule="evenodd" class="shp3" d="M394.89 684.94C352.28 679.08 333.88 699.46 325.63 733.85C317.79 739.37 328.31 734.22 317.73 736.89C299.97 741.36 254.96 740.21 259.74 805.67L227.18 811.29L262.02 885.42L414.78 886C429.81 833.85 454.2 847.62 511.08 846.46L511.84 684C470.95 660.01 449.34 662.7 422.69 701.1C414.41 697.73 406.22 690.71 394.89 684.94L394.89 684.94Z" />
					<path id="Layer" fill-rule="evenodd" class="shp3" d="M994.38 684.94C1036.99 679.08 1055.39 699.46 1063.64 733.85C1071.48 739.37 1060.96 734.22 1071.54 736.89C1089.3 741.36 1134.31 740.21 1129.53 805.67L1162.09 811.29L1127.25 885.42L974.49 886C959.46 833.85 935.07 847.62 878.19 846.46L877.43 684C918.32 660.01 939.93 662.7 966.58 701.1C974.86 697.73 983.05 690.71 994.38 684.94L994.38 684.94Z" />
					<path id="Layer" fill-rule="evenodd" class="shp4" d="M71.93 900.57C82.28 922.72 224.6 1028.68 258.56 1041.74C283.81 1022.81 319.35 1050.49 320.79 1057.18C345.18 1027.45 383.84 1030.66 411.96 1054.79C458.91 1014.49 491.43 1048.68 504.37 1055.06C553.11 1010.81 587.83 1053.24 593.09 1056.53C635.58 1026.18 640.17 1028.55 681.81 1054.74C738.71 1012.61 771.04 1053.7 771.78 1057.18C796.27 1027.33 834.56 1030.43 862.95 1054.79C877.78 1042.06 884.08 1037.11 911.05 1036.69C937.2 1036.27 943.13 1046.24 954.73 1059.15C971.88 1035.77 1012.16 1020.94 1039.57 1055.99C1050.42 1050.86 1087.64 1012.66 1132.8 1054.74C1153.35 1039.52 1154.83 1035.57 1190.73 1035.94L1181.95 1052.72C1219.61 1040.12 1370.92 927.33 1388.14 900.07C1357.73 884.39 1333.05 900.48 1314.87 915.62C1277.66 885.45 1259.4 888.1 1221.65 914.95C1212.85 905.28 1197.18 894.88 1176.96 894.07C1155.68 893.23 1145.3 907.08 1132.8 913.67C1076.75 884.4 1093.32 885.98 1040.85 914.95C990.78 876.71 995.16 894.13 951.67 915.96C918.2 885.19 895.31 888.56 863.02 914.64C825.1 884.56 806.78 889.26 770.65 914.95C762.78 906.29 744.21 894.14 726.18 893.81C704.74 893.41 694.42 907.02 681.81 913.67C666.83 905.33 656.08 892.66 633.91 893.83C610.02 895.08 605.08 909.48 588.18 915.81C553.87 874.66 532.85 899.38 499.75 916.4C476.42 883.71 441.74 890.64 412.03 914.64C374.47 884.85 355.87 889.2 319.66 914.95C312.46 907.04 292.56 893.86 275.34 893.75C253.72 893.62 243.6 906.9 230.82 913.71C214.13 905.49 185 870.75 143.81 916.78L133.48 909.54C128.33 905.55 133.88 909.26 127.21 904.29C122.37 900.68 116.51 897.25 110.27 895.76C96 892.37 82.58 897.13 71.93 900.57L71.93 900.57Z" />
					<path id="Layer" fill-rule="evenodd" class="shp5" d="M653.4 1167.05L806.38 1167.04L859.24 1160.17C898.73 1154.7 1029.66 1124.49 1055.64 1112.72L1175.84 1058.51C1180.25 1055.05 1179.76 1055.02 1181.95 1052.72L1190.73 1035.94C1154.83 1035.57 1153.35 1039.52 1132.8 1054.74C1087.64 1012.66 1050.42 1050.86 1039.57 1055.99C1012.16 1020.94 971.88 1035.77 954.73 1059.15C943.13 1046.24 937.2 1036.27 911.05 1036.69C884.08 1037.11 877.78 1042.06 862.95 1054.79C834.56 1030.43 796.27 1027.33 771.78 1057.18C771.04 1053.7 738.71 1012.61 681.81 1054.74C640.17 1028.55 635.58 1026.18 593.09 1056.53C587.83 1053.24 553.11 1010.81 504.37 1055.06C491.43 1048.68 458.91 1014.49 411.96 1054.79C383.84 1030.66 345.18 1027.45 320.79 1057.18C319.35 1050.49 283.81 1022.81 258.56 1041.74C284.1 1066.8 410.21 1114.92 437.24 1123.17C521.71 1148.94 556.98 1153.86 640.98 1163.55L653.4 1167.05L653.4 1167.05Z" />
					<path id="Layer" fill-rule="evenodd" class="shp3" d="M619.72 676.45C662.33 670.59 680.73 690.97 688.98 725.36C696.82 730.88 686.3 725.73 696.88 728.4C714.64 732.87 759.65 731.72 754.87 797.18L787.43 802.8L752.59 876.93L599.83 877.51C584.8 825.36 560.41 839.13 503.53 837.97L502.77 675.51C543.66 651.52 565.27 654.21 591.92 692.61C600.2 689.24 608.39 682.22 619.72 676.45Z" />
					<path id="Layer" fill-rule="evenodd" class="shp3" d="M823.72 676.45C781.11 670.59 762.71 690.97 754.46 725.36C746.62 730.88 757.14 725.73 746.56 728.4C728.8 732.87 683.79 731.72 688.57 797.18L656.01 802.8L690.85 876.93L843.61 877.51C858.64 825.36 883.03 839.13 939.91 837.97L940.67 675.51C899.78 651.52 878.17 654.21 851.52 692.61C843.24 689.24 835.05 682.22 823.72 676.45Z" />
					<path id="Layer" fill-rule="evenodd" class="shp6" d="M71.93 900.57C82.58 897.13 96 892.37 110.27 895.76C116.51 897.25 122.37 900.68 127.21 904.29C133.88 909.26 128.33 905.55 133.48 909.54L143.81 916.78C185 870.75 214.13 905.49 230.82 913.71C243.6 906.9 253.72 893.62 275.34 893.75C292.56 893.86 312.46 907.04 319.66 914.95C355.87 889.2 374.47 884.85 412.03 914.64C441.74 890.64 476.42 883.71 499.75 916.4C532.85 899.38 553.87 874.66 588.18 915.81C605.08 909.48 610.02 895.08 633.91 893.83C656.08 892.66 666.83 905.33 681.81 913.67C694.42 907.02 704.74 893.41 726.18 893.81C744.21 894.14 762.78 906.29 770.65 914.95C806.78 889.26 825.1 884.56 863.02 914.64C895.31 888.56 918.2 885.19 951.67 915.96C995.16 894.13 990.78 876.71 1040.85 914.95C1093.32 885.98 1076.75 884.4 1132.8 913.67C1145.3 907.08 1155.68 893.23 1176.96 894.07C1197.18 894.88 1212.85 905.28 1221.65 914.95C1259.4 888.1 1277.66 885.45 1314.87 915.62C1333.05 900.48 1357.73 884.39 1388.14 900.07C1401.83 889.63 1450.12 840.82 1458.66 823.61C1435.24 822.39 1430.26 823.16 1414.63 835.1C1407.51 840.54 1414.74 837.76 1402.66 843.4C1389.54 835.52 1379.8 820.75 1354.84 823.39C1333.62 825.64 1324.95 836.4 1313.69 844.64C1298.54 832.47 1294.36 823.8 1269.56 823.83C1240.05 823.87 1239.79 831.63 1221.52 842.18C1183.1 804.58 1152.06 830.64 1132.8 842.52C1071.49 806.03 1080.85 825.82 1040.39 841.89C1000.85 812.7 986.38 816.99 951.88 844.64C939.46 834.8 933.81 822.1 907.41 823.48C883.39 824.73 874.6 837.12 857.77 843.15C848.58 828.69 838.02 823.73 814.99 823.77C790.37 823.82 785.92 833.29 770.53 842.18C731.23 803.71 699.46 831.64 681.81 842.52C642.18 819.9 631.29 810.13 590.44 843.54C554.08 814.21 537.14 815.65 500.93 844.68C472.76 814.01 443.72 817.86 411.96 842.42C404.38 839.04 410.76 842.08 404.7 837.98C363.21 809.9 346.84 826.42 319.54 842.18C310.43 833.27 293.61 823 275.19 822.85C253.05 822.67 243.16 834.91 230.82 842.52C218.54 836.87 186.64 798.44 141.74 844.93C133.39 839.16 112.06 809.64 70.55 829.68L49.68 842.52C34.32 830.53 27.86 824.66 0.55 824.37C14.64 845.67 53.88 886.53 71.93 900.57L71.93 900.57Z" />
				</g>
			</g>
			<path id="Layer" fill-rule="evenodd" class="shp7" d="M662 0.64C944.6 0.64 1173.69 229.73 1173.69 512.33C1173.69 794.92 944.6 1024.01 662 1024.01C379.41 1024.01 150.32 794.92 150.32 512.33C150.32 229.73 379.41 0.64 662 0.64L662 0.64Z" />
			<path id="Layer" fill-rule="evenodd" class="shp8" d="M957.18 193.44C957.09 193.58 954.37 198.83 952.9 200.37C925.82 185.68 925.47 200.64 912.73 216.26C901.16 230.44 888 225.79 890.4 257.01L1007.97 257.74L1068.81 257.36C1067.16 234.39 1057.78 236.9 1044.29 227.03C1029.73 216.4 1037.28 206.97 1006.06 212.43C994.95 184.76 983.79 190.28 957.18 193.44L957.18 193.44Z" />
			<g id="Layer">
				<path id="Layer" fill-rule="evenodd" class="shp8" d="M624.09 60.33C624.01 60.46 621.29 65.71 619.82 67.25C592.73 52.56 592.39 67.52 579.64 83.14C568.08 97.32 554.92 92.67 557.32 123.89L674.89 124.62L735.73 124.24C734.07 101.27 724.7 103.78 711.2 93.91C696.64 83.28 704.19 73.85 672.97 79.31C661.86 51.64 650.71 57.16 624.09 60.33L624.09 60.33Z" />
			</g>
			<path id="Layer" fill-rule="evenodd" class="shp8" d="M255.32 265.39C255.23 265.52 252.52 270.77 251.05 272.31C223.96 257.63 223.61 272.59 210.87 288.21C199.3 302.39 186.15 297.73 188.55 328.95L306.12 329.68L366.96 329.3C365.3 306.34 355.93 308.84 342.43 298.98C327.87 288.34 335.42 278.91 304.2 284.38C293.09 256.71 281.94 262.22 255.32 265.39L255.32 265.39Z" />
		</g>
		<g id="_2773654075040">
			<path id="Layer" fill-rule="evenodd" class="shp9" d="M460.03 76.75C460.03 76.75 410.22 100.62 429.98 130.47L430.38 183.57L416.18 183.57L416.59 236.05L429.15 236.26L428.52 315.3L411.85 315.71L411.85 336.6L419.56 336.71L419.76 354.82L407 355.23L407.82 377.46L422.64 377.25L421.61 483.46L403.08 483.05L402.26 591.51C402.26 591.51 422.02 592.96 419.14 610.86C416.26 628.76 417.28 832.94 417.28 832.94L578.58 833.71L579.39 725.88C579.39 725.88 587.21 671.54 676.53 643.96C676.53 643.96 758.86 672.37 772.03 716L775.05 834.65L774.94 834.65L934.29 835.41L934.92 603.86C934.92 603.86 934.92 591.51 949.73 591.1L949.32 566.2L938.67 566.05L939.08 547.73L947.62 542.38L948.03 523.75L938.98 523.85L939.54 502.66L947.67 497.77L948.08 484.34L930.69 484.13L930.48 375.36L939.95 375.15L938.61 316.6L922.66 317.11L923.89 236.33L936.65 235.92L935.82 185.69L924.71 185.69L921.41 185.74L921.57 133.35L866.62 132.96L866.62 182.76L866.51 188.01L855.6 188.22L855.4 195.52L855.4 236.43L863.31 236.64C863.31 236.64 867.23 237.67 866.82 246.31L865.99 317.11L847.88 316.7L847.88 376.8L861.47 376.8L861.26 405.2L829.97 403.97L829.97 343.67C829.97 343.67 829.14 333.99 837.48 336.15L837.9 322.36L831.92 322.26L831.62 309.3C831.62 309.3 832.75 302.92 837.9 304.25L838.2 296.85L829.76 297.05L830.58 249.92C830.58 249.92 852.19 237.98 806.91 209.37C806.91 209.37 761.83 227.89 784.68 257.54L783.75 296.03L770.94 296.18L770.52 335.9C770.52 335.9 783.08 333.43 782.87 348.25L782.46 406.29L568 403.82L568.93 337.65C568.93 337.65 573.87 331.99 580.35 335.49L580.76 296.8L570.06 295.77L569.85 256.46C569.85 256.46 589.2 235.88 546.39 206.65C546.39 206.65 501.52 232.59 523.75 254.4L523.34 296.39L513.04 296.6L513.25 337.14C513.25 337.14 525.19 333.64 524.36 350.93L523.55 404.24L492.47 404.65L492.26 375.84L505.64 376.04L506.26 315.33L489.17 314.91L488.75 237.11L498.22 237.11L496.98 184.43L487.72 184.27L487.4 135.28C487.4 135.28 507.16 102.77 460.03 76.75L460.03 76.75Z" />
			<g id="Layer">
				<g id="Layer">
				</g>
			</g>
			<path id="Layer" fill-rule="evenodd" class="shp7" d="M460.03 76.75C460.03 76.75 410.22 100.62 429.98 130.47L430.38 183.57L416.18 183.57L416.59 236.05L429.15 236.26L428.52 315.3L411.85 315.71L411.85 336.6L419.56 336.71L419.76 354.82L407 355.23L407.82 377.46L422.64 377.25L421.61 483.46L403.08 483.05L402.26 591.51C402.26 591.51 422.02 592.96 419.14 610.86C416.26 628.76 417.28 832.94 417.28 832.94L578.58 833.71L579.39 725.88C579.39 725.88 587.21 671.54 676.53 643.96C676.53 643.96 758.86 672.37 772.03 716L775.05 834.65L774.94 834.65L934.29 835.41L934.92 603.86C934.92 603.86 934.92 591.51 949.73 591.1L949.32 566.2L938.67 566.05L939.08 547.73L947.62 542.38L948.03 523.75L938.98 523.85L939.54 502.66L947.67 497.77L948.08 484.34L930.69 484.13L930.48 375.36L939.95 375.15L938.61 316.6L922.66 317.11L923.89 236.33L936.65 235.92L935.82 185.69L924.71 185.69L921.41 185.74L921.57 133.35L866.62 132.96L866.62 182.76L866.51 188.01L855.6 188.22L855.4 195.52L855.4 236.43L863.31 236.64C863.31 236.64 867.23 237.67 866.82 246.31L865.99 317.11L847.88 316.7L847.88 376.8L861.47 376.8L861.26 405.2L829.97 403.97L829.97 343.67C829.97 343.67 829.14 333.99 837.48 336.15L837.9 322.36L831.92 322.26L831.62 309.3C831.62 309.3 832.75 302.92 837.9 304.25L838.2 296.85L829.76 297.05L830.58 249.92C830.58 249.92 852.19 237.98 806.91 209.37C806.91 209.37 761.83 227.89 784.68 257.54L783.75 296.03L770.94 296.18L770.52 335.9C770.52 335.9 783.08 333.43 782.87 348.25L782.46 406.29L568 403.82L568.93 337.65C568.93 337.65 573.87 331.99 580.35 335.49L580.76 296.8L570.06 295.77L569.85 256.46C569.85 256.46 589.2 235.88 546.39 206.65C546.39 206.65 501.52 232.59 523.75 254.4L523.34 296.39L513.04 296.6L513.25 337.14C513.25 337.14 525.19 333.64 524.36 350.93L523.55 404.24L492.47 404.65L492.26 375.84L505.64 376.04L506.26 315.33L489.17 314.91L488.75 237.11L498.22 237.11L496.98 184.43L487.72 184.27L487.4 135.28C487.4 135.28 507.16 102.77 460.03 76.75L460.03 76.75Z" />
			<path id="Layer" fill-rule="evenodd" class="shp10" d="M538.33 789.07L539.05 789.07C544.71 789.07 549.34 793.7 549.34 799.36L549.34 824.57L527.32 824.57L527.32 800.08C527.32 794.02 532.27 789.07 538.33 789.07L538.33 789.07Z" />
			<path id="Layer" fill-rule="evenodd" class="shp10" d="M537.92 721.15L538.64 721.15C544.3 721.15 548.93 725.78 548.93 731.44L548.93 756.65L526.91 756.65L526.91 732.16C526.91 726.1 531.86 721.15 537.92 721.15L537.92 721.15Z" />
			<path id="Layer" fill-rule="evenodd" class="shp10" d="M537.51 668.66L538.23 668.66C543.89 668.66 548.52 673.29 548.52 678.95L548.52 692.84L526.5 692.84L526.5 679.67C526.5 673.61 531.45 668.66 537.51 668.66Z" />
			<path id="Layer" fill-rule="evenodd" class="shp10" d="M537.4 616.49L538.12 616.49C543.78 616.49 548.41 621.12 548.41 626.78L548.41 640.67L526.39 640.67L526.39 627.5C526.39 621.44 531.34 616.49 537.4 616.49Z" />
			<path id="Layer" fill-rule="evenodd" class="shp10" d="M816.49 615.82L817.21 615.82C822.87 615.82 827.5 620.45 827.5 626.11L827.5 640L805.48 640L805.48 626.83C805.48 620.77 810.43 615.82 816.49 615.82Z" />
			<path id="Layer" fill-rule="evenodd" class="shp10" d="M815.67 669.74L816.39 669.74C822.05 669.74 826.68 674.37 826.68 680.03L826.68 693.92L804.66 693.92L804.66 680.75C804.66 674.69 809.61 669.74 815.67 669.74Z" />
			<path id="Layer" fill-rule="evenodd" class="shp10" d="M816.19 720.73L816.91 720.73C822.57 720.73 827.2 725.36 827.2 731.02L827.2 756.23L805.18 756.23L805.18 731.74C805.18 725.68 810.13 720.73 816.19 720.73Z" />
			<path id="Layer" fill-rule="evenodd" class="shp10" d="M816.6 787.01L817.32 787.01C822.98 787.01 827.61 791.64 827.61 797.3L827.61 822.51L805.59 822.51L805.59 798.02C805.59 791.96 810.54 787.01 816.6 787.01Z" />
			<path id="Layer" class="shp10" d="M539.77 530.14L525.36 544.96L525.57 572.75L552.32 573.16L552.53 542.7L539.77 530.14Z" />
			<path id="Layer" class="shp10" d="M585.46 530.55L571.05 545.37L571.26 573.16L598.01 573.57L598.22 543.11L585.46 530.55Z" />
			<path id="Layer" class="shp10" d="M630.74 530.96L616.33 545.78L616.54 573.57L643.3 573.98L643.5 543.52L630.74 530.96Z" />
			<path id="Layer" class="shp10" d="M676.84 531.38L662.44 546.2L662.64 573.98L689.4 574.39L689.61 543.93L676.84 531.38Z" />
			<path id="Layer" class="shp10" d="M722.95 529.73L708.54 544.55L708.75 572.33L735.5 572.75L735.71 542.28L722.95 529.73Z" />
			<path id="Layer" class="shp10" d="M769.87 529.73L755.47 544.55L755.67 572.33L782.43 572.75L782.64 542.28L769.87 529.73Z" />
			<path id="Layer" class="shp10" d="M813.92 530.55L799.51 545.37L799.72 573.16L826.48 573.57L826.68 543.11L813.92 530.55Z" />
			<path id="Layer" fill-rule="evenodd" class="shp10" d="M519.7 460.4L520.27 460.4C524.74 460.4 528.39 464.05 528.39 468.52L528.39 479.49L511.01 479.49L511.01 469.09C511.01 464.31 514.92 460.4 519.7 460.4L519.7 460.4Z" />
			<path id="Layer" fill-rule="evenodd" class="shp10" d="M545.84 460.4L546.41 460.4C550.88 460.4 554.53 464.05 554.53 468.52L554.53 479.49L537.15 479.49L537.15 469.09C537.15 464.31 541.06 460.4 545.84 460.4L545.84 460.4Z" />
			<path id="Layer" fill-rule="evenodd" class="shp10" d="M572.18 460.4L572.75 460.4C577.22 460.4 580.87 464.05 580.87 468.52L580.87 479.49L563.49 479.49L563.49 469.09C563.49 464.31 567.4 460.4 572.18 460.4L572.18 460.4Z" />
			<path id="Layer" fill-rule="evenodd" class="shp10" d="M598.11 460.4L598.68 460.4C603.15 460.4 606.8 464.05 606.8 468.52L606.8 479.49L589.42 479.49L589.42 469.09C589.42 464.31 593.33 460.4 598.11 460.4L598.11 460.4Z" />
			<path id="Layer" fill-rule="evenodd" class="shp10" d="M624.66 460.4L625.23 460.4C629.7 460.4 633.35 464.05 633.35 468.52L633.35 479.49L615.98 479.49L615.98 469.09C615.98 464.31 619.89 460.4 624.66 460.4L624.66 460.4Z" />
			<path id="Layer" fill-rule="evenodd" class="shp10" d="M650.19 460.4L650.76 460.4C655.23 460.4 658.88 464.05 658.88 468.52L658.88 479.49L641.5 479.49L641.5 469.09C641.5 464.31 645.41 460.4 650.19 460.4L650.19 460.4Z" />
			<path id="Layer" fill-rule="evenodd" class="shp10" d="M676.33 460.4L676.9 460.4C681.37 460.4 685.02 464.05 685.02 468.52L685.02 479.49L667.64 479.49L667.64 469.09C667.64 464.31 671.55 460.4 676.33 460.4L676.33 460.4Z" />
			<path id="Layer" fill-rule="evenodd" class="shp10" d="M703.5 460.4L704.06 460.4C708.54 460.4 712.18 464.05 712.18 468.52L712.18 479.49L694.81 479.49L694.81 469.09C694.81 464.31 698.72 460.4 703.5 460.4L703.5 460.4Z" />
			<path id="Layer" fill-rule="evenodd" class="shp10" d="M729.84 460.4L730.41 460.4C734.88 460.4 738.53 464.05 738.53 468.52L738.53 479.49L721.15 479.49L721.15 469.09C721.15 464.31 725.06 460.4 729.84 460.4L729.84 460.4Z" />
			<path id="Layer" fill-rule="evenodd" class="shp10" d="M755.57 460.4L756.14 460.4C760.61 460.4 764.26 464.05 764.26 468.52L764.26 479.49L746.88 479.49L746.88 469.09C746.88 464.31 750.79 460.4 755.57 460.4L755.57 460.4Z" />
			<path id="Layer" fill-rule="evenodd" class="shp10" d="M781.3 460.4L781.87 460.4C786.34 460.4 789.99 464.05 789.99 468.52L789.99 479.49L772.61 479.49L772.61 469.09C772.61 464.31 776.52 460.4 781.3 460.4L781.3 460.4Z" />
			<path id="Layer" fill-rule="evenodd" class="shp10" d="M807.44 460.4L808.01 460.4C812.48 460.4 816.13 464.05 816.13 468.52L816.13 479.49L798.75 479.49L798.75 469.09C798.75 464.31 802.66 460.4 807.44 460.4L807.44 460.4Z" />
			<path id="Layer" fill-rule="evenodd" class="shp10" d="M833.06 460.4L833.63 460.4C838.1 460.4 841.75 464.05 841.75 468.52L841.75 479.49L824.37 479.49L824.37 469.09C824.37 464.31 828.28 460.4 833.06 460.4L833.06 460.4Z" />
			<path id="Layer" fill-rule="evenodd" class="shp10" d="M520.35 434.45L520.92 434.45C525.39 434.45 529.04 430.8 529.04 426.33L529.04 415.36L511.66 415.36L511.66 425.76C511.66 430.54 515.57 434.45 520.35 434.45L520.35 434.45Z" />
			<path id="Layer" fill-rule="evenodd" class="shp10" d="M546.49 434.45L547.06 434.45C551.53 434.45 555.18 430.8 555.18 426.33L555.18 415.36L537.8 415.36L537.8 425.76C537.8 430.54 541.71 434.45 546.49 434.45L546.49 434.45Z" />
			<path id="Layer" fill-rule="evenodd" class="shp10" d="M572.84 434.45L573.41 434.45C577.88 434.45 581.53 430.8 581.53 426.33L581.53 415.36L564.15 415.36L564.15 425.76C564.15 430.54 568.06 434.45 572.84 434.45L572.84 434.45Z" />
			<path id="Layer" fill-rule="evenodd" class="shp10" d="M598.77 434.45L599.34 434.45C603.81 434.45 607.46 430.8 607.46 426.33L607.46 415.36L590.08 415.36L590.08 425.76C590.08 430.54 593.99 434.45 598.77 434.45L598.77 434.45Z" />
			<path id="Layer" fill-rule="evenodd" class="shp10" d="M625.32 434.45L625.89 434.45C630.36 434.45 634.01 430.8 634.01 426.33L634.01 415.36L616.63 415.36L616.63 425.76C616.63 430.54 620.54 434.45 625.32 434.45L625.32 434.45Z" />
			<path id="Layer" fill-rule="evenodd" class="shp10" d="M650.84 434.45L651.41 434.45C655.88 434.45 659.53 430.8 659.53 426.33L659.53 415.36L642.15 415.36L642.15 425.76C642.15 430.54 646.06 434.45 650.84 434.45L650.84 434.45Z" />
			<path id="Layer" fill-rule="evenodd" class="shp10" d="M676.98 434.45L677.55 434.45C682.02 434.45 685.67 430.8 685.67 426.33L685.67 415.36L668.29 415.36L668.29 425.76C668.29 430.54 672.2 434.45 676.98 434.45L676.98 434.45Z" />
			<path id="Layer" fill-rule="evenodd" class="shp10" d="M704.15 434.45L704.72 434.45C709.19 434.45 712.84 430.8 712.84 426.33L712.84 415.36L695.46 415.36L695.46 425.76C695.46 430.54 699.37 434.45 704.15 434.45L704.15 434.45Z" />
			<path id="Layer" fill-rule="evenodd" class="shp10" d="M730.5 434.45L731.07 434.45C735.54 434.45 739.19 430.8 739.19 426.33L739.19 415.36L721.81 415.36L721.81 425.76C721.81 430.54 725.72 434.45 730.5 434.45L730.5 434.45Z" />
			<path id="Layer" fill-rule="evenodd" class="shp10" d="M756.22 434.45L756.79 434.45C761.26 434.45 764.91 430.8 764.91 426.33L764.91 415.36L747.53 415.36L747.53 425.76C747.53 430.54 751.44 434.45 756.22 434.45L756.22 434.45Z" />
			<path id="Layer" fill-rule="evenodd" class="shp10" d="M781.95 434.45L782.52 434.45C786.99 434.45 790.64 430.8 790.64 426.33L790.64 415.36L773.26 415.36L773.26 425.76C773.26 430.54 777.17 434.45 781.95 434.45L781.95 434.45Z" />
			<path id="Layer" fill-rule="evenodd" class="shp10" d="M808.09 434.45L808.66 434.45C813.13 434.45 816.78 430.8 816.78 426.33L816.78 415.36L799.4 415.36L799.4 425.76C799.4 430.54 803.31 434.45 808.09 434.45L808.09 434.45Z" />
			<path id="Layer" fill-rule="evenodd" class="shp10" d="M833.72 434.45L834.29 434.45C838.76 434.45 842.41 430.8 842.41 426.33L842.41 415.36L825.03 415.36L825.03 425.76C825.03 430.54 828.94 434.45 833.72 434.45L833.72 434.45Z" />
			<path id="Layer" class="shp10" d="M431.61 539.36L422.36 548.88L422.49 566.73L439.68 566.99L439.81 547.43L431.61 539.36Z" />
			<path id="Layer" class="shp10" d="M457.96 538.33L448.7 547.85L448.84 565.7L466.02 565.96L466.15 546.4L457.96 538.33Z" />
			<path id="Layer" class="shp10" d="M485.13 538.33L475.87 547.85L476 565.7L493.19 565.96L493.32 546.4L485.13 538.33Z" />
			<path id="Layer" class="shp10" d="M484.71 495.32L475.46 504.84L475.59 522.68L492.78 522.95L492.91 503.38L484.71 495.32Z" />
			<path id="Layer" class="shp10" d="M458.37 494.49L449.12 504.01L449.25 521.86L466.43 522.12L466.57 502.56L458.37 494.49Z" />
			<path id="Layer" class="shp10" d="M431.61 494.7L422.36 504.22L422.49 522.06L439.68 522.33L439.81 502.76L431.61 494.7Z" />
			<path id="Layer" class="shp10" d="M431.2 538.95L421.95 548.47L422.08 566.32L439.26 566.58L439.4 547.02L431.2 538.95Z" />
			<path id="Layer" class="shp10" d="M431.61 494.29L422.36 503.8L422.49 521.65L439.68 521.92L439.81 502.35L431.61 494.29Z" />
			<path id="Layer" class="shp10" d="M868.96 540.11L859.71 549.63L859.84 567.48L877.02 567.74L877.16 548.17L868.96 540.11Z" />
			<path id="Layer" class="shp10" d="M896.13 538.67L886.87 548.19L887.01 566.04L904.19 566.3L904.32 546.73L896.13 538.67Z" />
			<path id="Layer" class="shp10" d="M922.68 539.08L913.42 548.6L913.56 566.45L930.74 566.71L930.87 547.15L922.68 539.08Z" />
			<path id="Layer" class="shp10" d="M923.09 494.21L913.84 503.73L913.97 521.58L931.15 521.84L931.29 502.28L923.09 494.21Z" />
			<path id="Layer" class="shp10" d="M896.95 495.04L887.7 504.56L887.83 522.4L905.02 522.67L905.15 503.1L896.95 495.04Z" />
			<path id="Layer" class="shp10" d="M868.96 494.42L859.71 503.94L859.84 521.78L877.02 522.05L877.16 502.48L868.96 494.42Z" />
			<path id="Layer" class="shp10" d="M432.95 334.08L436.32 334.08C439.23 334.08 441.59 336.44 441.59 339.35L441.59 347.98C441.59 350.89 439.23 353.25 436.32 353.25L432.95 353.25C430.04 353.25 427.68 350.89 427.68 347.98L427.68 339.35C427.68 336.44 430.04 334.08 432.95 334.08Z" />
			<path id="Layer" class="shp10" d="M456.54 334.08L459.91 334.08C462.82 334.08 465.18 336.44 465.18 339.35L465.18 347.98C465.18 350.89 462.82 353.25 459.91 353.25L456.54 353.25C453.63 353.25 451.27 350.89 451.27 347.98L451.27 339.35C451.27 336.44 453.63 334.08 456.54 334.08Z" />
			<path id="Layer" class="shp10" d="M478.57 334.08L481.94 334.08C484.85 334.08 487.21 336.44 487.21 339.35L487.21 347.98C487.21 350.89 484.85 353.25 481.94 353.25L478.57 353.25C475.66 353.25 473.3 350.89 473.3 347.98L473.3 339.35C473.3 336.44 475.66 334.08 478.57 334.08Z" />
			<path id="Layer" class="shp10" d="M871.09 335.12L874.46 335.12C877.37 335.12 879.73 337.48 879.73 340.39L879.73 349.02C879.73 351.93 877.37 354.29 874.46 354.29L871.09 354.29C868.18 354.29 865.82 351.93 865.82 349.02L865.82 340.39C865.82 337.48 868.18 335.12 871.09 335.12Z" />
			<path id="Layer" class="shp10" d="M894.68 335.12L898.05 335.12C900.96 335.12 903.32 337.48 903.32 340.39L903.32 349.02C903.32 351.93 900.96 354.29 898.05 354.29L894.68 354.29C891.77 354.29 889.41 351.93 889.41 349.02L889.41 340.39C889.41 337.48 891.77 335.12 894.68 335.12Z" />
			<path id="Layer" class="shp10" d="M916.71 335.12L920.08 335.12C922.99 335.12 925.35 337.48 925.35 340.39L925.35 349.02C925.35 351.93 922.99 354.29 920.08 354.29L916.71 354.29C913.8 354.29 911.44 351.93 911.44 349.02L911.44 340.39C911.44 337.48 913.8 335.12 916.71 335.12Z" />
			<path id="Layer" class="shp10" d="M871.13 196.51L874.5 196.51C877.41 196.51 879.77 198.87 879.77 201.78L879.77 210.41C879.77 213.32 877.41 215.68 874.5 215.68L871.13 215.68C868.22 215.68 865.86 213.32 865.86 210.41L865.86 201.78C865.86 198.87 868.22 196.51 871.13 196.51Z" />
			<path id="Layer" class="shp10" d="M894.73 196.51L898.1 196.51C901.01 196.51 903.37 198.87 903.37 201.78L903.37 210.41C903.37 213.32 901.01 215.68 898.1 215.68L894.73 215.68C891.82 215.68 889.46 213.32 889.46 210.41L889.46 201.78C889.46 198.87 891.82 196.51 894.73 196.51Z" />
			<path id="Layer" class="shp10" d="M916.75 196.51L920.12 196.51C923.03 196.51 925.39 198.87 925.39 201.78L925.39 210.41C925.39 213.32 923.03 215.68 920.12 215.68L916.75 215.68C913.84 215.68 911.48 213.32 911.48 210.41L911.48 201.78C911.48 198.87 913.84 196.51 916.75 196.51Z" />
			<path id="Layer" class="shp10" d="M433.15 196.51L436.52 196.51C439.43 196.51 441.79 198.87 441.79 201.78L441.79 210.41C441.79 213.32 439.43 215.68 436.52 215.68L433.15 215.68C430.24 215.68 427.88 213.32 427.88 210.41L427.88 201.78C427.88 198.87 430.24 196.51 433.15 196.51Z" />
			<path id="Layer" class="shp10" d="M456.75 196.51L460.12 196.51C463.03 196.51 465.39 198.87 465.39 201.78L465.39 210.41C465.39 213.32 463.03 215.68 460.12 215.68L456.75 215.68C453.84 215.68 451.48 213.32 451.48 210.41L451.48 201.78C451.48 198.87 453.84 196.51 456.75 196.51Z" />
			<path id="Layer" class="shp10" d="M478.77 196.51L482.14 196.51C485.05 196.51 487.41 198.87 487.41 201.78L487.41 210.41C487.41 213.32 485.05 215.68 482.14 215.68L478.77 215.68C475.86 215.68 473.5 213.32 473.5 210.41L473.5 201.78C473.5 198.87 475.86 196.51 478.77 196.51Z" />
			<path id="Layer" class="shp10" d="M438.5 163.82L441.35 163.82C443.81 163.82 445.79 165.8 445.79 168.26L445.79 175.55C445.79 178.01 443.81 179.99 441.35 179.99L438.5 179.99C436.04 179.99 434.06 178.01 434.06 175.55L434.06 168.26C434.06 165.8 436.04 163.82 438.5 163.82Z" />
			<path id="Layer" class="shp10" d="M458.4 163.82L461.25 163.82C463.71 163.82 465.69 165.8 465.69 168.26L465.69 175.55C465.69 178.01 463.71 179.99 461.25 179.99L458.4 179.99C455.94 179.99 453.96 178.01 453.96 175.55L453.96 168.26C453.96 165.8 455.94 163.82 458.4 163.82Z" />
			<path id="Layer" class="shp10" d="M476.98 163.82L479.83 163.82C482.29 163.82 484.27 165.8 484.27 168.26L484.27 175.55C484.27 178.01 482.29 179.99 479.83 179.99L476.98 179.99C474.52 179.99 472.54 178.01 472.54 175.55L472.54 168.26C472.54 165.8 474.52 163.82 476.98 163.82Z" />
			<path id="Layer" class="shp10" d="M526.32 307.86L529.17 307.86C531.63 307.86 533.61 309.84 533.61 312.3L533.61 319.59C533.61 322.05 531.63 324.03 529.17 324.03L526.32 324.03C523.86 324.03 521.88 322.05 521.88 319.59L521.88 312.3C521.88 309.84 523.86 307.86 526.32 307.86Z" />
			<path id="Layer" class="shp10" d="M546.22 307.86L549.07 307.86C551.53 307.86 553.51 309.84 553.51 312.3L553.51 319.59C553.51 322.05 551.53 324.03 549.07 324.03L546.22 324.03C543.76 324.03 541.78 322.05 541.78 319.59L541.78 312.3C541.78 309.84 543.76 307.86 546.22 307.86Z" />
			<path id="Layer" class="shp10" d="M564.8 307.86L567.65 307.86C570.11 307.86 572.09 309.84 572.09 312.3L572.09 319.59C572.09 322.05 570.11 324.03 567.65 324.03L564.8 324.03C562.34 324.03 560.36 322.05 560.36 319.59L560.36 312.3C560.36 309.84 562.34 307.86 564.8 307.86Z" />
			<path id="Layer" class="shp10" d="M785.54 307.51L788.39 307.51C790.85 307.51 792.83 309.49 792.83 311.95L792.83 319.24C792.83 321.7 790.85 323.68 788.39 323.68L785.54 323.68C783.08 323.68 781.1 321.7 781.1 319.24L781.1 311.95C781.1 309.49 783.08 307.51 785.54 307.51Z" />
			<path id="Layer" class="shp10" d="M805.45 307.51L808.3 307.51C810.76 307.51 812.74 309.49 812.74 311.95L812.74 319.24C812.74 321.7 810.76 323.68 808.3 323.68L805.45 323.68C802.99 323.68 801.01 321.7 801.01 319.24L801.01 311.95C801.01 309.49 802.99 307.51 805.45 307.51Z" />
			<path id="Layer" class="shp10" d="M824.02 307.51L826.87 307.51C829.33 307.51 831.31 309.49 831.31 311.95L831.31 319.24C831.31 321.7 829.33 323.68 826.87 323.68L824.02 323.68C821.56 323.68 819.58 321.7 819.58 319.24L819.58 311.95C819.58 309.49 821.56 307.51 824.02 307.51Z" />
			<path id="Layer" class="shp10" d="M790 278.75L792.4 278.75C794.47 278.75 796.15 280.43 796.15 282.5L796.15 288.64C796.15 290.71 794.47 292.39 792.4 292.39L790 292.39C787.93 292.39 786.25 290.71 786.25 288.64L786.25 282.5C786.25 280.43 787.93 278.75 790 278.75Z" />
			<path id="Layer" class="shp10" d="M806.79 278.75L809.19 278.75C811.26 278.75 812.94 280.43 812.94 282.5L812.94 288.64C812.94 290.71 811.26 292.39 809.19 292.39L806.79 292.39C804.72 292.39 803.04 290.71 803.04 288.64L803.04 282.5C803.04 280.43 804.72 278.75 806.79 278.75Z" />
			<path id="Layer" class="shp10" d="M822.47 278.75L824.87 278.75C826.94 278.75 828.62 280.43 828.62 282.5L828.62 288.64C828.62 290.71 826.94 292.39 824.87 292.39L822.47 292.39C820.4 292.39 818.72 290.71 818.72 288.64L818.72 282.5C818.72 280.43 820.4 278.75 822.47 278.75Z" />
			<path id="Layer" fill-rule="evenodd" class="shp9" d="M920.91 133.35L868.07 134.43C868.07 134.43 854.26 102.79 893.33 86.94C893.33 86.94 934.78 110.91 920.91 133.35Z" />
			<path id="Layer" class="shp11" d="M459.92 92.44L458.69 48.09" />
			<path id="Layer" class="shp11" d="M547.15 224.55L545.92 180.2" />
			<path id="Layer" class="shp11" d="M808.45 223.69L807.21 179.35" />
			<path id="Layer" class="shp11" d="M894.41 103.26L893.18 58.91" />
		</g>
		<path id="Layer" class="shp11" d="M304.62 835.43L1022.31 842.05" />
	</g>
</svg>