<?xml version="1.0" encoding="UTF-8"?>
<!DOCTYPE svg PUBLIC "-//W3C//DTD SVG 1.1//EN" "http://www.w3.org/Graphics/SVG/1.1/DTD/svg11.dtd">
<!-- Creator: CorelDRAW 2020 (64-Bit) -->
<svg xmlns="http://www.w3.org/2000/svg" xml:space="preserve" width="12.7mm" height="12.7mm" version="1.1" style="shape-rendering:geometricPrecision; text-rendering:geometricPrecision; image-rendering:optimizeQuality; fill-rule:evenodd; clip-rule:evenodd"
viewBox="0 0 1270 1270"
 xmlns:xlink="http://www.w3.org/1999/xlink"
 xmlns:xodm="http://www.corel.com/coreldraw/odm/2003">
 <defs>
  <style type="text/css">
   <![CDATA[
    .str0 {stroke:#F4F4F4;stroke-width:20;stroke-miterlimit:22.9256}
    .fil0 {fill:none}
    .fil4 {fill:#3A9A46}
    .fil6 {fill:#60BFC0}
    .fil9 {fill:#663333}
    .fil5 {fill:#7AC8C9}
    .fil1 {fill:#8DC9F6}
    .fil7 {fill:#9DD8D9}
    .fil2 {fill:#AED9F7}
    .fil3 {fill:#C6E4F8}
    .fil10 {fill:#DDDEE0}
    .fil8 {fill:#F4F4F4}
   ]]>
  </style>
   <clipPath id="id0">
    <path d="M635 38.64c282.6,0 511.69,229.09 511.69,511.69 0,282.59 -229.09,511.68 -511.69,511.68 -282.59,0 -511.68,-229.09 -511.68,-511.68 0,-282.6 229.09,-511.69 511.68,-511.69z"/>
   </clipPath>
 </defs>
 <g id="Layer_x0020_1">
  <metadata id="CorelCorpID_0Corel-Layer"/>
  <rect class="fil0" width="1270" height="1270"/>
  <path class="fil1" d="M635 38.64c282.6,0 511.69,229.09 511.69,511.69 0,282.59 -229.09,511.68 -511.69,511.68 -282.59,0 -511.68,-229.09 -511.68,-511.68 0,-282.6 229.09,-511.69 511.68,-511.69z"/>
  <g style="clip-path:url(#id0)">
   <g id="_1770665961840">
    <circle class="fil2" cx="635" cy="653.22" r="511.69"/>
    <circle class="fil3" cx="635" cy="796.4" r="511.69"/>
    <path class="fil4" d="M367.89 722.94c-42.61,-5.86 -61.01,14.52 -69.26,48.91 -7.84,5.52 2.68,0.37 -7.9,3.04 -17.76,4.47 -62.77,3.32 -57.99,68.78l-32.56 5.62 34.84 74.13 152.76 0.58c15.03,-52.15 39.42,-38.38 96.3,-39.54l0.76 -162.46c-40.89,-23.99 -62.5,-21.3 -89.15,17.1 -8.28,-3.37 -16.47,-10.39 -27.8,-16.16z"/>
    <path class="fil4" d="M967.38 722.94c42.61,-5.86 61.01,14.52 69.26,48.91 7.84,5.52 -2.68,0.37 7.9,3.04 17.76,4.47 62.77,3.32 57.99,68.78l32.56 5.62 -34.84 74.13 -152.76 0.58c-15.03,-52.15 -39.42,-38.38 -96.3,-39.54l-0.76 -162.46c40.89,-23.99 62.5,-21.3 89.15,17.1 8.28,-3.37 16.47,-10.39 27.8,-16.16z"/>
    <path class="fil5" d="M44.93 938.57c10.35,22.15 152.67,128.11 186.63,141.17 25.25,-18.93 60.79,8.75 62.23,15.44 24.39,-29.73 63.05,-26.52 91.17,-2.39 46.95,-40.3 79.47,-6.11 92.41,0.27 48.74,-44.25 83.46,-1.82 88.72,1.47 42.49,-30.35 47.08,-27.98 88.72,-1.79 56.9,-42.13 89.23,-1.04 89.97,2.44 24.49,-29.85 62.78,-26.75 91.17,-2.39 14.83,-12.73 21.13,-17.68 48.1,-18.1 26.15,-0.42 32.08,9.55 43.68,22.46 17.15,-23.38 57.43,-38.21 84.84,-3.16 10.85,-5.13 48.07,-43.33 93.23,-1.25 20.55,-15.22 22.03,-19.17 57.93,-18.8l-8.78 16.78c37.66,-12.6 188.97,-125.39 206.19,-152.65 -30.41,-15.68 -55.09,0.41 -73.27,15.55 -37.21,-30.17 -55.47,-27.52 -93.22,-0.67 -8.8,-9.67 -24.47,-20.07 -44.69,-20.88 -21.28,-0.84 -31.66,13.01 -44.16,19.6 -56.05,-29.27 -39.48,-27.69 -91.95,1.28 -50.07,-38.24 -45.69,-20.82 -89.18,1.01 -33.47,-30.77 -56.36,-27.4 -88.65,-1.32 -37.92,-30.08 -56.24,-25.38 -92.37,0.31 -7.87,-8.66 -26.44,-20.81 -44.47,-21.14 -21.44,-0.4 -31.76,13.21 -44.37,19.86 -14.98,-8.34 -25.73,-21.01 -47.9,-19.84 -23.89,1.25 -28.83,15.65 -45.73,21.98 -34.31,-41.15 -55.33,-16.43 -88.43,0.59 -23.33,-32.69 -58.01,-25.76 -87.72,-1.76 -37.56,-29.79 -56.16,-25.44 -92.37,0.31 -7.2,-7.91 -27.1,-21.09 -44.32,-21.2 -21.62,-0.13 -31.74,13.15 -44.52,19.96 -16.69,-8.22 -45.82,-42.96 -87.01,3.07l-10.33 -7.24c-5.15,-3.99 0.4,-0.28 -6.27,-5.25 -4.84,-3.61 -10.7,-7.04 -16.94,-8.53 -14.27,-3.39 -27.69,1.37 -38.34,4.81z"/>
    <path class="fil6" d="M44.93 938.57c10.65,-3.44 24.07,-8.2 38.34,-4.81 6.24,1.49 12.1,4.92 16.94,8.53 6.67,4.97 1.12,1.26 6.27,5.25l10.33 7.24c41.19,-46.03 70.32,-11.29 87.01,-3.07 12.78,-6.81 22.9,-20.09 44.52,-19.96 17.22,0.11 37.12,13.29 44.32,21.2 36.21,-25.75 54.81,-30.1 92.37,-0.31 29.71,-24 64.39,-30.93 87.72,1.76 33.1,-17.02 54.12,-41.74 88.43,-0.59 16.9,-6.33 21.84,-20.73 45.73,-21.98 22.17,-1.17 32.92,11.5 47.9,19.84 12.61,-6.65 22.93,-20.26 44.37,-19.86 18.03,0.33 36.6,12.48 44.47,21.14 36.13,-25.69 54.45,-30.39 92.37,-0.31 32.29,-26.08 55.18,-29.45 88.65,1.32 43.49,-21.83 39.11,-39.25 89.18,-1.01 52.47,-28.97 35.9,-30.55 91.95,-1.28 12.5,-6.59 22.88,-20.44 44.16,-19.6 20.22,0.81 35.89,11.21 44.69,20.88 37.75,-26.85 56.01,-29.5 93.22,0.67 18.18,-15.14 42.86,-31.23 73.27,-15.55 13.69,-10.44 61.98,-59.25 70.52,-76.46 -23.42,-1.22 -28.4,-0.45 -44.03,11.49 -7.12,5.44 0.11,2.66 -11.97,8.3 -13.12,-7.88 -22.86,-22.65 -47.82,-20.01 -21.22,2.25 -29.89,13.01 -41.15,21.25 -15.15,-12.17 -19.33,-20.84 -44.13,-20.81 -29.51,0.04 -29.77,7.8 -48.04,18.35 -38.42,-37.6 -69.46,-11.54 -88.72,0.34 -61.31,-36.49 -51.95,-16.7 -92.41,-0.63 -39.54,-29.19 -54.01,-24.9 -88.51,2.75 -12.42,-9.84 -18.07,-22.54 -44.47,-21.16 -24.02,1.25 -32.81,13.64 -49.64,19.67 -9.19,-14.46 -19.75,-19.42 -42.78,-19.38 -24.62,0.05 -29.07,9.52 -44.46,18.41 -39.3,-38.47 -71.07,-10.54 -88.72,0.34 -39.63,-22.62 -50.52,-32.39 -91.37,1.02 -36.36,-29.33 -53.3,-27.89 -89.51,1.14 -28.17,-30.67 -57.21,-26.82 -88.97,-2.26 -7.58,-3.38 -1.2,-0.34 -7.26,-4.44 -41.49,-28.08 -57.86,-11.56 -85.16,4.2 -9.11,-8.91 -25.93,-19.18 -44.35,-19.33 -22.14,-0.18 -32.03,12.06 -44.37,19.67 -12.28,-5.65 -44.18,-44.08 -89.08,2.41 -8.35,-5.77 -29.68,-35.29 -71.19,-15.25l-20.87 12.84c-15.36,-11.99 -21.82,-17.86 -49.13,-18.15 14.09,21.3 53.33,62.16 71.38,76.2z"/>
    <path class="fil7" d="M626.4 1205.05l152.98 -0.01 52.86 -6.87c39.49,-5.47 170.42,-35.68 196.4,-47.45l120.2 -54.21c4.41,-3.46 3.92,-3.49 6.11,-5.79l8.78 -16.78c-35.9,-0.37 -37.38,3.58 -57.93,18.8 -45.16,-42.08 -82.38,-3.88 -93.23,1.25 -27.41,-35.05 -67.69,-20.22 -84.84,3.16 -11.6,-12.91 -17.53,-22.88 -43.68,-22.46 -26.97,0.42 -33.27,5.37 -48.1,18.1 -28.39,-24.36 -66.68,-27.46 -91.17,2.39 -0.74,-3.48 -33.07,-44.57 -89.97,-2.44 -41.64,-26.19 -46.23,-28.56 -88.72,1.79 -5.26,-3.29 -39.98,-45.72 -88.72,-1.47 -12.94,-6.38 -45.46,-40.57 -92.41,-0.27 -28.12,-24.13 -66.78,-27.34 -91.17,2.39 -1.44,-6.69 -36.98,-34.37 -62.23,-15.44 25.54,25.06 151.65,73.18 178.68,81.43 84.47,25.77 119.74,30.69 203.74,40.38l12.42 3.5z"/>
   </g>
  </g>
  <path class="fil0" d="M635 38.64c282.6,0 511.69,229.09 511.69,511.69 0,282.59 -229.09,511.68 -511.69,511.68 -282.59,0 -511.68,-229.09 -511.68,-511.68 0,-282.6 229.09,-511.69 511.68,-511.69z"/>
  <g id="_1770665967744">
   <path class="fil8" d="M930.18 231.44c-0.09,0.14 -2.81,5.39 -4.28,6.93 -27.08,-14.69 -27.43,0.27 -40.17,15.89 -11.57,14.18 -24.73,9.53 -22.33,40.75l117.57 0.73 60.84 -0.38c-1.65,-22.97 -11.03,-20.46 -24.52,-30.33 -14.56,-10.63 -7.01,-20.06 -38.23,-14.6 -11.11,-27.67 -22.27,-22.15 -48.88,-18.99z"/>
   <ellipse class="fil0 str0" cx="956.12" cy="248.56" rx="24.42" ry="22.75"/>
   <ellipse class="fil0 str0" cx="912.88" cy="256.02" rx="24.42" ry="22.75"/>
   <ellipse class="fil0 str0" cx="989.43" cy="263.72" rx="20.27" ry="18.88"/>
  </g>
  <g id="_1770665970528">
   <path class="fil8" d="M597.09 98.33c-0.08,0.13 -2.8,5.38 -4.27,6.92 -27.09,-14.69 -27.43,0.27 -40.18,15.89 -11.56,14.18 -24.72,9.53 -22.32,40.75l117.57 0.73 60.84 -0.38c-1.66,-22.97 -11.03,-20.46 -24.53,-30.33 -14.56,-10.63 -7.01,-20.06 -38.23,-14.6 -11.11,-27.67 -22.26,-22.15 -48.88,-18.98z"/>
   <ellipse class="fil0 str0" cx="623.04" cy="115.44" rx="24.42" ry="22.75"/>
   <ellipse class="fil0 str0" cx="579.79" cy="122.9" rx="24.42" ry="22.75"/>
   <ellipse class="fil0 str0" cx="656.34" cy="130.6" rx="20.27" ry="18.88"/>
  </g>
  <g id="_1770665971152">
   <path class="fil8" d="M228.32 303.39c-0.09,0.13 -2.8,5.38 -4.27,6.92 -27.09,-14.68 -27.44,0.28 -40.18,15.9 -11.57,14.18 -24.72,9.52 -22.32,40.74l117.57 0.73 60.84 -0.38c-1.66,-22.96 -11.03,-20.46 -24.53,-30.32 -14.56,-10.64 -7.01,-20.07 -38.23,-14.6 -11.11,-27.67 -22.26,-22.16 -48.88,-18.99z"/>
   <ellipse class="fil0 str0" cx="254.26" cy="320.51" rx="24.42" ry="22.75"/>
   <ellipse class="fil0 str0" cx="211.02" cy="327.97" rx="24.42" ry="22.75"/>
   <ellipse class="fil0 str0" cx="287.57" cy="335.66" rx="20.27" ry="18.88"/>
  </g>
  <g id="_1770665972784">
   <path class="fil9" d="M869.63 871.42l-8.98 -0.01c-1.57,-19.74 -0.5,-47.55 -0.21,-68 0.66,-47.52 66.24,-45.51 66.45,-0.03 0.1,22.33 0.52,45.55 -0.07,67.8l-9.06 0.21c-0.91,-18.78 -0.11,-39.56 -0.11,-58.51 0.01,-9.21 0.24,-18.25 -4.37,-24.93 -10.07,-14.6 -31.56,-12.23 -38.95,-0.45 -4.96,7.92 -4.5,14.06 -4.5,24.43 0.01,18.37 1.26,41.73 -0.2,59.49zm-526.21 -0.13l-8.96 0.05c-1.16,-21.46 -0.23,-46.26 -0.13,-67.97 0.21,-46.26 65.68,-46.51 66.45,0.04 0.33,19.59 1.5,49.3 -0.24,68.01l-9.24 -0.13c-1.02,-18.58 -0.13,-39.66 -0.12,-58.41 0,-10.14 0.99,-17.57 -4.37,-25.2 -9.24,-13.16 -28.85,-13.52 -38.87,0.19 -5.21,7.13 -4.39,15.01 -4.39,25.01 0.01,18.68 0.96,40.05 -0.13,58.41zm503.46 0.02c-1.78,-35.77 -0.12,-76.07 -0.12,-112.34 0,-23.87 -1.86,-30.29 10.91,-45.82 4.29,-5.22 24.3,-19.86 36.33,-19.56 5,0.13 16.81,5.76 20.65,7.87 11.23,6.16 23.24,18.15 25.51,31.28 1.16,6.74 1.04,129.35 0.4,138.65l-9.03 0.07c-1.25,-17.15 -0.18,-80.75 -0.18,-103.03 0,-27.13 4.77,-42.14 -19.38,-57.67 -15.41,-9.91 -21.17,-9.52 -36.78,0.07 -23.8,14.64 -19.21,31.04 -19.21,57.6 0,33.55 1.26,69.55 -0.07,102.9l-9.03 -0.02zm-517.49 0.05l-9 -0.05c-1.31,-25.45 -0.11,-83.31 -0.11,-112.34 0,-19.36 -1.21,-33.3 10.63,-44.87 5.7,-5.57 6.85,-7.77 15.71,-12.67 17.72,-9.81 22.98,-10.2 40.82,-0.45 6.28,3.43 12.24,8.07 15.96,12.43 13.17,15.41 11.05,21.78 11.05,45.56 0,36.54 1.45,76.14 -0.1,112.29l-9.05 0.09c-1.09,-33.69 -0.06,-69.11 -0.06,-102.92 0,-25.22 4.68,-42.69 -19.28,-57.45 -16.67,-10.26 -20.44,-9.69 -36.72,-0.3 -24.23,13.99 -19.72,34.19 -19.72,57.75 0,25.19 1.11,81.73 -0.13,102.93zm500.94 -195.16l127.1 0 -0.15 195.19 -9.08 -0.17 -0.29 -185.75 -108.62 0.06 -0.19 185.88 -9.07 -0.27 0.3 -194.94zm-517.31 194.91l-9.07 0.29c-1.34,-17.28 -0.18,-120.47 -0.18,-146.47 0,-10.14 -1.29,-41.02 0.48,-48.74l126.7 0.01 0.25 194.87 -9.14 0.36 -0.14 -185.86 -108.61 -0.1 -0.29 185.64zm243.96 -228.14c18.46,-3.95 23.73,24.18 5.69,27.62 -19.06,3.63 -22.13,-24.11 -5.69,-27.62zm133.16 0.49c17.18,-5.5 25.69,20.86 8.21,26.77 -16.85,5.7 -27.68,-20.54 -8.21,-26.77zm-144.83 227.74c-1.15,-10.99 -0.23,-26.94 -0.23,-38.46 0,-24.96 -1.64,-99.06 1.11,-114.18 1.93,-10.62 6.68,-19.53 11.61,-27.23 2.13,-3.34 6.28,-9.22 8.5,-11.37l9.41 -9.49c6.1,-5.54 37.51,-26.27 50.69,-26.18 5.73,0.04 23.1,8.36 28.01,11.01 23.37,12.64 47.06,35.34 51.89,63.59 3.14,18.33 1.02,55.64 1.02,76.02 0,25.33 0.31,50.85 -0.03,76.34l-9.11 0.15c-2.76,-46.69 2.43,-97.53 -0.22,-144.28 -1,-17.71 -13.56,-37.87 -25.19,-47.6 -9.25,-7.73 -34.87,-25.3 -46.4,-25.55 -12.15,-0.25 -46.03,22.19 -55.54,35.24 -8.51,11.68 -15.11,21.14 -16.18,37.6 -2.71,41.43 2,100.94 -0.32,144.54l-9.02 -0.15zm-23.71 -240.02c3.46,4.51 5.7,1.65 5.74,10.47l-0.07 175.97c-0.03,17.63 8,36.97 9.02,53.71l-9.02 -0.04 -8.68 -42.42 -54.14 0.25 -8.43 42.24 -9.01 -0.11c1.38,-12.86 5.55,-30.19 8.25,-43.23 1.98,-9.64 0.92,-140.19 0.75,-155.14 -59.52,-0.06 -121.7,0.75 -180.67,-0.08l-0.14 198.5 -21.93 0.49 0.17 8.85 746.96 -0.25 -0.02 -9.01 -21.97 -0.16 -0.03 -198.38 -180.68 0.16c-0.01,16.23 -1.26,145.15 0.78,155.02 2.65,12.78 7.02,30.79 8.31,43.31l-9.1 -0.05 -8.23 -42.43 -54.6 0.23 -8.39 42.24 -9.02 -0.05c1.05,-17.26 9.08,-36.08 9.02,-54.6 -0.07,-21.12 -0.01,-42.25 -0.01,-63.37 0,-33.63 -0.88,-79.63 -0.06,-112.61 0.19,-7.63 3.16,-5.39 5.76,-9.58l-210.56 0.07z"/>
   <polygon class="fil9" points="521.59,554.71 732.14,554.92 732.15,496.98 521.54,496.75 "/>
   <path class="fil9" d="M280.81 637.41c7.14,1.45 139.81,0.27 162.15,0.42 8.6,0.06 11.47,-1.64 18.51,-5.03l0.25 -48.43 -180.87 -0.1 -0.04 53.14z"/>
   <path class="fil9" d="M792.01 632.25c10.44,7.85 26.83,5.44 40.55,5.45l140.27 0.16 0.16 -53.63 -180.75 0.04 -0.23 47.98z"/>
   <path class="fil10" d="M545.31 871.2l9.02 0.15c2.32,-43.6 -2.39,-103.11 0.32,-144.54 1.07,-16.46 7.67,-25.92 16.18,-37.6 9.51,-13.05 43.39,-35.49 55.54,-35.24 11.53,0.25 37.15,17.82 46.4,25.55 11.63,9.73 24.19,29.89 25.19,47.6 2.65,46.75 -2.54,97.59 0.22,144.28l9.11 -0.15c0.34,-25.49 0.03,-51.01 0.03,-76.34 0,-20.38 2.12,-57.69 -1.02,-76.02 -4.83,-28.25 -28.52,-50.95 -51.89,-63.59 -4.91,-2.65 -22.28,-10.97 -28.01,-11.01 -13.18,-0.09 -44.59,20.64 -50.69,26.18l-9.41 9.49c-2.22,2.15 -6.37,8.03 -8.5,11.37 -4.93,7.7 -9.68,16.61 -11.61,27.23 -2.75,15.12 -1.11,89.22 -1.11,114.18 0,11.52 -0.92,27.47 0.23,38.46z"/>
   <path class="fil10" d="M313.31 685.47l108.61 0.1 0.14 185.86 9.14 -0.36 -0.25 -194.87 -126.7 -0.01c-1.77,7.72 -0.48,38.6 -0.48,48.74 0,26 -1.16,129.19 0.18,146.47l9.07 -0.29 0.29 -185.64z"/>
   <polygon class="fil10" points="830.03,871.14 839.1,871.41 839.29,685.53 947.91,685.47 948.2,871.22 957.28,871.39 957.43,676.2 830.33,676.2 "/>
   <polygon class="fil9" points="521.59,487.36 732.1,487.5 732.13,466.06 521.72,465.96 "/>
   <path class="fil10" d="M846.88 871.31l9.03 0.02c1.33,-33.35 0.07,-69.35 0.07,-102.9 0,-26.56 -4.59,-42.96 19.21,-57.6 15.61,-9.59 21.37,-9.98 36.78,-0.07 24.15,15.53 19.38,30.54 19.38,57.67 0,22.28 -1.07,85.88 0.18,103.03l9.03 -0.07c0.64,-9.3 0.76,-131.91 -0.4,-138.65 -2.27,-13.13 -14.28,-25.12 -25.51,-31.28 -3.84,-2.11 -15.65,-7.74 -20.65,-7.87 -12.03,-0.3 -32.04,14.34 -36.33,19.56 -12.77,15.53 -10.91,21.95 -10.91,45.82 0,36.27 -1.66,76.57 0.12,112.34z"/>
   <path class="fil10" d="M329.39 871.36c1.24,-21.2 0.13,-77.74 0.13,-102.93 0,-23.56 -4.51,-43.76 19.72,-57.75 16.28,-9.39 20.05,-9.96 36.72,0.3 23.96,14.76 19.28,32.23 19.28,57.45 0,33.81 -1.03,69.23 0.06,102.92l9.05 -0.09c1.55,-36.15 0.1,-75.75 0.1,-112.29 0,-23.78 2.12,-30.15 -11.05,-45.56 -3.72,-4.36 -9.68,-9 -15.96,-12.43 -17.84,-9.75 -23.1,-9.36 -40.82,0.45 -8.86,4.9 -10.01,7.1 -15.71,12.67 -11.84,11.57 -10.63,25.51 -10.63,44.87 0,29.03 -1.2,86.89 0.11,112.34l9 0.05z"/>
   <path class="fil9" d="M280.84 574.91l180.68 0.29 0.24 -16.86c-16.15,-1.13 -175.03,-1.38 -181,0.46l0.08 16.11z"/>
   <polygon class="fil9" points="792.08,575.14 972.6,575.2 973.06,558.12 792.03,558.15 "/>
   <path class="fil9" d="M471.02 496.77l-0.04 68.69c8.44,-1.75 32.94,-1.87 41.35,0.01l-0.01 -68.7c-12.53,-2.36 -28.82,-2.33 -41.3,0z"/>
   <path class="fil9" d="M741.45 496.8l-0.03 68.68c7.22,-1.92 33.97,-1.84 41.35,-0.03l-0.01 -68.67c-12.47,-2.34 -28.93,-2.49 -41.31,0.02z"/>
   <path class="fil10" d="M343.42 871.29c1.09,-18.36 0.14,-39.73 0.13,-58.41 0,-10 -0.82,-17.88 4.39,-25.01 10.02,-13.71 29.63,-13.35 38.87,-0.19 5.36,7.63 4.37,15.06 4.37,25.2 -0.01,18.75 -0.9,39.83 0.12,58.41l9.24 0.13c1.74,-18.71 0.57,-48.42 0.24,-68.01 -0.77,-46.55 -66.24,-46.3 -66.45,-0.04 -0.1,21.71 -1.03,46.51 0.13,67.97l8.96 -0.05z"/>
   <path class="fil10" d="M869.63 871.42c1.46,-17.76 0.21,-41.12 0.2,-59.49 0,-10.37 -0.46,-16.51 4.5,-24.43 7.39,-11.78 28.88,-14.15 38.95,0.45 4.61,6.68 4.38,15.72 4.37,24.93 0,18.95 -0.8,39.73 0.11,58.51l9.06 -0.21c0.59,-22.25 0.17,-45.47 0.07,-67.8 -0.21,-45.48 -65.79,-47.49 -66.45,0.03 -0.29,20.45 -1.36,48.26 0.21,68l8.98 0.01z"/>
   <path class="fil9" d="M486.93 437.18l9.29 -0.22 0.2 20.84 -9.45 0.23 -0.04 -20.85zm-15.95 49.8c7.65,-1.9 33.71,-1.7 41.34,0.03l0.01 -54.99 -41.35 0.05 0 54.91z"/>
   <path class="fil9" d="M757.54 436.96l9.27 0.22 -0.02 20.87 -9.47 -0.27 0.22 -20.82zm-16.12 50.02c8.9,-1.86 32.46,-1.78 41.35,-0.03l-0.01 -54.91 -41.36 0.03 0.02 54.91z"/>
   <path class="fil9" d="M741.41 575.15l0.01 53.47c7.07,-1.77 34.55,-1.78 41.34,0.22l0 -53.6 -8.51 -1.76 -0.19 12.57 -9.3 -0.15 -0.02 -12.18 -5.22 0.02 -0.18 11.88 -9.24 0.5 -0.05 -12.19 -8.64 1.22z"/>
   <path class="fil9" d="M470.97 575.14l0.01 53.74c7.06,-2.17 33.99,-2.17 41.35,-0.22l0 -53.43 -8.5 -1.72 -0.22 12.55 -9.24 -0.18 -0.06 -12.17 -5.22 0.03 -0.17 11.96 -9.25 0.4 -0.04 -12.23 -8.66 1.27z"/>
   <polygon class="fil9" points="521.62,569.69 732.11,569.87 732.17,564.08 727.59,563.78 526.16,563.83 521.57,564 "/>
   <path class="fil9" d="M735.71 818.74l52.74 0.04 0.02 -20.37c-4.56,-0.77 -7.79,-3.04 -12.14,-3.89 -7.26,-1.41 -35.94,-1.37 -40.59,6.06l-0.03 18.16z"/>
   <path class="fil9" d="M465.33 818.74l52.68 0.04 -0.16 -19.14c-12.19,-8.37 -38.4,-7.27 -52.48,-0.95l-0.04 20.05z"/>
   <path class="fil9" d="M465.31 788.55c17.67,-4.89 5.63,-3.68 26.8,-3.68 15.44,-0.01 13.41,1.35 25.89,4.28l-0.3 -21.67c-11.91,-7.11 -34.32,-7.3 -47.82,-2.38 -6.41,2.33 -4.58,1.56 -4.57,23.45z"/>
   <path class="fil9" d="M735.85 789.14c14.71,-3.34 2.62,-4.28 25.78,-4.27 21.24,0 9.12,-1.2 26.81,3.68 0,-12.98 1.86,-20.12 -2.54,-22.65l-8.98 -3.21c-6.81,-1.77 -39.11,-0.72 -41.2,5.74l0.13 20.71z"/>
   <path class="fil9" d="M465.7 756.74c22.66,-6.7 31.41,-4.75 52.29,0.35l0.02 -22.21c-12.25,-2.5 -11.39,-4.56 -26.84,-4.55 -5.14,0 -10.56,-0.6 -15.47,0.89 -13.34,4.05 -10.47,0.78 -10,25.52z"/>
   <path class="fil9" d="M735.73 757.11c21.48,-5.51 30.7,-6.68 52.65,-0.36l-0.11 -21.42c-8.24,-5.24 -16.07,-4.99 -26.64,-5 -14.83,-0.02 -14.28,2.33 -25.9,4.52l0 22.26z"/>
   <path class="fil9" d="M735.73 725.37c13.04,-3.73 11.58,-4.39 26.85,-4.39 4.34,0 10.91,-0.43 14.96,0.3 3.21,0.58 7.28,2.62 10.85,3.45l0.06 -21.93c-14.38,-3.33 -1.77,-4.48 -26.82,-4.51 -15.08,-0.03 -13.97,2.31 -25.88,4.78l-0.02 22.3z"/>
   <path class="fil9" d="M465.57 724.73c3.52,-0.87 8.03,-3.09 11.48,-3.58 3.97,-0.57 10.78,-0.17 15.06,-0.17 4.79,0 10.15,-0.57 14.66,0.63 3.8,1 7.06,2.69 11.25,3.74l-0.14 -22.25c-12.52,-2.82 -10.98,-4.82 -26.71,-4.81 -23.69,0.01 -12.17,1.49 -25.89,4.51l0.29 21.93z"/>
   <path class="fil9" d="M735.73 693.35c13.05,-3.6 11.71,-4.24 26.85,-4.24 24.14,0 10.33,0.06 25.87,3.9l-0.01 -19.15c-3.74,-5.61 -18.64,-5.82 -25.86,-5.82 -21.55,-0.01 -12.47,1.86 -26.83,4.78l-0.02 20.53z"/>
   <path class="fil9" d="M465.3 693.01c16.32,-4 0.89,-3.89 26.81,-3.9 14.53,-0.01 13.43,0.9 25.91,4.21l-0.13 -20.48c-12.47,-2.77 -11.04,-4.81 -26.72,-4.8 -9.86,0.01 -17.73,-0.14 -25.83,4.87l-0.04 20.1z"/>
   <polygon class="fil9" points="552.35,622.03 575.43,621.98 575.45,578.85 552.34,578.81 "/>
   <polygon class="fil9" points="584.37,622.02 607.44,621.97 607.42,578.98 584.36,578.79 "/>
   <polygon class="fil9" points="680.44,621.83 703.48,622.02 703.48,615.23 703.48,584.97 703.48,578.79 680.42,578.86 "/>
   <polygon class="fil9" points="616.45,621.54 639.45,621.98 639.37,578.98 616.68,578.91 "/>
   <polygon class="fil9" points="648.44,621.7 671.37,621.94 671.36,579.08 648.79,578.9 "/>
   <path class="fil9" d="M735.78 640.51l-0.05 22.59c20.53,-5.72 30.8,-6.64 52.61,-0.63l0.07 -20.76c-3.66,-2.29 -9.88,-4.8 -14.32,-4.67l-0.16 11.89 -8.9 -0.12 -0.28 -11.94 -5.38 0.02 -0.08 11.81 -8.75 0.21 -0.51 -11.78c-5.93,-0.47 -8.92,2.33 -14.25,3.38z"/>
   <path class="fil9" d="M465.57 641.71l-0.26 20.77c12.35,-3.36 11.59,-3.7 25.86,-3.7 23.39,0 10.62,0.3 26.85,4.32l-0.02 -22.59c-5.37,-1.07 -8.37,-3.8 -14.33,-3.41l-0.17 11.8 -8.91 -0.1 -0.25 -11.94 -5.36 0.03 -0.12 11.83 -8.8 0.19 -0.45 -11.85c-4.36,-0.17 -10.65,2.36 -14.04,4.65z"/>
   <polygon class="fil9" points="521.59,621.8 528.05,622.03 533.72,621.99 539.4,621.98 543.1,621.89 543.1,578.97 521.58,578.86 "/>
   <polygon class="fil9" points="712.41,621.95 732.17,621.95 732.15,579.09 712.38,578.8 "/>
   <path class="fil10" d="M698.12 659.65c-5.36,3.73 -10.81,0.75 -8.56,-4.87 1.8,-4.5 10.57,-4.44 8.56,4.87zm-7.98 -16.19c-19.47,6.23 -8.64,32.47 8.21,26.77 17.48,-5.91 8.97,-32.27 -8.21,-26.77z"/>
   <path class="fil10" d="M563.38 660.87c-4.86,1.08 -4.26,1.18 -7.67,-1.3l-0.36 -5.54c3.59,-2.52 3.37,-2.38 8.08,-1.28 2.55,6.49 0.1,4.33 -0.05,8.12zm-6.4 -17.9c-16.44,3.51 -13.37,31.25 5.69,27.62 18.04,-3.44 12.77,-31.57 -5.69,-27.62z"/>
   <path class="fil9" d="M745.2 422.65l33.77 0.1c-3.98,-8.82 -13.47,-22.49 -16.3,-30.82 -2.64,2.38 -7.73,12.31 -9.34,15.44 -2.66,5.13 -6.09,10.43 -8.13,15.28z"/>
   <path class="fil9" d="M474.78 422.64l33.77 0.11 -12.54 -23.26c-1.48,-2.85 -2.52,-5.37 -4.9,-7.53 -3.45,9.44 -12.52,21.2 -16.33,30.68z"/>
   <polygon class="fil9" points="856.82,663.66 883.88,663.62 883.75,646.84 857.34,646.87 "/>
   <polygon class="fil9" points="892.72,663.68 919.99,663.52 919.94,647.09 893.26,646.84 "/>
   <polygon class="fil9" points="369.8,663.64 396.87,663.62 396.73,646.83 370.33,646.86 "/>
   <polygon class="fil9" points="405.7,663.65 432.96,663.52 432.92,647.13 406.24,646.84 "/>
   <polygon class="fil9" points="820.76,663.12 847.97,663.67 847.84,646.81 820.93,646.91 "/>
   <path class="fil9" d="M928.96 663.58c6.38,0.09 21.7,0.96 26.93,-0.56l-0.05 -15.91 -26.45 -0.26 -0.43 16.73z"/>
   <polygon class="fil9" points="333.74,663.04 360.98,663.67 360.84,646.84 333.93,646.91 "/>
   <polygon class="fil9" points="297.86,663.05 323.78,663.66 324.74,663.57 324.65,646.85 297.98,646.92 "/>
   <path class="fil9" d="M964.84 663.59l16.64 0.03c2.26,-3.22 3.46,-4.98 6.6,-8.23 0.39,-0.41 6.15,-7.12 6.77,-8.5l-29.56 -0.02 -0.45 16.72z"/>
   <path class="fil9" d="M272.25 663.61l16.24 -0.07 -0.07 -16.53 -29.51 -0.15c0.57,1.32 5.75,7.48 6.29,8.05 3.59,3.82 4.51,5.11 7.05,8.7z"/>
   <polygon class="fil9" points="797.7,663.46 801.35,663.66 804.19,663.62 811.75,663.59 811.75,654.95 811.76,647.22 797.7,647.14 "/>
   <polygon class="fil9" points="441.99,651.16 441.99,654 441.99,663.53 445.77,663.64 452.39,663.62 456.06,663.52 456.04,647.31 441.97,647.08 "/>
   <polygon class="fil10" points="486.97,458.03 496.42,457.8 496.22,436.96 486.93,437.18 "/>
   <polygon class="fil10" points="757.32,457.78 766.79,458.05 766.81,437.18 757.54,436.96 "/>
   <path class="fil9" d="M563.38 660.87c0.15,-3.79 2.6,-1.63 0.05,-8.12 -4.71,-1.1 -4.49,-1.24 -8.08,1.28l0.36 5.54c3.41,2.48 2.81,2.38 7.67,1.3z"/>
   <path class="fil9" d="M698.12 659.65c2.01,-9.31 -6.76,-9.37 -8.56,-4.87 -2.25,5.62 3.2,8.6 8.56,4.87z"/>
  </g>
 </g>
</svg>
