<svg xmlns="http://www.w3.org/2000/svg" viewBox="0 0 1459 1271" width="1459" height="1271">
	<style>
		tspan { white-space:pre }
		.shp0 { fill: #8dc9f6 } 
		.shp1 { fill: #aed9f7 } 
		.shp2 { fill: #c6e4f8 } 
		.shp3 { fill: #3a9a46 } 
		.shp4 { fill: #7ac8c9 } 
		.shp5 { fill: #60bfc0 } 
		.shp6 { fill: #9dd8d9 } 
		.shp7 { fill: none } 
		.shp8 { fill: #f4f4f4 } 
		.shp9 { fill: #663333 } 
		.shp10 { fill: #dddee0 } 
	</style>
	<g id="Layer_x0020_1">
		<path id="Layer" fill-rule="evenodd" class="shp0" d="M662 0.64C944.6 0.64 1173.69 229.73 1173.69 512.33C1173.69 794.92 944.6 1024.01 662 1024.01C379.41 1024.01 150.32 794.92 150.32 512.33C150.32 229.73 379.41 0.64 662 0.64L662 0.64Z" />
		<g id="Layer">
			<g id="_2773649519328">
				<path id="Layer" class="shp1" d="M662 1126.91C379.04 1126.91 150.31 898.18 150.31 615.22C150.31 332.26 379.04 103.53 662 103.53C944.96 103.53 1173.69 332.26 1173.69 615.22C1173.69 898.18 944.96 1126.91 662 1126.91Z" />
				<path id="Layer" class="shp2" d="M662 1270.09C379.04 1270.09 150.31 1041.36 150.31 758.4C150.31 475.44 379.04 246.71 662 246.71C944.96 246.71 1173.69 475.44 1173.69 758.4C1173.69 1041.36 944.96 1270.09 662 1270.09Z" />
				<path id="Layer" fill-rule="evenodd" class="shp3" d="M394.89 684.94C352.28 679.08 333.88 699.46 325.63 733.85C317.79 739.37 328.31 734.22 317.73 736.89C299.97 741.36 254.96 740.21 259.74 805.67L227.18 811.29L262.02 885.42L414.78 886C429.81 833.85 454.2 847.62 511.08 846.46L511.84 684C470.95 660.01 449.34 662.7 422.69 701.1C414.41 697.73 406.22 690.71 394.89 684.94L394.89 684.94Z" />
				<path id="Layer" fill-rule="evenodd" class="shp3" d="M994.38 684.94C1036.99 679.08 1055.39 699.46 1063.64 733.85C1071.48 739.37 1060.96 734.22 1071.54 736.89C1089.3 741.36 1134.31 740.21 1129.53 805.67L1162.09 811.29L1127.25 885.42L974.49 886C959.46 833.85 935.07 847.62 878.19 846.46L877.43 684C918.32 660.01 939.93 662.7 966.58 701.1C974.86 697.73 983.05 690.71 994.38 684.94L994.38 684.94Z" />
				<path id="Layer" fill-rule="evenodd" class="shp4" d="M71.93 900.57C82.28 922.72 224.6 1028.68 258.56 1041.74C283.81 1022.81 319.35 1050.49 320.79 1057.18C345.18 1027.45 383.84 1030.66 411.96 1054.79C458.91 1014.49 491.43 1048.68 504.37 1055.06C553.11 1010.81 587.83 1053.24 593.09 1056.53C635.58 1026.18 640.17 1028.55 681.81 1054.74C738.71 1012.61 771.04 1053.7 771.78 1057.18C796.27 1027.33 834.56 1030.43 862.95 1054.79C877.78 1042.06 884.08 1037.11 911.05 1036.69C937.2 1036.27 943.13 1046.24 954.73 1059.15C971.88 1035.77 1012.16 1020.94 1039.57 1055.99C1050.42 1050.86 1087.64 1012.66 1132.8 1054.74C1153.35 1039.52 1154.83 1035.57 1190.73 1035.94L1181.95 1052.72C1219.61 1040.12 1370.92 927.33 1388.14 900.07C1357.73 884.39 1333.05 900.48 1314.87 915.62C1277.66 885.45 1259.4 888.1 1221.65 914.95C1212.85 905.28 1197.18 894.88 1176.96 894.07C1155.68 893.23 1145.3 907.08 1132.8 913.67C1076.75 884.4 1093.32 885.98 1040.85 914.95C990.78 876.71 995.16 894.13 951.67 915.96C918.2 885.19 895.31 888.56 863.02 914.64C825.1 884.56 806.78 889.26 770.65 914.95C762.78 906.29 744.21 894.14 726.18 893.81C704.74 893.41 694.42 907.02 681.81 913.67C666.83 905.33 656.08 892.66 633.91 893.83C610.02 895.08 605.08 909.48 588.18 915.81C553.87 874.66 532.85 899.38 499.75 916.4C476.42 883.71 441.74 890.64 412.03 914.64C374.47 884.85 355.87 889.2 319.66 914.95C312.46 907.04 292.56 893.86 275.34 893.75C253.72 893.62 243.6 906.9 230.82 913.71C214.13 905.49 185 870.75 143.81 916.78L133.48 909.54C128.33 905.55 133.88 909.26 127.21 904.29C122.37 900.68 116.51 897.25 110.27 895.76C96 892.37 82.58 897.13 71.93 900.57L71.93 900.57Z" />
				<path id="Layer" fill-rule="evenodd" class="shp5" d="M71.93 900.57C82.58 897.13 96 892.37 110.27 895.76C116.51 897.25 122.37 900.68 127.21 904.29C133.88 909.26 128.33 905.55 133.48 909.54L143.81 916.78C185 870.75 214.13 905.49 230.82 913.71C243.6 906.9 253.72 893.62 275.34 893.75C292.56 893.86 312.46 907.04 319.66 914.95C355.87 889.2 374.47 884.85 412.03 914.64C441.74 890.64 476.42 883.71 499.75 916.4C532.85 899.38 553.87 874.66 588.18 915.81C605.08 909.48 610.02 895.08 633.91 893.83C656.08 892.66 666.83 905.33 681.81 913.67C694.42 907.02 704.74 893.41 726.18 893.81C744.21 894.14 762.78 906.29 770.65 914.95C806.78 889.26 825.1 884.56 863.02 914.64C895.31 888.56 918.2 885.19 951.67 915.96C995.16 894.13 990.78 876.71 1040.85 914.95C1093.32 885.98 1076.75 884.4 1132.8 913.67C1145.3 907.08 1155.68 893.23 1176.96 894.07C1197.18 894.88 1212.85 905.28 1221.65 914.95C1259.4 888.1 1277.66 885.45 1314.87 915.62C1333.05 900.48 1357.73 884.39 1388.14 900.07C1401.83 889.63 1450.12 840.82 1458.66 823.61C1435.24 822.39 1430.26 823.16 1414.63 835.1C1407.51 840.54 1414.74 837.76 1402.66 843.4C1389.54 835.52 1379.8 820.75 1354.84 823.39C1333.62 825.64 1324.95 836.4 1313.69 844.64C1298.54 832.47 1294.36 823.8 1269.56 823.83C1240.05 823.87 1239.79 831.63 1221.52 842.18C1183.1 804.58 1152.06 830.64 1132.8 842.52C1071.49 806.03 1080.85 825.82 1040.39 841.89C1000.85 812.7 986.38 816.99 951.88 844.64C939.46 834.8 933.81 822.1 907.41 823.48C883.39 824.73 874.6 837.12 857.77 843.15C848.58 828.69 838.02 823.73 814.99 823.77C790.37 823.82 785.92 833.29 770.53 842.18C731.23 803.71 699.46 831.64 681.81 842.52C642.18 819.9 631.29 810.13 590.44 843.54C554.08 814.21 537.14 815.65 500.93 844.68C472.76 814.01 443.72 817.86 411.96 842.42C404.38 839.04 410.76 842.08 404.7 837.98C363.21 809.9 346.84 826.42 319.54 842.18C310.43 833.27 293.61 823 275.19 822.85C253.05 822.67 243.16 834.91 230.82 842.52C218.54 836.87 186.64 798.44 141.74 844.93C133.39 839.16 112.06 809.64 70.55 829.68L49.68 842.52C34.32 830.53 27.86 824.66 0.55 824.37C14.64 845.67 53.88 886.53 71.93 900.57L71.93 900.57Z" />
				<path id="Layer" fill-rule="evenodd" class="shp6" d="M653.4 1167.05L806.38 1167.04L859.24 1160.17C898.73 1154.7 1029.66 1124.49 1055.64 1112.72L1175.84 1058.51C1180.25 1055.05 1179.76 1055.02 1181.95 1052.72L1190.73 1035.94C1154.83 1035.57 1153.35 1039.52 1132.8 1054.74C1087.64 1012.66 1050.42 1050.86 1039.57 1055.99C1012.16 1020.94 971.88 1035.77 954.73 1059.15C943.13 1046.24 937.2 1036.27 911.05 1036.69C884.08 1037.11 877.78 1042.06 862.95 1054.79C834.56 1030.43 796.27 1027.33 771.78 1057.18C771.04 1053.7 738.71 1012.61 681.81 1054.74C640.17 1028.55 635.58 1026.18 593.09 1056.53C587.83 1053.24 553.11 1010.81 504.37 1055.06C491.43 1048.68 458.91 1014.49 411.96 1054.79C383.84 1030.66 345.18 1027.45 320.79 1057.18C319.35 1050.49 283.81 1022.81 258.56 1041.74C284.1 1066.8 410.21 1114.92 437.24 1123.17C521.71 1148.94 556.98 1153.86 640.98 1163.55L653.4 1167.05L653.4 1167.05Z" />
			</g>
		</g>
		<path id="Layer" fill-rule="evenodd" class="shp7" d="M662 0.64C944.6 0.64 1173.69 229.73 1173.69 512.33C1173.69 794.92 944.6 1024.01 662 1024.01C379.41 1024.01 150.32 794.92 150.32 512.33C150.32 229.73 379.41 0.64 662 0.64L662 0.64Z" />
		<g id="_2773649523600">
			<path id="Layer" fill-rule="evenodd" class="shp8" d="M957.18 193.44C957.09 193.58 954.37 198.83 952.9 200.37C925.82 185.68 925.47 200.64 912.73 216.26C901.16 230.44 888 225.79 890.4 257.01L1007.97 257.74L1068.81 257.36C1067.16 234.39 1057.78 236.9 1044.29 227.03C1029.73 216.4 1037.28 206.97 1006.06 212.43C994.95 184.76 983.79 190.28 957.18 193.44L957.18 193.44Z" />
		</g>
		<g id="_2773649528976">
			<path id="Layer" fill-rule="evenodd" class="shp8" d="M624.09 60.33C624.01 60.46 621.29 65.71 619.82 67.25C592.73 52.56 592.39 67.52 579.64 83.14C568.08 97.32 554.92 92.67 557.32 123.89L674.89 124.62L735.73 124.24C734.07 101.27 724.7 103.78 711.2 93.91C696.64 83.28 704.19 73.85 672.97 79.31C661.86 51.64 650.71 57.16 624.09 60.33L624.09 60.33Z" />
		</g>
		<g id="_2773649531328">
			<path id="Layer" fill-rule="evenodd" class="shp8" d="M255.32 265.39C255.23 265.52 252.52 270.77 251.05 272.31C223.96 257.63 223.61 272.59 210.87 288.21C199.3 302.39 186.15 297.73 188.55 328.95L306.12 329.68L366.96 329.3C365.3 306.34 355.93 308.84 342.43 298.98C327.87 288.34 335.42 278.91 304.2 284.38C293.09 256.71 281.94 262.22 255.32 265.39L255.32 265.39Z" />
		</g>
		<g id="_2773649534928">
			<path id="Layer" fill-rule="evenodd" class="shp9" d="M548.6 593.18L759.16 593.11C756.56 597.3 753.59 595.06 753.4 602.69C752.58 635.67 753.46 681.67 753.46 715.3C753.46 736.42 753.4 757.55 753.47 778.67C753.53 797.19 745.5 816.01 744.45 833.27L753.47 833.32L761.86 791.08L816.46 790.85L824.69 833.28L833.79 833.33C832.5 820.81 828.13 802.8 825.48 790.02C823.44 780.15 824.69 651.23 824.7 635L1005.38 634.84L1005.41 833.22L1027.38 833.38L1027.4 842.39L280.44 842.64L280.27 833.79L302.2 833.3L302.34 634.8C361.31 635.63 423.49 634.82 483.01 634.88C483.18 649.83 484.24 780.38 482.26 790.02C479.56 803.06 475.39 820.39 474.01 833.25L483.02 833.36L491.45 791.12L545.59 790.87L554.27 833.29L563.29 833.33C562.27 816.59 554.24 797.25 554.27 779.62L554.34 603.65C554.3 594.83 552.06 597.69 548.6 593.18ZM340.02 833.11L340.31 647.47L448.92 647.57L449.06 833.43L458.2 833.07L457.95 638.2L331.25 638.19C329.48 645.91 330.77 676.79 330.77 686.93C330.77 712.93 329.61 816.12 330.95 833.4L340.02 833.11ZM873.88 833.31L882.91 833.33C884.24 799.98 882.98 763.98 882.98 730.43C882.98 703.87 878.39 687.47 902.19 672.83C917.8 663.24 923.56 662.85 938.97 672.76C963.12 688.29 958.35 703.3 958.35 730.43C958.35 752.71 957.28 816.31 958.53 833.46L967.56 833.39C968.2 824.09 968.32 701.48 967.16 694.74C964.89 681.61 952.88 669.62 941.65 663.46C937.81 661.35 926 655.72 921 655.59C908.97 655.29 888.96 669.93 884.67 675.15C871.9 690.68 873.76 697.1 873.76 720.97C873.76 757.24 872.1 797.54 873.88 833.31ZM356.39 833.36C357.63 812.16 356.52 755.62 356.52 730.43C356.52 706.87 352.01 686.67 376.24 672.68C392.52 663.29 396.29 662.72 412.96 672.98C436.92 687.74 432.24 705.21 432.24 730.43C432.24 764.24 431.21 799.66 432.3 833.35L441.35 833.26C442.9 797.11 441.45 757.51 441.45 720.97C441.45 697.19 443.57 690.82 430.4 675.41C426.68 671.05 420.72 666.41 414.44 662.98C396.6 653.23 391.34 653.62 373.62 663.43C364.76 668.33 363.61 670.53 357.91 676.1C346.07 687.67 347.28 701.61 347.28 720.97C347.28 750 346.08 807.86 347.39 833.31L356.39 833.36ZM857.33 638.2L857.03 833.14L866.1 833.41L866.29 647.53L974.91 647.47L975.2 833.22L984.28 833.39L984.43 638.2L857.33 638.2ZM370.42 833.29C371.51 814.93 370.56 793.56 370.55 774.88C370.55 764.88 369.73 757 374.94 749.87C384.96 736.16 404.57 736.52 413.81 749.68C419.17 757.31 418.18 764.74 418.18 774.88C418.17 793.63 417.28 814.71 418.3 833.29L427.54 833.42C429.28 814.71 428.11 785 427.78 765.41C427.01 718.86 361.54 719.11 361.33 765.37C361.23 787.08 360.3 811.88 361.46 833.34L370.42 833.29ZM589.67 632.59C607.71 629.15 602.44 601.02 583.98 604.97C567.54 608.48 570.61 636.22 589.67 632.59ZM725.35 632.23C742.83 626.32 734.32 599.96 717.14 605.46C697.67 611.69 708.5 637.93 725.35 632.23ZM572.31 833.2L581.33 833.35C583.65 789.75 578.94 730.24 581.65 688.81C582.72 672.35 589.32 662.89 597.83 651.21C607.34 638.16 641.22 615.72 653.37 615.97C664.9 616.22 690.52 633.79 699.77 641.52C711.4 651.25 723.96 671.41 724.96 689.12C727.61 735.87 722.42 786.71 725.18 833.4L734.29 833.25C734.63 807.76 734.32 782.24 734.32 756.91C734.32 736.53 736.44 699.22 733.3 680.89C728.47 652.64 704.78 629.94 681.41 617.3C676.5 614.65 659.13 606.33 653.4 606.29C640.22 606.2 608.81 626.93 602.71 632.47L593.3 641.96C591.08 644.11 586.93 649.99 584.8 653.33C579.87 661.03 575.12 669.94 573.19 680.56C570.44 695.68 572.08 769.78 572.08 794.74C572.08 806.26 571.16 822.21 572.31 833.2ZM896.63 833.42C898.09 815.66 896.84 792.3 896.83 773.93C896.83 763.56 896.37 757.42 901.33 749.5C908.72 737.72 930.21 735.35 940.28 749.95C944.89 756.63 944.66 765.67 944.65 774.88C944.65 793.83 943.85 814.61 944.76 833.39L953.82 833.18C954.41 810.93 953.99 787.71 953.89 765.38C953.68 719.9 888.1 717.89 887.44 765.41C887.15 785.86 886.08 813.67 887.65 833.41L896.63 833.42Z" />
			<path id="Layer" class="shp9" d="M548.59 516.71L759.14 516.92L759.15 458.98L548.54 458.75L548.59 516.71Z" />
			<path id="Layer" fill-rule="evenodd" class="shp9" d="M307.81 599.41C314.95 600.86 447.62 599.68 469.96 599.83C478.56 599.89 481.43 598.19 488.47 594.8L488.72 546.37L307.85 546.27L307.81 599.41Z" />
			<path id="Layer" fill-rule="evenodd" class="shp9" d="M819.01 594.25C829.45 602.1 845.84 599.69 859.56 599.7L999.83 599.86L999.99 546.23L819.24 546.27L819.01 594.25L819.01 594.25Z" />
			<path id="Layer" fill-rule="evenodd" class="shp10" d="M572.31 833.2L581.33 833.35C583.65 789.75 578.94 730.24 581.65 688.81C582.72 672.35 589.32 662.89 597.83 651.21C607.34 638.16 641.22 615.72 653.37 615.97C664.9 616.22 690.52 633.79 699.77 641.52C711.4 651.25 723.96 671.41 724.96 689.12C727.61 735.87 722.42 786.71 725.18 833.4L734.29 833.25C734.63 807.76 734.32 782.24 734.32 756.91C734.32 736.53 736.44 699.22 733.3 680.89C728.47 652.64 704.78 629.94 681.41 617.3C676.5 614.65 659.13 606.33 653.4 606.29C640.22 606.2 608.81 626.93 602.71 632.47L593.3 641.96C591.08 644.11 586.93 649.99 584.8 653.33C579.87 661.03 575.12 669.94 573.19 680.56C570.44 695.68 572.08 769.78 572.08 794.74C572.08 806.26 571.16 822.21 572.31 833.2L572.31 833.2Z" />
			<path id="Layer" fill-rule="evenodd" class="shp10" d="M340.31 647.47L448.92 647.57L449.06 833.43L458.2 833.07L457.95 638.2L331.25 638.19C329.48 645.91 330.77 676.79 330.77 686.93C330.77 712.93 329.61 816.12 330.95 833.4L340.02 833.11L340.31 647.47L340.31 647.47Z" />
			<path id="Layer" class="shp10" d="M857.03 833.14L866.1 833.41L866.29 647.53L974.91 647.47L975.2 833.22L984.28 833.39L984.43 638.2L857.33 638.2L857.03 833.14Z" />
			<path id="Layer" class="shp9" d="M548.59 449.36L759.1 449.5L759.13 428.06L548.72 427.96L548.59 449.36Z" />
			<path id="Layer" fill-rule="evenodd" class="shp10" d="M873.88 833.31L882.91 833.33C884.24 799.98 882.98 763.98 882.98 730.43C882.98 703.87 878.39 687.47 902.19 672.83C917.8 663.24 923.56 662.85 938.97 672.76C963.12 688.29 958.35 703.3 958.35 730.43C958.35 752.71 957.28 816.31 958.53 833.46L967.56 833.39C968.2 824.09 968.32 701.48 967.16 694.74C964.89 681.61 952.88 669.62 941.65 663.46C937.81 661.35 926 655.72 921 655.59C908.97 655.29 888.96 669.93 884.67 675.15C871.9 690.68 873.76 697.1 873.76 720.97C873.76 757.24 872.1 797.54 873.88 833.31L873.88 833.31Z" />
			<path id="Layer" fill-rule="evenodd" class="shp10" d="M356.39 833.36C357.63 812.16 356.52 755.62 356.52 730.43C356.52 706.87 352.01 686.67 376.24 672.68C392.52 663.29 396.29 662.72 412.96 672.98C436.92 687.74 432.24 705.21 432.24 730.43C432.24 764.24 431.21 799.66 432.3 833.35L441.35 833.26C442.9 797.11 441.45 757.51 441.45 720.97C441.45 697.19 443.57 690.82 430.4 675.41C426.68 671.05 420.72 666.41 414.44 662.98C396.6 653.23 391.34 653.62 373.62 663.43C364.76 668.33 363.61 670.53 357.91 676.1C346.07 687.67 347.28 701.61 347.28 720.97C347.28 750 346.08 807.86 347.39 833.31L356.39 833.36L356.39 833.36Z" />
			<path id="Layer" fill-rule="evenodd" class="shp9" d="M307.84 536.91L488.52 537.2L488.76 520.34C472.61 519.21 313.73 518.96 307.76 520.8L307.84 536.91Z" />
			<path id="Layer" class="shp9" d="M819.08 537.14L999.6 537.2L1000.06 520.12L819.03 520.15L819.08 537.14Z" />
			<path id="Layer" fill-rule="evenodd" class="shp9" d="M498.02 458.77L497.98 527.46C506.42 525.71 530.92 525.59 539.33 527.47L539.32 458.77C526.79 456.41 510.5 456.44 498.02 458.77L498.02 458.77Z" />
			<path id="Layer" fill-rule="evenodd" class="shp9" d="M768.45 458.8L768.42 527.48C775.64 525.56 802.39 525.64 809.77 527.45L809.76 458.78C797.29 456.44 780.83 456.29 768.45 458.8Z" />
			<path id="Layer" fill-rule="evenodd" class="shp10" d="M370.42 833.29C371.51 814.93 370.56 793.56 370.55 774.88C370.55 764.88 369.73 757 374.94 749.87C384.96 736.16 404.57 736.52 413.81 749.68C419.17 757.31 418.18 764.74 418.18 774.88C418.17 793.63 417.28 814.71 418.3 833.29L427.54 833.42C429.28 814.71 428.11 785 427.78 765.41C427.01 718.86 361.54 719.11 361.33 765.37C361.23 787.08 360.3 811.88 361.46 833.34L370.42 833.29L370.42 833.29Z" />
			<path id="Layer" fill-rule="evenodd" class="shp10" d="M896.63 833.42C898.09 815.66 896.84 792.3 896.83 773.93C896.83 763.56 896.37 757.42 901.33 749.5C908.72 737.72 930.21 735.35 940.28 749.95C944.89 756.63 944.66 765.67 944.65 774.88C944.65 793.83 943.85 814.61 944.76 833.39L953.82 833.18C954.41 810.93 953.99 787.71 953.89 765.38C953.68 719.9 888.1 717.89 887.44 765.41C887.15 785.86 886.08 813.67 887.65 833.41L896.63 833.42L896.63 833.42Z" />
			<path id="Layer" fill-rule="evenodd" class="shp9" d="M497.98 394.07L539.33 394.02L539.32 449.01C531.69 447.28 505.63 447.08 497.98 448.98L497.98 394.07ZM513.93 399.18L513.97 420.03L523.42 419.8L523.22 398.96L513.93 399.18Z" />
			<path id="Layer" fill-rule="evenodd" class="shp9" d="M768.42 448.98L768.4 394.07L809.76 394.04L809.77 448.95C800.88 447.2 777.32 447.12 768.42 448.98ZM784.54 398.96L784.32 419.78L793.79 420.05L793.81 399.18L784.54 398.96Z" />
			<path id="Layer" fill-rule="evenodd" class="shp9" d="M768.41 537.15L768.42 590.62C775.49 588.85 802.97 588.84 809.76 590.84L809.76 537.24L801.25 535.48L801.06 548.05L791.76 547.9L791.74 535.72L786.52 535.74L786.34 547.62L777.1 548.12L777.05 535.93L768.41 537.15L768.41 537.15Z" />
			<path id="Layer" fill-rule="evenodd" class="shp9" d="M497.97 537.14L497.98 590.88C505.04 588.71 531.97 588.71 539.33 590.66L539.33 537.23L530.83 535.51L530.61 548.06L521.37 547.88L521.31 535.71L516.09 535.74L515.92 547.7L506.67 548.1L506.63 535.87L497.97 537.14L497.97 537.14Z" />
			<path id="Layer" class="shp9" d="M548.62 531.69L759.11 531.87L759.17 526.08L754.59 525.78L553.16 525.83L548.57 526L548.62 531.69Z" />
			<path id="Layer" fill-rule="evenodd" class="shp9" d="M762.71 780.74L815.45 780.78L815.47 760.41C810.91 759.64 807.68 757.37 803.33 756.52C796.07 755.11 767.39 755.15 762.74 762.58L762.71 780.74L762.71 780.74Z" />
			<path id="Layer" fill-rule="evenodd" class="shp9" d="M492.33 780.74L545.01 780.78L544.85 761.64C532.66 753.27 506.45 754.37 492.37 760.69L492.33 780.74L492.33 780.74Z" />
			<path id="Layer" fill-rule="evenodd" class="shp9" d="M492.31 750.55C509.98 745.66 497.94 746.87 519.11 746.87C534.55 746.86 532.52 748.22 545 751.15L544.7 729.48C532.79 722.37 510.38 722.18 496.88 727.1C490.47 729.43 492.3 728.66 492.31 750.55L492.31 750.55Z" />
			<path id="Layer" fill-rule="evenodd" class="shp9" d="M762.85 751.14C777.56 747.8 765.47 746.86 788.63 746.87C809.87 746.87 797.75 745.67 815.44 750.55C815.44 737.57 817.3 730.43 812.9 727.9L803.92 724.69C797.11 722.92 764.81 723.97 762.72 730.43L762.85 751.14L762.85 751.14Z" />
			<path id="Layer" fill-rule="evenodd" class="shp9" d="M492.7 718.74C515.36 712.04 524.11 713.99 544.99 719.09L545.01 696.88C532.76 694.38 533.62 692.32 518.17 692.33C513.03 692.33 507.61 691.73 502.7 693.22C489.36 697.27 492.23 694 492.7 718.74Z" />
			<path id="Layer" fill-rule="evenodd" class="shp9" d="M762.73 719.11C784.21 713.6 793.43 712.43 815.38 718.75L815.27 697.33C807.03 692.09 799.2 692.34 788.63 692.33C773.8 692.31 774.35 694.66 762.73 696.85L762.73 719.11Z" />
			<path id="Layer" fill-rule="evenodd" class="shp9" d="M762.73 687.37C775.77 683.64 774.31 682.98 789.58 682.98C793.92 682.98 800.49 682.55 804.54 683.28C807.75 683.86 811.82 685.9 815.39 686.73L815.45 664.8C801.07 661.47 813.68 660.32 788.63 660.29C773.55 660.26 774.66 662.6 762.75 665.07L762.73 687.37Z" />
			<path id="Layer" fill-rule="evenodd" class="shp9" d="M492.57 686.73C496.09 685.86 500.6 683.64 504.05 683.15C508.02 682.58 514.83 682.98 519.11 682.98C523.9 682.98 529.26 682.41 533.77 683.61C537.57 684.61 540.83 686.3 545.02 687.35L544.88 665.1C532.36 662.28 533.9 660.28 518.17 660.29C494.48 660.3 506 661.78 492.28 664.8L492.57 686.73L492.57 686.73Z" />
			<path id="Layer" fill-rule="evenodd" class="shp9" d="M762.73 655.35C775.78 651.75 774.44 651.11 789.58 651.11C813.72 651.11 799.91 651.17 815.45 655.01L815.44 635.86C811.7 630.25 796.8 630.04 789.58 630.04C768.03 630.03 777.11 631.9 762.75 634.82L762.73 655.35L762.73 655.35Z" />
			<path id="Layer" fill-rule="evenodd" class="shp9" d="M492.3 655.01C508.62 651.01 493.19 651.12 519.11 651.11C533.64 651.1 532.54 652.01 545.02 655.32L544.89 634.84C532.42 632.07 533.85 630.03 518.17 630.04C508.31 630.05 500.44 629.9 492.34 634.91L492.3 655.01L492.3 655.01Z" />
			<path id="Layer" class="shp9" d="M579.35 584.03L602.43 583.98L602.45 540.85L579.34 540.81L579.35 584.03Z" />
			<path id="Layer" class="shp9" d="M611.37 584.02L634.44 583.97L634.42 540.98L611.36 540.79L611.37 584.02Z" />
			<path id="Layer" class="shp9" d="M707.44 583.83L730.48 584.02L730.48 577.23L730.48 546.97L730.48 540.79L707.42 540.86L707.44 583.83Z" />
			<path id="Layer" class="shp9" d="M643.45 583.54L666.45 583.98L666.37 540.98L643.68 540.91L643.45 583.54Z" />
			<path id="Layer" class="shp9" d="M675.44 583.7L698.37 583.94L698.36 541.08L675.79 540.9L675.44 583.7Z" />
			<path id="Layer" fill-rule="evenodd" class="shp9" d="M762.78 602.51L762.73 625.1C783.26 619.38 793.53 618.46 815.34 624.47L815.41 603.71C811.75 601.42 805.53 598.91 801.09 599.04L800.93 610.93L792.03 610.81L791.75 598.87L786.37 598.89L786.29 610.7L777.54 610.91L777.03 599.13C771.1 598.66 768.11 601.46 762.78 602.51L762.78 602.51Z" />
			<path id="Layer" fill-rule="evenodd" class="shp9" d="M492.57 603.71L492.31 624.48C504.66 621.12 503.9 620.78 518.17 620.78C541.56 620.78 528.79 621.08 545.02 625.1L545 602.51C539.63 601.44 536.63 598.71 530.67 599.1L530.5 610.9L521.59 610.8L521.34 598.86L515.98 598.89L515.86 610.72L507.06 610.91L506.61 599.06C502.25 598.89 495.96 601.42 492.57 603.71L492.57 603.71Z" />
			<path id="Layer" class="shp9" d="M548.59 583.8L555.05 584.03L560.72 583.99L566.4 583.98L570.1 583.89L570.1 540.97L548.58 540.86L548.59 583.8Z" />
			<path id="Layer" class="shp9" d="M739.41 583.95L759.17 583.95L759.15 541.09L739.38 540.8L739.41 583.95Z" />
			<path id="Layer" fill-rule="evenodd" class="shp10" d="M725.35 632.23C708.5 637.93 697.67 611.69 717.14 605.46C734.32 599.96 742.83 626.32 725.35 632.23ZM716.56 616.78C714.31 622.4 719.76 625.38 725.12 621.65C727.13 612.34 718.36 612.28 716.56 616.78Z" />
			<path id="Layer" fill-rule="evenodd" class="shp10" d="M589.67 632.59C570.61 636.22 567.54 608.48 583.98 604.97C602.44 601.02 607.71 629.15 589.67 632.59ZM590.38 622.87C590.53 619.08 592.98 621.24 590.43 614.75C585.72 613.65 585.94 613.51 582.35 616.03L582.71 621.57C586.12 624.05 585.52 623.95 590.38 622.87Z" />
			<path id="Layer" fill-rule="evenodd" class="shp9" d="M772.2 384.65L805.97 384.75C801.99 375.93 792.5 362.26 789.67 353.93C787.03 356.31 781.94 366.24 780.33 369.37C777.67 374.5 774.24 379.8 772.2 384.65Z" />
			<path id="Layer" fill-rule="evenodd" class="shp9" d="M501.78 384.64L535.55 384.75L523.01 361.49C521.53 358.64 520.49 356.12 518.11 353.96C514.66 363.4 505.59 375.16 501.78 384.64L501.78 384.64Z" />
			<path id="Layer" class="shp9" d="M883.82 625.66L910.88 625.62L910.75 608.84L884.34 608.87L883.82 625.66Z" />
			<path id="Layer" class="shp9" d="M919.72 625.68L946.99 625.52L946.94 609.09L920.26 608.84L919.72 625.68Z" />
			<path id="Layer" class="shp9" d="M396.8 625.64L423.87 625.62L423.73 608.83L397.33 608.86L396.8 625.64Z" />
			<path id="Layer" class="shp9" d="M432.7 625.65L459.96 625.52L459.92 609.13L433.24 608.84L432.7 625.65Z" />
			<path id="Layer" class="shp9" d="M847.76 625.12L874.97 625.67L874.84 608.81L847.93 608.91L847.76 625.12Z" />
			<path id="Layer" fill-rule="evenodd" class="shp9" d="M955.96 625.58C962.34 625.67 977.66 626.54 982.89 625.02L982.84 609.11L956.39 608.85L955.96 625.58L955.96 625.58Z" />
			<path id="Layer" class="shp9" d="M360.74 625.04L387.98 625.67L387.84 608.84L360.93 608.91L360.74 625.04Z" />
			<path id="Layer" class="shp9" d="M324.86 625.05L350.78 625.66L351.74 625.57L351.65 608.85L324.98 608.92L324.86 625.05Z" />
			<path id="Layer" fill-rule="evenodd" class="shp9" d="M991.84 625.59L1008.48 625.62C1010.74 622.4 1011.94 620.64 1015.08 617.39C1015.47 616.98 1021.23 610.27 1021.85 608.89L992.29 608.87L991.84 625.59Z" />
			<path id="Layer" fill-rule="evenodd" class="shp9" d="M299.25 625.61L315.49 625.54L315.42 609.01L285.91 608.86C286.48 610.18 291.66 616.34 292.2 616.91C295.79 620.73 296.71 622.02 299.25 625.61L299.25 625.61Z" />
			<path id="Layer" class="shp9" d="M824.7 625.46L828.35 625.66L831.19 625.62L838.75 625.59L838.75 616.95L838.76 609.22L824.7 609.14L824.7 625.46Z" />
			<path id="Layer" class="shp9" d="M468.99 613.16L468.99 616L468.99 625.53L472.77 625.64L479.39 625.62L483.06 625.52L483.04 609.31L468.97 609.08L468.99 613.16Z" />
			<path id="Layer" class="shp10" d="M513.97 420.03L523.42 419.8L523.22 398.96L513.93 399.18L513.97 420.03Z" />
			<path id="Layer" class="shp10" d="M784.32 419.78L793.79 420.05L793.81 399.18L784.54 398.96L784.32 419.78Z" />
			<path id="Layer" fill-rule="evenodd" class="shp9" d="M590.38 622.87C590.53 619.08 592.98 621.24 590.43 614.75C585.72 613.65 585.94 613.51 582.35 616.03L582.71 621.57C586.12 624.05 585.52 623.95 590.38 622.87L590.38 622.87Z" />
			<path id="Layer" fill-rule="evenodd" class="shp9" d="M725.12 621.65C727.13 612.34 718.36 612.28 716.56 616.78C714.31 622.4 719.76 625.38 725.12 621.65Z" />
		</g>
	</g>
</svg>