<?xml version="1.0" encoding="UTF-8"?>
<!DOCTYPE svg PUBLIC "-//W3C//DTD SVG 1.1//EN" "http://www.w3.org/Graphics/SVG/1.1/DTD/svg11.dtd">
<!-- Creator: CorelDRAW 2020 (64-Bit) -->
<svg xmlns="http://www.w3.org/2000/svg" xml:space="preserve" width="12.7mm" height="12.7mm" version="1.1" style="shape-rendering:geometricPrecision; text-rendering:geometricPrecision; image-rendering:optimizeQuality; fill-rule:evenodd; clip-rule:evenodd"
viewBox="0 0 1270 1270"
 xmlns:xlink="http://www.w3.org/1999/xlink"
 xmlns:xodm="http://www.corel.com/coreldraw/odm/2003">
 <defs>
  <style type="text/css">
   <![CDATA[
    .str0 {stroke:#F4F4F4;stroke-width:20;stroke-miterlimit:22.9256}
    .str1 {stroke:white;stroke-width:7.62;stroke-miterlimit:22.9256}
    .fil0 {fill:none}
    .fil4 {fill:#3A9A46}
    .fil6 {fill:#60BFC0}
    .fil9 {fill:#663333}
    .fil5 {fill:#7AC8C9}
    .fil1 {fill:#8DC9F6}
    .fil7 {fill:#9DD8D9}
    .fil2 {fill:#AED9F7}
    .fil3 {fill:#C6E4F8}
    .fil8 {fill:#F4F4F4}
   ]]>
  </style>
    <clipPath id="id0">
     <path d="M635 38.64c282.6,0 511.69,229.09 511.69,511.69 0,282.59 -229.09,511.68 -511.69,511.68 -282.59,0 -511.68,-229.09 -511.68,-511.68 0,-282.6 229.09,-511.69 511.68,-511.69z"/>
    </clipPath>
 </defs>
 <g id="Layer_x0020_1">
  <metadata id="CorelCorpID_0Corel-Layer"/>
  <g id="_1770552175200">
   <rect class="fil0" width="1270" height="1270"/>
   <path class="fil1" d="M635 38.64c282.6,0 511.69,229.09 511.69,511.69 0,282.59 -229.09,511.68 -511.69,511.68 -282.59,0 -511.68,-229.09 -511.68,-511.68 0,-282.6 229.09,-511.69 511.68,-511.69z"/>
   <g style="clip-path:url(#id0)">
    <g>
     <circle class="fil2" cx="635" cy="653.22" r="511.69"/>
     <circle class="fil3" cx="635" cy="796.4" r="511.69"/>
     <path class="fil4" d="M367.89 722.94c-42.61,-5.86 -61.01,14.52 -69.26,48.91 -7.84,5.52 2.68,0.37 -7.9,3.04 -17.76,4.47 -62.77,3.32 -57.99,68.78l-32.56 5.62 34.84 74.13 152.76 0.58c15.03,-52.15 39.42,-38.38 96.3,-39.54l0.76 -162.46c-40.89,-23.99 -62.5,-21.3 -89.15,17.1 -8.28,-3.37 -16.47,-10.39 -27.8,-16.16z"/>
     <path class="fil4" d="M967.38 722.94c42.61,-5.86 61.01,14.52 69.26,48.91 7.84,5.52 -2.68,0.37 7.9,3.04 17.76,4.47 62.77,3.32 57.99,68.78l32.56 5.62 -34.84 74.13 -152.76 0.58c-15.03,-52.15 -39.42,-38.38 -96.3,-39.54l-0.76 -162.46c40.89,-23.99 62.5,-21.3 89.15,17.1 8.28,-3.37 16.47,-10.39 27.8,-16.16z"/>
     <path class="fil5" d="M44.93 938.57c10.35,22.15 152.67,128.11 186.63,141.17 25.25,-18.93 60.79,8.75 62.23,15.44 24.39,-29.73 63.05,-26.52 91.17,-2.39 46.95,-40.3 79.47,-6.11 92.41,0.27 48.74,-44.25 83.46,-1.82 88.72,1.47 42.49,-30.35 47.08,-27.98 88.72,-1.79 56.9,-42.13 89.23,-1.04 89.97,2.44 24.49,-29.85 62.78,-26.75 91.17,-2.39 14.83,-12.73 21.13,-17.68 48.1,-18.1 26.15,-0.42 32.08,9.55 43.68,22.46 17.15,-23.38 57.43,-38.21 84.84,-3.16 10.85,-5.13 48.07,-43.33 93.23,-1.25 20.55,-15.22 22.03,-19.17 57.93,-18.8l-8.78 16.78c37.66,-12.6 188.97,-125.39 206.19,-152.65 -30.41,-15.68 -55.09,0.41 -73.27,15.55 -37.21,-30.17 -55.47,-27.52 -93.22,-0.67 -8.8,-9.67 -24.47,-20.07 -44.69,-20.88 -21.28,-0.84 -31.66,13.01 -44.16,19.6 -56.05,-29.27 -39.48,-27.69 -91.95,1.28 -50.07,-38.24 -45.69,-20.82 -89.18,1.01 -33.47,-30.77 -56.36,-27.4 -88.65,-1.32 -37.92,-30.08 -56.24,-25.38 -92.37,0.31 -7.87,-8.66 -26.44,-20.81 -44.47,-21.14 -21.44,-0.4 -31.76,13.21 -44.37,19.86 -14.98,-8.34 -25.73,-21.01 -47.9,-19.84 -23.89,1.25 -28.83,15.65 -45.73,21.98 -34.31,-41.15 -55.33,-16.43 -88.43,0.59 -23.33,-32.69 -58.01,-25.76 -87.72,-1.76 -37.56,-29.79 -56.16,-25.44 -92.37,0.31 -7.2,-7.91 -27.1,-21.09 -44.32,-21.2 -21.62,-0.13 -31.74,13.15 -44.52,19.96 -16.69,-8.22 -45.82,-42.96 -87.01,3.07l-10.33 -7.24c-5.15,-3.99 0.4,-0.28 -6.27,-5.25 -4.84,-3.61 -10.7,-7.04 -16.94,-8.53 -14.27,-3.39 -27.69,1.37 -38.34,4.81z"/>
     <path class="fil6" d="M44.93 938.57c10.65,-3.44 24.07,-8.2 38.34,-4.81 6.24,1.49 12.1,4.92 16.94,8.53 6.67,4.97 1.12,1.26 6.27,5.25l10.33 7.24c41.19,-46.03 70.32,-11.29 87.01,-3.07 12.78,-6.81 22.9,-20.09 44.52,-19.96 17.22,0.11 37.12,13.29 44.32,21.2 36.21,-25.75 54.81,-30.1 92.37,-0.31 29.71,-24 64.39,-30.93 87.72,1.76 33.1,-17.02 54.12,-41.74 88.43,-0.59 16.9,-6.33 21.84,-20.73 45.73,-21.98 22.17,-1.17 32.92,11.5 47.9,19.84 12.61,-6.65 22.93,-20.26 44.37,-19.86 18.03,0.33 36.6,12.48 44.47,21.14 36.13,-25.69 54.45,-30.39 92.37,-0.31 32.29,-26.08 55.18,-29.45 88.65,1.32 43.49,-21.83 39.11,-39.25 89.18,-1.01 52.47,-28.97 35.9,-30.55 91.95,-1.28 12.5,-6.59 22.88,-20.44 44.16,-19.6 20.22,0.81 35.89,11.21 44.69,20.88 37.75,-26.85 56.01,-29.5 93.22,0.67 18.18,-15.14 42.86,-31.23 73.27,-15.55 13.69,-10.44 61.98,-59.25 70.52,-76.46 -23.42,-1.22 -28.4,-0.45 -44.03,11.49 -7.12,5.44 0.11,2.66 -11.97,8.3 -13.12,-7.88 -22.86,-22.65 -47.82,-20.01 -21.22,2.25 -29.89,13.01 -41.15,21.25 -15.15,-12.17 -19.33,-20.84 -44.13,-20.81 -29.51,0.04 -29.77,7.8 -48.04,18.35 -38.42,-37.6 -69.46,-11.54 -88.72,0.34 -61.31,-36.49 -51.95,-16.7 -92.41,-0.63 -39.54,-29.19 -54.01,-24.9 -88.51,2.75 -12.42,-9.84 -18.07,-22.54 -44.47,-21.16 -24.02,1.25 -32.81,13.64 -49.64,19.67 -9.19,-14.46 -19.75,-19.42 -42.78,-19.38 -24.62,0.05 -29.07,9.52 -44.46,18.41 -39.3,-38.47 -71.07,-10.54 -88.72,0.34 -39.63,-22.62 -50.52,-32.39 -91.37,1.02 -36.36,-29.33 -53.3,-27.89 -89.51,1.14 -28.17,-30.67 -57.21,-26.82 -88.97,-2.26 -7.58,-3.38 -1.2,-0.34 -7.26,-4.44 -41.49,-28.08 -57.86,-11.56 -85.16,4.2 -9.11,-8.91 -25.93,-19.18 -44.35,-19.33 -22.14,-0.18 -32.03,12.06 -44.37,19.67 -12.28,-5.65 -44.18,-44.08 -89.08,2.41 -8.35,-5.77 -29.68,-35.29 -71.19,-15.25l-20.87 12.84c-15.36,-11.99 -21.82,-17.86 -49.13,-18.15 14.09,21.3 53.33,62.16 71.38,76.2z"/>
     <path class="fil7" d="M626.4 1205.05l152.98 -0.01 52.86 -6.87c39.49,-5.47 170.42,-35.68 196.4,-47.45l120.2 -54.21c4.41,-3.46 3.92,-3.49 6.11,-5.79l8.78 -16.78c-35.9,-0.37 -37.38,3.58 -57.93,18.8 -45.16,-42.08 -82.38,-3.88 -93.23,1.25 -27.41,-35.05 -67.69,-20.22 -84.84,3.16 -11.6,-12.91 -17.53,-22.88 -43.68,-22.46 -26.97,0.42 -33.27,5.37 -48.1,18.1 -28.39,-24.36 -66.68,-27.46 -91.17,2.39 -0.74,-3.48 -33.07,-44.57 -89.97,-2.44 -41.64,-26.19 -46.23,-28.56 -88.72,1.79 -5.26,-3.29 -39.98,-45.72 -88.72,-1.47 -12.94,-6.38 -45.46,-40.57 -92.41,-0.27 -28.12,-24.13 -66.78,-27.34 -91.17,2.39 -1.44,-6.69 -36.98,-34.37 -62.23,-15.44 25.54,25.06 151.65,73.18 178.68,81.43 84.47,25.77 119.74,30.69 203.74,40.38l12.42 3.5z"/>
    </g>
   </g>
   <path class="fil0" d="M635 38.64c282.6,0 511.69,229.09 511.69,511.69 0,282.59 -229.09,511.68 -511.69,511.68 -282.59,0 -511.68,-229.09 -511.68,-511.68 0,-282.6 229.09,-511.69 511.68,-511.69z"/>
   <g>
    <path class="fil8" d="M930.18 231.44c-0.09,0.14 -2.81,5.39 -4.28,6.93 -27.08,-14.69 -27.43,0.27 -40.17,15.89 -11.57,14.18 -24.73,9.53 -22.33,40.75l117.57 0.73 60.84 -0.38c-1.65,-22.97 -11.03,-20.46 -24.52,-30.33 -14.56,-10.63 -7.01,-20.06 -38.23,-14.6 -11.11,-27.67 -22.27,-22.15 -48.88,-18.99z"/>
    <ellipse class="fil0 str0" cx="956.12" cy="248.56" rx="24.42" ry="22.75"/>
    <ellipse class="fil0 str0" cx="912.88" cy="256.02" rx="24.42" ry="22.75"/>
    <ellipse class="fil0 str0" cx="989.43" cy="263.72" rx="20.27" ry="18.88"/>
   </g>
   <g>
    <path class="fil8" d="M597.09 98.33c-0.08,0.13 -2.8,5.38 -4.27,6.92 -27.09,-14.69 -27.43,0.27 -40.18,15.89 -11.56,14.18 -24.72,9.53 -22.32,40.75l117.57 0.73 60.84 -0.38c-1.66,-22.97 -11.03,-20.46 -24.53,-30.33 -14.56,-10.63 -7.01,-20.06 -38.23,-14.6 -11.11,-27.67 -22.26,-22.15 -48.88,-18.98z"/>
    <ellipse class="fil0 str0" cx="623.04" cy="115.44" rx="24.42" ry="22.75"/>
    <ellipse class="fil0 str0" cx="579.79" cy="122.9" rx="24.42" ry="22.75"/>
    <ellipse class="fil0 str0" cx="656.34" cy="130.6" rx="20.27" ry="18.88"/>
   </g>
   <g>
    <path class="fil8" d="M228.32 303.39c-0.09,0.13 -2.8,5.38 -4.27,6.92 -27.09,-14.68 -27.44,0.28 -40.18,15.9 -11.57,14.18 -24.72,9.52 -22.32,40.74l117.57 0.73 60.84 -0.38c-1.66,-22.96 -11.03,-20.46 -24.53,-30.32 -14.56,-10.64 -7.01,-20.07 -38.23,-14.6 -11.11,-27.67 -22.26,-22.16 -48.88,-18.99z"/>
    <ellipse class="fil0 str0" cx="254.26" cy="320.51" rx="24.42" ry="22.75"/>
    <ellipse class="fil0 str0" cx="211.02" cy="327.97" rx="24.42" ry="22.75"/>
    <ellipse class="fil0 str0" cx="287.57" cy="335.66" rx="20.27" ry="18.88"/>
   </g>
   <g>
    <g>
     <path class="fil0 str1" d="M577.37 763.54l2.23 -1.11c0.27,-0.1 0.84,-0.36 1.18,-0.48l6.35 -1.7 0.1 -8.11c-0.39,-0.24 -1.05,-0.89 -1.27,-0.51 -0.23,0.39 -0.97,-0.37 -1.28,-0.47l-2.64 -0.79c-0.88,-0.27 -6.92,-0.67 -7.37,-5.21 -0.81,-8.09 1.56,-3.55 2.73,-4.16l8.49 -3.16c0.3,-0.08 0.89,-0.11 1.29,-0.3l-0.09 -8.12c-4.53,-2.63 -0.87,-0.27 -5.1,-1.64 -6.34,-2.06 -7.98,-1.92 -6.96,-10.43l12.14 -1.27c-0.11,-21.25 2.75,-7.67 2.85,-19.1 0.07,-7.03 -5.61,-16.79 5.04,-16.48 9.16,0.26 4.92,7.1 4.15,14.04 -1.27,11.44 1.63,2.29 2.64,13.66 0.17,1.85 -0.02,4.82 -0.02,6.79 16.43,-3.37 22.73,-6.5 42.17,-6.66l-2.07 -10.74 15.62 -0.68c1.15,7.51 1.05,5.08 -1.44,11.44 28.27,-0.01 30.4,4.99 42.14,6.41 -0.32,-12.11 2.1,-9.58 2.9,-16.29 0.6,-4.97 -2.09,-10.1 -1.46,-17.04 19.35,-4.07 7.28,7.34 11.96,21.99 1.81,5.65 1.35,6.04 1.4,12.95l11.98 0.77c0.79,8.61 0.51,8.36 -6.68,10.63l-4 1.19c-0.33,0.1 -0.91,0.23 -1.31,0.46l-0.01 8.12 12.06 2.67c1.19,8.57 -3.05,10.01 -12.06,10.23l0.04 11.74c16.18,-2.41 7.03,3.79 16.58,6.59l165.74 0.19c-8.48,-55.87 -24.93,-102.3 -57.16,-146.49 -4.91,-6.73 -8.6,-9.68 -12.41,-16.78l-351.46 -0.27c-3.67,6.3 -7.36,10.12 -11.73,15.91 -4.31,5.72 -8.03,11.03 -11.83,17.33 -24.16,40.12 -39.48,81.26 -46.03,130.39l167.53 -0.02c0.29,-0.4 0.63,-1.46 0.77,-1.17 1.17,2.38 1.49,-1.92 1.6,-2.03 0.21,-0.22 0.63,-0.66 0.84,-0.87l1.86 -1.42z"/>
     <path id="1" class="fil9" d="M577.37 763.54l2.23 -1.11c0.27,-0.1 0.84,-0.36 1.18,-0.48l6.35 -1.7 0.1 -8.11c-0.39,-0.24 -1.05,-0.89 -1.27,-0.51 -0.23,0.39 -0.97,-0.37 -1.28,-0.47l-2.64 -0.79c-0.88,-0.27 -6.92,-0.67 -7.37,-5.21 -0.81,-8.09 1.56,-3.55 2.73,-4.16l8.49 -3.16c0.3,-0.08 0.89,-0.11 1.29,-0.3l-0.09 -8.12c-4.53,-2.63 -0.87,-0.27 -5.1,-1.64 -6.34,-2.06 -7.98,-1.92 -6.96,-10.43l12.14 -1.27c-0.11,-21.25 2.75,-7.67 2.85,-19.1 0.07,-7.03 -5.61,-16.79 5.04,-16.48 9.16,0.26 4.92,7.1 4.15,14.04 -1.27,11.44 1.63,2.29 2.64,13.66 0.17,1.85 -0.02,4.82 -0.02,6.79 16.43,-3.37 22.73,-6.5 42.17,-6.66l-2.07 -10.74 15.62 -0.68c1.15,7.51 1.05,5.08 -1.44,11.44 28.27,-0.01 30.4,4.99 42.14,6.41 -0.32,-12.11 2.1,-9.58 2.9,-16.29 0.6,-4.97 -2.09,-10.1 -1.46,-17.04 19.35,-4.07 7.28,7.34 11.96,21.99 1.81,5.65 1.35,6.04 1.4,12.95l11.98 0.77c0.79,8.61 0.51,8.36 -6.68,10.63l-4 1.19c-0.33,0.1 -0.91,0.23 -1.31,0.46l-0.01 8.12 12.06 2.67c1.19,8.57 -3.05,10.01 -12.06,10.23l0.04 11.74c16.18,-2.41 7.03,3.79 16.58,6.59l165.74 0.19c-8.48,-55.87 -24.93,-102.3 -57.16,-146.49 -4.91,-6.73 -8.6,-9.68 -12.41,-16.78l-351.46 -0.27c-3.67,6.3 -7.36,10.12 -11.73,15.91 -4.31,5.72 -8.03,11.03 -11.83,17.33 -24.16,40.12 -39.48,81.26 -46.03,130.39l167.53 -0.02c0.29,-0.4 0.63,-1.46 0.77,-1.17 1.17,2.38 1.49,-1.92 1.6,-2.03 0.21,-0.22 0.63,-0.66 0.84,-0.87l1.86 -1.42z"/>
    </g>
    <g>
     <path class="fil0 str1" d="M509.83 574.67l280.44 0.83c-5.05,-5.28 -20.49,-14.02 -27,-17.44 -9.4,-4.94 -20.92,-9.44 -31.05,-12.73 -32.18,-10.46 -48.12,-8.03 -82.04,-8.03 -62.72,0 -84.61,0.78 -140.35,37.37z"/>
     <path id="1" class="fil9" d="M509.83 574.67l280.44 0.83c-5.05,-5.28 -20.49,-14.02 -27,-17.44 -9.4,-4.94 -20.92,-9.44 -31.05,-12.73 -32.18,-10.46 -48.12,-8.03 -82.04,-8.03 -62.72,0 -84.61,0.78 -140.35,37.37z"/>
    </g>
    <g>
     <polygon class="fil0 str1" points="714.18,880.14 963.91,880.51 963.82,849.49 714.21,849.89 "/>
     <polygon id="1" class="fil9" points="714.18,880.14 963.91,880.51 963.82,849.49 714.21,849.89 "/>
    </g>
    <g>
     <polygon class="fil0 str1" points="585.9,879.94 585.83,850.08 336.32,849.49 336.32,880.49 "/>
     <polygon id="1" class="fil9" points="585.9,879.94 585.83,850.08 336.32,849.49 336.32,880.49 "/>
    </g>
    <g>
     <path class="fil0 str1" d="M479.53 601.34l340.64 0.54 -12.6 -13.56c-11.71,-12.12 -14.33,-9.38 -29.21,-9.39l-264.47 0c-16.01,-0.01 -19.63,8.74 -31.5,20.2 -2.19,2.1 -2.53,2.19 -2.86,2.21z"/>
     <path id="1" class="fil9" d="M479.53 601.34l340.64 0.54 -12.6 -13.56c-11.71,-12.12 -14.33,-9.38 -29.21,-9.39l-264.47 0c-16.01,-0.01 -19.63,8.74 -31.5,20.2 -2.19,2.1 -2.53,2.19 -2.86,2.21z"/>
    </g>
    <g>
     <path class="fil0 str1" d="M707.75 421.95l36.5 0.14c2.9,-21.33 -0.66,-25.46 6.06,-48.25 5.31,-18.01 0.09,-28.58 -2.67,-47.11 -4.55,-30.4 -13.85,-68.24 -16.05,-97.48l-10.02 0.16c-4.1,7.97 -14.36,79.96 -16.92,95.24 -10.71,64.01 -2.69,32.3 2.27,69.08 1.26,9.29 -0.32,18.93 0.83,28.22z"/>
     <path id="1" class="fil9" d="M707.75 421.95l36.5 0.14c2.9,-21.33 -0.66,-25.46 6.06,-48.25 5.31,-18.01 0.09,-28.58 -2.67,-47.11 -4.55,-30.4 -13.85,-68.24 -16.05,-97.48l-10.02 0.16c-4.1,7.97 -14.36,79.96 -16.92,95.24 -10.71,64.01 -2.69,32.3 2.27,69.08 1.26,9.29 -0.32,18.93 0.83,28.22z"/>
    </g>
    <g>
     <path class="fil0 str1" d="M462.99 421.77l36.74 0.22c2.01,-71.71 14.5,-28.93 2.98,-96.85 -4.98,-29.35 -13.43,-67.32 -15.82,-95.94l-10.32 0.33c-5.13,12.16 -13.56,77.41 -16.59,95.29 -10.34,60.99 -3.48,30.78 2.23,68.82 1.38,9.17 0.05,18.85 0.78,28.13z"/>
     <path id="1" class="fil9" d="M462.99 421.77l36.74 0.22c2.01,-71.71 14.5,-28.93 2.98,-96.85 -4.98,-29.35 -13.43,-67.32 -15.82,-95.94l-10.32 0.33c-5.13,12.16 -13.56,77.41 -16.59,95.29 -10.34,60.99 -3.48,30.78 2.23,68.82 1.38,9.17 0.05,18.85 0.78,28.13z"/>
    </g>
    <g>
     <polygon class="fil0 str1" points="316.23,898.03 602.05,897.25 602.12,883.77 316.1,883.85 "/>
     <polygon id="1" class="fil9" points="316.23,898.03 602.05,897.25 602.12,883.77 316.1,883.85 "/>
    </g>
    <g>
     <path class="fil0 str1" d="M922.77 776.47l0 3.26 -21.1 0c-0.5,-5.02 -0.17,-3.37 6.31,-3.32 4.93,0.03 9.85,0.06 14.79,0.06zm-38.7 0.01l-0.03 3.25 -6.71 0 0 -3.26 6.74 0.01zm-31.06 3.25c-7.7,0 -6.69,1.71 -7.15,-3.26l7.15 0 0 3.26zm-35.7 0l-6.67 -0.01 0.07 -3.25 6.6 0 0 3.26zm-15.99 -3.25l-0.11 3.25 -6.63 0 0 -3.26 6.74 0.01zm-22.96 -0.01c7.76,0 6.83,-1.74 7.12,3.26l-7.12 0 0 -3.26zm-14.41 1.63c-3.69,2.92 -6.66,2.58 -10.5,0 0.07,0 5,-4.61 10.5,0zm-36.82 -1.62c-0.6,5.4 -0.48,3.25 -8.81,3.25l0 -3.26 8.81 0.01zm9.04 -0.01l8.91 0.01c-1.1,6.77 -8.08,3.74 -8.91,-0.01zm-35.46 -3l8.64 0.84 0.05 105.69 4.78 0.14 0.03 -30.25c-3.6,-2.4 -4.27,3.73 -1.99,-2.04 0.09,-0.21 0.49,-0.82 0.61,-1.03 0.18,-0.32 0.95,-0.71 1.44,-1.04l0.35 -16.59c-7.72,-4.98 -3.97,4.74 -2.35,-2.12 1.92,-8.15 -5.33,2.73 1.7,-1.93l0.05 -19.49c-1.95,-1.27 -4.71,3.02 -1.67,-1.96 0.16,-0.25 0.67,-0.83 0.87,-1.09 0.3,-0.39 1.17,-0.77 1.76,-1.14l-0.92 -11.9 219.44 0.01 -0.99 11.93c2.95,-2.64 1.39,1.61 2.14,-5.58 0.19,-1.79 -0.19,-4.85 -0.37,-6.61 -9.3,-2.49 -160.86,-0.85 -194.86,-0.84l-21.17 0.25c-8.02,-1.5 -2.83,1.46 -7.73,-4.12 13.51,3.24 217.14,3.05 223.74,0.18l0.25 -11.61c-4.83,-2.09 -166.52,-1.19 -199.95,-0.78l-9.81 -0.84c-4.99,-1.84 -0.98,0.99 -4.64,-2.75l-15.53 0.68c-0.36,0.32 -0.88,0.33 -1.06,1 -0.18,0.66 -0.78,0.77 -1.01,1.01l-1.8 1.98z"/>
     <path id="1" class="fil9" d="M922.77 776.47l0 3.26 -21.1 0c-0.5,-5.02 -0.17,-3.37 6.31,-3.32 4.93,0.03 9.85,0.06 14.79,0.06zm-38.7 0.01l-0.03 3.25 -6.71 0 0 -3.26 6.74 0.01zm-31.06 3.25c-7.7,0 -6.69,1.71 -7.15,-3.26l7.15 0 0 3.26zm-35.7 0l-6.67 -0.01 0.07 -3.25 6.6 0 0 3.26zm-15.99 -3.25l-0.11 3.25 -6.63 0 0 -3.26 6.74 0.01zm-22.96 -0.01c7.76,0 6.83,-1.74 7.12,3.26l-7.12 0 0 -3.26zm-14.41 1.63c-3.69,2.92 -6.66,2.58 -10.5,0 0.07,0 5,-4.61 10.5,0zm-36.82 -1.62c-0.6,5.4 -0.48,3.25 -8.81,3.25l0 -3.26 8.81 0.01zm9.04 -0.01l8.91 0.01c-1.1,6.77 -8.08,3.74 -8.91,-0.01zm-35.46 -3l8.64 0.84 0.05 105.69 4.78 0.14 0.03 -30.25c-3.6,-2.4 -4.27,3.73 -1.99,-2.04 0.09,-0.21 0.49,-0.82 0.61,-1.03 0.18,-0.32 0.95,-0.71 1.44,-1.04l0.35 -16.59c-7.72,-4.98 -3.97,4.74 -2.35,-2.12 1.92,-8.15 -5.33,2.73 1.7,-1.93l0.05 -19.49c-1.95,-1.27 -4.71,3.02 -1.67,-1.96 0.16,-0.25 0.67,-0.83 0.87,-1.09 0.3,-0.39 1.17,-0.77 1.76,-1.14l-0.92 -11.9 219.44 0.01 -0.99 11.93c2.95,-2.64 1.39,1.61 2.14,-5.58 0.19,-1.79 -0.19,-4.85 -0.37,-6.61 -9.3,-2.49 -160.86,-0.85 -194.86,-0.84l-21.17 0.25c-8.02,-1.5 -2.83,1.46 -7.73,-4.12 13.51,3.24 217.14,3.05 223.74,0.18l0.25 -11.61c-4.83,-2.09 -166.52,-1.19 -199.95,-0.78l-9.81 -0.84c-4.99,-1.84 -0.98,0.99 -4.64,-2.75l-15.53 0.68c-0.36,0.32 -0.88,0.33 -1.06,1 -0.18,0.66 -0.78,0.77 -1.01,1.01l-1.8 1.98z"/>
    </g>
    <g>
     <path class="fil0 str1" d="M572.29 776.47l8.13 0 0 3.26c-7.49,0 -8.38,2.26 -8.13,-3.26zm-17.84 0l8.13 0 -0.01 3.26c-5.45,0 -9.83,2.07 -8.12,-3.26zm-17.85 0l8.12 0 0.01 3.26c-6.06,0 -9.43,2.15 -8.13,-3.26zm-22.72 0l6.48 0 0.03 3.26c-6.66,0 -6.99,1.96 -6.51,-3.26zm-16.22 0l6.76 0 0.05 3.25 -6.81 0.01 0 -3.26zm-50.85 3.26c0.46,-5.05 -0.61,-3.26 7.06,-3.26l-0.01 3.26 -7.05 0zm-15.75 -3.25l6.58 -0.01 0 3.26c-7.62,0 -6.5,1.97 -6.58,-3.25zm-16.15 -0.01l6.68 0 0.03 3.25 -6.71 0.01 0 -3.26zm-38.75 0.01l20.92 -0.01 0.37 3.27c-5.71,-0.01 -21.45,2.64 -21.29,-3.26zm105.27 -0.01l7.34 0c-1.56,9.5 -7.32,0 -7.34,0zm-113.57 25.15l-1.44 -11.83 219.47 -0.23 -0.6 11.77c6.56,4.73 4.12,-5.3 2.42,2.42 -0.05,0.23 -0.36,0.89 -0.45,1.12 -0.12,0.31 -0.86,0.72 -1.31,1.04l0.04 19.01c2.37,1.72 4.95,-4.42 1.74,2.14 -0.13,0.27 -0.59,0.88 -0.77,1.16 -0.25,0.39 -1.06,0.81 -1.61,1.2l0.39 16.15c3.92,2.89 4.41,-4.97 2.04,2.26 -0.08,0.24 -0.44,0.89 -0.56,1.13 -0.17,0.34 -0.92,0.76 -1.39,1.12l0.07 29.86 4.71 0.27 0.01 -105.72 8.9 -0.48c-0.29,-0.32 -0.71,-1.27 -0.86,-0.97 -0.15,0.29 -0.7,-0.75 -0.9,-0.93 -0.1,-0.09 -2.79,-2.23 -2.91,-2.32l-14.03 -0.11c-3.08,2.61 1.02,1.12 -5.3,2.41l-102.19 0.19c-15.57,0 -99.62,-1.83 -107.27,0.59l-0.42 12.16c7.77,2.37 213.55,2.21 223.76,-0.43 -5.84,7.45 2.08,1.51 -5.72,3.83 -4.38,1.3 -205.01,-2.46 -217.59,0.77 -0.33,1.97 -0.82,4.53 -0.57,6.73 0.79,7.21 -0.88,2.91 2.34,5.69z"/>
     <path id="1" class="fil9" d="M572.29 776.47l8.13 0 0 3.26c-7.49,0 -8.38,2.26 -8.13,-3.26zm-17.84 0l8.13 0 -0.01 3.26c-5.45,0 -9.83,2.07 -8.12,-3.26zm-17.85 0l8.12 0 0.01 3.26c-6.06,0 -9.43,2.15 -8.13,-3.26zm-22.72 0l6.48 0 0.03 3.26c-6.66,0 -6.99,1.96 -6.51,-3.26zm-16.22 0l6.76 0 0.05 3.25 -6.81 0.01 0 -3.26zm-50.85 3.26c0.46,-5.05 -0.61,-3.26 7.06,-3.26l-0.01 3.26 -7.05 0zm-15.75 -3.25l6.58 -0.01 0 3.26c-7.62,0 -6.5,1.97 -6.58,-3.25zm-16.15 -0.01l6.68 0 0.03 3.25 -6.71 0.01 0 -3.26zm-38.75 0.01l20.92 -0.01 0.37 3.27c-5.71,-0.01 -21.45,2.64 -21.29,-3.26zm105.27 -0.01l7.34 0c-1.56,9.5 -7.32,0 -7.34,0zm-113.57 25.15l-1.44 -11.83 219.47 -0.23 -0.6 11.77c6.56,4.73 4.12,-5.3 2.42,2.42 -0.05,0.23 -0.36,0.89 -0.45,1.12 -0.12,0.31 -0.86,0.72 -1.31,1.04l0.04 19.01c2.37,1.72 4.95,-4.42 1.74,2.14 -0.13,0.27 -0.59,0.88 -0.77,1.16 -0.25,0.39 -1.06,0.81 -1.61,1.2l0.39 16.15c3.92,2.89 4.41,-4.97 2.04,2.26 -0.08,0.24 -0.44,0.89 -0.56,1.13 -0.17,0.34 -0.92,0.76 -1.39,1.12l0.07 29.86 4.71 0.27 0.01 -105.72 8.9 -0.48c-0.29,-0.32 -0.71,-1.27 -0.86,-0.97 -0.15,0.29 -0.7,-0.75 -0.9,-0.93 -0.1,-0.09 -2.79,-2.23 -2.91,-2.32l-14.03 -0.11c-3.08,2.61 1.02,1.12 -5.3,2.41l-102.19 0.19c-15.57,0 -99.62,-1.83 -107.27,0.59l-0.42 12.16c7.77,2.37 213.55,2.21 223.76,-0.43 -5.84,7.45 2.08,1.51 -5.72,3.83 -4.38,1.3 -205.01,-2.46 -217.59,0.77 -0.33,1.97 -0.82,4.53 -0.57,6.73 0.79,7.21 -0.88,2.91 2.34,5.69z"/>
    </g>
    <g>
     <polygon class="fil0 str1" points="596.1,534.01 704.12,534 704.07,500.05 596.06,500.08 "/>
     <polygon id="1" class="fil9" points="596.1,534.01 704.12,534 704.07,500.05 596.06,500.08 "/>
    </g>
    <g>
     <path class="fil0 str1" d="M457.65 471.44l0.03 150.57c4.06,-4.93 12.82,-16.56 16.89,-19.63l-7.05 -2.31 0.06 -47.5 -9.04 -2.75c0.15,-10.3 0.35,-18.32 4.65,-26.78 4.06,-8.01 10.54,-10.6 16.59,-16.18 -27.2,-7.67 -20.22,-37.5 0.18,-38.45 22.89,-1.05 30.71,31.08 3.02,38.31 7.74,8.33 20.43,8.06 20.97,40.98l-8.37 3.25 -0.23 30.36c3.25,-2.68 6.4,-4.68 9.39,-7.65 0.02,-9.89 1.96,-103.09 -1.16,-113.23 -0.15,-0.48 -1.85,-6.69 -2.41,-8.3 -16.06,5.82 0.97,6.4 -15.6,-0.08 -1.6,5.11 0.88,8.83 -4.19,8.88 -5.07,0.05 -2.99,-4.01 -4.42,-8.83 -9.73,3.52 0.45,5.69 -7.32,8.57 -7.36,2.72 0.91,-4.77 -8.22,-8.67 -0.53,1.46 -2.28,8.13 -2.36,8.38 -1.77,5.68 -1.44,4.72 -1.41,11.06z"/>
     <path id="1" class="fil9" d="M457.65 471.44l0.03 150.57c4.06,-4.93 12.82,-16.56 16.89,-19.63l-7.05 -2.31 0.06 -47.5 -9.04 -2.75c0.15,-10.3 0.35,-18.32 4.65,-26.78 4.06,-8.01 10.54,-10.6 16.59,-16.18 -27.2,-7.67 -20.22,-37.5 0.18,-38.45 22.89,-1.05 30.71,31.08 3.02,38.31 7.74,8.33 20.43,8.06 20.97,40.98l-8.37 3.25 -0.23 30.36c3.25,-2.68 6.4,-4.68 9.39,-7.65 0.02,-9.89 1.96,-103.09 -1.16,-113.23 -0.15,-0.48 -1.85,-6.69 -2.41,-8.3 -16.06,5.82 0.97,6.4 -15.6,-0.08 -1.6,5.11 0.88,8.83 -4.19,8.88 -5.07,0.05 -2.99,-4.01 -4.42,-8.83 -9.73,3.52 0.45,5.69 -7.32,8.57 -7.36,2.72 0.91,-4.77 -8.22,-8.67 -0.53,1.46 -2.28,8.13 -2.36,8.38 -1.77,5.68 -1.44,4.72 -1.41,11.06z"/>
    </g>
    <g>
     <path class="fil0 str1" d="M427.72 673.08c8.04,-9.87 12.34,-21.71 12.34,-36.14l0 -165.5 0.03 -27.51 -12.38 -0.7 0.01 229.85z"/>
     <path id="1" class="fil9" d="M427.72 673.08c8.04,-9.87 12.34,-21.71 12.34,-36.14l0 -165.5 0.03 -27.51 -12.38 -0.7 0.01 229.85z"/>
    </g>
    <g>
     <polygon class="fil0 str1" points="714.98,801.46 932.51,801.5 933.5,789.57 714.06,789.56 "/>
     <polygon id="1" class="fil9" points="714.98,801.46 932.51,801.5 933.5,789.57 714.06,789.56 "/>
    </g>
    <g>
     <polygon class="fil0 str1" points="367.86,801.62 585.29,801.33 585.89,789.56 366.42,789.79 "/>
     <polygon id="1" class="fil9" points="367.86,801.62 585.29,801.33 585.89,789.56 366.42,789.79 "/>
    </g>
    <g>
     <path class="fil0 str1" d="M702.18 481.33l14.84 0.07 0.48 17.62 -10.13 1.38 0.11 23.03c3.75,-5.03 7.1,-8.99 11.61,-12.44 6.91,-5.29 9.41,-4.09 15.59,0.83 16.59,13.2 9.44,19.29 14.48,35.19 1.66,-7.7 0.34,-38.96 0.34,-49.61 0,-13.47 2.66,-37.69 -5.21,-45.22 -6.67,5.06 0.97,8.81 -6.32,8.66 -7.76,-0.16 1.71,-4.69 -6.66,-8.45 -3.69,5.76 0.5,8.41 -5.04,8.47 -7.35,0.07 0.03,-3.35 -6.32,-8.62 -6.38,5.26 0.96,8.82 -6.28,8.6 -8,-0.24 1.73,-5.16 -6.7,-8.4l-4.31 11.41c-1.06,5.03 -0.42,12.14 -0.48,17.48z"/>
     <path id="1" class="fil9" d="M702.18 481.33l14.84 0.07 0.48 17.62 -10.13 1.38 0.11 23.03c3.75,-5.03 7.1,-8.99 11.61,-12.44 6.91,-5.29 9.41,-4.09 15.59,0.83 16.59,13.2 9.44,19.29 14.48,35.19 1.66,-7.7 0.34,-38.96 0.34,-49.61 0,-13.47 2.66,-37.69 -5.21,-45.22 -6.67,5.06 0.97,8.81 -6.32,8.66 -7.76,-0.16 1.71,-4.69 -6.66,-8.45 -3.69,5.76 0.5,8.41 -5.04,8.47 -7.35,0.07 0.03,-3.35 -6.32,-8.62 -6.38,5.26 0.96,8.82 -6.28,8.6 -8,-0.24 1.73,-5.16 -6.7,-8.4l-4.31 11.41c-1.06,5.03 -0.42,12.14 -0.48,17.48z"/>
    </g>
    <g>
     <path class="fil0 str1" d="M611.84 845.47l15.67 0.83 0.12 -19.77c4.25,1.38 11.16,8.3 15.21,-0.6 1.91,-4.2 -1.66,-11.24 8.83,-9.23 12.22,2.34 -0.42,5.78 6.96,11.47 6.82,5.25 6.13,0.31 14,-1.48l-0.02 19.46 15.21 0.02c0.64,-16.31 1.91,-28.63 -3.56,-40.63l-66.53 -0.25c-3.89,2.03 -2.31,-0.69 -4.86,6.76 -2.07,6.06 -0.92,26.03 -1.03,33.42z"/>
     <path id="1" class="fil9" d="M611.84 845.47l15.67 0.83 0.12 -19.77c4.25,1.38 11.16,8.3 15.21,-0.6 1.91,-4.2 -1.66,-11.24 8.83,-9.23 12.22,2.34 -0.42,5.78 6.96,11.47 6.82,5.25 6.13,0.31 14,-1.48l-0.02 19.46 15.21 0.02c0.64,-16.31 1.91,-28.63 -3.56,-40.63l-66.53 -0.25c-3.89,2.03 -2.31,-0.69 -4.86,6.76 -2.07,6.06 -0.92,26.03 -1.03,33.42z"/>
    </g>
    <g>
     <path class="fil0 str1" d="M443.54 642.28l10.41 -16.82 0.31 -77.76c0.02,-34.8 -0.05,-69.61 0,-104.41l-10.75 0.01 0.03 198.98z"/>
     <path id="1" class="fil9" d="M443.54 642.28l10.41 -16.82 0.31 -77.76c0.02,-34.8 -0.05,-69.61 0,-104.41l-10.75 0.01 0.03 198.98z"/>
    </g>
    <g>
     <path class="fil0 str1" d="M700.77 727.2l9.6 0.86 0.14 11.03 -9.11 -0.62 -0.63 -11.27zm-111.06 0.73l9.65 -0.54 -0.32 10.76 -9.27 1.15 -0.06 -11.37zm12.29 -1.34c30.09,-8.43 66.13,-10.97 96.06,0.3l0.16 10.51c-16.58,-2.3 -13.68,-6.79 -48.04,-6.81 -21.72,0 -29.72,2.52 -48.33,7.04l0.15 -11.04zm108.01 -22.34l0.45 12.43 -9.43 -1.06 0.58 -11.82 8.4 0.45zm-132.59 18.68c1.49,-6.88 -3.51,-3.29 15.63,-3.9 10.13,-0.33 54.38,-16.79 94.76,-4.44 25.54,7.82 29.56,1.42 35.29,6.72 -6.92,12.52 -35,-4.36 -72.91,-4.36 -38.01,0 -60.1,14.93 -72.77,5.98zm13.22 -18.89c6.15,-0.91 3.52,-1.37 8.54,0.94l-0.24 10.68 -9.44 0.88 1.14 -12.5zm63.04 -4.29c2.88,5.67 0.76,5.8 0.08,7.72l-6.81 0.72c-2.74,-8.01 -1.54,-6.4 -0.46,-9.17l7.19 0.73zm54.41 -6.34c-0.99,4.52 -0.26,3.4 -2.74,5.92 -2.14,-3.22 -4.3,-10.93 -1.65,-16.17l3.58 0.2c0.88,1.38 3.01,0.06 0.81,10.05zm-117.07 -5.36c-0.17,-5.9 6.18,-6.84 6.77,-0.83l-2.77 12.09 -3.01 -5.89c-0.11,-0.39 -0.98,-5.06 -0.99,-5.37zm-13.62 52.95c31.52,3.68 25.82,-8.14 74.44,-7.8 40.08,0.29 38,7.81 55.1,8.46 17.53,0.66 14.36,-3.44 16.22,4.87l-21.05 0.98c-6.52,-1.42 -1.15,0.35 -2.32,2.3l10.66 0.78 -0.09 11.04 2.71 0.55 -0.04 -11.74c9.01,-0.22 13.25,-1.66 12.06,-10.23l-12.06 -2.67 0.01 -8.12c0.4,-0.23 0.98,-0.36 1.31,-0.46l4 -1.19c7.19,-2.27 7.47,-2.02 6.68,-10.63l-11.98 -0.77c-0.05,-6.91 0.41,-7.3 -1.4,-12.95 -4.68,-14.65 7.39,-26.06 -11.96,-21.99 -0.63,6.94 2.06,12.07 1.46,17.04 -0.8,6.71 -3.22,4.18 -2.9,16.29 -11.74,-1.42 -13.87,-6.42 -42.14,-6.41 2.49,-6.36 2.59,-3.93 1.44,-11.44l-15.62 0.68 2.07 10.74c-19.44,0.16 -25.74,3.29 -42.17,6.66 0,-1.97 0.19,-4.94 0.02,-6.79 -1.01,-11.37 -3.91,-2.22 -2.64,-13.66 0.77,-6.94 5.01,-13.78 -4.15,-14.04 -10.65,-0.31 -4.97,9.45 -5.04,16.48 -0.1,11.43 -2.96,-2.15 -2.85,19.1l-12.14 1.27c-1.02,8.51 0.62,8.37 6.96,10.43 4.23,1.37 0.57,-0.99 5.1,1.64l0.09 8.12c-0.4,0.19 -0.99,0.22 -1.29,0.3l-8.49 3.16z"/>
     <path id="1" class="fil9" d="M700.77 727.2l9.6 0.86 0.14 11.03 -9.11 -0.62 -0.63 -11.27zm-111.06 0.73l9.65 -0.54 -0.32 10.76 -9.27 1.15 -0.06 -11.37zm12.29 -1.34c30.09,-8.43 66.13,-10.97 96.06,0.3l0.16 10.51c-16.58,-2.3 -13.68,-6.79 -48.04,-6.81 -21.72,0 -29.72,2.52 -48.33,7.04l0.15 -11.04zm108.01 -22.34l0.45 12.43 -9.43 -1.06 0.58 -11.82 8.4 0.45zm-132.59 18.68c1.49,-6.88 -3.51,-3.29 15.63,-3.9 10.13,-0.33 54.38,-16.79 94.76,-4.44 25.54,7.82 29.56,1.42 35.29,6.72 -6.92,12.52 -35,-4.36 -72.91,-4.36 -38.01,0 -60.1,14.93 -72.77,5.98zm13.22 -18.89c6.15,-0.91 3.52,-1.37 8.54,0.94l-0.24 10.68 -9.44 0.88 1.14 -12.5zm63.04 -4.29c2.88,5.67 0.76,5.8 0.08,7.72l-6.81 0.72c-2.74,-8.01 -1.54,-6.4 -0.46,-9.17l7.19 0.73zm54.41 -6.34c-0.99,4.52 -0.26,3.4 -2.74,5.92 -2.14,-3.22 -4.3,-10.93 -1.65,-16.17l3.58 0.2c0.88,1.38 3.01,0.06 0.81,10.05zm-117.07 -5.36c-0.17,-5.9 6.18,-6.84 6.77,-0.83l-2.77 12.09 -3.01 -5.89c-0.11,-0.39 -0.98,-5.06 -0.99,-5.37zm-13.62 52.95c31.52,3.68 25.82,-8.14 74.44,-7.8 40.08,0.29 38,7.81 55.1,8.46 17.53,0.66 14.36,-3.44 16.22,4.87l-21.05 0.98c-6.52,-1.42 -1.15,0.35 -2.32,2.3l10.66 0.78 -0.09 11.04 2.71 0.55 -0.04 -11.74c9.01,-0.22 13.25,-1.66 12.06,-10.23l-12.06 -2.67 0.01 -8.12c0.4,-0.23 0.98,-0.36 1.31,-0.46l4 -1.19c7.19,-2.27 7.47,-2.02 6.68,-10.63l-11.98 -0.77c-0.05,-6.91 0.41,-7.3 -1.4,-12.95 -4.68,-14.65 7.39,-26.06 -11.96,-21.99 -0.63,6.94 2.06,12.07 1.46,17.04 -0.8,6.71 -3.22,4.18 -2.9,16.29 -11.74,-1.42 -13.87,-6.42 -42.14,-6.41 2.49,-6.36 2.59,-3.93 1.44,-11.44l-15.62 0.68 2.07 10.74c-19.44,0.16 -25.74,3.29 -42.17,6.66 0,-1.97 0.19,-4.94 0.02,-6.79 -1.01,-11.37 -3.91,-2.22 -2.64,-13.66 0.77,-6.94 5.01,-13.78 -4.15,-14.04 -10.65,-0.31 -4.97,9.45 -5.04,16.48 -0.1,11.43 -2.96,-2.15 -2.85,19.1l-12.14 1.27c-1.02,8.51 0.62,8.37 6.96,10.43 4.23,1.37 0.57,-0.99 5.1,1.64l0.09 8.12c-0.4,0.19 -0.99,0.22 -1.29,0.3l-8.49 3.16z"/>
    </g>
    <g>
     <polygon class="fil0 str1" points="586.45,496.11 713.41,496.69 713.97,484.88 586.52,484.94 "/>
     <polygon id="1" class="fil9" points="586.45,496.11 713.41,496.69 713.97,484.88 586.52,484.94 "/>
    </g>
    <g>
     <path class="fil0 str1" d="M766.97 451.97l0 92.49 0.13 11.36c4.06,3 8.15,5.7 11.99,7.15l0.49 -12.02 -0.07 -107.38 -12.53 -0.28 -0.01 8.68z"/>
     <path id="1" class="fil9" d="M766.97 451.97l0 92.49 0.13 11.36c4.06,3 8.15,5.7 11.99,7.15l0.49 -12.02 -0.07 -107.38 -12.53 -0.28 -0.01 8.68z"/>
    </g>
    <g>
     <polygon class="fil0 str1" points="522.44,561.74 534.79,555.56 534.77,443.51 522.35,443.42 "/>
     <polygon id="1" class="fil9" points="522.44,561.74 534.79,555.56 534.77,443.51 522.35,443.42 "/>
    </g>
    <g>
     <path class="fil0 str1" d="M471.11 597.09c12.02,1.04 20.66,-13.36 20.74,-13.69 0.03,-11.9 -0.03,-23.8 0.03,-35.7 0.08,-13.54 0.22,-20.61 -10.44,-25.54 -12.9,5.03 -10.52,16.44 -10.46,32.03 0.06,14.24 -0.26,28.69 0.13,42.9z"/>
     <path id="1" class="fil9" d="M471.11 597.09c12.02,1.04 20.66,-13.36 20.74,-13.69 0.03,-11.9 -0.03,-23.8 0.03,-35.7 0.08,-13.54 0.22,-20.61 -10.44,-25.54 -12.9,5.03 -10.52,16.44 -10.46,32.03 0.06,14.24 -0.26,28.69 0.13,42.9z"/>
    </g>
    <g>
     <path class="fil0 str1" d="M508.32 570.97c5.6,-2.93 8.11,-3.52 10.73,-8.67l0 -119.04 -10.73 0.06 0 127.65z"/>
     <path id="1" class="fil9" d="M508.32 570.97c5.6,-2.93 8.11,-3.52 10.73,-8.67l0 -119.04 -10.73 0.06 0 127.65z"/>
    </g>
    <g>
     <polygon class="fil0 str1" points="601.79,801.87 698.01,801.81 698.06,789.19 602.57,788.96 "/>
     <polygon id="1" class="fil9" points="601.79,801.87 698.01,801.81 698.06,789.19 602.57,788.96 "/>
    </g>
    <g>
     <polygon class="fil0 str1" points="635.69,897.6 663.66,899 663.2,849.49 642.12,849.59 "/>
     <polygon id="1" class="fil9" points="635.69,897.6 663.66,899 663.2,849.49 642.12,849.59 "/>
    </g>
    <g>
     <path class="fil0 str1" d="M776.71 825.63l59.6 -0.17c-0.06,-27.01 -2.41,-20.15 -54.7,-20.16 -5.38,6.37 -4.82,12.35 -4.9,20.33z"/>
     <path id="1" class="fil9" d="M776.71 825.63l59.6 -0.17c-0.06,-27.01 -2.41,-20.15 -54.7,-20.16 -5.38,6.37 -4.82,12.35 -4.9,20.33z"/>
    </g>
    <g>
     <path class="fil0 str1" d="M463.81 825.15l59.62 0.4c-0.02,-3.99 0.29,-7.58 -0.48,-11.21 -0.17,-0.78 -1.04,-3.32 -1.66,-4.62l-2.53 -4.42 -48.68 0.01c-3.29,0.66 -4.5,4.35 -5.41,7.81 -1.13,4.26 -0.76,7.4 -0.86,12.03z"/>
     <path id="1" class="fil9" d="M463.81 825.15l59.62 0.4c-0.02,-3.99 0.29,-7.58 -0.48,-11.21 -0.17,-0.78 -1.04,-3.32 -1.66,-4.62l-2.53 -4.42 -48.68 0.01c-3.29,0.66 -4.5,4.35 -5.41,7.81 -1.13,4.26 -0.76,7.4 -0.86,12.03z"/>
    </g>
    <g>
     <path class="fil0 str1" d="M601.7 749l0.08 11.16c29.19,-5.29 39.83,-9.75 74.6,-5.26 9.21,1.18 14.66,4.09 21.94,5.24l-0.09 -10.76c-35.4,-12.17 -61.47,-7.85 -96.53,-0.38z"/>
     <path id="1" class="fil9" d="M601.7 749l0.08 11.16c29.19,-5.29 39.83,-9.75 74.6,-5.26 9.21,1.18 14.66,4.09 21.94,5.24l-0.09 -10.76c-35.4,-12.17 -61.47,-7.85 -96.53,-0.38z"/>
    </g>
    <g>
     <polygon class="fil0 str1" points="753.26,549.03 763.53,554.34 763.63,443.86 753.87,443.57 "/>
     <polygon id="1" class="fil9" points="753.26,549.03 763.53,554.34 763.63,443.86 753.87,443.57 "/>
    </g>
    <g>
     <polygon class="fil0 str1" points="672.63,898.99 694.41,899.01 694.47,849.48 672.58,849.52 "/>
     <polygon id="1" class="fil9" points="672.63,898.99 694.41,899.01 694.47,849.48 672.58,849.52 "/>
    </g>
    <g>
     <path class="fil0 str1" d="M602 726.59l-0.15 11.04c18.61,-4.52 26.61,-7.04 48.33,-7.04 34.36,0.02 31.46,4.51 48.04,6.81l-0.16 -10.51c-29.93,-11.27 -65.97,-8.73 -96.06,-0.3z"/>
     <path id="1" class="fil9" d="M602 726.59l-0.15 11.04c18.61,-4.52 26.61,-7.04 48.33,-7.04 34.36,0.02 31.46,4.51 48.04,6.81l-0.16 -10.51c-29.93,-11.27 -65.97,-8.73 -96.06,-0.3z"/>
    </g>
    <g>
     <polygon class="fil0 str1" points="605.83,897.78 627.65,898.02 627.54,849.38 605.8,850.34 "/>
     <polygon id="1" class="fil9" points="605.83,897.78 627.65,898.02 627.54,849.38 605.8,850.34 "/>
    </g>
    <g>
     <path class="fil0 str1" d="M713.97 825.14l53.76 0.44c-0.11,-11.33 0.4,-11.53 -3.97,-20.1l-49.74 0.17 -0.05 19.49z"/>
     <path id="1" class="fil9" d="M713.97 825.14l53.76 0.44c-0.11,-11.33 0.4,-11.53 -3.97,-20.1l-49.74 0.17 -0.05 19.49z"/>
    </g>
    <g>
     <polygon class="fil0 str1" points="776.72,846.14 836.31,846.1 836.19,829.28 777.16,828.85 "/>
     <polygon id="1" class="fil9" points="776.72,846.14 836.31,846.1 836.19,829.28 777.16,828.85 "/>
    </g>
    <g>
     <polygon class="fil0 str1" points="463.89,845.85 523.25,846.16 523.36,829.02 464.23,828.9 "/>
     <polygon id="1" class="fil9" points="463.89,845.85 523.25,846.16 523.36,829.02 464.23,828.9 "/>
    </g>
    <g>
     <path class="fil0 str1" d="M585.99 824.92l-0.04 -19.01 -49.34 -0.63c-3.12,6.08 -4.24,10.19 -4.25,19.37l53.63 0.27z"/>
     <path id="1" class="fil9" d="M585.99 824.92l-0.04 -19.01 -49.34 -0.63c-3.12,6.08 -4.24,10.19 -4.25,19.37l53.63 0.27z"/>
    </g>
    <g>
     <path class="fil0 str1" d="M577.42 722.93c12.67,8.95 34.76,-5.98 72.77,-5.98 37.91,0 65.99,16.88 72.91,4.36 -5.73,-5.3 -9.75,1.1 -35.29,-6.72 -40.38,-12.35 -84.63,4.11 -94.76,4.44 -19.14,0.61 -14.14,-2.98 -15.63,3.9z"/>
     <path id="1" class="fil9" d="M577.42 722.93c12.67,8.95 34.76,-5.98 72.77,-5.98 37.91,0 65.99,16.88 72.91,4.36 -5.73,-5.3 -9.75,1.1 -35.29,-6.72 -40.38,-12.35 -84.63,4.11 -94.76,4.44 -19.14,0.61 -14.14,-2.98 -15.63,3.9z"/>
    </g>
    <g>
     <polygon class="fil0 str1" points="590.61,880.21 599.54,880.03 599.52,774.01 590.62,774.49 "/>
     <polygon id="1" class="fil9" points="590.61,880.21 599.54,880.03 599.52,774.01 590.62,774.49 "/>
    </g>
    <g>
     <path class="fil0 str1" d="M577.4 741l0.23 5.54c15.91,5.06 43.37,-6.08 62.74,-6.73 26.96,-0.92 37.94,1.98 61.74,7.7l21.05 -0.98c-1.86,-8.31 1.31,-4.21 -16.22,-4.87 -17.1,-0.65 -15.02,-8.17 -55.1,-8.46 -48.62,-0.34 -42.92,11.48 -74.44,7.8z"/>
     <path id="1" class="fil9" d="M577.4 741l0.23 5.54c15.91,5.06 43.37,-6.08 62.74,-6.73 26.96,-0.92 37.94,1.98 61.74,7.7l21.05 -0.98c-1.86,-8.31 1.31,-4.21 -16.22,-4.87 -17.1,-0.65 -15.02,-8.17 -55.1,-8.46 -48.62,-0.34 -42.92,11.48 -74.44,7.8z"/>
    </g>
    <g>
     <polygon class="fil0 str1" points="709.4,880 709.35,774.31 700.71,773.47 700.67,880.39 "/>
     <polygon id="1" class="fil9" points="709.4,880 709.35,774.31 700.71,773.47 700.67,880.39 "/>
    </g>
    <g>
     <path class="fil0 str1" d="M577.37 763.54c-0.44,5.91 -0.78,4.87 3.45,6.14l14.03 0.11c15.2,-0.8 41.35,-13.01 82.51,-5.76 9.3,1.64 17.27,5.12 27.22,5.45l15.53 -0.68c3.03,-1.24 1.94,2.54 2.99,-4.09 -9.58,-2.61 -19.98,-0.22 -35.03,-4.96 -17.07,-5.37 -56.28,-5.25 -73.22,-0.79 -15.69,4.13 -18.11,6.56 -37.48,4.58z"/>
     <path id="1" class="fil9" d="M577.37 763.54c-0.44,5.91 -0.78,4.87 3.45,6.14l14.03 0.11c15.2,-0.8 41.35,-13.01 82.51,-5.76 9.3,1.64 17.27,5.12 27.22,5.45l15.53 -0.68c3.03,-1.24 1.94,2.54 2.99,-4.09 -9.58,-2.61 -19.98,-0.22 -35.03,-4.96 -17.07,-5.37 -56.28,-5.25 -73.22,-0.79 -15.69,4.13 -18.11,6.56 -37.48,4.58z"/>
    </g>
    <g>
     <polygon class="fil0 str1" points="714.27,845.78 767.47,846.19 767.54,828.8 714.62,829.19 "/>
     <polygon id="1" class="fil9" points="714.27,845.78 767.47,846.19 767.54,828.8 714.62,829.19 "/>
    </g>
    <g>
     <polygon class="fil0 str1" points="585.74,845.57 585.35,829.42 532.55,828.96 532.35,845.45 "/>
     <polygon id="1" class="fil9" points="585.74,845.57 585.35,829.42 532.55,828.96 532.35,845.45 "/>
    </g>
    <g>
     <path class="fil0 str1" d="M411.36 825.54l43.55 -0.12c0.04,-10.31 0.31,-9.78 -3.75,-18.87 -0.12,-0.29 -0.33,-0.84 -0.55,-1.23 -36.42,-0.02 -39.23,-5.93 -39.25,20.22z"/>
     <path id="1" class="fil9" d="M411.36 825.54l43.55 -0.12c0.04,-10.31 0.31,-9.78 -3.75,-18.87 -0.12,-0.29 -0.33,-0.84 -0.55,-1.23 -36.42,-0.02 -39.23,-5.93 -39.25,20.22z"/>
    </g>
    <g>
     <path class="fil0 str1" d="M845.31 825.08l43.39 0.52c-0.04,-18.25 -2.04,-11 -2.54,-20.33l-34.78 0.04c-3.07,0.67 -4.38,4.56 -5.29,7.92 -1.17,4.32 -0.8,7.14 -0.78,11.85z"/>
     <path id="1" class="fil9" d="M845.31 825.08l43.39 0.52c-0.04,-18.25 -2.04,-11 -2.54,-20.33l-34.78 0.04c-3.07,0.67 -4.38,4.56 -5.29,7.92 -1.17,4.32 -0.8,7.14 -0.78,11.85z"/>
    </g>
    <g>
     <path class="fil0 str1" d="M899.47 845.78l-0.15 -15.77 18.58 0 0.58 15.66c8.57,1.74 3.47,1.75 12.14,-0.12l0.25 -16.12c-6.85,0.99 -3.35,1.66 -2.4,-2.44 2.11,-9.09 -5.27,0.74 1.81,-2.22l0.3 -11.98 -12.33 -0.02 0.38 11.61 -19.6 -0.04 0.54 -11.77 -8.59 0.3c-1.86,9.06 -2.59,26.83 0.96,34 0.22,-0.05 6.89,-0.97 7.53,-1.09z"/>
     <path id="1" class="fil9" d="M899.47 845.78l-0.15 -15.77 18.58 0 0.58 15.66c8.57,1.74 3.47,1.75 12.14,-0.12l0.25 -16.12c-6.85,0.99 -3.35,1.66 -2.4,-2.44 2.11,-9.09 -5.27,0.74 1.81,-2.22l0.3 -11.98 -12.33 -0.02 0.38 11.61 -19.6 -0.04 0.54 -11.77 -8.59 0.3c-1.86,9.06 -2.59,26.83 0.96,34 0.22,-0.05 6.89,-0.97 7.53,-1.09z"/>
    </g>
    <g>
     <path class="fil0 str1" d="M458.73 439.72l45.38 0.2c2.41,-3.61 6.46,-9.67 8.15,-14.51l-61.87 -0.02c2.29,5.53 4.23,9.69 8.34,14.33z"/>
     <path id="1" class="fil9" d="M458.73 439.72l45.38 0.2c2.41,-3.61 6.46,-9.67 8.15,-14.51l-61.87 -0.02c2.29,5.53 4.23,9.69 8.34,14.33z"/>
    </g>
    <g>
     <polygon class="fil0 str1" points="702.63,439.8 748.9,439.94 757.15,425.85 695.08,425.38 "/>
     <polygon id="1" class="fil9" points="702.63,439.8 748.9,439.94 757.15,425.85 695.08,425.38 "/>
    </g>
    <g>
     <path class="fil0 str1" d="M476.64 472.61c-18.26,6.01 -11.61,36.22 9.69,29.53 18.39,-5.77 11.03,-36.35 -9.69,-29.53z"/>
     <path id="1" class="fil9" d="M476.64 472.61c-18.26,6.01 -11.61,36.22 9.69,29.53 18.39,-5.77 11.03,-36.35 -9.69,-29.53z"/>
    </g>
    <g>
     <polygon class="fil0 str1" points="845.34,845.78 888.6,846.19 888.56,828.9 845.45,828.93 "/>
     <polygon id="1" class="fil9" points="845.34,845.78 888.6,846.19 888.56,828.9 845.45,828.93 "/>
    </g>
    <g>
     <polygon class="fil0 str1" points="411.36,846.15 454.88,846.07 454.88,829.34 411.81,828.85 "/>
     <polygon id="1" class="fil9" points="411.36,846.15 454.88,846.07 454.88,829.34 411.81,828.85 "/>
    </g>
    <g>
     <path class="fil0 str1" d="M723.25 171.03c-11.85,0.28 -15.09,-1.13 -19.88,1.87 2.33,4.31 -0.55,2.96 8.27,3.14 3.84,0.08 7.88,-0.17 11.88,-0.08l-0.02 39.24c-0.07,6.99 -1.71,8.8 2.94,10.67 4.17,-4.91 1.82,-42.58 1.97,-49.5 15.2,-1.9 17.68,2.83 20.16,-3.47 -4.08,-3.11 -13.67,-1.51 -19.97,-2.2 -0.23,-3.34 -0.02,-6.1 -0.16,-9.21l-2 -8.75c-5.65,3.6 -1.5,-3.29 -3.19,18.29z"/>
     <path id="1" class="fil9" d="M723.25 171.03c-11.85,0.28 -15.09,-1.13 -19.88,1.87 2.33,4.31 -0.55,2.96 8.27,3.14 3.84,0.08 7.88,-0.17 11.88,-0.08l-0.02 39.24c-0.07,6.99 -1.71,8.8 2.94,10.67 4.17,-4.91 1.82,-42.58 1.97,-49.5 15.2,-1.9 17.68,2.83 20.16,-3.47 -4.08,-3.11 -13.67,-1.51 -19.97,-2.2 -0.23,-3.34 -0.02,-6.1 -0.16,-9.21l-2 -8.75c-5.65,3.6 -1.5,-3.29 -3.19,18.29z"/>
    </g>
    <g>
     <path class="fil0 str1" d="M478.63 171.15l-19.97 0c0.94,6.41 -1.35,4.79 8.01,4.89 5.95,0.07 6.41,-0.96 12.22,1 0.07,8.76 -2.49,41.9 2.55,49.01 0.96,-1.59 1.14,-1.16 1.84,-4.44l0.42 -44.92c14.36,-3.06 17,3.18 20.24,-3.79 -2.24,-1.6 0.58,-0.69 -3.34,-1.45 -4.85,-0.94 -9.84,0.35 -16.72,-1.03l-0.62 -13.64c-0.89,-3.57 -0.43,-2.01 -1.82,-4.04 -5.18,4.18 -2,1.63 -2.81,18.41z"/>
     <path id="1" class="fil9" d="M478.63 171.15l-19.97 0c0.94,6.41 -1.35,4.79 8.01,4.89 5.95,0.07 6.41,-0.96 12.22,1 0.07,8.76 -2.49,41.9 2.55,49.01 0.96,-1.59 1.14,-1.16 1.84,-4.44l0.42 -44.92c14.36,-3.06 17,3.18 20.24,-3.79 -2.24,-1.6 0.58,-0.69 -3.34,-1.45 -4.85,-0.94 -9.84,0.35 -16.72,-1.03l-0.62 -13.64c-0.89,-3.57 -0.43,-2.01 -1.82,-4.04 -5.18,4.18 -2,1.63 -2.81,18.41z"/>
    </g>
    <g>
     <path class="fil0 str1" d="M602.3 785.12l95.6 0.17c0.2,-1.93 0.69,-5.62 0.48,-7.23 0,-0.05 1.8,-8.07 -7.63,-5.72 -5,1.24 -1.95,5.42 -4.87,10.44l-14.6 0.13 -3.09 -0.1c-11.88,0.39 -24.21,0.25 -36.03,0.09l-0.1 -10.3c-0.17,0.42 -0.37,0.62 -0.44,1.34l-2.53 8.71 -16.02 0.28 -1.83 -10.53 -8.11 -0.05c-0.19,0.48 -0.42,0.66 -0.47,1.41l-0.91 4.36c-0.21,2.86 0.11,4.37 0.55,7z"/>
     <path id="1" class="fil9" d="M602.3 785.12l95.6 0.17c0.2,-1.93 0.69,-5.62 0.48,-7.23 0,-0.05 1.8,-8.07 -7.63,-5.72 -5,1.24 -1.95,5.42 -4.87,10.44l-14.6 0.13 -3.09 -0.1c-11.88,0.39 -24.21,0.25 -36.03,0.09l-0.1 -10.3c-0.17,0.42 -0.37,0.62 -0.44,1.34l-2.53 8.71 -16.02 0.28 -1.83 -10.53 -8.11 -0.05c-0.19,0.48 -0.42,0.66 -0.47,1.41l-0.91 4.36c-0.21,2.86 0.11,4.37 0.55,7z"/>
    </g>
    <g>
     <polygon class="fil0 str1" points="673.1,443.62 672.36,481.43 684.99,481.04 684.75,443.62 "/>
     <polygon id="1" class="fil9" points="673.1,443.62 672.36,481.43 684.99,481.04 684.75,443.62 "/>
    </g>
    <g>
     <path class="fil0 str1" d="M702.23 452.93c5.27,-3.56 6.05,-2.78 9.01,-1.99l2.01 7.61c-1.24,-3.23 11.16,-18.9 11.61,0.06 0.27,-0.33 0.58,-1.34 0.69,-1.09 0.31,0.78 0.89,-3.94 5.76,-7.8 5.06,1.96 2.03,-0.52 5.48,4.58l1.18 2.1c0.18,0.28 0.53,0.83 0.68,1.06 0.14,0.24 0.42,0.75 0.7,1.07l1.01 -8.39 9.33 0.21 0.07 -6.94 -47.63 -0.1 0.1 9.62z"/>
     <path id="1" class="fil9" d="M702.23 452.93c5.27,-3.56 6.05,-2.78 9.01,-1.99l2.01 7.61c-1.24,-3.23 11.16,-18.9 11.61,0.06 0.27,-0.33 0.58,-1.34 0.69,-1.09 0.31,0.78 0.89,-3.94 5.76,-7.8 5.06,1.96 2.03,-0.52 5.48,4.58l1.18 2.1c0.18,0.28 0.53,0.83 0.68,1.06 0.14,0.24 0.42,0.75 0.7,1.07l1.01 -8.39 9.33 0.21 0.07 -6.94 -47.63 -0.1 0.1 9.62z"/>
    </g>
    <g>
     <path class="fil0 str1" d="M380.39 825.6l21.81 -0.07c-0.01,-8.17 0.49,-16.07 -5.13,-20.25l-12.98 0.1c-4.02,9.23 -3.81,8.61 -3.7,20.22z"/>
     <path id="1" class="fil9" d="M380.39 825.6l21.81 -0.07c-0.01,-8.17 0.49,-16.07 -5.13,-20.25l-12.98 0.1c-4.02,9.23 -3.81,8.61 -3.7,20.22z"/>
    </g>
    <g>
     <path class="fil0 str1" d="M457.59 453.62c2.99,-5.35 0.8,-3.58 7.63,-3.41 2.01,2.46 1.32,1.92 2.48,4.01l1.81 3.35c0.14,0.25 0.39,0.78 0.65,1.13 0.42,-11.41 6.65,-12 10.53,-2.73l2.82 -6.05c8.18,0.4 8.56,1 8.95,8.75l3.45 -8.24c10.41,-0.87 5.9,3.31 9.19,-3.32 -2.69,-5.67 3.17,-3.84 -22.04,-3.81 -8.1,0.01 -16.26,-0.21 -24.33,0.23l-1.14 10.09z"/>
     <path id="1" class="fil9" d="M457.59 453.62c2.99,-5.35 0.8,-3.58 7.63,-3.41 2.01,2.46 1.32,1.92 2.48,4.01l1.81 3.35c0.14,0.25 0.39,0.78 0.65,1.13 0.42,-11.41 6.65,-12 10.53,-2.73l2.82 -6.05c8.18,0.4 8.56,1 8.95,8.75l3.45 -8.24c10.41,-0.87 5.9,3.31 9.19,-3.32 -2.69,-5.67 3.17,-3.84 -22.04,-3.81 -8.1,0.01 -16.26,-0.21 -24.33,0.23l-1.14 10.09z"/>
    </g>
    <g>
     <polygon class="fil0 str1" points="688.45,480.54 698.93,481.57 698.82,443.86 689.04,443.63 "/>
     <polygon id="1" class="fil9" points="688.45,480.54 698.93,481.57 698.82,443.86 689.04,443.63 "/>
    </g>
    <g>
     <path class="fil0 str1" d="M462.85 546.75l4.24 -0.23c1.7,-19.8 -1.74,-16.67 11.9,-28.2 16.48,2.12 15.2,11.85 16.66,28.23l4.16 0.12c2.56,-17.77 -7.28,-30.66 -18.37,-35.43 -10.73,4.63 -21.99,17.27 -18.59,35.51z"/>
     <path id="1" class="fil9" d="M462.85 546.75l4.24 -0.23c1.7,-19.8 -1.74,-16.67 11.9,-28.2 16.48,2.12 15.2,11.85 16.66,28.23l4.16 0.12c2.56,-17.77 -7.28,-30.66 -18.37,-35.43 -10.73,4.63 -21.99,17.27 -18.59,35.51z"/>
    </g>
    <g>
     <polygon class="fil0 str1" points="380.33,846.17 402.05,846.16 402.1,828.83 380.84,828.88 "/>
     <polygon id="1" class="fil9" points="380.33,846.17 402.05,846.16 402.1,828.83 380.84,828.88 "/>
    </g>
    <g>
     <path class="fil0 str1" d="M504.16 421.92l3.24 0c2.87,-12.58 -6.36,-29.99 10.41,-28.75 2.9,8.27 -0.07,22.98 2.57,28.81 5.45,-1.19 3.96,-0.22 4.01,-8.82 0.06,-11.24 1.19,-15.56 -4.45,-22.44 -2.93,-3.59 -3.26,-4.52 -6.05,-7.87 -8.65,5.86 -14.16,24.59 -9.73,39.07z"/>
     <path id="1" class="fil9" d="M504.16 421.92l3.24 0c2.87,-12.58 -6.36,-29.99 10.41,-28.75 2.9,8.27 -0.07,22.98 2.57,28.81 5.45,-1.19 3.96,-0.22 4.01,-8.82 0.06,-11.24 1.19,-15.56 -4.45,-22.44 -2.93,-3.59 -3.26,-4.52 -6.05,-7.87 -8.65,5.86 -14.16,24.59 -9.73,39.07z"/>
    </g>
    <g>
     <path class="fil0 str1" d="M439.26 421.91l3.24 0.05c4.9,-16.7 -7.64,-29.83 10.54,-29 3.22,9.27 -0.11,22.31 2.44,28.97 5.6,-1.07 4.11,0.14 4.15,-8.77 0.05,-13.3 -0.09,-20.45 -10.64,-30.34 -2.8,2.33 -9.34,11.22 -10.06,14.82 -0.76,3.82 -0.55,20.76 0.33,24.27z"/>
     <path id="1" class="fil9" d="M439.26 421.91l3.24 0.05c4.9,-16.7 -7.64,-29.83 10.54,-29 3.22,9.27 -0.11,22.31 2.44,28.97 5.6,-1.07 4.11,0.14 4.15,-8.77 0.05,-13.3 -0.09,-20.45 -10.64,-30.34 -2.8,2.33 -9.34,11.22 -10.06,14.82 -0.76,3.82 -0.55,20.76 0.33,24.27z"/>
    </g>
    <g>
     <path class="fil0 str1" d="M684.26 421.9c4.66,-1.02 3.8,4.38 3.66,-17.07 -0.07,-9.02 -0.02,-12.7 9.87,-11.62 4.76,13.38 -2.61,25.92 4.31,28.87 3.24,-3.92 2.72,-17.35 1.6,-23.54 -0.79,-4.35 -7.31,-12.62 -9.63,-15.92 -12.18,9.36 -13.24,30.64 -9.81,39.28z"/>
     <path id="1" class="fil9" d="M684.26 421.9c4.66,-1.02 3.8,4.38 3.66,-17.07 -0.07,-9.02 -0.02,-12.7 9.87,-11.62 4.76,13.38 -2.61,25.92 4.31,28.87 3.24,-3.92 2.72,-17.35 1.6,-23.54 -0.79,-4.35 -7.31,-12.62 -9.63,-15.92 -12.18,9.36 -13.24,30.64 -9.81,39.28z"/>
    </g>
    <g>
     <path class="fil0 str1" d="M748.2 403.3l0.37 18.66c6.52,-1.44 4.11,-0.94 4.19,-18.66 0.1,-8.11 1.11,-11.14 9.78,-9.98 2.6,7.22 -1.08,21.91 2.84,28.71 4.92,-1.47 3.4,-1.03 3.41,-8.87 0.05,-21.96 0.22,-13.85 -9.88,-30.56 -4.72,5.11 -10.75,11.27 -10.71,20.7z"/>
     <path id="1" class="fil9" d="M748.2 403.3l0.37 18.66c6.52,-1.44 4.11,-0.94 4.19,-18.66 0.1,-8.11 1.11,-11.14 9.78,-9.98 2.6,7.22 -1.08,21.91 2.84,28.71 4.92,-1.47 3.4,-1.03 3.41,-8.87 0.05,-21.96 0.22,-13.85 -9.88,-30.56 -4.72,5.11 -10.75,11.27 -10.71,20.7z"/>
    </g>
    <g>
     <path class="fil0 str1" d="M899.57 812.57l-0.54 11.77 19.6 0.04 -0.38 -11.61 -1.62 -7.19 -13.33 -0.35c-4.27,2.88 -1.7,-0.38 -3.73,7.34z"/>
     <path id="1" class="fil9" d="M899.57 812.57l-0.54 11.77 19.6 0.04 -0.38 -11.61 -1.62 -7.19 -13.33 -0.35c-4.27,2.88 -1.7,-0.38 -3.73,7.34z"/>
    </g>
    <g>
     <path class="fil0 str1" d="M635.84 836.35c-2.82,-1.65 -3.2,-1.44 -4.25,-3.73l-0.62 13.39c7.2,-0.89 17.23,-18.18 29.78,-5.42 3.91,3.97 2.49,5.11 8.29,5.2l-0.06 -13.29c-1.63,2.73 -2.92,2.93 -4.53,3.13l-1.98 -1.46c-8.38,-5.73 -9.53,-3.01 -10.75,-7.73 -2.04,-7.9 -2.26,-0.49 2.03,-6.24l-7.32 -0.11c2.59,3.69 2.29,0.74 2.11,5.02 -0.24,5.87 -5.91,4.42 -12.7,11.24z"/>
     <path id="1" class="fil9" d="M635.84 836.35c-2.82,-1.65 -3.2,-1.44 -4.25,-3.73l-0.62 13.39c7.2,-0.89 17.23,-18.18 29.78,-5.42 3.91,3.97 2.49,5.11 8.29,5.2l-0.06 -13.29c-1.63,2.73 -2.92,2.93 -4.53,3.13l-1.98 -1.46c-8.38,-5.73 -9.53,-3.01 -10.75,-7.73 -2.04,-7.9 -2.26,-0.49 2.03,-6.24l-7.32 -0.11c2.59,3.69 2.29,0.74 2.11,5.02 -0.24,5.87 -5.91,4.42 -12.7,11.24z"/>
    </g>
    <g>
     <path class="fil0 str1" d="M710.22 535.24l3.27 -5.32c9.1,-18.75 21.58,-10.03 25,-0.69 3.62,9.91 -2.58,13.72 5.8,16.41 4.52,-16.14 -8.58,-29.4 -17.85,-34.4 -9.5,3.31 -17.32,13.71 -17.73,18.91 -0.4,5.05 -0.54,2.05 1.51,5.09z"/>
     <path id="1" class="fil9" d="M710.22 535.24l3.27 -5.32c9.1,-18.75 21.58,-10.03 25,-0.69 3.62,9.91 -2.58,13.72 5.8,16.41 4.52,-16.14 -8.58,-29.4 -17.85,-34.4 -9.5,3.31 -17.32,13.71 -17.73,18.91 -0.4,5.05 -0.54,2.05 1.51,5.09z"/>
    </g>
    <g>
     <polygon class="fil0 str1" points="899.47,845.78 918.48,845.67 917.9,830.01 899.32,830.01 "/>
     <polygon id="1" class="fil9" points="899.47,845.78 918.48,845.67 917.9,830.01 899.32,830.01 "/>
    </g>
    <g>
     <path class="fil0 str1" d="M715.47 536.55l20.83 6.06c0.53,-11.23 -2.57,-16.04 -9.86,-20.44 -7.29,2.16 -9.31,5.4 -10.97,14.38z"/>
     <path id="1" class="fil9" d="M715.47 536.55l20.83 6.06c0.53,-11.23 -2.57,-16.04 -9.86,-20.44 -7.29,2.16 -9.31,5.4 -10.97,14.38z"/>
    </g>
    <g>
     <path class="fil0 str1" d="M672.69 439.88l11.48 0.04c2.98,-3.82 6.19,-9.43 7.92,-14.51l-19.73 -0.05 0.33 14.52z"/>
     <path id="1" class="fil9" d="M672.69 439.88l11.48 0.04c2.98,-3.82 6.19,-9.43 7.92,-14.51l-19.73 -0.05 0.33 14.52z"/>
    </g>
    <g>
     <polygon class="fil0 str1" points="427.95,439.9 439.38,439.89 447.81,425.56 427.62,425.43 "/>
     <polygon id="1" class="fil9" points="427.95,439.9 439.38,439.89 447.81,425.56 427.62,425.43 "/>
    </g>
    <g>
     <polygon class="fil0 str1" points="522.77,439.72 534.31,439.88 534.93,425.55 515.1,425.39 "/>
     <polygon id="1" class="fil9" points="522.77,439.72 534.31,439.88 534.93,425.55 515.1,425.39 "/>
    </g>
    <g>
     <polygon class="fil0 str1" points="767.52,439.86 779.18,439.86 779.29,425.68 759.9,425.61 "/>
     <polygon id="1" class="fil9" points="767.52,439.86 779.18,439.86 779.29,425.68 759.9,425.61 "/>
    </g>
    <g>
     <path class="fil0 str1" d="M771.87 846.36c4.11,-2.52 2.88,2.15 2.73,-16.34 -0.05,-6.36 2.17,-14.89 -2.73,-17.15 -3.17,3.63 -2.08,9.63 -2.07,15.53 0.01,3.17 -0.15,6.76 -0.08,9.83 0.18,7.47 0.5,5.89 2.15,8.13z"/>
     <path id="1" class="fil9" d="M771.87 846.36c4.11,-2.52 2.88,2.15 2.73,-16.34 -0.05,-6.36 2.17,-14.89 -2.73,-17.15 -3.17,3.63 -2.08,9.63 -2.07,15.53 0.01,3.17 -0.15,6.76 -0.08,9.83 0.18,7.47 0.5,5.89 2.15,8.13z"/>
    </g>
    <g>
     <path class="fil0 str1" d="M528.49 846.33c3.36,-4.9 2.65,-30.19 0,-33.42 -5.03,1.96 -2.9,9.04 -2.88,15.49 0.06,17.11 -2.18,15.21 2.88,17.93z"/>
     <path id="1" class="fil9" d="M528.49 846.33c3.36,-4.9 2.65,-30.19 0,-33.42 -5.03,1.96 -2.9,9.04 -2.88,15.49 0.06,17.11 -2.18,15.21 2.88,17.93z"/>
    </g>
    <g>
     <path class="fil0 str1" d="M840.02 846.09c3.94,-1.7 3.04,4.32 3.01,-16.07 -0.02,-17.39 1.81,-15.37 -3.01,-16.97 -2.56,3.83 -2.65,28.38 0,33.04z"/>
     <path id="1" class="fil9" d="M840.02 846.09c3.94,-1.7 3.04,4.32 3.01,-16.07 -0.02,-17.39 1.81,-15.37 -3.01,-16.97 -2.56,3.83 -2.65,28.38 0,33.04z"/>
    </g>
    <g>
     <path class="fil0 str1" d="M458.73 846.18c3.69,-1.82 2.64,2.29 3.04,-6.25 0.25,-5.44 0.46,-23.69 -1.42,-26.87 -5.09,1.54 -3.46,14.41 -3.27,25.18l1.65 7.94z"/>
     <path id="1" class="fil9" d="M458.73 846.18c3.69,-1.82 2.64,2.29 3.04,-6.25 0.25,-5.44 0.46,-23.69 -1.42,-26.87 -5.09,1.54 -3.46,14.41 -3.27,25.18l1.65 7.94z"/>
    </g>
    <g>
     <path class="fil0 str1" d="M685.42 386.26c4.95,-3.9 2.81,-4.22 8.57,-8.9 3.24,3.57 4.71,6.43 7.51,9.69l-7.32 -27.52 -8.76 26.73z"/>
     <path id="1" class="fil9" d="M685.42 386.26c4.95,-3.9 2.81,-4.22 8.57,-8.9 3.24,3.57 4.71,6.43 7.51,9.69l-7.32 -27.52 -8.76 26.73z"/>
    </g>
    <g>
     <path class="fil0 str1" d="M608 846.29c3.42,-4.81 2.65,-30.21 0,-33.35 -5.42,2.03 -2.34,12.19 -2.32,25.32 0.01,7.08 -1.34,5.4 2.32,8.03z"/>
     <path id="1" class="fil9" d="M608 846.29c3.42,-4.81 2.65,-30.21 0,-33.35 -5.42,2.03 -2.34,12.19 -2.32,25.32 0.01,7.08 -1.34,5.4 2.32,8.03z"/>
    </g>
    <g>
     <path class="fil0 str1" d="M750.47 386.29c4.83,-4.5 2.66,-5.11 8.42,-8.82 3.54,4.37 4.05,5.97 7.5,9.63l-7.42 -27.66 -8.5 26.85z"/>
     <path id="1" class="fil9" d="M750.47 386.29c4.83,-4.5 2.66,-5.11 8.42,-8.82 3.54,4.37 4.05,5.97 7.5,9.63l-7.42 -27.66 -8.5 26.85z"/>
    </g>
    <g>
     <path class="fil0 str1" d="M505.55 386.61c2.88,-2.32 2.18,-1.84 3.76,-3.99l4.58 -5.32 7.57 9.93 -7.23 -27.24 -8.68 26.62z"/>
     <path id="1" class="fil9" d="M505.55 386.61c2.88,-2.32 2.18,-1.84 3.76,-3.99l4.58 -5.32 7.57 9.93 -7.23 -27.24 -8.68 26.62z"/>
    </g>
    <g>
     <path class="fil0 str1" d="M440.85 386.76c2.38,-3.25 4.73,-6.92 8.14,-9.47 3.34,2.75 5.69,6.57 7.8,9.68l-7.29 -27.09 -8.65 26.88z"/>
     <path id="1" class="fil9" d="M440.85 386.76c2.38,-3.25 4.73,-6.92 8.14,-9.47 3.34,2.75 5.69,6.57 7.8,9.68l-7.29 -27.09 -8.65 26.88z"/>
    </g>
    <g>
     <path class="fil0 str1" d="M756.16 408.16c0,14.67 -1.55,12.08 2.73,14 3.19,-3.97 3.62,-21.28 0,-25.93 -4.44,2.27 -2.72,4.84 -2.73,11.93z"/>
     <path id="1" class="fil9" d="M756.16 408.16c0,14.67 -1.55,12.08 2.73,14 3.19,-3.97 3.62,-21.28 0,-25.93 -4.44,2.27 -2.72,4.84 -2.73,11.93z"/>
    </g>
    <g>
     <path class="fil0 str1" d="M364 846.23l5.49 -0.12c2.78,-4.37 1.74,-12.01 1.27,-17.23l-6.35 0.01 -0.41 17.34z"/>
     <path id="1" class="fil9" d="M364 846.23l5.49 -0.12c2.78,-4.37 1.74,-12.01 1.27,-17.23l-6.35 0.01 -0.41 17.34z"/>
    </g>
    <g>
     <path class="fil0 str1" d="M511.74 421.76l3.77 0.27c1.18,-7.47 2.22,-23.2 -2.73,-25.96 -2.65,5.77 -1.59,17.93 -1.04,25.69z"/>
     <path id="1" class="fil9" d="M511.74 421.76l3.77 0.27c1.18,-7.47 2.22,-23.2 -2.73,-25.96 -2.65,5.77 -1.59,17.93 -1.04,25.69z"/>
    </g>
    <g>
     <polygon class="fil0 str1" points="710.36,761.63 710.45,750.59 699.79,749.81 701.2,761.23 "/>
     <polygon id="1" class="fil9" points="710.36,761.63 710.45,750.59 699.79,749.81 701.2,761.23 "/>
    </g>
    <g>
     <path class="fil0 str1" d="M446.91 421.65l3.69 0.45c0.36,-6.14 2.94,-23.36 -2.58,-25.98 -2.56,5.98 -1.53,17.67 -1.11,25.53z"/>
     <path id="1" class="fil9" d="M446.91 421.65l3.69 0.45c0.36,-6.14 2.94,-23.36 -2.58,-25.98 -2.56,5.98 -1.53,17.67 -1.11,25.53z"/>
    </g>
    <g>
     <path class="fil0 str1" d="M691.42 409.79l0.38 12.25c4.18,-1.03 4.29,4.05 4.21,-12.24 -0.03,-5.27 1.06,-9.97 -2.02,-13.55 -4.2,2.8 -2.54,6.52 -2.57,13.54z"/>
     <path id="1" class="fil9" d="M691.42 409.79l0.38 12.25c4.18,-1.03 4.29,4.05 4.21,-12.24 -0.03,-5.27 1.06,-9.97 -2.02,-13.55 -4.2,2.8 -2.54,6.52 -2.57,13.54z"/>
    </g>
    <g>
     <path class="fil0 str1" d="M589.5 716.54l9.44 -0.88 0.24 -10.68c-5.02,-2.31 -2.39,-1.85 -8.54,-0.94l-1.14 12.5z"/>
     <path id="1" class="fil9" d="M589.5 716.54l9.44 -0.88 0.24 -10.68c-5.02,-2.31 -2.39,-1.85 -8.54,-0.94l-1.14 12.5z"/>
    </g>
    <g>
     <polygon class="fil0 str1" points="701.61,703.8 701.03,715.62 710.46,716.68 710.01,704.25 "/>
     <polygon id="1" class="fil9" points="701.61,703.8 701.03,715.62 710.46,716.68 710.01,704.25 "/>
    </g>
    <g>
     <polygon class="fil0 str1" points="589.59,761.88 598.47,761.06 599.56,750.04 589.59,750.44 "/>
     <polygon id="1" class="fil9" points="589.59,761.88 598.47,761.06 599.56,750.04 589.59,750.44 "/>
    </g>
    <g>
     <polygon class="fil0 str1" points="589.77,739.3 599.04,738.15 599.36,727.39 589.71,727.93 "/>
     <polygon id="1" class="fil9" points="589.77,739.3 599.04,738.15 599.36,727.39 589.71,727.93 "/>
    </g>
    <g>
     <polygon class="fil0 str1" points="701.4,738.47 710.51,739.09 710.37,728.06 700.77,727.2 "/>
     <polygon id="1" class="fil9" points="701.4,738.47 710.51,739.09 710.37,728.06 700.77,727.2 "/>
    </g>
    <g>
     <path class="fil0 str1" d="M639.24 846l21.64 0.06c-6.05,-8.39 -16.19,-9.37 -21.64,-0.06z"/>
     <path id="1" class="fil9" d="M639.24 846l21.64 0.06c-6.05,-8.39 -16.19,-9.37 -21.64,-0.06z"/>
    </g>
    <g>
     <polygon class="fil0 str1" points="930.62,845.55 936.04,846.31 936.03,828.85 930.87,829.43 "/>
     <polygon id="1" class="fil9" points="930.62,845.55 936.04,846.31 936.03,828.85 930.87,829.43 "/>
    </g>
    <g>
     <path class="fil0 str1" d="M703.7 683.16c-2.65,5.24 -0.49,12.95 1.65,16.17 2.48,-2.52 1.75,-1.4 2.74,-5.92 2.2,-9.99 0.07,-8.67 -0.81,-10.05l-3.58 -0.2z"/>
     <path id="1" class="fil9" d="M703.7 683.16c-2.65,5.24 -0.49,12.95 1.65,16.17 2.48,-2.52 1.75,-1.4 2.74,-5.92 2.2,-9.99 0.07,-8.67 -0.81,-10.05l-3.58 -0.2z"/>
    </g>
    <g>
     <path class="fil0 str1" d="M671.93 778.1c2.61,2.98 -1.71,2.48 5.86,2.98 7.24,0.47 5.22,-0.39 7.38,-2.98 -2.16,-3.27 3.2,-2.8 -5.76,-3.42 -9.99,-0.7 -6.28,2.53 -7.48,3.42z"/>
     <path id="1" class="fil9" d="M671.93 778.1c2.61,2.98 -1.71,2.48 5.86,2.98 7.24,0.47 5.22,-0.39 7.38,-2.98 -2.16,-3.27 3.2,-2.8 -5.76,-3.42 -9.99,-0.7 -6.28,2.53 -7.48,3.42z"/>
    </g>
    <g>
     <path class="fil0 str1" d="M646.49 699.02c-1.08,2.77 -2.28,1.16 0.46,9.17l6.81 -0.72c0.68,-1.92 2.8,-2.05 -0.08,-7.72l-7.19 -0.73z"/>
     <path id="1" class="fil9" d="M646.49 699.02c-1.08,2.77 -2.28,1.16 0.46,9.17l6.81 -0.72c0.68,-1.92 2.8,-2.05 -0.08,-7.72l-7.19 -0.73z"/>
    </g>
    <g>
     <path class="fil0 str1" d="M397.45 779.74l-0.37 -3.27 -20.92 0.01c-0.16,5.9 15.58,3.25 21.29,3.26z"/>
     <path id="1" class="fil9" d="M397.45 779.74l-0.37 -3.27 -20.92 0.01c-0.16,5.9 15.58,3.25 21.29,3.26z"/>
    </g>
    <g>
     <path class="fil0 str1" d="M653.39 776.48c0.02,0.09 -1.27,9.38 12.36,3.24l0.16 -4.39c-6.05,-0.53 -8.25,-1.19 -12.52,1.15z"/>
     <path id="1" class="fil9" d="M653.39 776.48c0.02,0.09 -1.27,9.38 12.36,3.24l0.16 -4.39c-6.05,-0.53 -8.25,-1.19 -12.52,1.15z"/>
    </g>
    <g>
     <path class="fil0 str1" d="M901.67 779.73l21.1 0 0 -3.26c-4.94,0 -9.86,-0.03 -14.79,-0.06 -6.48,-0.05 -6.81,-1.7 -6.31,3.32z"/>
     <path id="1" class="fil9" d="M901.67 779.73l21.1 0 0 -3.26c-4.94,0 -9.86,-0.03 -14.79,-0.06 -6.48,-0.05 -6.81,-1.7 -6.31,3.32z"/>
    </g>
    <g>
     <path class="fil0 str1" d="M615.45 780.24c14,2.23 11.14,-0.19 12.75,-2.14 -2.47,-3.88 3.02,-2.53 -5.52,-3.32 -2.45,-0.22 -4.98,0.5 -7.26,1l0.03 4.46z"/>
     <path id="1" class="fil9" d="M615.45 780.24c14,2.23 11.14,-0.19 12.75,-2.14 -2.47,-3.88 3.02,-2.53 -5.52,-3.32 -2.45,-0.22 -4.98,0.5 -7.26,1l0.03 4.46z"/>
    </g>
    <g>
     <path class="fil0 str1" d="M595.02 699.31l2.77 -12.09c-0.59,-6.01 -6.94,-5.07 -6.77,0.83 0.01,0.31 0.88,4.98 0.99,5.37l3.01 5.89z"/>
     <path id="1" class="fil9" d="M595.02 699.31l2.77 -12.09c-0.59,-6.01 -6.94,-5.07 -6.77,0.83 0.01,0.31 0.88,4.98 0.99,5.37l3.01 5.89z"/>
    </g>
    <g>
     <path class="fil0 str1" d="M634.25 776.48l0.08 3.25c3.8,1.67 8.67,1.61 12.3,-0.01l0.26 -3.24c-4.19,-2.4 -7.76,-2.98 -12.64,0z"/>
     <path id="1" class="fil9" d="M634.25 776.48l0.08 3.25c3.8,1.67 8.67,1.61 12.3,-0.01l0.26 -3.24c-4.19,-2.4 -7.76,-2.98 -12.64,0z"/>
    </g>
    <g>
     <path class="fil0 str1" d="M444.06 440.09l9.7 -0.14c-0.96,-2.38 -0.57,-1.79 -1.83,-3.94l-2.12 -3.16c-0.18,-0.25 -0.55,-0.72 -0.82,-1.09l-3.12 4.07c-1.53,2.65 -0.71,1.14 -1.81,4.26z"/>
     <path id="1" class="fil9" d="M444.06 440.09l9.7 -0.14c-0.96,-2.38 -0.57,-1.79 -1.83,-3.94l-2.12 -3.16c-0.18,-0.25 -0.55,-0.72 -0.82,-1.09l-3.12 4.07c-1.53,2.65 -0.71,1.14 -1.81,4.26z"/>
    </g>
    <g>
     <path class="fil0 str1" d="M753.61 439.41l9.49 0.65 -4.36 -8.7c-3.33,3.22 -4.44,5.22 -5.13,8.05z"/>
     <path id="1" class="fil9" d="M753.61 439.41l9.49 0.65 -4.36 -8.7c-3.33,3.22 -4.44,5.22 -5.13,8.05z"/>
    </g>
    <g>
     <path class="fil0 str1" d="M688.89 439.32l9.49 0.78 -4.32 -8.72c-2.93,2.89 -5.08,7.68 -5.17,7.94z"/>
     <path id="1" class="fil9" d="M688.89 439.32l9.49 0.78 -4.32 -8.72c-2.93,2.89 -5.08,7.68 -5.17,7.94z"/>
    </g>
    <g>
     <path class="fil0 str1" d="M509.06 439.92l9.32 -0.04 -3.97 -8.14c-0.82,0.56 -1.31,0.57 -1.43,1.14 -0.12,0.57 -0.71,0.68 -0.87,0.9l-3.05 6.14z"/>
     <path id="1" class="fil9" d="M509.06 439.92l9.32 -0.04 -3.97 -8.14c-0.82,0.56 -1.31,0.57 -1.43,1.14 -0.12,0.57 -0.71,0.68 -0.87,0.9l-3.05 6.14z"/>
    </g>
    <g>
     <path class="fil0 str1" d="M718.32 779.73c8.33,0 8.21,2.15 8.81,-3.25l-8.81 -0.01 0 3.26z"/>
     <path id="1" class="fil9" d="M718.32 779.73c8.33,0 8.21,2.15 8.81,-3.25l-8.81 -0.01 0 3.26z"/>
    </g>
    <g>
     <path class="fil0 str1" d="M562.57 779.73l0.01 -3.26 -8.13 0c-1.71,5.33 2.67,3.26 8.12,3.26z"/>
     <path id="1" class="fil9" d="M562.57 779.73l0.01 -3.26 -8.13 0c-1.71,5.33 2.67,3.26 8.12,3.26z"/>
    </g>
    <g>
     <path class="fil0 str1" d="M544.73 779.73l-0.01 -3.26 -8.12 0c-1.3,5.41 2.07,3.26 8.13,3.26z"/>
     <path id="1" class="fil9" d="M544.73 779.73l-0.01 -3.26 -8.12 0c-1.3,5.41 2.07,3.26 8.13,3.26z"/>
    </g>
    <g>
     <path class="fil0 str1" d="M753.45 778.1c3.84,2.58 6.81,2.92 10.5,0 -5.5,-4.61 -10.43,0 -10.5,0z"/>
     <path id="1" class="fil9" d="M753.45 778.1c3.84,2.58 6.81,2.92 10.5,0 -5.5,-4.61 -10.43,0 -10.5,0z"/>
    </g>
    <g>
     <path class="fil0 str1" d="M580.42 779.73l0 -3.26 -8.13 0c-0.25,5.52 0.64,3.26 8.13,3.26z"/>
     <path id="1" class="fil9" d="M580.42 779.73l0 -3.26 -8.13 0c-0.25,5.52 0.64,3.26 8.13,3.26z"/>
    </g>
    <g>
     <path class="fil0 str1" d="M745.08 776.48l-8.91 -0.01c0.83,3.75 7.81,6.78 8.91,0.01z"/>
     <path id="1" class="fil9" d="M745.08 776.48l-8.91 -0.01c0.83,3.75 7.81,6.78 8.91,0.01z"/>
    </g>
    <g>
     <path class="fil0 str1" d="M778.36 779.73l7.12 0c-0.29,-5 0.64,-3.26 -7.12,-3.26l0 3.26z"/>
     <path id="1" class="fil9" d="M778.36 779.73l7.12 0c-0.29,-5 0.64,-3.26 -7.12,-3.26l0 3.26z"/>
    </g>
    <g>
     <path class="fil0 str1" d="M845.86 776.47c0.46,4.97 -0.55,3.26 7.15,3.26l0 -3.26 -7.15 0z"/>
     <path id="1" class="fil9" d="M845.86 776.47c0.46,4.97 -0.55,3.26 7.15,3.26l0 -3.26 -7.15 0z"/>
    </g>
    <g>
     <path class="fil0 str1" d="M453.87 776.47c-7.67,0 -6.6,-1.79 -7.06,3.26l7.05 0 0.01 -3.26z"/>
     <path id="1" class="fil9" d="M453.87 776.47c-7.67,0 -6.6,-1.79 -7.06,3.26l7.05 0 0.01 -3.26z"/>
    </g>
    <g>
     <path class="fil0 str1" d="M520.39 779.73l-0.03 -3.26 -6.48 0c-0.48,5.22 -0.15,3.26 6.51,3.26z"/>
     <path id="1" class="fil9" d="M520.39 779.73l-0.03 -3.26 -6.48 0c-0.48,5.22 -0.15,3.26 6.51,3.26z"/>
    </g>
    <g>
     <path class="fil0 str1" d="M437.64 779.73l0 -3.26 -6.58 0.01c0.08,5.22 -1.04,3.25 6.58,3.25z"/>
     <path id="1" class="fil9" d="M437.64 779.73l0 -3.26 -6.58 0.01c0.08,5.22 -1.04,3.25 6.58,3.25z"/>
    </g>
    <g>
     <polygon class="fil0 str1" points="504.47,779.72 504.42,776.47 497.66,776.47 497.66,779.73 "/>
     <polygon id="1" class="fil9" points="504.47,779.72 504.42,776.47 497.66,776.47 497.66,779.73 "/>
    </g>
    <g>
     <polygon class="fil0 str1" points="877.33,779.73 884.04,779.73 884.07,776.48 877.33,776.47 "/>
     <polygon id="1" class="fil9" points="877.33,779.73 884.04,779.73 884.07,776.48 877.33,776.47 "/>
    </g>
    <g>
     <polygon class="fil0 str1" points="421.62,779.72 421.59,776.47 414.91,776.47 414.91,779.73 "/>
     <polygon id="1" class="fil9" points="421.62,779.72 421.59,776.47 414.91,776.47 414.91,779.73 "/>
    </g>
    <g>
     <polygon class="fil0 str1" points="794.58,779.73 801.21,779.73 801.32,776.48 794.58,776.47 "/>
     <polygon id="1" class="fil9" points="794.58,779.73 801.21,779.73 801.32,776.48 794.58,776.47 "/>
    </g>
    <g>
     <polygon class="fil0 str1" points="810.71,776.47 810.64,779.72 817.31,779.73 817.31,776.47 "/>
     <polygon id="1" class="fil9" points="810.71,776.47 810.64,779.72 817.31,779.73 817.31,776.47 "/>
    </g>
    <g>
     <path class="fil0 str1" d="M488.77 776.47l-7.34 0c0.02,0 5.78,9.5 7.34,0z"/>
     <path id="1" class="fil9" d="M488.77 776.47l-7.34 0c0.02,0 5.78,9.5 7.34,0z"/>
    </g>
   </g>
  </g>
 </g>
</svg>
