<svg xmlns="http://www.w3.org/2000/svg" viewBox="0 0 1459 1271" width="1459" height="1271">
	<style>
		tspan { white-space:pre }
		.shp0 { fill: #8dc9f6 } 
		.shp1 { fill: #aed9f7 } 
		.shp2 { fill: #c6e4f8 } 
		.shp3 { fill: #3a9a46 } 
		.shp4 { fill: #7ac8c9 } 
		.shp5 { fill: #60bfc0 } 
		.shp6 { fill: #9dd8d9 } 
		.shp7 { fill: none } 
		.shp8 { fill: #f4f4f4 } 
		.shp9 { fill: #000000 } 
		.shp10 { fill: #663333 } 
	</style>
	<g id="Layer_x0020_1">
		<path id="Layer" fill-rule="evenodd" class="shp0" d="M662 0.64C944.6 0.64 1173.69 229.73 1173.69 512.33C1173.69 794.92 944.6 1024.01 662 1024.01C379.41 1024.01 150.32 794.92 150.32 512.33C150.32 229.73 379.41 0.64 662 0.64L662 0.64Z" />
		<g id="Layer">
			<g id="_2773653542784">
				<path id="Layer" class="shp1" d="M662 1126.91C379.04 1126.91 150.31 898.18 150.31 615.22C150.31 332.26 379.04 103.53 662 103.53C944.96 103.53 1173.69 332.26 1173.69 615.22C1173.69 898.18 944.96 1126.91 662 1126.91Z" />
				<path id="Layer" class="shp2" d="M662 1270.09C379.04 1270.09 150.31 1041.36 150.31 758.4C150.31 475.44 379.04 246.71 662 246.71C944.96 246.71 1173.69 475.44 1173.69 758.4C1173.69 1041.36 944.96 1270.09 662 1270.09Z" />
				<path id="Layer" fill-rule="evenodd" class="shp3" d="M394.89 684.94C352.28 679.08 333.88 699.46 325.63 733.85C317.79 739.37 328.31 734.22 317.73 736.89C299.97 741.36 254.96 740.21 259.74 805.67L227.18 811.29L262.02 885.42L414.78 886C429.81 833.85 454.2 847.62 511.08 846.46L511.84 684C470.95 660.01 449.34 662.7 422.69 701.1C414.41 697.73 406.22 690.71 394.89 684.94L394.89 684.94Z" />
				<path id="Layer" fill-rule="evenodd" class="shp3" d="M994.38 684.94C1036.99 679.08 1055.39 699.46 1063.64 733.85C1071.48 739.37 1060.96 734.22 1071.54 736.89C1089.3 741.36 1134.31 740.21 1129.53 805.67L1162.09 811.29L1127.25 885.42L974.49 886C959.46 833.85 935.07 847.62 878.19 846.46L877.43 684C918.32 660.01 939.93 662.7 966.58 701.1C974.86 697.73 983.05 690.71 994.38 684.94L994.38 684.94Z" />
				<path id="Layer" fill-rule="evenodd" class="shp4" d="M71.93 900.57C82.28 922.72 224.6 1028.68 258.56 1041.74C283.81 1022.81 319.35 1050.49 320.79 1057.18C345.18 1027.45 383.84 1030.66 411.96 1054.79C458.91 1014.49 491.43 1048.68 504.37 1055.06C553.11 1010.81 587.83 1053.24 593.09 1056.53C635.58 1026.18 640.17 1028.55 681.81 1054.74C738.71 1012.61 771.04 1053.7 771.78 1057.18C796.27 1027.33 834.56 1030.43 862.95 1054.79C877.78 1042.06 884.08 1037.11 911.05 1036.69C937.2 1036.27 943.13 1046.24 954.73 1059.15C971.88 1035.77 1012.16 1020.94 1039.57 1055.99C1050.42 1050.86 1087.64 1012.66 1132.8 1054.74C1153.35 1039.52 1154.83 1035.57 1190.73 1035.94L1181.95 1052.72C1219.61 1040.12 1370.92 927.33 1388.14 900.07C1357.73 884.39 1333.05 900.48 1314.87 915.62C1277.66 885.45 1259.4 888.1 1221.65 914.95C1212.85 905.28 1197.18 894.88 1176.96 894.07C1155.68 893.23 1145.3 907.08 1132.8 913.67C1076.75 884.4 1093.32 885.98 1040.85 914.95C990.78 876.71 995.16 894.13 951.67 915.96C918.2 885.19 895.31 888.56 863.02 914.64C825.1 884.56 806.78 889.26 770.65 914.95C762.78 906.29 744.21 894.14 726.18 893.81C704.74 893.41 694.42 907.02 681.81 913.67C666.83 905.33 656.08 892.66 633.91 893.83C610.02 895.08 605.08 909.48 588.18 915.81C553.87 874.66 532.85 899.38 499.75 916.4C476.42 883.71 441.74 890.64 412.03 914.64C374.47 884.85 355.87 889.2 319.66 914.95C312.46 907.04 292.56 893.86 275.34 893.75C253.72 893.62 243.6 906.9 230.82 913.71C214.13 905.49 185 870.75 143.81 916.78L133.48 909.54C128.33 905.55 133.88 909.26 127.21 904.29C122.37 900.68 116.51 897.25 110.27 895.76C96 892.37 82.58 897.13 71.93 900.57L71.93 900.57Z" />
				<path id="Layer" fill-rule="evenodd" class="shp5" d="M71.93 900.57C82.58 897.13 96 892.37 110.27 895.76C116.51 897.25 122.37 900.68 127.21 904.29C133.88 909.26 128.33 905.55 133.48 909.54L143.81 916.78C185 870.75 214.13 905.49 230.82 913.71C243.6 906.9 253.72 893.62 275.34 893.75C292.56 893.86 312.46 907.04 319.66 914.95C355.87 889.2 374.47 884.85 412.03 914.64C441.74 890.64 476.42 883.71 499.75 916.4C532.85 899.38 553.87 874.66 588.18 915.81C605.08 909.48 610.02 895.08 633.91 893.83C656.08 892.66 666.83 905.33 681.81 913.67C694.42 907.02 704.74 893.41 726.18 893.81C744.21 894.14 762.78 906.29 770.65 914.95C806.78 889.26 825.1 884.56 863.02 914.64C895.31 888.56 918.2 885.19 951.67 915.96C995.16 894.13 990.78 876.71 1040.85 914.95C1093.32 885.98 1076.75 884.4 1132.8 913.67C1145.3 907.08 1155.68 893.23 1176.96 894.07C1197.18 894.88 1212.85 905.28 1221.65 914.95C1259.4 888.1 1277.66 885.45 1314.87 915.62C1333.05 900.48 1357.73 884.39 1388.14 900.07C1401.83 889.63 1450.12 840.82 1458.66 823.61C1435.24 822.39 1430.26 823.16 1414.63 835.1C1407.51 840.54 1414.74 837.76 1402.66 843.4C1389.54 835.52 1379.8 820.75 1354.84 823.39C1333.62 825.64 1324.95 836.4 1313.69 844.64C1298.54 832.47 1294.36 823.8 1269.56 823.83C1240.05 823.87 1239.79 831.63 1221.52 842.18C1183.1 804.58 1152.06 830.64 1132.8 842.52C1071.49 806.03 1080.85 825.82 1040.39 841.89C1000.85 812.7 986.38 816.99 951.88 844.64C939.46 834.8 933.81 822.1 907.41 823.48C883.39 824.73 874.6 837.12 857.77 843.15C848.58 828.69 838.02 823.73 814.99 823.77C790.37 823.82 785.92 833.29 770.53 842.18C731.23 803.71 699.46 831.64 681.81 842.52C642.18 819.9 631.29 810.13 590.44 843.54C554.08 814.21 537.14 815.65 500.93 844.68C472.76 814.01 443.72 817.86 411.96 842.42C404.38 839.04 410.76 842.08 404.7 837.98C363.21 809.9 346.84 826.42 319.54 842.18C310.43 833.27 293.61 823 275.19 822.85C253.05 822.67 243.16 834.91 230.82 842.52C218.54 836.87 186.64 798.44 141.74 844.93C133.39 839.16 112.06 809.64 70.55 829.68L49.68 842.52C34.32 830.53 27.86 824.66 0.55 824.37C14.64 845.67 53.88 886.53 71.93 900.57L71.93 900.57Z" />
				<path id="Layer" fill-rule="evenodd" class="shp6" d="M653.4 1167.05L806.38 1167.04L859.24 1160.17C898.73 1154.7 1029.66 1124.49 1055.64 1112.72L1175.84 1058.51C1180.25 1055.05 1179.76 1055.02 1181.95 1052.72L1190.73 1035.94C1154.83 1035.57 1153.35 1039.52 1132.8 1054.74C1087.64 1012.66 1050.42 1050.86 1039.57 1055.99C1012.16 1020.94 971.88 1035.77 954.73 1059.15C943.13 1046.24 937.2 1036.27 911.05 1036.69C884.08 1037.11 877.78 1042.06 862.95 1054.79C834.56 1030.43 796.27 1027.33 771.78 1057.18C771.04 1053.7 738.71 1012.61 681.81 1054.74C640.17 1028.55 635.58 1026.18 593.09 1056.53C587.83 1053.24 553.11 1010.81 504.37 1055.06C491.43 1048.68 458.91 1014.49 411.96 1054.79C383.84 1030.66 345.18 1027.45 320.79 1057.18C319.35 1050.49 283.81 1022.81 258.56 1041.74C284.1 1066.8 410.21 1114.92 437.24 1123.17C521.71 1148.94 556.98 1153.86 640.98 1163.55L653.4 1167.05L653.4 1167.05Z" />
			</g>
		</g>
		<path id="Layer" fill-rule="evenodd" class="shp7" d="M662 0.64C944.6 0.64 1173.69 229.73 1173.69 512.33C1173.69 794.92 944.6 1024.01 662 1024.01C379.41 1024.01 150.32 794.92 150.32 512.33C150.32 229.73 379.41 0.64 662 0.64L662 0.64Z" />
		<g id="_2773653551856">
			<path id="Layer" fill-rule="evenodd" class="shp8" d="M957.18 193.44C957.09 193.58 954.37 198.83 952.9 200.37C925.82 185.68 925.47 200.64 912.73 216.26C901.16 230.44 888 225.79 890.4 257.01L1007.97 257.74L1068.81 257.36C1067.16 234.39 1057.78 236.9 1044.29 227.03C1029.73 216.4 1037.28 206.97 1006.06 212.43C994.95 184.76 983.79 190.28 957.18 193.44L957.18 193.44Z" />
		</g>
		<g id="_2773653555600">
			<path id="Layer" fill-rule="evenodd" class="shp8" d="M624.09 60.33C624.01 60.46 621.29 65.71 619.82 67.25C592.73 52.56 592.39 67.52 579.64 83.14C568.08 97.32 554.92 92.67 557.32 123.89L674.89 124.62L735.73 124.24C734.07 101.27 724.7 103.78 711.2 93.91C696.64 83.28 704.19 73.85 672.97 79.31C661.86 51.64 650.71 57.16 624.09 60.33L624.09 60.33Z" />
		</g>
		<g id="_2773653553344">
			<path id="Layer" fill-rule="evenodd" class="shp8" d="M255.32 265.39C255.23 265.52 252.52 270.77 251.05 272.31C223.96 257.63 223.61 272.59 210.87 288.21C199.3 302.39 186.15 297.73 188.55 328.95L306.12 329.68L366.96 329.3C365.3 306.34 355.93 308.84 342.43 298.98C327.87 288.34 335.42 278.91 304.2 284.38C293.09 256.71 281.94 262.22 255.32 265.39L255.32 265.39Z" />
		</g>
		<g id="_2773653556752">
			<g id="Layer">
				<path id="Layer" fill-rule="evenodd" class="shp9" d="M604.37 725.54L606.6 724.43C606.87 724.33 607.44 724.07 607.78 723.95L614.13 722.25L614.23 714.14C613.84 713.9 613.18 713.25 612.96 713.63C612.73 714.02 611.99 713.26 611.68 713.16L609.04 712.37C608.16 712.1 602.12 711.7 601.67 707.16C600.86 699.07 603.23 703.61 604.4 703L612.89 699.84C613.19 699.76 613.78 699.73 614.18 699.54L614.09 691.42C609.56 688.79 613.22 691.15 608.99 689.78C602.65 687.72 601.01 687.86 602.03 679.35L614.17 678.08C614.06 656.83 616.92 670.41 617.02 658.98C617.09 651.95 611.41 642.19 622.06 642.5C631.22 642.76 626.98 649.6 626.21 656.54C624.94 667.98 627.84 658.83 628.85 670.2C629.02 672.05 628.83 675.02 628.83 676.99C645.26 673.62 651.56 670.49 671 670.33L668.93 659.59L684.55 658.91C685.7 666.42 685.6 663.99 683.11 670.35C711.38 670.34 713.51 675.34 725.25 676.76C724.93 664.65 727.35 667.18 728.15 660.47C728.75 655.5 726.06 650.37 726.69 643.43C746.04 639.36 733.97 650.77 738.65 665.42C740.46 671.07 740 671.46 740.05 678.37L752.03 679.14C752.82 687.75 752.54 687.5 745.35 689.77L741.35 690.96C741.02 691.06 740.44 691.19 740.04 691.42L740.03 699.54L752.09 702.21C753.28 710.78 749.04 712.22 740.03 712.44L740.07 724.18C756.25 721.77 747.1 727.97 756.65 730.77L922.39 730.96C913.91 675.09 897.46 628.66 865.23 584.47C860.32 577.74 856.63 574.79 852.82 567.69L501.36 567.42C497.69 573.72 494 577.54 489.63 583.33C485.32 589.05 481.6 594.36 477.8 600.66C453.64 640.78 438.32 681.92 431.77 731.05L599.3 731.03C599.59 730.63 599.93 729.57 600.07 729.86C601.24 732.24 601.56 727.94 601.67 727.83C601.88 727.61 602.3 727.17 602.51 726.96L604.37 725.54L604.37 725.54Z" />
				<path id="1" fill-rule="evenodd" class="shp10" d="M604.37 725.54L606.6 724.43C606.87 724.33 607.44 724.07 607.78 723.95L614.13 722.25L614.23 714.14C613.84 713.9 613.18 713.25 612.96 713.63C612.73 714.02 611.99 713.26 611.68 713.16L609.04 712.37C608.16 712.1 602.12 711.7 601.67 707.16C600.86 699.07 603.23 703.61 604.4 703L612.89 699.84C613.19 699.76 613.78 699.73 614.18 699.54L614.09 691.42C609.56 688.79 613.22 691.15 608.99 689.78C602.65 687.72 601.01 687.86 602.03 679.35L614.17 678.08C614.06 656.83 616.92 670.41 617.02 658.98C617.09 651.95 611.41 642.19 622.06 642.5C631.22 642.76 626.98 649.6 626.21 656.54C624.94 667.98 627.84 658.83 628.85 670.2C629.02 672.05 628.83 675.02 628.83 676.99C645.26 673.62 651.56 670.49 671 670.33L668.93 659.59L684.55 658.91C685.7 666.42 685.6 663.99 683.11 670.35C711.38 670.34 713.51 675.34 725.25 676.76C724.93 664.65 727.35 667.18 728.15 660.47C728.75 655.5 726.06 650.37 726.69 643.43C746.04 639.36 733.97 650.77 738.65 665.42C740.46 671.07 740 671.46 740.05 678.37L752.03 679.14C752.82 687.75 752.54 687.5 745.35 689.77L741.35 690.96C741.02 691.06 740.44 691.19 740.04 691.42L740.03 699.54L752.09 702.21C753.28 710.78 749.04 712.22 740.03 712.44L740.07 724.18C756.25 721.77 747.1 727.97 756.65 730.77L922.39 730.96C913.91 675.09 897.46 628.66 865.23 584.47C860.32 577.74 856.63 574.79 852.82 567.69L501.36 567.42C497.69 573.72 494 577.54 489.63 583.33C485.32 589.05 481.6 594.36 477.8 600.66C453.64 640.78 438.32 681.92 431.77 731.05L599.3 731.03C599.59 730.63 599.93 729.57 600.07 729.86C601.24 732.24 601.56 727.94 601.67 727.83C601.88 727.61 602.3 727.17 602.51 726.96L604.37 725.54L604.37 725.54Z" />
			</g>
			<g id="Layer">
				<path id="Layer" fill-rule="evenodd" class="shp9" d="M536.83 536.67L817.27 537.5C812.22 532.22 796.78 523.48 790.27 520.06C780.87 515.12 769.35 510.62 759.22 507.33C727.04 496.87 711.1 499.3 677.18 499.3C614.46 499.3 592.57 500.08 536.83 536.67L536.83 536.67Z" />
				<path id="1" fill-rule="evenodd" class="shp10" d="M536.83 536.67L817.27 537.5C812.22 532.22 796.78 523.48 790.27 520.06C780.87 515.12 769.35 510.62 759.22 507.33C727.04 496.87 711.1 499.3 677.18 499.3C614.46 499.3 592.57 500.08 536.83 536.67L536.83 536.67Z" />
			</g>
			<g id="Layer">
				<path id="Layer" class="shp9" d="M741.18 842.14L990.91 842.51L990.82 811.49L741.21 811.89L741.18 842.14Z" />
				<path id="1" class="shp10" d="M741.18 842.14L990.91 842.51L990.82 811.49L741.21 811.89L741.18 842.14Z" />
			</g>
			<g id="Layer">
				<path id="Layer" class="shp9" d="M612.9 841.94L612.83 812.08L363.32 811.49L363.32 842.49L612.9 841.94Z" />
				<path id="1" class="shp10" d="M612.9 841.94L612.83 812.08L363.32 811.49L363.32 842.49L612.9 841.94Z" />
			</g>
			<g id="Layer">
				<path id="Layer" fill-rule="evenodd" class="shp9" d="M506.53 563.34L847.17 563.88L834.57 550.32C822.86 538.2 820.24 540.94 805.36 540.93L540.89 540.93C524.88 540.92 521.26 549.67 509.39 561.13C507.2 563.23 506.86 563.32 506.53 563.34L506.53 563.34Z" />
				<path id="1" fill-rule="evenodd" class="shp10" d="M506.53 563.34L847.17 563.88L834.57 550.32C822.86 538.2 820.24 540.94 805.36 540.93L540.89 540.93C524.88 540.92 521.26 549.67 509.39 561.13C507.2 563.23 506.86 563.32 506.53 563.34L506.53 563.34Z" />
			</g>
			<g id="Layer">
				<path id="Layer" fill-rule="evenodd" class="shp9" d="M734.75 383.95L771.25 384.09C774.15 362.76 770.59 358.63 777.31 335.84C782.62 317.83 777.4 307.26 774.64 288.73C770.09 258.33 760.79 220.49 758.59 191.25L748.57 191.41C744.47 199.38 734.21 271.37 731.65 286.65C720.94 350.66 728.96 318.95 733.92 355.73C735.18 365.02 733.6 374.66 734.75 383.95L734.75 383.95Z" />
				<path id="1" fill-rule="evenodd" class="shp10" d="M734.75 383.95L771.25 384.09C774.15 362.76 770.59 358.63 777.31 335.84C782.62 317.83 777.4 307.26 774.64 288.73C770.09 258.33 760.79 220.49 758.59 191.25L748.57 191.41C744.47 199.38 734.21 271.37 731.65 286.65C720.94 350.66 728.96 318.95 733.92 355.73C735.18 365.02 733.6 374.66 734.75 383.95L734.75 383.95Z" />
			</g>
			<g id="Layer">
				<path id="Layer" fill-rule="evenodd" class="shp9" d="M489.99 383.77L526.73 383.99C528.74 312.28 541.23 355.06 529.71 287.14C524.73 257.79 516.28 219.82 513.89 191.2L503.57 191.53C498.44 203.69 490.01 268.94 486.98 286.82C476.64 347.81 483.5 317.6 489.21 355.64C490.59 364.81 489.26 374.49 489.99 383.77L489.99 383.77Z" />
				<path id="1" fill-rule="evenodd" class="shp10" d="M489.99 383.77L526.73 383.99C528.74 312.28 541.23 355.06 529.71 287.14C524.73 257.79 516.28 219.82 513.89 191.2L503.57 191.53C498.44 203.69 490.01 268.94 486.98 286.82C476.64 347.81 483.5 317.6 489.21 355.64C490.59 364.81 489.26 374.49 489.99 383.77L489.99 383.77Z" />
			</g>
			<g id="Layer">
				<path id="Layer" class="shp9" d="M343.23 860.03L629.05 859.25L629.12 845.77L343.1 845.85L343.23 860.03Z" />
				<path id="1" class="shp10" d="M343.23 860.03L629.05 859.25L629.12 845.77L343.1 845.85L343.23 860.03Z" />
			</g>
			<g id="Layer">
				<path id="Layer" fill-rule="evenodd" class="shp9" d="M727.71 735.47L729.51 733.49C729.74 733.25 730.34 733.14 730.52 732.48C730.7 731.81 731.22 731.8 731.58 731.48L747.11 730.8C750.77 734.54 746.76 731.71 751.75 733.55L761.56 734.39C794.99 733.98 956.68 733.08 961.51 735.17L961.26 746.78C954.66 749.65 751.03 749.84 737.52 746.6C742.42 752.18 737.23 749.22 745.25 750.72L766.42 750.47C800.42 750.46 951.98 748.82 961.28 751.31C961.46 753.07 961.84 756.13 961.65 757.92C960.9 765.11 962.46 760.86 959.51 763.5L960.5 751.57L741.06 751.56L741.98 763.46C741.39 763.83 740.52 764.21 740.22 764.6C740.02 764.86 739.51 765.44 739.35 765.69C736.31 770.67 739.07 766.38 741.02 767.65L740.97 787.14C740.38 787.53 739.89 787.81 739.49 788C739.44 788.32 739.36 788.67 739.27 789.07C739.2 789.37 739.12 789.64 739.04 789.89C739.71 790.1 740.55 790.5 741.62 791.19L741.27 807.78C740.78 808.11 740.01 808.5 739.83 808.82C739.71 809.03 739.31 809.64 739.22 809.85C738.88 810.72 738.6 811.32 738.39 811.72C738.91 811.29 739.85 810.99 741.21 811.89L741.18 842.14L736.4 842L736.35 736.31L727.71 735.47ZM904.33 738.47L904.33 741.73L911.04 741.73L911.07 738.48L904.33 738.47ZM880.01 738.47L872.86 738.47C873.32 743.44 872.31 741.73 880.01 741.73L880.01 738.47ZM844.31 741.73L844.31 738.47L837.71 738.47L837.64 741.72L844.31 741.73ZM821.58 738.47L821.58 741.73L828.21 741.73L828.32 738.48L821.58 738.47ZM805.36 741.73L812.48 741.73C812.19 736.73 813.12 738.47 805.36 738.47L805.36 741.73ZM780.45 740.1C784.29 742.68 787.26 743.02 790.95 740.1C785.45 735.49 780.52 740.1 780.45 740.1ZM745.32 738.47L745.32 741.73C753.65 741.73 753.53 743.88 754.13 738.48L745.32 738.47ZM772.08 738.48L763.17 738.47C764 742.22 770.98 745.25 772.08 738.48ZM949.77 738.47C944.83 738.47 939.91 738.44 934.98 738.41C928.5 738.36 928.17 736.71 928.67 741.73L949.77 741.73L949.77 738.47Z" />
				<path id="1" fill-rule="evenodd" class="shp10" d="M727.71 735.47L729.51 733.49C729.74 733.25 730.34 733.14 730.52 732.48C730.7 731.81 731.22 731.8 731.58 731.48L747.11 730.8C750.77 734.54 746.76 731.71 751.75 733.55L761.56 734.39C794.99 733.98 956.68 733.08 961.51 735.17L961.26 746.78C954.66 749.65 751.03 749.84 737.52 746.6C742.42 752.18 737.23 749.22 745.25 750.72L766.42 750.47C800.42 750.46 951.98 748.82 961.28 751.31C961.46 753.07 961.84 756.13 961.65 757.92C960.9 765.11 962.46 760.86 959.51 763.5L960.5 751.57L741.06 751.56L741.98 763.46C741.39 763.83 740.52 764.21 740.22 764.6C740.02 764.86 739.51 765.44 739.35 765.69C736.31 770.67 739.07 766.38 741.02 767.65L740.97 787.14C740.38 787.53 739.89 787.81 739.49 788C739.44 788.32 739.36 788.67 739.27 789.07C739.2 789.37 739.12 789.64 739.04 789.89C739.71 790.1 740.55 790.5 741.62 791.19L741.27 807.78C740.78 808.11 740.01 808.5 739.83 808.82C739.71 809.03 739.31 809.64 739.22 809.85C738.88 810.72 738.6 811.32 738.39 811.72C738.91 811.29 739.85 810.99 741.21 811.89L741.18 842.14L736.4 842L736.35 736.31L727.71 735.47ZM904.33 738.47L904.33 741.73L911.04 741.73L911.07 738.48L904.33 738.47ZM880.01 738.47L872.86 738.47C873.32 743.44 872.31 741.73 880.01 741.73L880.01 738.47ZM844.31 741.73L844.31 738.47L837.71 738.47L837.64 741.72L844.31 741.73ZM821.58 738.47L821.58 741.73L828.21 741.73L828.32 738.48L821.58 738.47ZM805.36 741.73L812.48 741.73C812.19 736.73 813.12 738.47 805.36 738.47L805.36 741.73ZM780.45 740.1C784.29 742.68 787.26 743.02 790.95 740.1C785.45 735.49 780.52 740.1 780.45 740.1ZM745.32 738.47L745.32 741.73C753.65 741.73 753.53 743.88 754.13 738.48L745.32 738.47ZM772.08 738.48L763.17 738.47C764 742.22 770.98 745.25 772.08 738.48ZM949.77 738.47C944.83 738.47 939.91 738.44 934.98 738.41C928.5 738.36 928.17 736.71 928.67 741.73L949.77 741.73L949.77 738.47Z" />
			</g>
			<g id="Layer">
				<path id="Layer" fill-rule="evenodd" class="shp9" d="M394.86 763.62C391.64 760.84 393.31 765.14 392.52 757.93C392.27 755.73 392.76 753.17 393.09 751.2C405.67 747.97 606.3 751.73 610.68 750.43C612.84 749.79 613.79 749.78 614.17 749.94C614.39 749.4 615 748.38 616.4 746.6C606.19 749.24 400.41 749.4 392.64 747.03L393.06 734.87C400.71 732.45 484.76 734.28 500.33 734.28L602.52 734.09C608.84 732.8 604.74 734.29 607.82 731.68L621.85 731.79C621.97 731.88 624.66 734.02 624.76 734.11C624.96 734.29 625.51 735.33 625.66 735.04C625.81 734.74 626.23 735.69 626.52 736.01L617.62 736.49L617.61 842.21L612.9 841.94L612.83 812.08C613.3 811.72 614.05 811.3 614.22 810.96C614.34 810.72 614.7 810.07 614.78 809.83C615.06 808.98 615.3 808.34 615.49 807.87C614.93 808.31 614.01 808.51 612.74 807.57L612.35 791.42C612.9 791.03 613.71 790.61 613.96 790.22C614.14 789.94 614.6 789.33 614.73 789.06C617.94 782.5 615.36 788.64 612.99 786.92L612.95 767.91C613.4 767.59 614.14 767.18 614.26 766.87C614.35 766.64 614.66 765.98 614.71 765.75C614.8 765.33 614.9 764.96 614.99 764.64C614.34 764.55 613.46 764.17 612.29 763.33L612.89 751.56L393.42 751.79L394.86 763.62ZM589.57 741.73L589.58 738.47L581.45 738.47C579.74 743.8 584.12 741.73 589.57 741.73ZM571.73 741.73L571.72 738.47L563.6 738.47C562.3 743.88 565.67 741.73 571.73 741.73ZM547.39 741.73L547.36 738.47L540.88 738.47C540.4 743.69 540.73 741.73 547.39 741.73ZM524.66 741.73L531.47 741.72L531.42 738.47L524.66 738.47L524.66 741.73ZM480.86 741.73L480.87 738.47C473.2 738.47 474.27 736.68 473.81 741.73L480.86 741.73ZM464.64 741.73L464.64 738.47L458.06 738.48C458.14 743.7 457.02 741.73 464.64 741.73ZM441.91 741.73L448.62 741.72L448.59 738.47L441.91 738.47L441.91 741.73ZM424.45 741.74L424.08 738.47L403.16 738.48C403 744.38 418.74 741.73 424.45 741.74ZM515.77 738.47L508.43 738.47C508.45 738.47 514.21 747.97 515.77 738.47ZM607.42 741.73L607.42 738.47L599.29 738.47C599.04 743.99 599.93 741.73 607.42 741.73Z" />
				<path id="1" fill-rule="evenodd" class="shp10" d="M394.86 763.62C391.64 760.84 393.31 765.14 392.52 757.93C392.27 755.73 392.76 753.17 393.09 751.2C405.67 747.97 606.3 751.73 610.68 750.43C612.84 749.79 613.79 749.78 614.17 749.94C614.39 749.4 615 748.38 616.4 746.6C606.19 749.24 400.41 749.4 392.64 747.03L393.06 734.87C400.71 732.45 484.76 734.28 500.33 734.28L602.52 734.09C608.84 732.8 604.74 734.29 607.82 731.68L621.85 731.79C621.97 731.88 624.66 734.02 624.76 734.11C624.96 734.29 625.51 735.33 625.66 735.04C625.81 734.74 626.23 735.69 626.52 736.01L617.62 736.49L617.61 842.21L612.9 841.94L612.83 812.08C613.3 811.72 614.05 811.3 614.22 810.96C614.34 810.72 614.7 810.07 614.78 809.83C615.06 808.98 615.3 808.34 615.49 807.87C614.93 808.31 614.01 808.51 612.74 807.57L612.35 791.42C612.9 791.03 613.71 790.61 613.96 790.22C614.14 789.94 614.6 789.33 614.73 789.06C617.94 782.5 615.36 788.64 612.99 786.92L612.95 767.91C613.4 767.59 614.14 767.18 614.26 766.87C614.35 766.64 614.66 765.98 614.71 765.75C614.8 765.33 614.9 764.96 614.99 764.64C614.34 764.55 613.46 764.17 612.29 763.33L612.89 751.56L393.42 751.79L394.86 763.62ZM589.57 741.73L589.58 738.47L581.45 738.47C579.74 743.8 584.12 741.73 589.57 741.73ZM571.73 741.73L571.72 738.47L563.6 738.47C562.3 743.88 565.67 741.73 571.73 741.73ZM547.39 741.73L547.36 738.47L540.88 738.47C540.4 743.69 540.73 741.73 547.39 741.73ZM524.66 741.73L531.47 741.72L531.42 738.47L524.66 738.47L524.66 741.73ZM480.86 741.73L480.87 738.47C473.2 738.47 474.27 736.68 473.81 741.73L480.86 741.73ZM464.64 741.73L464.64 738.47L458.06 738.48C458.14 743.7 457.02 741.73 464.64 741.73ZM441.91 741.73L448.62 741.72L448.59 738.47L441.91 738.47L441.91 741.73ZM424.45 741.74L424.08 738.47L403.16 738.48C403 744.38 418.74 741.73 424.45 741.74ZM515.77 738.47L508.43 738.47C508.45 738.47 514.21 747.97 515.77 738.47ZM607.42 741.73L607.42 738.47L599.29 738.47C599.04 743.99 599.93 741.73 607.42 741.73Z" />
			</g>
			<g id="Layer">
				<path id="Layer" class="shp9" d="M623.1 496.01L731.12 496L731.07 462.05L623.06 462.08L623.1 496.01Z" />
				<path id="1" class="shp10" d="M623.1 496.01L731.12 496L731.07 462.05L623.06 462.08L623.1 496.01Z" />
			</g>
			<g id="Layer">
				<path id="Layer" fill-rule="evenodd" class="shp9" d="M484.65 433.44L484.68 584.01C488.74 579.08 497.5 567.45 501.57 564.38L494.52 562.07L494.58 514.57L485.54 511.82C485.69 501.52 485.89 493.5 490.19 485.04C494.25 477.03 500.73 474.44 506.78 468.86C479.58 461.19 486.56 431.36 506.96 430.41C529.85 429.36 537.67 461.49 509.98 468.72C517.72 477.05 530.41 476.78 530.95 509.7L522.58 512.95L522.35 543.31C525.6 540.63 528.75 538.63 531.74 535.66C531.76 525.77 533.7 432.57 530.58 422.43C530.43 421.95 528.73 415.74 528.17 414.13C512.11 419.95 529.14 420.53 512.57 414.05C510.97 419.16 513.45 422.88 508.38 422.93C503.31 422.98 505.39 418.92 503.96 414.1C494.23 417.62 504.41 419.79 496.64 422.67C489.28 425.39 497.55 417.9 488.42 414C487.89 415.46 486.14 422.13 486.06 422.38C484.29 428.06 484.62 427.1 484.65 433.44L484.65 433.44Z" />
				<path id="1" fill-rule="evenodd" class="shp10" d="M484.65 433.44L484.68 584.01C488.74 579.08 497.5 567.45 501.57 564.38L494.52 562.07L494.58 514.57L485.54 511.82C485.69 501.52 485.89 493.5 490.19 485.04C494.25 477.03 500.73 474.44 506.78 468.86C479.58 461.19 486.56 431.36 506.96 430.41C529.85 429.36 537.67 461.49 509.98 468.72C517.72 477.05 530.41 476.78 530.95 509.7L522.58 512.95L522.35 543.31C525.6 540.63 528.75 538.63 531.74 535.66C531.76 525.77 533.7 432.57 530.58 422.43C530.43 421.95 528.73 415.74 528.17 414.13C512.11 419.95 529.14 420.53 512.57 414.05C510.97 419.16 513.45 422.88 508.38 422.93C503.31 422.98 505.39 418.92 503.96 414.1C494.23 417.62 504.41 419.79 496.64 422.67C489.28 425.39 497.55 417.9 488.42 414C487.89 415.46 486.14 422.13 486.06 422.38C484.29 428.06 484.62 427.1 484.65 433.44L484.65 433.44Z" />
			</g>
			<g id="Layer">
				<path id="Layer" fill-rule="evenodd" class="shp9" d="M454.72 635.08C462.76 625.21 467.06 613.37 467.06 598.94L467.06 433.44L467.09 405.93L454.71 405.23L454.72 635.08L454.72 635.08Z" />
				<path id="1" fill-rule="evenodd" class="shp10" d="M454.72 635.08C462.76 625.21 467.06 613.37 467.06 598.94L467.06 433.44L467.09 405.93L454.71 405.23L454.72 635.08L454.72 635.08Z" />
			</g>
			<g id="Layer">
				<path id="Layer" class="shp9" d="M741.98 763.46L959.51 763.5L960.5 751.57L741.06 751.56L741.98 763.46Z" />
				<path id="1" class="shp10" d="M741.98 763.46L959.51 763.5L960.5 751.57L741.06 751.56L741.98 763.46Z" />
			</g>
			<g id="Layer">
				<path id="Layer" class="shp9" d="M394.86 763.62L612.29 763.33L612.89 751.56L393.42 751.79L394.86 763.62Z" />
				<path id="1" class="shp10" d="M394.86 763.62L612.29 763.33L612.89 751.56L393.42 751.79L394.86 763.62Z" />
			</g>
			<g id="Layer">
				<path id="Layer" fill-rule="evenodd" class="shp9" d="M729.18 443.33L744.02 443.4L744.5 461.02L734.37 462.4L734.48 485.43C738.23 480.4 741.58 476.44 746.09 472.99C753 467.7 755.5 468.9 761.68 473.82C778.27 487.02 771.12 493.11 776.16 509.01C777.82 501.31 776.5 470.05 776.5 459.4C776.5 445.93 779.16 421.71 771.29 414.18C764.62 419.24 772.26 422.99 764.97 422.84C757.21 422.68 766.68 418.15 758.31 414.39C754.62 420.15 758.81 422.8 753.27 422.86C745.92 422.93 753.3 419.51 746.95 414.24C740.57 419.5 747.91 423.06 740.67 422.84C732.67 422.6 742.4 417.68 733.97 414.44L729.66 425.85C728.6 430.88 729.24 437.99 729.18 443.33L729.18 443.33Z" />
				<path id="1" fill-rule="evenodd" class="shp10" d="M729.18 443.33L744.02 443.4L744.5 461.02L734.37 462.4L734.48 485.43C738.23 480.4 741.58 476.44 746.09 472.99C753 467.7 755.5 468.9 761.68 473.82C778.27 487.02 771.12 493.11 776.16 509.01C777.82 501.31 776.5 470.05 776.5 459.4C776.5 445.93 779.16 421.71 771.29 414.18C764.62 419.24 772.26 422.99 764.97 422.84C757.21 422.68 766.68 418.15 758.31 414.39C754.62 420.15 758.81 422.8 753.27 422.86C745.92 422.93 753.3 419.51 746.95 414.24C740.57 419.5 747.91 423.06 740.67 422.84C732.67 422.6 742.4 417.68 733.97 414.44L729.66 425.85C728.6 430.88 729.24 437.99 729.18 443.33L729.18 443.33Z" />
			</g>
			<g id="Layer">
				<path id="Layer" fill-rule="evenodd" class="shp9" d="M638.84 807.47L654.51 808.3L654.63 788.53C658.88 789.91 665.79 796.83 669.84 787.93C671.75 783.73 668.18 776.69 678.67 778.7C690.89 781.04 678.25 784.48 685.63 790.17C692.45 795.42 691.76 790.48 699.63 788.69L699.61 808.15L714.82 808.17C715.46 791.86 716.73 779.54 711.26 767.54L644.73 767.29C640.84 769.32 642.42 766.6 639.87 774.05C637.8 780.11 638.95 800.08 638.84 807.47L638.84 807.47Z" />
				<path id="1" fill-rule="evenodd" class="shp10" d="M638.84 807.47L654.51 808.3L654.63 788.53C658.88 789.91 665.79 796.83 669.84 787.93C671.75 783.73 668.18 776.69 678.67 778.7C690.89 781.04 678.25 784.48 685.63 790.17C692.45 795.42 691.76 790.48 699.63 788.69L699.61 808.15L714.82 808.17C715.46 791.86 716.73 779.54 711.26 767.54L644.73 767.29C640.84 769.32 642.42 766.6 639.87 774.05C637.8 780.11 638.95 800.08 638.84 807.47L638.84 807.47Z" />
			</g>
			<g id="Layer">
				<path id="Layer" fill-rule="evenodd" class="shp9" d="M470.54 604.28L480.95 587.46L481.26 509.7C481.28 474.9 481.21 440.09 481.26 405.29L470.51 405.3L470.54 604.28Z" />
				<path id="1" fill-rule="evenodd" class="shp10" d="M470.54 604.28L480.95 587.46L481.26 509.7C481.28 474.9 481.21 440.09 481.26 405.29L470.51 405.3L470.54 604.28Z" />
			</g>
			<g id="Layer">
				<path id="Layer" fill-rule="evenodd" class="shp9" d="M604.4 703L612.89 699.84C613.19 699.76 613.78 699.73 614.18 699.54L614.09 691.42C609.56 688.79 613.22 691.15 608.99 689.78C602.65 687.72 601.01 687.86 602.03 679.35L614.17 678.08C614.06 656.83 616.92 670.41 617.02 658.98C617.09 651.95 611.41 642.19 622.06 642.5C631.22 642.76 626.98 649.6 626.21 656.54C624.94 667.98 627.84 658.83 628.85 670.2C629.02 672.05 628.83 675.02 628.83 676.99C645.26 673.62 651.56 670.49 671 670.33L668.93 659.59L684.55 658.91C685.7 666.42 685.6 663.99 683.11 670.35C711.38 670.34 713.51 675.34 725.25 676.76C724.93 664.65 727.35 667.18 728.15 660.47C728.75 655.5 726.06 650.37 726.69 643.43C746.04 639.36 733.97 650.77 738.65 665.42C740.46 671.07 740 671.46 740.05 678.37L752.03 679.14C752.82 687.75 752.54 687.5 745.35 689.77L741.35 690.96C741.02 691.06 740.44 691.19 740.04 691.42L740.03 699.54L752.09 702.21C753.28 710.78 749.04 712.22 740.03 712.44L740.07 724.18L737.36 723.63L737.45 712.59L726.79 711.81C727.96 709.86 722.59 708.09 729.11 709.51L750.16 708.53C748.3 700.22 751.47 704.32 733.94 703.66C716.84 703.01 718.92 695.49 678.84 695.2C630.22 694.86 635.92 706.68 604.4 703ZM616.77 701.3L626.04 700.15L626.36 689.39L616.71 689.93L616.77 701.3ZM629 688.59L628.85 699.63C647.46 695.11 655.46 692.59 677.18 692.59C711.54 692.61 708.64 697.1 725.22 699.4L725.06 688.89C695.13 677.62 659.09 680.16 629 688.59ZM677.19 678.95C715.1 678.95 743.18 695.83 750.1 683.31C744.37 678.01 740.35 684.41 714.81 676.59C674.43 664.24 630.18 680.7 620.05 681.03C600.91 681.64 605.91 678.05 604.42 684.93C617.09 693.88 639.18 678.95 677.19 678.95ZM737.01 666.25L728.61 665.8L728.03 677.62L737.46 678.68L737.01 666.25ZM617.64 666.04L616.5 678.54L625.94 677.66L626.18 666.98C621.16 664.67 623.79 665.13 617.64 666.04ZM680.68 661.75L673.49 661.02C672.41 663.79 671.21 662.18 673.95 670.19L680.76 669.47C681.44 667.55 683.56 667.42 680.68 661.75ZM734.28 645.36L730.7 645.16C728.05 650.4 730.21 658.11 732.35 661.33C734.83 658.81 734.1 659.93 735.09 655.41C737.29 645.42 735.16 646.74 734.28 645.36ZM619.01 655.42L622.02 661.31L624.79 649.22C624.2 643.21 617.85 644.15 618.02 650.05C618.03 650.36 618.9 655.03 619.01 655.42ZM728.4 700.47L737.51 701.09L737.37 690.06L727.77 689.2L728.4 700.47Z" />
				<path id="1" fill-rule="evenodd" class="shp10" d="M604.4 703L612.89 699.84C613.19 699.76 613.78 699.73 614.18 699.54L614.09 691.42C609.56 688.79 613.22 691.15 608.99 689.78C602.65 687.72 601.01 687.86 602.03 679.35L614.17 678.08C614.06 656.83 616.92 670.41 617.02 658.98C617.09 651.95 611.41 642.19 622.06 642.5C631.22 642.76 626.98 649.6 626.21 656.54C624.94 667.98 627.84 658.83 628.85 670.2C629.02 672.05 628.83 675.02 628.83 676.99C645.26 673.62 651.56 670.49 671 670.33L668.93 659.59L684.55 658.91C685.7 666.42 685.6 663.99 683.11 670.35C711.38 670.34 713.51 675.34 725.25 676.76C724.93 664.65 727.35 667.18 728.15 660.47C728.75 655.5 726.06 650.37 726.69 643.43C746.04 639.36 733.97 650.77 738.65 665.42C740.46 671.07 740 671.46 740.05 678.37L752.03 679.14C752.82 687.75 752.54 687.5 745.35 689.77L741.35 690.96C741.02 691.06 740.44 691.19 740.04 691.42L740.03 699.54L752.09 702.21C753.28 710.78 749.04 712.22 740.03 712.44L740.07 724.18L737.36 723.63L737.45 712.59L726.79 711.81C727.96 709.86 722.59 708.09 729.11 709.51L750.16 708.53C748.3 700.22 751.47 704.32 733.94 703.66C716.84 703.01 718.92 695.49 678.84 695.2C630.22 694.86 635.92 706.68 604.4 703ZM616.77 701.3L626.04 700.15L626.36 689.39L616.71 689.93L616.77 701.3ZM629 688.59L628.85 699.63C647.46 695.11 655.46 692.59 677.18 692.59C711.54 692.61 708.64 697.1 725.22 699.4L725.06 688.89C695.13 677.62 659.09 680.16 629 688.59ZM677.19 678.95C715.1 678.95 743.18 695.83 750.1 683.31C744.37 678.01 740.35 684.41 714.81 676.59C674.43 664.24 630.18 680.7 620.05 681.03C600.91 681.64 605.91 678.05 604.42 684.93C617.09 693.88 639.18 678.95 677.19 678.95ZM737.01 666.25L728.61 665.8L728.03 677.62L737.46 678.68L737.01 666.25ZM617.64 666.04L616.5 678.54L625.94 677.66L626.18 666.98C621.16 664.67 623.79 665.13 617.64 666.04ZM680.68 661.75L673.49 661.02C672.41 663.79 671.21 662.18 673.95 670.19L680.76 669.47C681.44 667.55 683.56 667.42 680.68 661.75ZM734.28 645.36L730.7 645.16C728.05 650.4 730.21 658.11 732.35 661.33C734.83 658.81 734.1 659.93 735.09 655.41C737.29 645.42 735.16 646.74 734.28 645.36ZM619.01 655.42L622.02 661.31L624.79 649.22C624.2 643.21 617.85 644.15 618.02 650.05C618.03 650.36 618.9 655.03 619.01 655.42ZM728.4 700.47L737.51 701.09L737.37 690.06L727.77 689.2L728.4 700.47Z" />
			</g>
			<g id="Layer">
				<path id="Layer" class="shp9" d="M613.45 458.11L740.41 458.69L740.97 446.88L613.52 446.94L613.45 458.11Z" />
				<path id="1" class="shp10" d="M613.45 458.11L740.41 458.69L740.97 446.88L613.52 446.94L613.45 458.11Z" />
			</g>
			<g id="Layer">
				<path id="Layer" fill-rule="evenodd" class="shp9" d="M793.97 413.97L793.97 506.46L794.1 517.82C798.16 520.82 802.25 523.52 806.09 524.97L806.58 512.95L806.51 405.57L793.98 405.29L793.97 413.97L793.97 413.97Z" />
				<path id="1" fill-rule="evenodd" class="shp10" d="M793.97 413.97L793.97 506.46L794.1 517.82C798.16 520.82 802.25 523.52 806.09 524.97L806.58 512.95L806.51 405.57L793.98 405.29L793.97 413.97L793.97 413.97Z" />
			</g>
			<g id="Layer">
				<path id="Layer" class="shp9" d="M549.44 523.74L561.79 517.56L561.77 405.51L549.35 405.42L549.44 523.74Z" />
				<path id="1" class="shp10" d="M549.44 523.74L561.79 517.56L561.77 405.51L549.35 405.42L549.44 523.74Z" />
			</g>
			<g id="Layer">
				<path id="Layer" fill-rule="evenodd" class="shp9" d="M498.11 559.09C510.13 560.13 518.77 545.73 518.85 545.4C518.88 533.5 518.82 521.6 518.88 509.7C518.96 496.16 519.1 489.09 508.44 484.16C495.54 489.19 497.92 500.6 497.98 516.19C498.04 530.43 497.72 544.88 498.11 559.09L498.11 559.09Z" />
				<path id="1" fill-rule="evenodd" class="shp10" d="M498.11 559.09C510.13 560.13 518.77 545.73 518.85 545.4C518.88 533.5 518.82 521.6 518.88 509.7C518.96 496.16 519.1 489.09 508.44 484.16C495.54 489.19 497.92 500.6 497.98 516.19C498.04 530.43 497.72 544.88 498.11 559.09L498.11 559.09Z" />
			</g>
			<g id="Layer">
				<path id="Layer" fill-rule="evenodd" class="shp9" d="M535.32 532.97C540.92 530.04 543.43 529.45 546.05 524.3L546.05 405.26L535.32 405.32L535.32 532.97L535.32 532.97Z" />
				<path id="1" fill-rule="evenodd" class="shp10" d="M535.32 532.97C540.92 530.04 543.43 529.45 546.05 524.3L546.05 405.26L535.32 405.32L535.32 532.97L535.32 532.97Z" />
			</g>
			<g id="Layer">
				<path id="Layer" class="shp9" d="M628.79 763.87L725.01 763.81L725.06 751.19L629.57 750.96L628.79 763.87Z" />
				<path id="1" class="shp10" d="M628.79 763.87L725.01 763.81L725.06 751.19L629.57 750.96L628.79 763.87Z" />
			</g>
			<g id="Layer">
				<path id="Layer" class="shp9" d="M662.69 859.6L690.66 861L690.2 811.49L669.12 811.59L662.69 859.6Z" />
				<path id="1" class="shp10" d="M662.69 859.6L690.66 861L690.2 811.49L669.12 811.59L662.69 859.6Z" />
			</g>
			<g id="Layer">
				<path id="Layer" fill-rule="evenodd" class="shp9" d="M803.71 787.63L863.31 787.46C863.25 760.45 860.9 767.31 808.61 767.3C803.23 773.67 803.79 779.65 803.71 787.63L803.71 787.63Z" />
				<path id="1" fill-rule="evenodd" class="shp10" d="M803.71 787.63L863.31 787.46C863.25 760.45 860.9 767.31 808.61 767.3C803.23 773.67 803.79 779.65 803.71 787.63L803.71 787.63Z" />
			</g>
			<g id="Layer">
				<path id="Layer" fill-rule="evenodd" class="shp9" d="M490.81 787.15L550.43 787.55C550.41 783.56 550.72 779.97 549.95 776.34C549.78 775.56 548.91 773.02 548.29 771.72L545.76 767.3L497.08 767.31C493.79 767.97 492.58 771.66 491.67 775.12C490.54 779.38 490.91 782.52 490.81 787.15L490.81 787.15Z" />
				<path id="1" fill-rule="evenodd" class="shp10" d="M490.81 787.15L550.43 787.55C550.41 783.56 550.72 779.97 549.95 776.34C549.78 775.56 548.91 773.02 548.29 771.72L545.76 767.3L497.08 767.31C493.79 767.97 492.58 771.66 491.67 775.12C490.54 779.38 490.91 782.52 490.81 787.15L490.81 787.15Z" />
			</g>
			<g id="Layer">
				<path id="Layer" fill-rule="evenodd" class="shp9" d="M628.7 711L628.78 722.16C657.97 716.87 668.61 712.41 703.38 716.9C712.59 718.08 718.04 720.99 725.32 722.14L725.23 711.38C689.83 699.21 663.76 703.53 628.7 711L628.7 711Z" />
				<path id="1" fill-rule="evenodd" class="shp10" d="M628.7 711L628.78 722.16C657.97 716.87 668.61 712.41 703.38 716.9C712.59 718.08 718.04 720.99 725.32 722.14L725.23 711.38C689.83 699.21 663.76 703.53 628.7 711L628.7 711Z" />
			</g>
			<g id="Layer">
				<path id="Layer" class="shp9" d="M780.26 511.03L790.53 516.34L790.63 405.86L780.87 405.57L780.26 511.03Z" />
				<path id="1" class="shp10" d="M780.26 511.03L790.53 516.34L790.63 405.86L780.87 405.57L780.26 511.03Z" />
			</g>
			<g id="Layer">
				<path id="Layer" class="shp9" d="M699.63 860.99L721.41 861.01L721.47 811.48L699.58 811.52L699.63 860.99Z" />
				<path id="1" class="shp10" d="M699.63 860.99L721.41 861.01L721.47 811.48L699.58 811.52L699.63 860.99Z" />
			</g>
			<g id="Layer">
				<path id="Layer" fill-rule="evenodd" class="shp9" d="M629 688.59L628.85 699.63C647.46 695.11 655.46 692.59 677.18 692.59C711.54 692.61 708.64 697.1 725.22 699.4L725.06 688.89C695.13 677.62 659.09 680.16 629 688.59Z" />
				<path id="1" fill-rule="evenodd" class="shp10" d="M629 688.59L628.85 699.63C647.46 695.11 655.46 692.59 677.18 692.59C711.54 692.61 708.64 697.1 725.22 699.4L725.06 688.89C695.13 677.62 659.09 680.16 629 688.59Z" />
			</g>
			<g id="Layer">
				<path id="Layer" class="shp9" d="M632.83 859.78L654.65 860.02L654.54 811.38L632.8 812.34L632.83 859.78Z" />
				<path id="1" class="shp10" d="M632.83 859.78L654.65 860.02L654.54 811.38L632.8 812.34L632.83 859.78Z" />
			</g>
			<g id="Layer">
				<path id="Layer" fill-rule="evenodd" class="shp9" d="M740.97 787.14L794.73 787.58C794.62 776.25 795.13 776.05 790.76 767.48L741.02 767.65L740.97 787.14Z" />
				<path id="1" fill-rule="evenodd" class="shp10" d="M740.97 787.14L794.73 787.58C794.62 776.25 795.13 776.05 790.76 767.48L741.02 767.65L740.97 787.14Z" />
			</g>
			<g id="Layer">
				<path id="Layer" class="shp9" d="M803.72 808.14L863.31 808.1L863.19 791.28L804.16 790.85L803.72 808.14Z" />
				<path id="1" class="shp10" d="M803.72 808.14L863.31 808.1L863.19 791.28L804.16 790.85L803.72 808.14Z" />
			</g>
			<g id="Layer">
				<path id="Layer" class="shp9" d="M490.89 807.85L550.25 808.16L550.36 791.02L491.23 790.9L490.89 807.85Z" />
				<path id="1" class="shp10" d="M490.89 807.85L550.25 808.16L550.36 791.02L491.23 790.9L490.89 807.85Z" />
			</g>
			<g id="Layer">
				<path id="Layer" fill-rule="evenodd" class="shp9" d="M612.99 786.92L612.95 767.91L563.61 767.28C560.49 773.36 559.37 777.47 559.36 786.65L612.99 786.92Z" />
				<path id="1" fill-rule="evenodd" class="shp10" d="M612.99 786.92L612.95 767.91L563.61 767.28C560.49 773.36 559.37 777.47 559.36 786.65L612.99 786.92Z" />
			</g>
			<g id="Layer">
				<path id="Layer" fill-rule="evenodd" class="shp9" d="M604.42 684.93C617.09 693.88 639.18 678.95 677.19 678.95C715.1 678.95 743.18 695.83 750.1 683.31C744.37 678.01 740.35 684.41 714.81 676.59C674.43 664.24 630.18 680.7 620.05 681.03C600.91 681.64 605.91 678.05 604.42 684.93Z" />
				<path id="1" fill-rule="evenodd" class="shp10" d="M604.42 684.93C617.09 693.88 639.18 678.95 677.19 678.95C715.1 678.95 743.18 695.83 750.1 683.31C744.37 678.01 740.35 684.41 714.81 676.59C674.43 664.24 630.18 680.7 620.05 681.03C600.91 681.64 605.91 678.05 604.42 684.93Z" />
			</g>
			<g id="Layer">
				<path id="Layer" class="shp9" d="M617.61 842.21L626.54 842.03L626.52 736.01L617.62 736.49L617.61 842.21Z" />
				<path id="1" class="shp10" d="M617.61 842.21L626.54 842.03L626.52 736.01L617.62 736.49L617.61 842.21Z" />
			</g>
			<g id="Layer">
				<path id="Layer" fill-rule="evenodd" class="shp9" d="M604.4 703L604.63 708.54C620.54 713.6 648 702.46 667.37 701.81C694.33 700.89 705.31 703.79 729.11 709.51L750.16 708.53C748.3 700.22 751.47 704.32 733.94 703.66C716.84 703.01 718.92 695.49 678.84 695.2C630.22 694.86 635.92 706.68 604.4 703L604.4 703Z" />
				<path id="1" fill-rule="evenodd" class="shp10" d="M604.4 703L604.63 708.54C620.54 713.6 648 702.46 667.37 701.81C694.33 700.89 705.31 703.79 729.11 709.51L750.16 708.53C748.3 700.22 751.47 704.32 733.94 703.66C716.84 703.01 718.92 695.49 678.84 695.2C630.22 694.86 635.92 706.68 604.4 703L604.4 703Z" />
			</g>
			<g id="Layer">
				<path id="Layer" class="shp9" d="M736.4 842L736.35 736.31L727.71 735.47L727.67 842.39L736.4 842Z" />
				<path id="1" class="shp10" d="M736.4 842L736.35 736.31L727.71 735.47L727.67 842.39L736.4 842Z" />
			</g>
			<g id="Layer">
				<path id="Layer" fill-rule="evenodd" class="shp9" d="M604.37 725.54C603.93 731.45 603.59 730.41 607.82 731.68L621.85 731.79C637.05 730.99 663.2 718.78 704.36 726.03C713.66 727.67 721.63 731.15 731.58 731.48L747.11 730.8C750.14 729.56 749.05 733.34 750.1 726.71C740.52 724.1 730.12 726.49 715.07 721.75C698 716.38 658.79 716.5 641.85 720.96C626.16 725.09 623.74 727.52 604.37 725.54L604.37 725.54Z" />
				<path id="1" fill-rule="evenodd" class="shp10" d="M604.37 725.54C603.93 731.45 603.59 730.41 607.82 731.68L621.85 731.79C637.05 730.99 663.2 718.78 704.36 726.03C713.66 727.67 721.63 731.15 731.58 731.48L747.11 730.8C750.14 729.56 749.05 733.34 750.1 726.71C740.52 724.1 730.12 726.49 715.07 721.75C698 716.38 658.79 716.5 641.85 720.96C626.16 725.09 623.74 727.52 604.37 725.54L604.37 725.54Z" />
			</g>
			<g id="Layer">
				<path id="Layer" class="shp9" d="M741.27 807.78L794.47 808.19L794.54 790.8L741.62 791.19L741.27 807.78Z" />
				<path id="1" class="shp10" d="M741.27 807.78L794.47 808.19L794.54 790.8L741.62 791.19L741.27 807.78Z" />
			</g>
			<g id="Layer">
				<path id="Layer" class="shp9" d="M612.74 807.57L612.35 791.42L559.55 790.96L559.35 807.45L612.74 807.57Z" />
				<path id="1" class="shp10" d="M612.74 807.57L612.35 791.42L559.55 790.96L559.35 807.45L612.74 807.57Z" />
			</g>
			<g id="Layer">
				<path id="Layer" fill-rule="evenodd" class="shp9" d="M438.36 787.54L481.91 787.42C481.95 777.11 482.22 777.64 478.16 768.55C478.04 768.26 477.83 767.71 477.61 767.32C441.19 767.3 438.38 761.39 438.36 787.54Z" />
				<path id="1" fill-rule="evenodd" class="shp10" d="M438.36 787.54L481.91 787.42C481.95 777.11 482.22 777.64 478.16 768.55C478.04 768.26 477.83 767.71 477.61 767.32C441.19 767.3 438.38 761.39 438.36 787.54Z" />
			</g>
			<g id="Layer">
				<path id="Layer" fill-rule="evenodd" class="shp9" d="M872.31 787.08L915.7 787.6C915.66 769.35 913.66 776.6 913.16 767.27L878.38 767.31C875.31 767.98 874 771.87 873.09 775.23C871.92 779.55 872.29 782.37 872.31 787.08L872.31 787.08Z" />
				<path id="1" fill-rule="evenodd" class="shp10" d="M872.31 787.08L915.7 787.6C915.66 769.35 913.66 776.6 913.16 767.27L878.38 767.31C875.31 767.98 874 771.87 873.09 775.23C871.92 779.55 872.29 782.37 872.31 787.08L872.31 787.08Z" />
			</g>
			<g id="Layer">
				<path id="Layer" fill-rule="evenodd" class="shp9" d="M926.47 807.78L926.32 792.01L944.9 792.01L945.48 807.67C954.05 809.41 948.95 809.42 957.62 807.55L957.87 791.43C951.02 792.42 954.52 793.09 955.47 788.99C957.58 779.9 950.2 789.73 957.28 786.77L957.58 774.79L945.25 774.77L945.63 786.38L926.03 786.34L926.57 774.57L917.98 774.87C916.12 783.93 915.39 801.7 918.94 808.87C919.16 808.82 925.83 807.9 926.47 807.78L926.47 807.78Z" />
				<path id="1" fill-rule="evenodd" class="shp10" d="M926.47 807.78L926.32 792.01L944.9 792.01L945.48 807.67C954.05 809.41 948.95 809.42 957.62 807.55L957.87 791.43C951.02 792.42 954.52 793.09 955.47 788.99C957.58 779.9 950.2 789.73 957.28 786.77L957.58 774.79L945.25 774.77L945.63 786.38L926.03 786.34L926.57 774.57L917.98 774.87C916.12 783.93 915.39 801.7 918.94 808.87C919.16 808.82 925.83 807.9 926.47 807.78L926.47 807.78Z" />
			</g>
			<g id="Layer">
				<path id="Layer" fill-rule="evenodd" class="shp9" d="M485.73 401.72L531.11 401.92C533.52 398.31 537.57 392.25 539.26 387.41L477.39 387.39C479.68 392.92 481.62 397.08 485.73 401.72L485.73 401.72Z" />
				<path id="1" fill-rule="evenodd" class="shp10" d="M485.73 401.72L531.11 401.92C533.52 398.31 537.57 392.25 539.26 387.41L477.39 387.39C479.68 392.92 481.62 397.08 485.73 401.72L485.73 401.72Z" />
			</g>
			<g id="Layer">
				<path id="Layer" class="shp9" d="M729.63 401.8L775.9 401.94L784.15 387.85L722.08 387.38L729.63 401.8Z" />
				<path id="1" class="shp10" d="M729.63 401.8L775.9 401.94L784.15 387.85L722.08 387.38L729.63 401.8Z" />
			</g>
			<g id="Layer">
				<path id="Layer" fill-rule="evenodd" class="shp9" d="M503.64 434.61C485.38 440.62 492.03 470.83 513.33 464.14C531.72 458.37 524.36 427.79 503.64 434.61Z" />
				<path id="1" fill-rule="evenodd" class="shp10" d="M503.64 434.61C485.38 440.62 492.03 470.83 513.33 464.14C531.72 458.37 524.36 427.79 503.64 434.61Z" />
			</g>
			<g id="Layer">
				<path id="Layer" class="shp9" d="M872.34 807.78L915.6 808.19L915.56 790.9L872.45 790.93L872.34 807.78Z" />
				<path id="1" class="shp10" d="M872.34 807.78L915.6 808.19L915.56 790.9L872.45 790.93L872.34 807.78Z" />
			</g>
			<g id="Layer">
				<path id="Layer" class="shp9" d="M438.36 808.15L481.88 808.07L481.88 791.34L438.81 790.85L438.36 808.15Z" />
				<path id="1" class="shp10" d="M438.36 808.15L481.88 808.07L481.88 791.34L438.81 790.85L438.36 808.15Z" />
			</g>
			<g id="Layer">
				<path id="Layer" fill-rule="evenodd" class="shp9" d="M750.25 133.03C738.4 133.31 735.16 131.9 730.37 134.9C732.7 139.21 729.82 137.86 738.64 138.04C742.48 138.12 746.52 137.87 750.52 137.96L750.5 177.2C750.43 184.19 748.79 186 753.44 187.87C757.61 182.96 755.26 145.29 755.41 138.37C770.61 136.47 773.09 141.2 775.57 134.9C771.49 131.79 761.9 133.39 755.6 132.7C755.37 129.36 755.58 126.6 755.44 123.49L753.44 114.74C747.79 118.34 751.94 111.45 750.25 133.03L750.25 133.03Z" />
				<path id="1" fill-rule="evenodd" class="shp10" d="M750.25 133.03C738.4 133.31 735.16 131.9 730.37 134.9C732.7 139.21 729.82 137.86 738.64 138.04C742.48 138.12 746.52 137.87 750.52 137.96L750.5 177.2C750.43 184.19 748.79 186 753.44 187.87C757.61 182.96 755.26 145.29 755.41 138.37C770.61 136.47 773.09 141.2 775.57 134.9C771.49 131.79 761.9 133.39 755.6 132.7C755.37 129.36 755.58 126.6 755.44 123.49L753.44 114.74C747.79 118.34 751.94 111.45 750.25 133.03L750.25 133.03Z" />
			</g>
			<g id="Layer">
				<path id="Layer" fill-rule="evenodd" class="shp9" d="M505.63 133.15L485.66 133.15C486.6 139.56 484.31 137.94 493.67 138.04C499.62 138.11 500.08 137.08 505.89 139.04C505.96 147.8 503.4 180.94 508.44 188.05C509.4 186.46 509.58 186.89 510.28 183.61L510.7 138.69C525.06 135.63 527.7 141.87 530.94 134.9C528.7 133.3 531.52 134.21 527.6 133.45C522.75 132.51 517.76 133.8 510.88 132.42L510.26 118.78C509.37 115.21 509.83 116.77 508.44 114.74C503.26 118.92 506.44 116.37 505.63 133.15L505.63 133.15Z" />
				<path id="1" fill-rule="evenodd" class="shp10" d="M505.63 133.15L485.66 133.15C486.6 139.56 484.31 137.94 493.67 138.04C499.62 138.11 500.08 137.08 505.89 139.04C505.96 147.8 503.4 180.94 508.44 188.05C509.4 186.46 509.58 186.89 510.28 183.61L510.7 138.69C525.06 135.63 527.7 141.87 530.94 134.9C528.7 133.3 531.52 134.21 527.6 133.45C522.75 132.51 517.76 133.8 510.88 132.42L510.26 118.78C509.37 115.21 509.83 116.77 508.44 114.74C503.26 118.92 506.44 116.37 505.63 133.15L505.63 133.15Z" />
			</g>
			<g id="Layer">
				<path id="Layer" fill-rule="evenodd" class="shp9" d="M629.3 747.12L724.9 747.29C725.1 745.36 725.59 741.67 725.38 740.06C725.38 740.01 727.18 731.99 717.75 734.34C712.75 735.58 715.8 739.76 712.88 744.78L698.28 744.91L695.19 744.81C683.31 745.2 670.98 745.06 659.16 744.9L659.06 734.6C658.89 735.02 658.69 735.22 658.62 735.94L656.09 744.65L640.07 744.93L638.24 734.4L630.13 734.35C629.94 734.83 629.71 735.01 629.66 735.76L628.75 740.12C628.54 742.98 628.86 744.49 629.3 747.12L629.3 747.12Z" />
				<path id="1" fill-rule="evenodd" class="shp10" d="M629.3 747.12L724.9 747.29C725.1 745.36 725.59 741.67 725.38 740.06C725.38 740.01 727.18 731.99 717.75 734.34C712.75 735.58 715.8 739.76 712.88 744.78L698.28 744.91L695.19 744.81C683.31 745.2 670.98 745.06 659.16 744.9L659.06 734.6C658.89 735.02 658.69 735.22 658.62 735.94L656.09 744.65L640.07 744.93L638.24 734.4L630.13 734.35C629.94 734.83 629.71 735.01 629.66 735.76L628.75 740.12C628.54 742.98 628.86 744.49 629.3 747.12L629.3 747.12Z" />
			</g>
			<g id="Layer">
				<path id="Layer" class="shp9" d="M700.1 405.62L699.36 443.43L711.99 443.04L711.75 405.62L700.1 405.62Z" />
				<path id="1" class="shp10" d="M700.1 405.62L699.36 443.43L711.99 443.04L711.75 405.62L700.1 405.62Z" />
			</g>
			<g id="Layer">
				<path id="Layer" fill-rule="evenodd" class="shp9" d="M729.23 414.93C734.5 411.37 735.28 412.15 738.24 412.94L740.25 420.55C739.01 417.32 751.41 401.65 751.86 420.61C752.13 420.28 752.44 419.27 752.55 419.52C752.86 420.3 753.44 415.58 758.31 411.72C763.37 413.68 760.34 411.2 763.79 416.3L764.97 418.4C765.15 418.68 765.5 419.23 765.65 419.46C765.79 419.7 766.07 420.21 766.35 420.53L767.36 412.14L776.69 412.35L776.76 405.41L729.13 405.31L729.23 414.93L729.23 414.93Z" />
				<path id="1" fill-rule="evenodd" class="shp10" d="M729.23 414.93C734.5 411.37 735.28 412.15 738.24 412.94L740.25 420.55C739.01 417.32 751.41 401.65 751.86 420.61C752.13 420.28 752.44 419.27 752.55 419.52C752.86 420.3 753.44 415.58 758.31 411.72C763.37 413.68 760.34 411.2 763.79 416.3L764.97 418.4C765.15 418.68 765.5 419.23 765.65 419.46C765.79 419.7 766.07 420.21 766.35 420.53L767.36 412.14L776.69 412.35L776.76 405.41L729.13 405.31L729.23 414.93L729.23 414.93Z" />
			</g>
			<g id="Layer">
				<path id="Layer" fill-rule="evenodd" class="shp9" d="M407.39 787.6L429.2 787.53C429.19 779.36 429.69 771.46 424.07 767.28L411.09 767.38C407.07 776.61 407.28 775.99 407.39 787.6Z" />
				<path id="1" fill-rule="evenodd" class="shp10" d="M407.39 787.6L429.2 787.53C429.19 779.36 429.69 771.46 424.07 767.28L411.09 767.38C407.07 776.61 407.28 775.99 407.39 787.6Z" />
			</g>
			<g id="Layer">
				<path id="Layer" fill-rule="evenodd" class="shp9" d="M484.59 415.62C487.58 410.27 485.39 412.04 492.22 412.21C494.23 414.67 493.54 414.13 494.7 416.22L496.51 419.57C496.65 419.82 496.9 420.35 497.16 420.7C497.58 409.29 503.81 408.7 507.69 417.97L510.51 411.92C518.69 412.32 519.07 412.92 519.46 420.67L522.91 412.43C533.32 411.56 528.81 415.74 532.1 409.11C529.41 403.44 535.27 405.27 510.06 405.3C501.96 405.31 493.8 405.09 485.73 405.53L484.59 415.62L484.59 415.62Z" />
				<path id="1" fill-rule="evenodd" class="shp10" d="M484.59 415.62C487.58 410.27 485.39 412.04 492.22 412.21C494.23 414.67 493.54 414.13 494.7 416.22L496.51 419.57C496.65 419.82 496.9 420.35 497.16 420.7C497.58 409.29 503.81 408.7 507.69 417.97L510.51 411.92C518.69 412.32 519.07 412.92 519.46 420.67L522.91 412.43C533.32 411.56 528.81 415.74 532.1 409.11C529.41 403.44 535.27 405.27 510.06 405.3C501.96 405.31 493.8 405.09 485.73 405.53L484.59 415.62L484.59 415.62Z" />
			</g>
			<g id="Layer">
				<path id="Layer" class="shp9" d="M715.45 442.54L725.93 443.57L725.82 405.86L716.04 405.63L715.45 442.54Z" />
				<path id="1" class="shp10" d="M715.45 442.54L725.93 443.57L725.82 405.86L716.04 405.63L715.45 442.54Z" />
			</g>
			<g id="Layer">
				<path id="Layer" fill-rule="evenodd" class="shp9" d="M489.85 508.75L494.09 508.52C495.79 488.72 492.35 491.85 505.99 480.32C522.47 482.44 521.19 492.17 522.65 508.55L526.81 508.67C529.37 490.9 519.53 478.01 508.44 473.24C497.71 477.87 486.45 490.51 489.85 508.75L489.85 508.75Z" />
				<path id="1" fill-rule="evenodd" class="shp10" d="M489.85 508.75L494.09 508.52C495.79 488.72 492.35 491.85 505.99 480.32C522.47 482.44 521.19 492.17 522.65 508.55L526.81 508.67C529.37 490.9 519.53 478.01 508.44 473.24C497.71 477.87 486.45 490.51 489.85 508.75L489.85 508.75Z" />
			</g>
			<g id="Layer">
				<path id="Layer" class="shp9" d="M407.33 808.17L429.05 808.16L429.1 790.83L407.84 790.88L407.33 808.17Z" />
				<path id="1" class="shp10" d="M407.33 808.17L429.05 808.16L429.1 790.83L407.84 790.88L407.33 808.17Z" />
			</g>
			<g id="Layer">
				<path id="Layer" fill-rule="evenodd" class="shp9" d="M531.16 383.92L534.4 383.92C537.27 371.34 528.04 353.93 544.81 355.17C547.71 363.44 544.74 378.15 547.38 383.98C552.83 382.79 551.34 383.76 551.39 375.16C551.45 363.92 552.58 359.6 546.94 352.72C544.01 349.13 543.68 348.2 540.89 344.85C532.24 350.71 526.73 369.44 531.16 383.92L531.16 383.92Z" />
				<path id="1" fill-rule="evenodd" class="shp10" d="M531.16 383.92L534.4 383.92C537.27 371.34 528.04 353.93 544.81 355.17C547.71 363.44 544.74 378.15 547.38 383.98C552.83 382.79 551.34 383.76 551.39 375.16C551.45 363.92 552.58 359.6 546.94 352.72C544.01 349.13 543.68 348.2 540.89 344.85C532.24 350.71 526.73 369.44 531.16 383.92L531.16 383.92Z" />
			</g>
			<g id="Layer">
				<path id="Layer" fill-rule="evenodd" class="shp9" d="M466.26 383.91L469.5 383.96C474.4 367.26 461.86 354.13 480.04 354.96C483.26 364.23 479.93 377.27 482.48 383.93C488.08 382.86 486.59 384.07 486.63 375.16C486.68 361.86 486.54 354.71 475.99 344.82C473.19 347.15 466.65 356.04 465.93 359.64C465.17 363.46 465.38 380.4 466.26 383.91L466.26 383.91Z" />
				<path id="1" fill-rule="evenodd" class="shp10" d="M466.26 383.91L469.5 383.96C474.4 367.26 461.86 354.13 480.04 354.96C483.26 364.23 479.93 377.27 482.48 383.93C488.08 382.86 486.59 384.07 486.63 375.16C486.68 361.86 486.54 354.71 475.99 344.82C473.19 347.15 466.65 356.04 465.93 359.64C465.17 363.46 465.38 380.4 466.26 383.91L466.26 383.91Z" />
			</g>
			<g id="Layer">
				<path id="Layer" fill-rule="evenodd" class="shp9" d="M711.26 383.9C715.92 382.88 715.06 388.28 714.92 366.83C714.85 357.81 714.9 354.13 724.79 355.21C729.55 368.59 722.18 381.13 729.1 384.08C732.34 380.16 731.82 366.73 730.7 360.54C729.91 356.19 723.39 347.92 721.07 344.62C708.89 353.98 707.83 375.26 711.26 383.9Z" />
				<path id="1" fill-rule="evenodd" class="shp10" d="M711.26 383.9C715.92 382.88 715.06 388.28 714.92 366.83C714.85 357.81 714.9 354.13 724.79 355.21C729.55 368.59 722.18 381.13 729.1 384.08C732.34 380.16 731.82 366.73 730.7 360.54C729.91 356.19 723.39 347.92 721.07 344.62C708.89 353.98 707.83 375.26 711.26 383.9Z" />
			</g>
			<g id="Layer">
				<path id="Layer" fill-rule="evenodd" class="shp9" d="M775.2 365.3L775.57 383.96C782.09 382.52 779.68 383.02 779.76 365.3C779.86 357.19 780.87 354.16 789.54 355.32C792.14 362.54 788.46 377.23 792.38 384.03C797.3 382.56 795.78 383 795.79 375.16C795.84 353.2 796.01 361.31 785.91 344.6C781.19 349.71 775.16 355.87 775.2 365.3L775.2 365.3Z" />
				<path id="1" fill-rule="evenodd" class="shp10" d="M775.2 365.3L775.57 383.96C782.09 382.52 779.68 383.02 779.76 365.3C779.86 357.19 780.87 354.16 789.54 355.32C792.14 362.54 788.46 377.23 792.38 384.03C797.3 382.56 795.78 383 795.79 375.16C795.84 353.2 796.01 361.31 785.91 344.6C781.19 349.71 775.16 355.87 775.2 365.3L775.2 365.3Z" />
			</g>
			<g id="Layer">
				<path id="Layer" fill-rule="evenodd" class="shp9" d="M926.57 774.57L926.03 786.34L945.63 786.38L945.25 774.77L943.63 767.58L930.3 767.23C926.03 770.11 928.6 766.85 926.57 774.57L926.57 774.57Z" />
				<path id="1" fill-rule="evenodd" class="shp10" d="M926.57 774.57L926.03 786.34L945.63 786.38L945.25 774.77L943.63 767.58L930.3 767.23C926.03 770.11 928.6 766.85 926.57 774.57L926.57 774.57Z" />
			</g>
			<g id="Layer">
				<path id="Layer" fill-rule="evenodd" class="shp9" d="M662.84 798.35C660.02 796.7 659.64 796.91 658.59 794.62L657.97 808.01C665.17 807.12 675.2 789.83 687.75 802.59C691.66 806.56 690.24 807.7 696.04 807.79L695.98 794.5C694.35 797.23 693.06 797.43 691.45 797.63L689.47 796.17C681.09 790.44 679.94 793.16 678.72 788.44C676.68 780.54 676.46 787.95 680.75 782.2L673.43 782.09C676.02 785.78 675.72 782.83 675.54 787.11C675.3 792.98 669.63 791.53 662.84 798.35L662.84 798.35Z" />
				<path id="1" fill-rule="evenodd" class="shp10" d="M662.84 798.35C660.02 796.7 659.64 796.91 658.59 794.62L657.97 808.01C665.17 807.12 675.2 789.83 687.75 802.59C691.66 806.56 690.24 807.7 696.04 807.79L695.98 794.5C694.35 797.23 693.06 797.43 691.45 797.63L689.47 796.17C681.09 790.44 679.94 793.16 678.72 788.44C676.68 780.54 676.46 787.95 680.75 782.2L673.43 782.09C676.02 785.78 675.72 782.83 675.54 787.11C675.3 792.98 669.63 791.53 662.84 798.35L662.84 798.35Z" />
			</g>
			<g id="Layer">
				<path id="Layer" fill-rule="evenodd" class="shp9" d="M737.22 497.24L740.49 491.92C749.59 473.17 762.07 481.89 765.49 491.23C769.11 501.14 762.91 504.95 771.29 507.64C775.81 491.5 762.71 478.24 753.44 473.24C743.94 476.55 736.12 486.95 735.71 492.15C735.31 497.2 735.17 494.2 737.22 497.24L737.22 497.24Z" />
				<path id="1" fill-rule="evenodd" class="shp10" d="M737.22 497.24L740.49 491.92C749.59 473.17 762.07 481.89 765.49 491.23C769.11 501.14 762.91 504.95 771.29 507.64C775.81 491.5 762.71 478.24 753.44 473.24C743.94 476.55 736.12 486.95 735.71 492.15C735.31 497.2 735.17 494.2 737.22 497.24L737.22 497.24Z" />
			</g>
			<g id="Layer">
				<path id="Layer" class="shp9" d="M926.47 807.78L945.48 807.67L944.9 792.01L926.32 792.01L926.47 807.78Z" />
				<path id="1" class="shp10" d="M926.47 807.78L945.48 807.67L944.9 792.01L926.32 792.01L926.47 807.78Z" />
			</g>
			<g id="Layer">
				<path id="Layer" fill-rule="evenodd" class="shp9" d="M742.47 498.55L763.3 504.61C763.83 493.38 760.73 488.57 753.44 484.17C746.15 486.33 744.13 489.57 742.47 498.55L742.47 498.55Z" />
				<path id="1" fill-rule="evenodd" class="shp10" d="M742.47 498.55L763.3 504.61C763.83 493.38 760.73 488.57 753.44 484.17C746.15 486.33 744.13 489.57 742.47 498.55L742.47 498.55Z" />
			</g>
			<g id="Layer">
				<path id="Layer" fill-rule="evenodd" class="shp9" d="M699.69 401.88L711.17 401.92C714.15 398.1 717.36 392.49 719.09 387.41L699.36 387.36L699.69 401.88Z" />
				<path id="1" fill-rule="evenodd" class="shp10" d="M699.69 401.88L711.17 401.92C714.15 398.1 717.36 392.49 719.09 387.41L699.36 387.36L699.69 401.88Z" />
			</g>
			<g id="Layer">
				<path id="Layer" class="shp9" d="M454.95 401.9L466.38 401.89L474.81 387.56L454.62 387.43L454.95 401.9Z" />
				<path id="1" class="shp10" d="M454.95 401.9L466.38 401.89L474.81 387.56L454.62 387.43L454.95 401.9Z" />
			</g>
			<g id="Layer">
				<path id="Layer" class="shp9" d="M549.77 401.72L561.31 401.88L561.93 387.55L542.1 387.39L549.77 401.72Z" />
				<path id="1" class="shp10" d="M549.77 401.72L561.31 401.88L561.93 387.55L542.1 387.39L549.77 401.72Z" />
			</g>
			<g id="Layer">
				<path id="Layer" class="shp9" d="M794.52 401.86L806.18 401.86L806.29 387.68L786.9 387.61L794.52 401.86Z" />
				<path id="1" class="shp10" d="M794.52 401.86L806.18 401.86L806.29 387.68L786.9 387.61L794.52 401.86Z" />
			</g>
			<g id="Layer">
				<path id="Layer" fill-rule="evenodd" class="shp9" d="M798.87 808.36C802.98 805.84 801.75 810.51 801.6 792.02C801.55 785.66 803.77 777.13 798.87 774.87C795.7 778.5 796.79 784.5 796.8 790.4C796.81 793.57 796.65 797.16 796.72 800.23C796.9 807.7 797.22 806.12 798.87 808.36L798.87 808.36Z" />
				<path id="1" fill-rule="evenodd" class="shp10" d="M798.87 808.36C802.98 805.84 801.75 810.51 801.6 792.02C801.55 785.66 803.77 777.13 798.87 774.87C795.7 778.5 796.79 784.5 796.8 790.4C796.81 793.57 796.65 797.16 796.72 800.23C796.9 807.7 797.22 806.12 798.87 808.36L798.87 808.36Z" />
			</g>
			<g id="Layer">
				<path id="Layer" fill-rule="evenodd" class="shp9" d="M555.49 808.33C558.85 803.43 558.14 778.14 555.49 774.91C550.46 776.87 552.59 783.95 552.61 790.4C552.67 807.51 550.43 805.61 555.49 808.33Z" />
				<path id="1" fill-rule="evenodd" class="shp10" d="M555.49 808.33C558.85 803.43 558.14 778.14 555.49 774.91C550.46 776.87 552.59 783.95 552.61 790.4C552.67 807.51 550.43 805.61 555.49 808.33Z" />
			</g>
			<g id="Layer">
				<path id="Layer" fill-rule="evenodd" class="shp9" d="M867.02 808.09C870.96 806.39 870.06 812.41 870.03 792.02C870.01 774.63 871.84 776.65 867.02 775.05C864.46 778.88 864.37 803.43 867.02 808.09L867.02 808.09Z" />
				<path id="1" fill-rule="evenodd" class="shp10" d="M867.02 808.09C870.96 806.39 870.06 812.41 870.03 792.02C870.01 774.63 871.84 776.65 867.02 775.05C864.46 778.88 864.37 803.43 867.02 808.09L867.02 808.09Z" />
			</g>
			<g id="Layer">
				<path id="Layer" fill-rule="evenodd" class="shp9" d="M485.73 808.18C489.42 806.36 488.37 810.47 488.77 801.93C489.02 796.49 489.23 778.24 487.35 775.06C482.26 776.6 483.89 789.47 484.08 800.24L485.73 808.18Z" />
				<path id="1" fill-rule="evenodd" class="shp10" d="M485.73 808.18C489.42 806.36 488.37 810.47 488.77 801.93C489.02 796.49 489.23 778.24 487.35 775.06C482.26 776.6 483.89 789.47 484.08 800.24L485.73 808.18Z" />
			</g>
			<g id="Layer">
				<path id="Layer" fill-rule="evenodd" class="shp9" d="M712.42 348.26C717.37 344.36 715.23 344.04 720.99 339.36C724.23 342.93 725.7 345.79 728.5 349.05L721.18 321.53L712.42 348.26L712.42 348.26Z" />
				<path id="1" fill-rule="evenodd" class="shp10" d="M712.42 348.26C717.37 344.36 715.23 344.04 720.99 339.36C724.23 342.93 725.7 345.79 728.5 349.05L721.18 321.53L712.42 348.26L712.42 348.26Z" />
			</g>
			<g id="Layer">
				<path id="Layer" fill-rule="evenodd" class="shp9" d="M635 808.29C638.42 803.48 637.65 778.08 635 774.94C629.58 776.97 632.66 787.13 632.68 800.26C632.69 807.34 631.34 805.66 635 808.29Z" />
				<path id="1" fill-rule="evenodd" class="shp10" d="M635 808.29C638.42 803.48 637.65 778.08 635 774.94C629.58 776.97 632.66 787.13 632.68 800.26C632.69 807.34 631.34 805.66 635 808.29Z" />
			</g>
			<g id="Layer">
				<path id="Layer" fill-rule="evenodd" class="shp9" d="M777.47 348.29C782.3 343.79 780.13 343.18 785.89 339.47C789.43 343.84 789.94 345.44 793.39 349.1L785.97 321.44L777.47 348.29Z" />
				<path id="1" fill-rule="evenodd" class="shp10" d="M777.47 348.29C782.3 343.79 780.13 343.18 785.89 339.47C789.43 343.84 789.94 345.44 793.39 349.1L785.97 321.44L777.47 348.29Z" />
			</g>
			<g id="Layer">
				<path id="Layer" fill-rule="evenodd" class="shp9" d="M532.55 348.61C535.43 346.29 534.73 346.77 536.31 344.62L540.89 339.3L548.46 349.23L541.23 321.99L532.55 348.61Z" />
				<path id="1" fill-rule="evenodd" class="shp10" d="M532.55 348.61C535.43 346.29 534.73 346.77 536.31 344.62L540.89 339.3L548.46 349.23L541.23 321.99L532.55 348.61Z" />
			</g>
			<g id="Layer">
				<path id="Layer" fill-rule="evenodd" class="shp9" d="M467.85 348.76C470.23 345.51 472.58 341.84 475.99 339.29C479.33 342.04 481.68 345.86 483.79 348.97L476.5 321.88L467.85 348.76Z" />
				<path id="1" fill-rule="evenodd" class="shp10" d="M467.85 348.76C470.23 345.51 472.58 341.84 475.99 339.29C479.33 342.04 481.68 345.86 483.79 348.97L476.5 321.88L467.85 348.76Z" />
			</g>
			<g id="Layer">
				<path id="Layer" fill-rule="evenodd" class="shp9" d="M783.16 370.16C783.16 384.83 781.61 382.24 785.89 384.16C789.08 380.19 789.51 362.88 785.89 358.23C781.45 360.5 783.17 363.07 783.16 370.16Z" />
				<path id="1" fill-rule="evenodd" class="shp10" d="M783.16 370.16C783.16 384.83 781.61 382.24 785.89 384.16C789.08 380.19 789.51 362.88 785.89 358.23C781.45 360.5 783.17 363.07 783.16 370.16Z" />
			</g>
			<g id="Layer">
				<path id="Layer" fill-rule="evenodd" class="shp9" d="M391 808.23L396.49 808.11C399.27 803.74 398.23 796.1 397.76 790.88L391.41 790.89L391 808.23L391 808.23Z" />
				<path id="1" fill-rule="evenodd" class="shp10" d="M391 808.23L396.49 808.11C399.27 803.74 398.23 796.1 397.76 790.88L391.41 790.89L391 808.23L391 808.23Z" />
			</g>
			<g id="Layer">
				<path id="Layer" fill-rule="evenodd" class="shp9" d="M538.74 383.76L542.51 384.03C543.69 376.56 544.73 360.83 539.78 358.07C537.13 363.84 538.19 376 538.74 383.76L538.74 383.76Z" />
				<path id="1" fill-rule="evenodd" class="shp10" d="M538.74 383.76L542.51 384.03C543.69 376.56 544.73 360.83 539.78 358.07C537.13 363.84 538.19 376 538.74 383.76L538.74 383.76Z" />
			</g>
			<g id="Layer">
				<path id="Layer" class="shp9" d="M737.36 723.63L737.45 712.59L726.79 711.81L728.2 723.23L737.36 723.63Z" />
				<path id="1" class="shp10" d="M737.36 723.63L737.45 712.59L726.79 711.81L728.2 723.23L737.36 723.63Z" />
			</g>
			<g id="Layer">
				<path id="Layer" fill-rule="evenodd" class="shp9" d="M473.91 383.65L477.6 384.1C477.96 377.96 480.54 360.74 475.02 358.12C472.46 364.1 473.49 375.79 473.91 383.65Z" />
				<path id="1" fill-rule="evenodd" class="shp10" d="M473.91 383.65L477.6 384.1C477.96 377.96 480.54 360.74 475.02 358.12C472.46 364.1 473.49 375.79 473.91 383.65Z" />
			</g>
			<g id="Layer">
				<path id="Layer" fill-rule="evenodd" class="shp9" d="M718.42 371.79L718.8 384.04C722.98 383.01 723.09 388.09 723.01 371.8C722.98 366.53 724.07 361.83 720.99 358.25C716.79 361.05 718.45 364.77 718.42 371.79Z" />
				<path id="1" fill-rule="evenodd" class="shp10" d="M718.42 371.79L718.8 384.04C722.98 383.01 723.09 388.09 723.01 371.8C722.98 366.53 724.07 361.83 720.99 358.25C716.79 361.05 718.45 364.77 718.42 371.79Z" />
			</g>
			<g id="Layer">
				<path id="Layer" fill-rule="evenodd" class="shp9" d="M616.5 678.54L625.94 677.66L626.18 666.98C621.16 664.67 623.79 665.13 617.64 666.04L616.5 678.54L616.5 678.54Z" />
				<path id="1" fill-rule="evenodd" class="shp10" d="M616.5 678.54L625.94 677.66L626.18 666.98C621.16 664.67 623.79 665.13 617.64 666.04L616.5 678.54L616.5 678.54Z" />
			</g>
			<g id="Layer">
				<path id="Layer" class="shp9" d="M728.61 665.8L728.03 677.62L737.46 678.68L737.01 666.25L728.61 665.8Z" />
				<path id="1" class="shp10" d="M728.61 665.8L728.03 677.62L737.46 678.68L737.01 666.25L728.61 665.8Z" />
			</g>
			<g id="Layer">
				<path id="Layer" class="shp9" d="M616.59 723.88L625.47 723.06L626.56 712.04L616.59 712.44L616.59 723.88Z" />
				<path id="1" class="shp10" d="M616.59 723.88L625.47 723.06L626.56 712.04L616.59 712.44L616.59 723.88Z" />
			</g>
			<g id="Layer">
				<path id="Layer" class="shp9" d="M616.77 701.3L626.04 700.15L626.36 689.39L616.71 689.93L616.77 701.3Z" />
				<path id="1" class="shp10" d="M616.77 701.3L626.04 700.15L626.36 689.39L616.71 689.93L616.77 701.3Z" />
			</g>
			<g id="Layer">
				<path id="Layer" class="shp9" d="M728.4 700.47L737.51 701.09L737.37 690.06L727.77 689.2L728.4 700.47Z" />
				<path id="1" class="shp10" d="M728.4 700.47L737.51 701.09L737.37 690.06L727.77 689.2L728.4 700.47Z" />
			</g>
			<g id="Layer">
				<path id="Layer" fill-rule="evenodd" class="shp9" d="M666.24 808L687.88 808.06C681.83 799.67 671.69 798.69 666.24 808Z" />
				<path id="1" fill-rule="evenodd" class="shp10" d="M666.24 808L687.88 808.06C681.83 799.67 671.69 798.69 666.24 808Z" />
			</g>
			<g id="Layer">
				<path id="Layer" class="shp9" d="M957.62 807.55L963.04 808.31L963.03 790.85L957.87 791.43L957.62 807.55Z" />
				<path id="1" class="shp10" d="M957.62 807.55L963.04 808.31L963.03 790.85L957.87 791.43L957.62 807.55Z" />
			</g>
			<g id="Layer">
				<path id="Layer" fill-rule="evenodd" class="shp9" d="M730.7 645.16C728.05 650.4 730.21 658.11 732.35 661.33C734.83 658.81 734.1 659.93 735.09 655.41C737.29 645.42 735.16 646.74 734.28 645.36L730.7 645.16Z" />
				<path id="1" fill-rule="evenodd" class="shp10" d="M730.7 645.16C728.05 650.4 730.21 658.11 732.35 661.33C734.83 658.81 734.1 659.93 735.09 655.41C737.29 645.42 735.16 646.74 734.28 645.36L730.7 645.16Z" />
			</g>
			<g id="Layer">
				<path id="Layer" fill-rule="evenodd" class="shp9" d="M698.93 740.1C701.54 743.08 697.22 742.58 704.79 743.08C712.03 743.55 710.01 742.69 712.17 740.1C710.01 736.83 715.37 737.3 706.41 736.68C696.42 735.98 700.13 739.21 698.93 740.1Z" />
				<path id="1" fill-rule="evenodd" class="shp10" d="M698.93 740.1C701.54 743.08 697.22 742.58 704.79 743.08C712.03 743.55 710.01 742.69 712.17 740.1C710.01 736.83 715.37 737.3 706.41 736.68C696.42 735.98 700.13 739.21 698.93 740.1Z" />
			</g>
			<g id="Layer">
				<path id="Layer" fill-rule="evenodd" class="shp9" d="M673.49 661.02C672.41 663.79 671.21 662.18 673.95 670.19L680.76 669.47C681.44 667.55 683.56 667.42 680.68 661.75L673.49 661.02L673.49 661.02Z" />
				<path id="1" fill-rule="evenodd" class="shp10" d="M673.49 661.02C672.41 663.79 671.21 662.18 673.95 670.19L680.76 669.47C681.44 667.55 683.56 667.42 680.68 661.75L673.49 661.02L673.49 661.02Z" />
			</g>
			<g id="Layer">
				<path id="Layer" fill-rule="evenodd" class="shp9" d="M424.45 741.74L424.08 738.47L403.16 738.48C403 744.38 418.74 741.73 424.45 741.74Z" />
				<path id="1" fill-rule="evenodd" class="shp10" d="M424.45 741.74L424.08 738.47L403.16 738.48C403 744.38 418.74 741.73 424.45 741.74Z" />
			</g>
			<g id="Layer">
				<path id="Layer" fill-rule="evenodd" class="shp9" d="M680.39 738.48C680.41 738.57 679.12 747.86 692.75 741.72L692.91 737.33C686.86 736.8 684.66 736.14 680.39 738.48Z" />
				<path id="1" fill-rule="evenodd" class="shp10" d="M680.39 738.48C680.41 738.57 679.12 747.86 692.75 741.72L692.91 737.33C686.86 736.8 684.66 736.14 680.39 738.48Z" />
			</g>
			<g id="Layer">
				<path id="Layer" fill-rule="evenodd" class="shp9" d="M928.67 741.73L949.77 741.73L949.77 738.47C944.83 738.47 939.91 738.44 934.98 738.41C928.5 738.36 928.17 736.71 928.67 741.73L928.67 741.73Z" />
				<path id="1" fill-rule="evenodd" class="shp10" d="M928.67 741.73L949.77 741.73L949.77 738.47C944.83 738.47 939.91 738.44 934.98 738.41C928.5 738.36 928.17 736.71 928.67 741.73L928.67 741.73Z" />
			</g>
			<g id="Layer">
				<path id="Layer" fill-rule="evenodd" class="shp9" d="M642.45 742.24C656.45 744.47 653.59 742.05 655.2 740.1C652.73 736.22 658.22 737.57 649.68 736.78C647.23 736.56 644.7 737.28 642.42 737.78L642.45 742.24Z" />
				<path id="1" fill-rule="evenodd" class="shp10" d="M642.45 742.24C656.45 744.47 653.59 742.05 655.2 740.1C652.73 736.22 658.22 737.57 649.68 736.78C647.23 736.56 644.7 737.28 642.42 737.78L642.45 742.24Z" />
			</g>
			<g id="Layer">
				<path id="Layer" fill-rule="evenodd" class="shp9" d="M622.02 661.31L624.79 649.22C624.2 643.21 617.85 644.15 618.02 650.05C618.03 650.36 618.9 655.03 619.01 655.42L622.02 661.31Z" />
				<path id="1" fill-rule="evenodd" class="shp10" d="M622.02 661.31L624.79 649.22C624.2 643.21 617.85 644.15 618.02 650.05C618.03 650.36 618.9 655.03 619.01 655.42L622.02 661.31Z" />
			</g>
			<g id="Layer">
				<path id="Layer" fill-rule="evenodd" class="shp9" d="M661.25 738.48L661.33 741.73C665.13 743.4 670 743.34 673.63 741.72L673.89 738.48C669.7 736.08 666.13 735.5 661.25 738.48Z" />
				<path id="1" fill-rule="evenodd" class="shp10" d="M661.25 738.48L661.33 741.73C665.13 743.4 670 743.34 673.63 741.72L673.89 738.48C669.7 736.08 666.13 735.5 661.25 738.48Z" />
			</g>
			<g id="Layer">
				<path id="Layer" fill-rule="evenodd" class="shp9" d="M471.06 402.09L480.76 401.95C479.8 399.57 480.19 400.16 478.93 398.01L476.81 394.85C476.63 394.6 476.26 394.13 475.99 393.76L472.87 397.83C471.34 400.48 472.16 398.97 471.06 402.09Z" />
				<path id="1" fill-rule="evenodd" class="shp10" d="M471.06 402.09L480.76 401.95C479.8 399.57 480.19 400.16 478.93 398.01L476.81 394.85C476.63 394.6 476.26 394.13 475.99 393.76L472.87 397.83C471.34 400.48 472.16 398.97 471.06 402.09Z" />
			</g>
			<g id="Layer">
				<path id="Layer" fill-rule="evenodd" class="shp9" d="M780.61 401.41L790.1 402.06L785.74 393.36C782.41 396.58 781.3 398.58 780.61 401.41Z" />
				<path id="1" fill-rule="evenodd" class="shp10" d="M780.61 401.41L790.1 402.06L785.74 393.36C782.41 396.58 781.3 398.58 780.61 401.41Z" />
			</g>
			<g id="Layer">
				<path id="Layer" fill-rule="evenodd" class="shp9" d="M715.89 401.32L725.38 402.1L721.06 393.38C718.13 396.27 715.98 401.06 715.89 401.32L715.89 401.32Z" />
				<path id="1" fill-rule="evenodd" class="shp10" d="M715.89 401.32L725.38 402.1L721.06 393.38C718.13 396.27 715.98 401.06 715.89 401.32L715.89 401.32Z" />
			</g>
			<g id="Layer">
				<path id="Layer" fill-rule="evenodd" class="shp9" d="M536.06 401.92L545.38 401.88L541.41 393.74C540.59 394.3 540.1 394.31 539.98 394.88C539.86 395.45 539.27 395.56 539.11 395.78L536.06 401.92L536.06 401.92Z" />
				<path id="1" fill-rule="evenodd" class="shp10" d="M536.06 401.92L545.38 401.88L541.41 393.74C540.59 394.3 540.1 394.31 539.98 394.88C539.86 395.45 539.27 395.56 539.11 395.78L536.06 401.92L536.06 401.92Z" />
			</g>
			<g id="Layer">
				<path id="Layer" fill-rule="evenodd" class="shp9" d="M745.32 741.73C753.65 741.73 753.53 743.88 754.13 738.48L745.32 738.47L745.32 741.73Z" />
				<path id="1" fill-rule="evenodd" class="shp10" d="M745.32 741.73C753.65 741.73 753.53 743.88 754.13 738.48L745.32 738.47L745.32 741.73Z" />
			</g>
			<g id="Layer">
				<path id="Layer" fill-rule="evenodd" class="shp9" d="M589.57 741.73L589.58 738.47L581.45 738.47C579.74 743.8 584.12 741.73 589.57 741.73Z" />
				<path id="1" fill-rule="evenodd" class="shp10" d="M589.57 741.73L589.58 738.47L581.45 738.47C579.74 743.8 584.12 741.73 589.57 741.73Z" />
			</g>
			<g id="Layer">
				<path id="Layer" fill-rule="evenodd" class="shp9" d="M571.73 741.73L571.72 738.47L563.6 738.47C562.3 743.88 565.67 741.73 571.73 741.73Z" />
				<path id="1" fill-rule="evenodd" class="shp10" d="M571.73 741.73L571.72 738.47L563.6 738.47C562.3 743.88 565.67 741.73 571.73 741.73Z" />
			</g>
			<g id="Layer">
				<path id="Layer" fill-rule="evenodd" class="shp9" d="M780.45 740.1C784.29 742.68 787.26 743.02 790.95 740.1C785.45 735.49 780.52 740.1 780.45 740.1Z" />
				<path id="1" fill-rule="evenodd" class="shp10" d="M780.45 740.1C784.29 742.68 787.26 743.02 790.95 740.1C785.45 735.49 780.52 740.1 780.45 740.1Z" />
			</g>
			<g id="Layer">
				<path id="Layer" fill-rule="evenodd" class="shp9" d="M607.42 741.73L607.42 738.47L599.29 738.47C599.04 743.99 599.93 741.73 607.42 741.73Z" />
				<path id="1" fill-rule="evenodd" class="shp10" d="M607.42 741.73L607.42 738.47L599.29 738.47C599.04 743.99 599.93 741.73 607.42 741.73Z" />
			</g>
			<g id="Layer">
				<path id="Layer" fill-rule="evenodd" class="shp9" d="M772.08 738.48L763.17 738.47C764 742.22 770.98 745.25 772.08 738.48Z" />
				<path id="1" fill-rule="evenodd" class="shp10" d="M772.08 738.48L763.17 738.47C764 742.22 770.98 745.25 772.08 738.48Z" />
			</g>
			<g id="Layer">
				<path id="Layer" fill-rule="evenodd" class="shp9" d="M805.36 741.73L812.48 741.73C812.19 736.73 813.12 738.47 805.36 738.47L805.36 741.73Z" />
				<path id="1" fill-rule="evenodd" class="shp10" d="M805.36 741.73L812.48 741.73C812.19 736.73 813.12 738.47 805.36 738.47L805.36 741.73Z" />
			</g>
			<g id="Layer">
				<path id="Layer" fill-rule="evenodd" class="shp9" d="M872.86 738.47C873.32 743.44 872.31 741.73 880.01 741.73L880.01 738.47L872.86 738.47Z" />
				<path id="1" fill-rule="evenodd" class="shp10" d="M872.86 738.47C873.32 743.44 872.31 741.73 880.01 741.73L880.01 738.47L872.86 738.47Z" />
			</g>
			<g id="Layer">
				<path id="Layer" fill-rule="evenodd" class="shp9" d="M480.87 738.47C473.2 738.47 474.27 736.68 473.81 741.73L480.86 741.73L480.87 738.47Z" />
				<path id="1" fill-rule="evenodd" class="shp10" d="M480.87 738.47C473.2 738.47 474.27 736.68 473.81 741.73L480.86 741.73L480.87 738.47Z" />
			</g>
			<g id="Layer">
				<path id="Layer" fill-rule="evenodd" class="shp9" d="M547.39 741.73L547.36 738.47L540.88 738.47C540.4 743.69 540.73 741.73 547.39 741.73Z" />
				<path id="1" fill-rule="evenodd" class="shp10" d="M547.39 741.73L547.36 738.47L540.88 738.47C540.4 743.69 540.73 741.73 547.39 741.73Z" />
			</g>
			<g id="Layer">
				<path id="Layer" fill-rule="evenodd" class="shp9" d="M464.64 741.73L464.64 738.47L458.06 738.48C458.14 743.7 457.02 741.73 464.64 741.73Z" />
				<path id="1" fill-rule="evenodd" class="shp10" d="M464.64 741.73L464.64 738.47L458.06 738.48C458.14 743.7 457.02 741.73 464.64 741.73Z" />
			</g>
			<g id="Layer">
				<path id="Layer" class="shp9" d="M531.47 741.72L531.42 738.47L524.66 738.47L524.66 741.73L531.47 741.72Z" />
				<path id="1" class="shp10" d="M531.47 741.72L531.42 738.47L524.66 738.47L524.66 741.73L531.47 741.72Z" />
			</g>
			<g id="Layer">
				<path id="Layer" class="shp9" d="M904.33 741.73L911.04 741.73L911.07 738.48L904.33 738.47L904.33 741.73Z" />
				<path id="1" class="shp10" d="M904.33 741.73L911.04 741.73L911.07 738.48L904.33 738.47L904.33 741.73Z" />
			</g>
			<g id="Layer">
				<path id="Layer" class="shp9" d="M448.62 741.72L448.59 738.47L441.91 738.47L441.91 741.73L448.62 741.72Z" />
				<path id="1" class="shp10" d="M448.62 741.72L448.59 738.47L441.91 738.47L441.91 741.73L448.62 741.72Z" />
			</g>
			<g id="Layer">
				<path id="Layer" class="shp9" d="M821.58 741.73L828.21 741.73L828.32 738.48L821.58 738.47L821.58 741.73Z" />
				<path id="1" class="shp10" d="M821.58 741.73L828.21 741.73L828.32 738.48L821.58 738.47L821.58 741.73Z" />
			</g>
			<g id="Layer">
				<path id="Layer" class="shp9" d="M837.71 738.47L837.64 741.72L844.31 741.73L844.31 738.47L837.71 738.47Z" />
				<path id="1" class="shp10" d="M837.71 738.47L837.64 741.72L844.31 741.73L844.31 738.47L837.71 738.47Z" />
			</g>
			<g id="Layer">
				<path id="Layer" fill-rule="evenodd" class="shp9" d="M515.77 738.47L508.43 738.47C508.45 738.47 514.21 747.97 515.77 738.47Z" />
				<path id="1" fill-rule="evenodd" class="shp10" d="M515.77 738.47L508.43 738.47C508.45 738.47 514.21 747.97 515.77 738.47Z" />
			</g>
		</g>
	</g>
</svg>