<svg xmlns="http://www.w3.org/2000/svg" viewBox="0 0 1459 1271" width="1459" height="1271">
	<style>
		tspan { white-space:pre }
		.shp0 { fill: #8dc9f6 } 
		.shp1 { fill: #aed9f7 } 
		.shp2 { fill: #c6e4f8 } 
		.shp3 { fill: #3a9a46 } 
		.shp4 { fill: #7ac8c9 } 
		.shp5 { fill: #60bfc0 } 
		.shp6 { fill: #9dd8d9 } 
		.shp7 { fill: none } 
		.shp8 { fill: #f4f4f4 } 
		.shp9 { fill: #663333 } 
		.shp10 { fill: #ffffff } 
		.shp11 { fill: #000000 } 
	</style>
	<g id="Layer_x0020_1">
		<path id="Layer" fill-rule="evenodd" class="shp0" d="M662 0.64C944.6 0.64 1173.69 229.73 1173.69 512.33C1173.69 794.92 944.6 1024.01 662 1024.01C379.41 1024.01 150.32 794.92 150.32 512.33C150.32 229.73 379.41 0.64 662 0.64L662 0.64Z" />
		<g id="Layer">
			<g id="_2773685675824">
				<path id="Layer" class="shp1" d="M662 1126.91C379.04 1126.91 150.31 898.18 150.31 615.22C150.31 332.26 379.04 103.53 662 103.53C944.96 103.53 1173.69 332.26 1173.69 615.22C1173.69 898.18 944.96 1126.91 662 1126.91Z" />
				<path id="Layer" class="shp2" d="M662 1270.09C379.04 1270.09 150.31 1041.36 150.31 758.4C150.31 475.44 379.04 246.71 662 246.71C944.96 246.71 1173.69 475.44 1173.69 758.4C1173.69 1041.36 944.96 1270.09 662 1270.09Z" />
				<path id="Layer" fill-rule="evenodd" class="shp3" d="M394.89 684.94C352.28 679.08 333.88 699.46 325.63 733.85C317.79 739.37 328.31 734.22 317.73 736.89C299.97 741.36 254.96 740.21 259.74 805.67L227.18 811.29L262.02 885.42L414.78 886C429.81 833.85 454.2 847.62 511.08 846.46L511.84 684C470.95 660.01 449.34 662.7 422.69 701.1C414.41 697.73 406.22 690.71 394.89 684.94L394.89 684.94Z" />
				<path id="Layer" fill-rule="evenodd" class="shp3" d="M994.38 684.94C1036.99 679.08 1055.39 699.46 1063.64 733.85C1071.48 739.37 1060.96 734.22 1071.54 736.89C1089.3 741.36 1134.31 740.21 1129.53 805.67L1162.09 811.29L1127.25 885.42L974.49 886C959.46 833.85 935.07 847.62 878.19 846.46L877.43 684C918.32 660.01 939.93 662.7 966.58 701.1C974.86 697.73 983.05 690.71 994.38 684.94L994.38 684.94Z" />
				<path id="Layer" fill-rule="evenodd" class="shp4" d="M71.93 900.57C82.28 922.72 224.6 1028.68 258.56 1041.74C283.81 1022.81 319.35 1050.49 320.79 1057.18C345.18 1027.45 383.84 1030.66 411.96 1054.79C458.91 1014.49 491.43 1048.68 504.37 1055.06C553.11 1010.81 587.83 1053.24 593.09 1056.53C635.58 1026.18 640.17 1028.55 681.81 1054.74C738.71 1012.61 771.04 1053.7 771.78 1057.18C796.27 1027.33 834.56 1030.43 862.95 1054.79C877.78 1042.06 884.08 1037.11 911.05 1036.69C937.2 1036.27 943.13 1046.24 954.73 1059.15C971.88 1035.77 1012.16 1020.94 1039.57 1055.99C1050.42 1050.86 1087.64 1012.66 1132.8 1054.74C1153.35 1039.52 1154.83 1035.57 1190.73 1035.94L1181.95 1052.72C1219.61 1040.12 1370.92 927.33 1388.14 900.07C1357.73 884.39 1333.05 900.48 1314.87 915.62C1277.66 885.45 1259.4 888.1 1221.65 914.95C1212.85 905.28 1197.18 894.88 1176.96 894.07C1155.68 893.23 1145.3 907.08 1132.8 913.67C1076.75 884.4 1093.32 885.98 1040.85 914.95C990.78 876.71 995.16 894.13 951.67 915.96C918.2 885.19 895.31 888.56 863.02 914.64C825.1 884.56 806.78 889.26 770.65 914.95C762.78 906.29 744.21 894.14 726.18 893.81C704.74 893.41 694.42 907.02 681.81 913.67C666.83 905.33 656.08 892.66 633.91 893.83C610.02 895.08 605.08 909.48 588.18 915.81C553.87 874.66 532.85 899.38 499.75 916.4C476.42 883.71 441.74 890.64 412.03 914.64C374.47 884.85 355.87 889.2 319.66 914.95C312.46 907.04 292.56 893.86 275.34 893.75C253.72 893.62 243.6 906.9 230.82 913.71C214.13 905.49 185 870.75 143.81 916.78L133.48 909.54C128.33 905.55 133.88 909.26 127.21 904.29C122.37 900.68 116.51 897.25 110.27 895.76C96 892.37 82.58 897.13 71.93 900.57L71.93 900.57Z" />
				<path id="Layer" fill-rule="evenodd" class="shp5" d="M71.93 900.57C82.58 897.13 96 892.37 110.27 895.76C116.51 897.25 122.37 900.68 127.21 904.29C133.88 909.26 128.33 905.55 133.48 909.54L143.81 916.78C185 870.75 214.13 905.49 230.82 913.71C243.6 906.9 253.72 893.62 275.34 893.75C292.56 893.86 312.46 907.04 319.66 914.95C355.87 889.2 374.47 884.85 412.03 914.64C441.74 890.64 476.42 883.71 499.75 916.4C532.85 899.38 553.87 874.66 588.18 915.81C605.08 909.48 610.02 895.08 633.91 893.83C656.08 892.66 666.83 905.33 681.81 913.67C694.42 907.02 704.74 893.41 726.18 893.81C744.21 894.14 762.78 906.29 770.65 914.95C806.78 889.26 825.1 884.56 863.02 914.64C895.31 888.56 918.2 885.19 951.67 915.96C995.16 894.13 990.78 876.71 1040.85 914.95C1093.32 885.98 1076.75 884.4 1132.8 913.67C1145.3 907.08 1155.68 893.23 1176.96 894.07C1197.18 894.88 1212.85 905.28 1221.65 914.95C1259.4 888.1 1277.66 885.45 1314.87 915.62C1333.05 900.48 1357.73 884.39 1388.14 900.07C1401.83 889.63 1450.12 840.82 1458.66 823.61C1435.24 822.39 1430.26 823.16 1414.63 835.1C1407.51 840.54 1414.74 837.76 1402.66 843.4C1389.54 835.52 1379.8 820.75 1354.84 823.39C1333.62 825.64 1324.95 836.4 1313.69 844.64C1298.54 832.47 1294.36 823.8 1269.56 823.83C1240.05 823.87 1239.79 831.63 1221.52 842.18C1183.1 804.58 1152.06 830.64 1132.8 842.52C1071.49 806.03 1080.85 825.82 1040.39 841.89C1000.85 812.7 986.38 816.99 951.88 844.64C939.46 834.8 933.81 822.1 907.41 823.48C883.39 824.73 874.6 837.12 857.77 843.15C848.58 828.69 838.02 823.73 814.99 823.77C790.37 823.82 785.92 833.29 770.53 842.18C731.23 803.71 699.46 831.64 681.81 842.52C642.18 819.9 631.29 810.13 590.44 843.54C554.08 814.21 537.14 815.65 500.93 844.68C472.76 814.01 443.72 817.86 411.96 842.42C404.38 839.04 410.76 842.08 404.7 837.98C363.21 809.9 346.84 826.42 319.54 842.18C310.43 833.27 293.61 823 275.19 822.85C253.05 822.67 243.16 834.91 230.82 842.52C218.54 836.87 186.64 798.44 141.74 844.93C133.39 839.16 112.06 809.64 70.55 829.68L49.68 842.52C34.32 830.53 27.86 824.66 0.55 824.37C14.64 845.67 53.88 886.53 71.93 900.57L71.93 900.57Z" />
				<path id="Layer" fill-rule="evenodd" class="shp6" d="M653.4 1167.05L806.38 1167.04L859.24 1160.17C898.73 1154.7 1029.66 1124.49 1055.64 1112.72L1175.84 1058.51C1180.25 1055.05 1179.76 1055.02 1181.95 1052.72L1190.73 1035.94C1154.83 1035.57 1153.35 1039.52 1132.8 1054.74C1087.64 1012.66 1050.42 1050.86 1039.57 1055.99C1012.16 1020.94 971.88 1035.77 954.73 1059.15C943.13 1046.24 937.2 1036.27 911.05 1036.69C884.08 1037.11 877.78 1042.06 862.95 1054.79C834.56 1030.43 796.27 1027.33 771.78 1057.18C771.04 1053.7 738.71 1012.61 681.81 1054.74C640.17 1028.55 635.58 1026.18 593.09 1056.53C587.83 1053.24 553.11 1010.81 504.37 1055.06C491.43 1048.68 458.91 1014.49 411.96 1054.79C383.84 1030.66 345.18 1027.45 320.79 1057.18C319.35 1050.49 283.81 1022.81 258.56 1041.74C284.1 1066.8 410.21 1114.92 437.24 1123.17C521.71 1148.94 556.98 1153.86 640.98 1163.55L653.4 1167.05L653.4 1167.05Z" />
			</g>
		</g>
		<path id="Layer" fill-rule="evenodd" class="shp7" d="M662 0.64C944.6 0.64 1173.69 229.73 1173.69 512.33C1173.69 794.92 944.6 1024.01 662 1024.01C379.41 1024.01 150.32 794.92 150.32 512.33C150.32 229.73 379.41 0.64 662 0.64L662 0.64Z" />
		<g id="_2773685677312">
			<path id="Layer" fill-rule="evenodd" class="shp8" d="M957.18 193.44C957.09 193.58 954.37 198.83 952.9 200.37C925.82 185.68 925.47 200.64 912.73 216.26C901.16 230.44 888 225.79 890.4 257.01L1007.97 257.74L1068.81 257.36C1067.16 234.39 1057.78 236.9 1044.29 227.03C1029.73 216.4 1037.28 206.97 1006.06 212.43C994.95 184.76 983.79 190.28 957.18 193.44L957.18 193.44Z" />
		</g>
		<g id="_2773685679088">
			<path id="Layer" fill-rule="evenodd" class="shp8" d="M624.09 60.33C624.01 60.46 621.29 65.71 619.82 67.25C592.73 52.56 592.39 67.52 579.64 83.14C568.08 97.32 554.92 92.67 557.32 123.89L674.89 124.62L735.73 124.24C734.07 101.27 724.7 103.78 711.2 93.91C696.64 83.28 704.19 73.85 672.97 79.31C661.86 51.64 650.71 57.16 624.09 60.33L624.09 60.33Z" />
		</g>
		<g id="_2773685677360">
			<path id="Layer" fill-rule="evenodd" class="shp8" d="M255.32 265.39C255.23 265.52 252.52 270.77 251.05 272.31C223.96 257.63 223.61 272.59 210.87 288.21C199.3 302.39 186.15 297.73 188.55 328.95L306.12 329.68L366.96 329.3C365.3 306.34 355.93 308.84 342.43 298.98C327.87 288.34 335.42 278.91 304.2 284.38C293.09 256.71 281.94 262.22 255.32 265.39L255.32 265.39Z" />
		</g>
		<path id="Layer" class="shp9" d="M274.29 837.35L1046.63 837.35L1045.85 547.14L1021.67 531.54L951.46 518.28L864.86 517.5L789.8 533.16L789.58 506.18L814.74 505.99L814.74 495.46L786.85 485.9L771.44 486.09L771.32 482.58L743.13 477.34L580.28 476.95L551.8 482.51L552 485.73L534.35 486.02L507.04 493.63L507.14 505.23L528.01 504.94L528.3 528.05L462.77 513.62L367.98 512.84L300.88 528.05L273.19 543.66L274.29 837.35Z" />
		<g id="Layer">
			<g id="_2773685677600">
				<path id="Layer" class="shp10" d="M371.2 501.62L371.2 501.62C372.98 501.62 374.42 503.06 374.42 504.84L374.42 834.13C374.42 835.91 372.98 837.35 371.2 837.35L371.2 837.35C369.42 837.35 367.98 835.91 367.98 834.13L367.98 504.84C367.98 503.06 369.42 501.62 371.2 501.62Z" />
				<path id="Layer" class="shp10" d="M300.98 505.13L300.98 505.13C302.76 505.13 304.2 506.57 304.2 508.35L304.2 837.64C304.2 839.42 302.76 840.86 300.98 840.86L300.98 840.86C299.2 840.86 297.76 839.42 297.76 837.64L297.76 508.35C297.76 506.57 299.2 505.13 300.98 505.13Z" />
				<path id="Layer" class="shp10" d="M459.74 507.86L459.74 507.86C461.52 507.86 462.96 509.3 462.96 511.08L462.96 840.37C462.96 842.15 461.52 843.59 459.74 843.59L459.74 843.59C457.96 843.59 456.52 842.15 456.52 840.37L456.52 511.08C456.52 509.3 457.96 507.86 459.74 507.86Z" />
				<path id="Layer" class="shp10" d="M528.82 480.35L528.82 480.35C530.6 480.35 532.04 481.79 532.04 483.57L532.04 841.15C532.04 842.93 530.6 844.37 528.82 844.37L528.82 844.37C527.04 844.37 525.6 842.93 525.6 841.15L525.6 483.57C525.6 481.79 527.04 480.35 528.82 480.35Z" />
				<path id="Layer" class="shp10" d="M551.1 544.27L554.62 544.27C555.43 544.27 556.08 544.92 556.08 545.73L556.08 884.99C556.08 885.8 555.43 886.45 554.62 886.45L551.1 886.45C550.29 886.45 549.64 885.8 549.64 884.99L549.64 545.73C549.64 544.92 550.29 544.27 551.1 544.27Z" />
				<path id="Layer" class="shp10" d="M861.78 515.66L861.78 515.66C863.56 515.66 865 517.1 865 518.88L865 848.17C865 849.95 863.56 851.39 861.78 851.39L861.78 851.39C860 851.39 858.56 849.95 858.56 848.17L858.56 518.88C858.56 517.1 860 515.66 861.78 515.66Z" />
				<path id="Layer" class="shp10" d="M949.94 510.2L949.94 510.2C951.72 510.2 953.16 511.64 953.16 513.42L953.16 842.71C953.16 844.49 951.72 845.93 949.94 845.93L949.94 845.93C948.16 845.93 946.72 844.49 946.72 842.71L946.72 513.42C946.72 511.64 948.16 510.2 949.94 510.2Z" />
				<path id="Layer" class="shp10" d="M1019.37 523.47L1019.37 523.47C1021.15 523.47 1022.59 524.91 1022.59 526.69L1022.59 855.98C1022.59 857.76 1021.15 859.2 1019.37 859.2L1019.37 859.2C1017.59 859.2 1016.15 857.76 1016.15 855.98L1016.15 526.69C1016.15 524.91 1017.59 523.47 1019.37 523.47Z" />
				<path id="Layer" class="shp10" d="M792.54 482.12L792.54 482.12C794.32 482.12 795.76 483.56 795.76 485.34L795.76 848.24C795.76 850.02 794.32 851.46 792.54 851.46L792.54 851.46C790.76 851.46 789.32 850.02 789.32 848.24L789.32 485.34C789.32 483.56 790.76 482.12 792.54 482.12Z" />
				<path id="Layer" class="shp10" d="M767.38 555L767.38 555C769.16 555 770.6 556.44 770.6 558.22L770.6 842.78C770.6 844.56 769.16 846 767.38 846L767.38 846C765.6 846 764.16 844.56 764.16 842.78L764.16 558.22C764.16 556.44 765.6 555 767.38 555Z" />
			</g>
		</g>
		<path id="Layer" class="shp7" d="M274.29 837.35L1046.63 837.35L1045.85 547.14L1021.67 531.54L951.46 518.28L864.86 517.5L789.8 533.16L789.58 506.18L814.74 505.99L814.74 495.46L786.85 485.9L771.44 486.09L771.32 482.58L743.13 477.34L580.28 476.95L551.8 482.51L552 485.73L534.35 486.02L507.04 493.63L507.14 505.23L528.01 504.94L528.3 528.05L462.77 513.62L367.98 512.84L300.88 528.05L273.19 543.66L274.29 837.35Z" />
		<path id="Layer" class="shp10" d="M553.84 821.78L766.82 820.61L767.4 814.17L554.03 814.95L553.84 821.78Z" />
		<path id="Layer" fill-rule="evenodd" class="shp10" d="M624.64 709.44C624.64 709.44 631.46 688.76 660.52 679.99C660.52 679.99 690.75 689.15 695.63 709.44L696.01 814.43L624.05 814.69L624.64 709.44Z" />
		<path id="Layer" fill-rule="evenodd" class="shp10" d="M608.64 814.75L608.84 704.95C608.84 704.95 620.64 670.04 660.13 662.43C660.13 662.43 697.77 667.21 711.82 704.66L712.59 813.98L718.44 813.98L718.49 705.83C718.49 705.83 709.87 662.7 659.91 657.15C659.91 657.15 616.39 660.19 602.93 706.22L603.66 814.32L608.64 814.75L608.64 814.75Z" />
		<path id="Layer" class="shp10" d="M567.1 609.17L752.03 607.92L756.12 607.72L756.51 620.6L567.23 621.37L567.1 609.17Z" />
		<path id="Layer" class="shp10" d="M572.62 621.35L578.86 621.35L578.86 817.66L572.62 817.66L572.62 621.35Z" />
		<path id="Layer" class="shp10" d="M742.69 619.79L748.93 619.79L748.93 816.1L742.69 816.1L742.69 619.79Z" />
		<path id="Layer" class="shp10" d="M728.36 624.58L728.36 624.58C730.14 624.58 731.58 626.02 731.58 627.8L731.58 652.18C731.58 653.96 730.14 655.4 728.36 655.4L728.36 655.4C726.58 655.4 725.14 653.96 725.14 652.18L725.14 627.8C725.14 626.02 726.58 624.58 728.36 624.58Z" />
		<path id="Layer" class="shp10" d="M701.25 624.78L701.25 624.78C703.03 624.78 704.47 626.22 704.47 628L704.47 652.38C704.47 654.16 703.03 655.6 701.25 655.6L701.25 655.6C699.47 655.6 698.03 654.16 698.03 652.38L698.03 628C698.03 626.22 699.47 624.78 701.25 624.78Z" />
		<path id="Layer" class="shp10" d="M674.33 624.78L674.33 624.78C676.11 624.78 677.55 626.22 677.55 628L677.55 652.38C677.55 654.16 676.11 655.6 674.33 655.6L674.33 655.6C672.55 655.6 671.11 654.16 671.11 652.38L671.11 628C671.11 626.22 672.55 624.78 674.33 624.78Z" />
		<path id="Layer" class="shp10" d="M646.25 624.78L646.25 624.78C648.03 624.78 649.47 626.22 649.47 628L649.47 652.38C649.47 654.16 648.03 655.6 646.25 655.6L646.25 655.6C644.47 655.6 643.03 654.16 643.03 652.38L643.03 628C643.03 626.22 644.47 624.78 646.25 624.78Z" />
		<path id="Layer" class="shp10" d="M620.11 625.95L620.11 625.95C621.89 625.95 623.33 627.39 623.33 629.17L623.33 653.55C623.33 655.33 621.89 656.77 620.11 656.77L620.11 656.77C618.33 656.77 616.89 655.33 616.89 653.55L616.89 629.17C616.89 627.39 618.33 625.95 620.11 625.95Z" />
		<path id="Layer" class="shp10" d="M592.81 626.34L592.81 626.34C594.59 626.34 596.03 627.78 596.03 629.56L596.03 653.94C596.03 655.72 594.59 657.16 592.81 657.16L592.81 657.16C591.03 657.16 589.59 655.72 589.59 653.94L589.59 629.56C589.59 627.78 591.03 626.34 592.81 626.34Z" />
		<path id="Layer" class="shp10" d="M829.39 604.69L829.39 604.69C831.17 604.69 832.61 606.13 832.61 607.91L832.61 663.69C832.61 665.47 831.17 666.91 829.39 666.91L829.39 666.91C827.61 666.91 826.17 665.47 826.17 663.69L826.17 607.91C826.17 606.13 827.61 604.69 829.39 604.69Z" />
		<path id="Layer" class="shp10" d="M848.89 600.79L848.89 600.79C850.67 600.79 852.11 602.23 852.11 604.01L852.11 659.79C852.11 661.57 850.67 663.01 848.89 663.01L848.89 663.01C847.11 663.01 845.67 661.57 845.67 659.79L845.67 604.01C845.67 602.23 847.11 600.79 848.89 600.79Z" />
		<path id="Layer" class="shp10" d="M808.71 609.76L808.71 609.76C810.49 609.76 811.93 611.2 811.93 612.98L811.93 668.76C811.93 670.54 810.49 671.98 808.71 671.98L808.71 671.98C806.93 671.98 805.49 670.54 805.49 668.76L805.49 612.98C805.49 611.2 806.93 609.76 808.71 609.76Z" />
		<path id="Layer" class="shp10" d="M880.09 598.06L880.09 598.06C881.87 598.06 883.31 599.5 883.31 601.28L883.31 657.06C883.31 658.84 881.87 660.28 880.09 660.28L880.09 660.28C878.31 660.28 876.87 658.84 876.87 657.06L876.87 601.28C876.87 599.5 878.31 598.06 880.09 598.06Z" />
		<path id="Layer" class="shp10" d="M908.18 597.28L908.18 597.28C909.96 597.28 911.4 598.72 911.4 600.5L911.4 656.28C911.4 658.06 909.96 659.5 908.18 659.5L908.18 659.5C906.4 659.5 904.96 658.06 904.96 656.28L904.96 600.5C904.96 598.72 906.4 597.28 908.18 597.28Z" />
		<path id="Layer" class="shp10" d="M934.31 597.28L934.31 597.28C936.09 597.28 937.53 598.72 937.53 600.5L937.53 656.28C937.53 658.06 936.09 659.5 934.31 659.5L934.31 659.5C932.53 659.5 931.09 658.06 931.09 656.28L931.09 600.5C931.09 598.72 932.53 597.28 934.31 597.28Z" />
		<path id="Layer" class="shp10" d="M966.49 600.4L966.49 600.4C968.27 600.4 969.71 601.84 969.71 603.62L969.71 659.4C969.71 661.18 968.27 662.62 966.49 662.62L966.49 662.62C964.71 662.62 963.27 661.18 963.27 659.4L963.27 603.62C963.27 601.84 964.71 600.4 966.49 600.4Z" />
		<path id="Layer" class="shp10" d="M987.17 605.86L987.17 605.86C988.95 605.86 990.39 607.3 990.39 609.08L990.39 664.86C990.39 666.64 988.95 668.08 987.17 668.08L987.17 668.08C985.39 668.08 983.95 666.64 983.95 664.86L983.95 609.08C983.95 607.3 985.39 605.86 987.17 605.86Z" />
		<path id="Layer" class="shp10" d="M1008.23 609.76L1008.23 609.76C1010.01 609.76 1011.45 611.2 1011.45 612.98L1011.45 668.76C1011.45 670.54 1010.01 671.98 1008.23 671.98L1008.23 671.98C1006.45 671.98 1005.01 670.54 1005.01 668.76L1005.01 612.98C1005.01 611.2 1006.45 609.76 1008.23 609.76Z" />
		<path id="Layer" class="shp10" d="M1033.98 617.56L1033.98 617.56C1035.76 617.56 1037.2 619 1037.2 620.78L1037.2 676.56C1037.2 678.34 1035.76 679.78 1033.98 679.78L1033.98 679.78C1032.2 679.78 1030.76 678.34 1030.76 676.56L1030.76 620.78C1030.76 619 1032.2 617.56 1033.98 617.56Z" />
		<path id="Layer" class="shp10" d="M779.65 617.17L779.65 617.17C781.43 617.17 782.87 618.61 782.87 620.39L782.87 676.17C782.87 677.95 781.43 679.39 779.65 679.39L779.65 679.39C777.87 679.39 776.43 677.95 776.43 676.17L776.43 620.39C776.43 618.61 777.87 617.17 779.65 617.17Z" />
		<path id="Layer" class="shp10" d="M779.94 545.88L779.94 545.88C781.72 545.88 783.16 547.32 783.16 549.1L783.16 580.2C783.16 581.98 781.72 583.42 779.94 583.42L779.94 583.42C778.16 583.42 776.72 581.98 776.72 580.2L776.72 549.1C776.72 547.32 778.16 545.88 779.94 545.88Z" />
		<path id="Layer" class="shp10" d="M808.03 542.76L808.03 542.76C809.81 542.76 811.25 544.2 811.25 545.98L811.25 577.08C811.25 578.86 809.81 580.3 808.03 580.3L808.03 580.3C806.25 580.3 804.81 578.86 804.81 577.08L804.81 545.98C804.81 544.2 806.25 542.76 808.03 542.76Z" />
		<path id="Layer" class="shp10" d="M848.99 533.99L848.99 533.99C850.77 533.99 852.21 535.43 852.21 537.21L852.21 568.31C852.21 570.09 850.77 571.53 848.99 571.53L848.99 571.53C847.21 571.53 845.77 570.09 845.77 568.31L845.77 537.21C845.77 535.43 847.21 533.99 848.99 533.99Z" />
		<path id="Layer" class="shp10" d="M881.36 530.67L881.36 530.67C883.14 530.67 884.58 532.11 884.58 533.89L884.58 564.99C884.58 566.77 883.14 568.21 881.36 568.21L881.36 568.21C879.58 568.21 878.14 566.77 878.14 564.99L878.14 533.89C878.14 532.11 879.58 530.67 881.36 530.67Z" />
		<path id="Layer" class="shp10" d="M935.58 529.11L935.58 529.11C937.36 529.11 938.8 530.55 938.8 532.33L938.8 563.43C938.8 565.21 937.36 566.65 935.58 566.65L935.58 566.65C933.8 566.65 932.36 565.21 932.36 563.43L932.36 532.33C932.36 530.55 933.8 529.11 935.58 529.11Z" />
		<path id="Layer" class="shp10" d="M966.01 534.18L966.01 534.18C967.79 534.18 969.23 535.62 969.23 537.4L969.23 568.5C969.23 570.28 967.79 571.72 966.01 571.72L966.01 571.72C964.23 571.72 962.79 570.28 962.79 568.5L962.79 537.4C962.79 535.62 964.23 534.18 966.01 534.18Z" />
		<path id="Layer" class="shp10" d="M1008.13 542.37L1008.13 542.37C1009.91 542.37 1011.35 543.81 1011.35 545.59L1011.35 576.69C1011.35 578.47 1009.91 579.91 1008.13 579.91L1008.13 579.91C1006.35 579.91 1004.91 578.47 1004.91 576.69L1004.91 545.59C1004.91 543.81 1006.35 542.37 1008.13 542.37Z" />
		<path id="Layer" class="shp10" d="M1034.27 546.86L1034.27 546.86C1036.05 546.86 1037.49 548.3 1037.49 550.08L1037.49 581.18C1037.49 582.96 1036.05 584.4 1034.27 584.4L1034.27 584.4C1032.49 584.4 1031.05 582.96 1031.05 581.18L1031.05 550.08C1031.05 548.3 1032.49 546.86 1034.27 546.86Z" />
		<path id="Layer" class="shp10" d="M541.51 547.35L541.51 547.35C543.29 547.35 544.73 548.79 544.73 550.57L544.73 581.67C544.73 583.45 543.29 584.89 541.51 584.89L541.51 584.89C539.73 584.89 538.29 583.45 538.29 581.67L538.29 550.57C538.29 548.79 539.73 547.35 541.51 547.35Z" />
		<path id="Layer" class="shp10" d="M515.38 542.86L515.38 542.86C517.16 542.86 518.6 544.3 518.6 546.08L518.6 577.18C518.6 578.96 517.16 580.4 515.38 580.4L515.38 580.4C513.6 580.4 512.16 578.96 512.16 577.18L512.16 546.08C512.16 544.3 513.6 542.86 515.38 542.86Z" />
		<path id="Layer" class="shp10" d="M473.83 533.69L473.83 533.69C475.61 533.69 477.05 535.13 477.05 536.91L477.05 568.01C477.05 569.79 475.61 571.23 473.83 571.23L473.83 571.23C472.05 571.23 470.61 569.79 470.61 568.01L470.61 536.91C470.61 535.13 472.05 533.69 473.83 533.69Z" />
		<path id="Layer" class="shp10" d="M441.85 529.21L441.85 529.21C443.63 529.21 445.07 530.65 445.07 532.43L445.07 563.53C445.07 565.31 443.63 566.75 441.85 566.75L441.85 566.75C440.07 566.75 438.63 565.31 438.63 563.53L438.63 532.43C438.63 530.65 440.07 529.21 441.85 529.21Z" />
		<path id="Layer" class="shp10" d="M387.43 529.21L387.43 529.21C389.21 529.21 390.65 530.65 390.65 532.43L390.65 563.53C390.65 565.31 389.21 566.75 387.43 566.75L387.43 566.75C385.65 566.75 384.21 565.31 384.21 563.53L384.21 532.43C384.21 530.65 385.65 529.21 387.43 529.21Z" />
		<path id="Layer" class="shp10" d="M356.81 533.11L356.81 533.11C358.59 533.11 360.03 534.55 360.03 536.33L360.03 567.43C360.03 569.21 358.59 570.65 356.81 570.65L356.81 570.65C355.03 570.65 353.59 569.21 353.59 567.43L353.59 536.33C353.59 534.55 355.03 533.11 356.81 533.11Z" />
		<path id="Layer" class="shp10" d="M313.9 542.47L313.9 542.47C315.68 542.47 317.12 543.91 317.12 545.69L317.12 576.79C317.12 578.57 315.68 580.01 313.9 580.01L313.9 580.01C312.12 580.01 310.68 578.57 310.68 576.79L310.68 545.69C310.68 543.91 312.12 542.47 313.9 542.47Z" />
		<path id="Layer" class="shp10" d="M286.79 546.18L286.79 546.18C288.57 546.18 290.01 547.62 290.01 549.4L290.01 580.5C290.01 582.28 288.57 583.72 286.79 583.72L286.79 583.72C285.01 583.72 283.57 582.28 283.57 580.5L283.57 549.4C283.57 547.62 285.01 546.18 286.79 546.18Z" />
		<path id="Layer" class="shp10" d="M414.93 597.86L414.93 597.86C416.71 597.86 418.15 599.3 418.15 601.08L418.15 656.95C418.15 658.73 416.71 660.17 414.93 660.17L414.93 660.17C413.15 660.17 411.71 658.73 411.71 656.95L411.71 601.08C411.71 599.3 413.15 597.86 414.93 597.86Z" />
		<path id="Layer" class="shp10" d="M443.01 597.86L443.01 597.86C444.79 597.86 446.23 599.3 446.23 601.08L446.23 656.95C446.23 658.73 444.79 660.17 443.01 660.17L443.01 660.17C441.23 660.17 439.79 658.73 439.79 656.95L439.79 601.08C439.79 599.3 441.23 597.86 443.01 597.86Z" />
		<path id="Layer" class="shp10" d="M387.62 597.86L387.62 597.86C389.4 597.86 390.84 599.3 390.84 601.08L390.84 656.95C390.84 658.73 389.4 660.17 387.62 660.17L387.62 660.17C385.84 660.17 384.4 658.73 384.4 656.95L384.4 601.08C384.4 599.3 385.84 597.86 387.62 597.86Z" />
		<path id="Layer" class="shp10" d="M473.83 601.76L473.83 601.76C475.61 601.76 477.05 603.2 477.05 604.98L477.05 660.85C477.05 662.63 475.61 664.07 473.83 664.07L473.83 664.07C472.05 664.07 470.61 662.63 470.61 660.85L470.61 604.98C470.61 603.2 472.05 601.76 473.83 601.76Z" />
		<path id="Layer" class="shp10" d="M494.11 605.27L494.11 605.27C495.89 605.27 497.33 606.71 497.33 608.49L497.33 664.36C497.33 666.14 495.89 667.58 494.11 667.58L494.11 667.58C492.33 667.58 490.89 666.14 490.89 664.36L490.89 608.49C490.89 606.71 492.33 605.27 494.11 605.27Z" />
		<path id="Layer" class="shp10" d="M515.56 609.95L515.56 609.95C517.34 609.95 518.78 611.39 518.78 613.17L518.78 669.04C518.78 670.82 517.34 672.26 515.56 672.26L515.56 672.26C513.78 672.26 512.34 670.82 512.34 669.04L512.34 613.17C512.34 611.39 513.78 609.95 515.56 609.95Z" />
		<path id="Layer" class="shp10" d="M540.92 616.58L540.92 616.58C542.7 616.58 544.14 618.02 544.14 619.8L544.14 675.67C544.14 677.45 542.7 678.89 540.92 678.89L540.92 678.89C539.14 678.89 537.7 677.45 537.7 675.67L537.7 619.8C537.7 618.02 539.14 616.58 540.92 616.58Z" />
		<path id="Layer" class="shp10" d="M355.63 599.81L355.63 599.81C357.41 599.81 358.85 601.25 358.85 603.03L358.85 658.9C358.85 660.68 357.41 662.12 355.63 662.12L355.63 662.12C353.85 662.12 352.41 660.68 352.41 658.9L352.41 603.03C352.41 601.25 353.85 599.81 355.63 599.81Z" />
		<path id="Layer" class="shp10" d="M334.57 604.88L334.57 604.88C336.35 604.88 337.79 606.32 337.79 608.1L337.79 663.97C337.79 665.75 336.35 667.19 334.57 667.19L334.57 667.19C332.79 667.19 331.35 665.75 331.35 663.97L331.35 608.1C331.35 606.32 332.79 604.88 334.57 604.88Z" />
		<path id="Layer" class="shp10" d="M313.9 609.56L313.9 609.56C315.68 609.56 317.12 611 317.12 612.78L317.12 668.65C317.12 670.43 315.68 671.87 313.9 671.87L313.9 671.87C312.12 671.87 310.68 670.43 310.68 668.65L310.68 612.78C310.68 611 312.12 609.56 313.9 609.56Z" />
		<path id="Layer" class="shp10" d="M286.2 616.58L286.2 616.58C287.98 616.58 289.42 618.02 289.42 619.8L289.42 675.67C289.42 677.45 287.98 678.89 286.2 678.89L286.2 678.89C284.42 678.89 282.98 677.45 282.98 675.67L282.98 619.8C282.98 618.02 284.42 616.58 286.2 616.58Z" />
		<path id="Layer" class="shp7" d="M273.43 606.79L304.2 591.96L370.74 577.14L456.52 577.14L525.6 590.4L556.08 607.18" />
		<path id="Layer" class="shp7" d="M556.84 544.08L528.3 528.05" />
		<path id="Layer" class="shp7" d="M790.75 532.32L763.57 556.57" />
		<path id="Layer" class="shp10" d="M556.16 561.73L763.68 561.73L763.68 567.97L556.16 567.97L556.16 561.73Z" />
		<path id="Layer" fill-rule="evenodd" class="shp10" d="M569.41 578.89C575.42 578.89 580.52 575.03 582.39 569.66C584.25 575.03 589.36 578.89 595.37 578.89C601.33 578.89 606.4 575.1 608.3 569.79C610.12 575.24 615.27 579.17 621.33 579.17C627.48 579.17 632.68 575.13 634.43 569.55C636.22 575.05 641.39 579.03 647.49 579.03C653.44 579.03 658.5 575.25 660.41 569.96C662.28 575.32 667.38 579.17 673.38 579.17C679.25 579.17 684.26 575.48 686.23 570.3C688.27 575.33 693.2 578.88 698.96 578.88C704.55 578.88 709.36 575.54 711.5 570.75C713.48 575.91 718.48 579.58 724.34 579.58C730.48 579.58 735.68 575.55 737.43 569.99C739.39 575.19 744.41 578.89 750.29 578.89C756.91 578.89 762.44 574.21 763.74 567.97L555.96 567.97C557.26 574.21 562.79 578.89 569.41 578.89L569.41 578.89Z" />
		<path id="Layer" fill-rule="evenodd" class="shp11" d="M630.84 501.33C630.93 501.38 631.02 501.43 631.11 501.48C626.04 504.22 623.67 507.81 626.13 510.14C628.63 512.51 621.92 513.17 621.92 513.17L622.18 530L631.11 529.96L625.85 529.94M631.45 501.67L636.38 529.94L631.11 529.96L640.05 530L640.31 513.17C640.31 513.17 633.6 512.51 636.1 510.14C638.5 507.86 636.29 504.38 631.45 501.67ZM631.39 501.33C631.3 501.38 631.21 501.43 631.11 501.48C631.22 501.54 631.34 501.6 631.45 501.67L631.39 501.33Z" />
		<path id="Layer" fill-rule="evenodd" class="shp11" d="M648.98 501.33C649.07 501.38 649.16 501.43 649.25 501.48C644.18 504.22 641.81 507.81 644.27 510.14C646.77 512.51 640.06 513.17 640.06 513.17L640.32 530L649.25 529.96L643.99 529.94M649.59 501.67L654.52 529.94L649.25 529.96L658.19 530L658.45 513.17C658.45 513.17 651.74 512.51 654.24 510.14C656.64 507.86 654.43 504.38 649.59 501.67ZM649.53 501.33C649.44 501.38 649.35 501.43 649.25 501.48C649.36 501.54 649.48 501.6 649.59 501.67L649.53 501.33Z" />
		<path id="Layer" fill-rule="evenodd" class="shp11" d="M666.53 501.33C666.62 501.38 666.71 501.43 666.81 501.48C661.73 504.22 659.36 507.81 661.82 510.14C664.32 512.51 657.61 513.17 657.61 513.17L657.88 530L666.81 529.96L661.54 529.94M667.14 501.66L672.08 529.94L666.81 529.96L675.74 530L676 513.17C676 513.17 669.3 512.51 671.79 510.14C674.2 507.86 671.99 504.38 667.14 501.66ZM667.08 501.33C666.99 501.38 666.9 501.43 666.81 501.48C666.92 501.54 667.03 501.6 667.14 501.66L667.08 501.33Z" />
		<path id="Layer" fill-rule="evenodd" class="shp11" d="M685.06 501.33C685.15 501.38 685.24 501.43 685.33 501.48C680.26 504.22 677.89 507.81 680.35 510.14C682.85 512.51 676.14 513.17 676.14 513.17L676.4 530L685.33 529.96L680.07 529.94M685.67 501.67L690.6 529.94L685.33 529.96L694.27 530L694.53 513.17C694.53 513.17 687.82 512.51 690.32 510.14C692.72 507.86 690.51 504.38 685.67 501.67ZM685.61 501.33C685.52 501.38 685.43 501.43 685.33 501.48C685.44 501.54 685.56 501.6 685.67 501.67L685.61 501.33Z" />
		<path id="Layer" fill-rule="evenodd" class="shp11" d="M698.79 529.94L704.06 529.96L695.13 530L694.86 513.17C694.86 513.17 701.57 512.51 699.07 510.14C696.61 507.81 698.99 504.22 704.06 501.47C703.97 501.43 703.88 501.38 703.79 501.33M709.05 510.14C706.55 512.51 713.25 513.17 713.25 513.17L712.99 530L704.06 529.96L709.33 529.94L704.39 501.65C709.23 504.38 711.46 507.86 709.05 510.14ZM704.39 501.65C704.28 501.59 704.17 501.53 704.06 501.47C704.15 501.43 704.24 501.38 704.33 501.33L704.39 501.65Z" />
		<path id="Layer" fill-rule="evenodd" class="shp11" d="M722.51 501.33C722.6 501.38 722.69 501.43 722.78 501.48C717.71 504.22 715.34 507.81 717.8 510.14C720.29 512.51 713.59 513.17 713.59 513.17L713.85 530L722.78 529.96L717.51 529.94M723.12 501.67L728.05 529.94L722.78 529.96L731.71 530L731.98 513.17C731.98 513.17 725.27 512.51 727.77 510.14C730.17 507.86 727.96 504.38 723.12 501.67ZM723.06 501.33C722.97 501.38 722.88 501.43 722.78 501.48C722.89 501.54 723.01 501.6 723.12 501.67L723.06 501.33Z" />
		<path id="Layer" fill-rule="evenodd" class="shp11" d="M740.84 501.33C740.93 501.38 741.02 501.43 741.11 501.48C736.04 504.22 733.67 507.81 736.13 510.14C738.63 512.51 731.92 513.17 731.92 513.17L732.18 530L741.11 529.96L735.85 529.94M741.45 501.67L746.38 529.94L741.11 529.96L750.05 530L750.31 513.17C750.31 513.17 743.6 512.51 746.1 510.14C748.5 507.86 746.29 504.38 741.45 501.67ZM741.39 501.33C741.3 501.38 741.21 501.43 741.11 501.48C741.22 501.54 741.34 501.6 741.45 501.67L741.39 501.33Z" />
		<path id="Layer" fill-rule="evenodd" class="shp11" d="M594.58 500.81C594.67 500.86 594.76 500.91 594.85 500.96C589.78 503.7 587.41 507.29 589.87 509.62C592.36 511.99 585.66 512.64 585.66 512.64L585.92 529.47L594.85 529.43L589.58 529.41M595.19 501.15L600.12 529.41L594.85 529.43L603.78 529.47L604.05 512.64C604.05 512.64 597.34 511.99 599.84 509.62C602.24 507.34 600.03 503.86 595.19 501.15ZM595.13 500.81C595.04 500.86 594.95 500.91 594.85 500.96C594.96 501.02 595.08 501.08 595.19 501.15L595.13 500.81Z" />
		<path id="Layer" fill-rule="evenodd" class="shp11" d="M612.72 500.81C612.81 500.86 612.9 500.91 612.99 500.95C607.92 503.7 605.55 507.29 608 509.62C610.5 511.99 603.8 512.64 603.8 512.64L604.06 529.47L612.99 529.43L607.72 529.41M613.32 501.13L618.26 529.41L612.99 529.43L621.92 529.47L622.19 512.64C622.19 512.64 615.48 511.99 617.98 509.62C620.39 507.34 618.16 503.86 613.32 501.13ZM613.26 500.81C613.17 500.86 613.08 500.91 612.99 500.95C613.1 501.01 613.21 501.07 613.32 501.13L613.26 500.81Z" />
		<path id="Layer" class="shp7" d="M764.55 612.43L795.19 597.67L861.46 582.91L946.89 582.91L1015.68 596.11L1046.03 612.82" />
		<path id="Layer" class="shp11" d="M579.35 488.54L748.39 488.54" />
	</g>
</svg>