<?xml version="1.0" encoding="UTF-8"?>
<!DOCTYPE svg PUBLIC "-//W3C//DTD SVG 1.1//EN" "http://www.w3.org/Graphics/SVG/1.1/DTD/svg11.dtd">
<!-- Creator: CorelDRAW 2020 (64-Bit) -->
<svg xmlns="http://www.w3.org/2000/svg" xml:space="preserve" width="12.7mm" height="12.7mm" version="1.1" style="shape-rendering:geometricPrecision; text-rendering:geometricPrecision; image-rendering:optimizeQuality; fill-rule:evenodd; clip-rule:evenodd"
viewBox="0 0 1270 1270"
 xmlns:xlink="http://www.w3.org/1999/xlink"
 xmlns:xodm="http://www.corel.com/coreldraw/odm/2003">
 <defs>
  <style type="text/css">
   <![CDATA[
    .str0 {stroke:#F4F4F4;stroke-width:20;stroke-miterlimit:22.9256}
    .str1 {stroke:white;stroke-width:7.62;stroke-miterlimit:22.9256}
    .fil0 {fill:none}
    .fil4 {fill:#3A9A46}
    .fil6 {fill:#60BFC0}
    .fil9 {fill:#663333}
    .fil5 {fill:#7AC8C9}
    .fil1 {fill:#8DC9F6}
    .fil7 {fill:#9DD8D9}
    .fil2 {fill:#AED9F7}
    .fil3 {fill:#C6E4F8}
    .fil8 {fill:#F4F4F4}
    .fil10 {fill:white}
   ]]>
  </style>
   <clipPath id="id0">
    <path d="M635 38.64c282.6,0 511.69,229.09 511.69,511.69 0,282.59 -229.09,511.68 -511.69,511.68 -282.59,0 -511.68,-229.09 -511.68,-511.68 0,-282.6 229.09,-511.69 511.68,-511.69z"/>
   </clipPath>
   <clipPath id="id1">
    <path d="M247.29 875.35l772.34 0 -0.78 -290.21 -24.18 -15.6 -70.21 -13.26 -86.6 -0.78 -75.06 15.66 -0.22 -26.98 25.16 -0.19 0 -10.53 -27.89 -9.56 -15.41 0.19 -0.12 -3.51 -28.19 -5.24 -162.85 -0.39 -28.48 5.56 0.2 3.22 -17.65 0.29 -27.31 7.61 0.1 11.6 20.87 -0.29 0.29 23.11 -65.53 -14.43 -94.79 -0.78 -67.1 15.21 -27.69 15.61 1.1 293.69z"/>
   </clipPath>
 </defs>
 <g id="Layer_x0020_1">
  <metadata id="CorelCorpID_0Corel-Layer"/>
  <rect class="fil0" width="1270" height="1270"/>
  <path class="fil1" d="M635 38.64c282.6,0 511.69,229.09 511.69,511.69 0,282.59 -229.09,511.68 -511.69,511.68 -282.59,0 -511.68,-229.09 -511.68,-511.68 0,-282.6 229.09,-511.69 511.68,-511.69z"/>
  <g style="clip-path:url(#id0)">
   <g id="_1770877255328">
    <circle class="fil2" cx="635" cy="653.22" r="511.69"/>
    <circle class="fil3" cx="635" cy="796.4" r="511.69"/>
    <path class="fil4" d="M367.89 722.94c-42.61,-5.86 -61.01,14.52 -69.26,48.91 -7.84,5.52 2.68,0.37 -7.9,3.04 -17.76,4.47 -62.77,3.32 -57.99,68.78l-32.56 5.62 34.84 74.13 152.76 0.58c15.03,-52.15 39.42,-38.38 96.3,-39.54l0.76 -162.46c-40.89,-23.99 -62.5,-21.3 -89.15,17.1 -8.28,-3.37 -16.47,-10.39 -27.8,-16.16z"/>
    <path class="fil4" d="M967.38 722.94c42.61,-5.86 61.01,14.52 69.26,48.91 7.84,5.52 -2.68,0.37 7.9,3.04 17.76,4.47 62.77,3.32 57.99,68.78l32.56 5.62 -34.84 74.13 -152.76 0.58c-15.03,-52.15 -39.42,-38.38 -96.3,-39.54l-0.76 -162.46c40.89,-23.99 62.5,-21.3 89.15,17.1 8.28,-3.37 16.47,-10.39 27.8,-16.16z"/>
    <path class="fil5" d="M44.93 938.57c10.35,22.15 152.67,128.11 186.63,141.17 25.25,-18.93 60.79,8.75 62.23,15.44 24.39,-29.73 63.05,-26.52 91.17,-2.39 46.95,-40.3 79.47,-6.11 92.41,0.27 48.74,-44.25 83.46,-1.82 88.72,1.47 42.49,-30.35 47.08,-27.98 88.72,-1.79 56.9,-42.13 89.23,-1.04 89.97,2.44 24.49,-29.85 62.78,-26.75 91.17,-2.39 14.83,-12.73 21.13,-17.68 48.1,-18.1 26.15,-0.42 32.08,9.55 43.68,22.46 17.15,-23.38 57.43,-38.21 84.84,-3.16 10.85,-5.13 48.07,-43.33 93.23,-1.25 20.55,-15.22 22.03,-19.17 57.93,-18.8l-8.78 16.78c37.66,-12.6 188.97,-125.39 206.19,-152.65 -30.41,-15.68 -55.09,0.41 -73.27,15.55 -37.21,-30.17 -55.47,-27.52 -93.22,-0.67 -8.8,-9.67 -24.47,-20.07 -44.69,-20.88 -21.28,-0.84 -31.66,13.01 -44.16,19.6 -56.05,-29.27 -39.48,-27.69 -91.95,1.28 -50.07,-38.24 -45.69,-20.82 -89.18,1.01 -33.47,-30.77 -56.36,-27.4 -88.65,-1.32 -37.92,-30.08 -56.24,-25.38 -92.37,0.31 -7.87,-8.66 -26.44,-20.81 -44.47,-21.14 -21.44,-0.4 -31.76,13.21 -44.37,19.86 -14.98,-8.34 -25.73,-21.01 -47.9,-19.84 -23.89,1.25 -28.83,15.65 -45.73,21.98 -34.31,-41.15 -55.33,-16.43 -88.43,0.59 -23.33,-32.69 -58.01,-25.76 -87.72,-1.76 -37.56,-29.79 -56.16,-25.44 -92.37,0.31 -7.2,-7.91 -27.1,-21.09 -44.32,-21.2 -21.62,-0.13 -31.74,13.15 -44.52,19.96 -16.69,-8.22 -45.82,-42.96 -87.01,3.07l-10.33 -7.24c-5.15,-3.99 0.4,-0.28 -6.27,-5.25 -4.84,-3.61 -10.7,-7.04 -16.94,-8.53 -14.27,-3.39 -27.69,1.37 -38.34,4.81z"/>
    <path class="fil6" d="M44.93 938.57c10.65,-3.44 24.07,-8.2 38.34,-4.81 6.24,1.49 12.1,4.92 16.94,8.53 6.67,4.97 1.12,1.26 6.27,5.25l10.33 7.24c41.19,-46.03 70.32,-11.29 87.01,-3.07 12.78,-6.81 22.9,-20.09 44.52,-19.96 17.22,0.11 37.12,13.29 44.32,21.2 36.21,-25.75 54.81,-30.1 92.37,-0.31 29.71,-24 64.39,-30.93 87.72,1.76 33.1,-17.02 54.12,-41.74 88.43,-0.59 16.9,-6.33 21.84,-20.73 45.73,-21.98 22.17,-1.17 32.92,11.5 47.9,19.84 12.61,-6.65 22.93,-20.26 44.37,-19.86 18.03,0.33 36.6,12.48 44.47,21.14 36.13,-25.69 54.45,-30.39 92.37,-0.31 32.29,-26.08 55.18,-29.45 88.65,1.32 43.49,-21.83 39.11,-39.25 89.18,-1.01 52.47,-28.97 35.9,-30.55 91.95,-1.28 12.5,-6.59 22.88,-20.44 44.16,-19.6 20.22,0.81 35.89,11.21 44.69,20.88 37.75,-26.85 56.01,-29.5 93.22,0.67 18.18,-15.14 42.86,-31.23 73.27,-15.55 13.69,-10.44 61.98,-59.25 70.52,-76.46 -23.42,-1.22 -28.4,-0.45 -44.03,11.49 -7.12,5.44 0.11,2.66 -11.97,8.3 -13.12,-7.88 -22.86,-22.65 -47.82,-20.01 -21.22,2.25 -29.89,13.01 -41.15,21.25 -15.15,-12.17 -19.33,-20.84 -44.13,-20.81 -29.51,0.04 -29.77,7.8 -48.04,18.35 -38.42,-37.6 -69.46,-11.54 -88.72,0.34 -61.31,-36.49 -51.95,-16.7 -92.41,-0.63 -39.54,-29.19 -54.01,-24.9 -88.51,2.75 -12.42,-9.84 -18.07,-22.54 -44.47,-21.16 -24.02,1.25 -32.81,13.64 -49.64,19.67 -9.19,-14.46 -19.75,-19.42 -42.78,-19.38 -24.62,0.05 -29.07,9.52 -44.46,18.41 -39.3,-38.47 -71.07,-10.54 -88.72,0.34 -39.63,-22.62 -50.52,-32.39 -91.37,1.02 -36.36,-29.33 -53.3,-27.89 -89.51,1.14 -28.17,-30.67 -57.21,-26.82 -88.97,-2.26 -7.58,-3.38 -1.2,-0.34 -7.26,-4.44 -41.49,-28.08 -57.86,-11.56 -85.16,4.2 -9.11,-8.91 -25.93,-19.18 -44.35,-19.33 -22.14,-0.18 -32.03,12.06 -44.37,19.67 -12.28,-5.65 -44.18,-44.08 -89.08,2.41 -8.35,-5.77 -29.68,-35.29 -71.19,-15.25l-20.87 12.84c-15.36,-11.99 -21.82,-17.86 -49.13,-18.15 14.09,21.3 53.33,62.16 71.38,76.2z"/>
    <path class="fil7" d="M626.4 1205.05l152.98 -0.01 52.86 -6.87c39.49,-5.47 170.42,-35.68 196.4,-47.45l120.2 -54.21c4.41,-3.46 3.92,-3.49 6.11,-5.79l8.78 -16.78c-35.9,-0.37 -37.38,3.58 -57.93,18.8 -45.16,-42.08 -82.38,-3.88 -93.23,1.25 -27.41,-35.05 -67.69,-20.22 -84.84,3.16 -11.6,-12.91 -17.53,-22.88 -43.68,-22.46 -26.97,0.42 -33.27,5.37 -48.1,18.1 -28.39,-24.36 -66.68,-27.46 -91.17,2.39 -0.74,-3.48 -33.07,-44.57 -89.97,-2.44 -41.64,-26.19 -46.23,-28.56 -88.72,1.79 -5.26,-3.29 -39.98,-45.72 -88.72,-1.47 -12.94,-6.38 -45.46,-40.57 -92.41,-0.27 -28.12,-24.13 -66.78,-27.34 -91.17,2.39 -1.44,-6.69 -36.98,-34.37 -62.23,-15.44 25.54,25.06 151.65,73.18 178.68,81.43 84.47,25.77 119.74,30.69 203.74,40.38l12.42 3.5z"/>
   </g>
  </g>
  <path class="fil0" d="M635 38.64c282.6,0 511.69,229.09 511.69,511.69 0,282.59 -229.09,511.68 -511.69,511.68 -282.59,0 -511.68,-229.09 -511.68,-511.68 0,-282.6 229.09,-511.69 511.68,-511.69z"/>
  <g id="_1770877259072">
   <path class="fil8" d="M930.18 231.44c-0.09,0.14 -2.81,5.39 -4.28,6.93 -27.08,-14.69 -27.43,0.27 -40.17,15.89 -11.57,14.18 -24.73,9.53 -22.33,40.75l117.57 0.73 60.84 -0.38c-1.65,-22.97 -11.03,-20.46 -24.52,-30.33 -14.56,-10.63 -7.01,-20.06 -38.23,-14.6 -11.11,-27.67 -22.27,-22.15 -48.88,-18.99z"/>
   <ellipse class="fil0 str0" cx="956.12" cy="248.56" rx="24.42" ry="22.75"/>
   <ellipse class="fil0 str0" cx="912.88" cy="256.02" rx="24.42" ry="22.75"/>
   <ellipse class="fil0 str0" cx="989.43" cy="263.72" rx="20.27" ry="18.88"/>
  </g>
  <g id="_1770877261760">
   <path class="fil8" d="M597.09 98.33c-0.08,0.13 -2.8,5.38 -4.27,6.92 -27.09,-14.69 -27.43,0.27 -40.18,15.89 -11.56,14.18 -24.72,9.53 -22.32,40.75l117.57 0.73 60.84 -0.38c-1.66,-22.97 -11.03,-20.46 -24.53,-30.33 -14.56,-10.63 -7.01,-20.06 -38.23,-14.6 -11.11,-27.67 -22.26,-22.15 -48.88,-18.98z"/>
   <ellipse class="fil0 str0" cx="623.04" cy="115.44" rx="24.42" ry="22.75"/>
   <ellipse class="fil0 str0" cx="579.79" cy="122.9" rx="24.42" ry="22.75"/>
   <ellipse class="fil0 str0" cx="656.34" cy="130.6" rx="20.27" ry="18.88"/>
  </g>
  <g id="_1770877260224">
   <path class="fil8" d="M228.32 303.39c-0.09,0.13 -2.8,5.38 -4.27,6.92 -27.09,-14.68 -27.44,0.28 -40.18,15.9 -11.57,14.18 -24.72,9.52 -22.32,40.74l117.57 0.73 60.84 -0.38c-1.66,-22.96 -11.03,-20.46 -24.53,-30.32 -14.56,-10.64 -7.01,-20.07 -38.23,-14.6 -11.11,-27.67 -22.26,-22.16 -48.88,-18.99z"/>
   <ellipse class="fil0 str0" cx="254.26" cy="320.51" rx="24.42" ry="22.75"/>
   <ellipse class="fil0 str0" cx="211.02" cy="327.97" rx="24.42" ry="22.75"/>
   <ellipse class="fil0 str0" cx="287.57" cy="335.66" rx="20.27" ry="18.88"/>
  </g>
  <polygon class="fil9" points="247.29,875.35 1019.63,875.35 1018.85,585.14 994.67,569.54 924.46,556.28 837.86,555.5 762.8,571.16 762.58,544.18 787.74,543.99 787.74,533.46 759.85,523.9 744.44,524.09 744.32,520.58 716.13,515.34 553.28,514.95 524.8,520.51 525,523.73 507.35,524.02 480.04,531.63 480.14,543.23 501.01,542.94 501.3,566.05 435.77,551.62 340.98,550.84 273.88,566.05 246.19,581.66 "/>
  <g style="clip-path:url(#id1)">
   <g id="_1770877265360">
    <rect class="fil10" x="340.98" y="539.62" width="6.44" height="335.73" rx="3.22" ry="35.06"/>
    <rect class="fil10" x="270.76" y="543.13" width="6.44" height="335.73" rx="3.22" ry="35.06"/>
    <rect class="fil10" x="429.52" y="545.86" width="6.44" height="335.73" rx="3.22" ry="35.06"/>
    <rect class="fil10" x="498.6" y="518.35" width="6.44" height="364.02" rx="3.22" ry="38.01"/>
    <rect class="fil10" x="522.64" y="582.27" width="6.44" height="342.18" rx="1.46" ry="16.24"/>
    <rect class="fil10" x="831.56" y="553.66" width="6.44" height="335.73" rx="3.22" ry="35.06"/>
    <rect class="fil10" x="919.72" y="548.2" width="6.44" height="335.73" rx="3.22" ry="35.06"/>
    <rect class="fil10" x="989.15" y="561.47" width="6.44" height="335.73" rx="3.22" ry="35.06"/>
    <rect class="fil10" x="762.32" y="520.12" width="6.44" height="369.34" rx="3.22" ry="38.57"/>
    <rect class="fil10" x="737.16" y="593" width="6.44" height="291" rx="3.22" ry="30.39"/>
   </g>
  </g>
  <polygon class="fil0" points="247.29,875.35 1019.63,875.35 1018.85,585.14 994.67,569.54 924.46,556.28 837.86,555.5 762.8,571.16 762.58,544.18 787.74,543.99 787.74,533.46 759.85,523.9 744.44,524.09 744.32,520.58 716.13,515.34 553.28,514.95 524.8,520.51 525,523.73 507.35,524.02 480.04,531.63 480.14,543.23 501.01,542.94 501.3,566.05 435.77,551.62 340.98,550.84 273.88,566.05 246.19,581.66 "/>
  <polygon class="fil10" points="526.84,859.78 739.82,858.61 740.4,852.17 527.03,852.95 "/>
  <path class="fil10" d="M597.64 747.44c0,0 6.82,-20.68 35.88,-29.45 0,0 30.23,9.16 35.11,29.45l0.38 104.99 -71.96 0.26 0.59 -105.25z"/>
  <path class="fil10" d="M581.64 852.75l0.2 -109.8c0,0 11.8,-34.91 51.29,-42.52 0,0 37.64,4.78 51.69,42.23l0.77 109.32 5.85 0 0.05 -108.15c0,0 -8.62,-43.13 -58.58,-48.68 0,0 -43.52,3.04 -56.98,49.07l0.73 108.1 4.98 0.43z"/>
  <polygon class="fil10" points="540.1,647.17 725.03,645.92 729.12,645.72 729.51,658.6 540.23,659.37 "/>
  <rect class="fil10" x="545.62" y="659.35" width="6.24" height="196.31"/>
  <rect class="fil10" x="715.69" y="657.79" width="6.24" height="196.31"/>
  <rect class="fil10" x="698.14" y="662.58" width="6.44" height="30.82" rx="3.22" ry="3.22"/>
  <rect class="fil10" x="671.03" y="662.78" width="6.44" height="30.82" rx="3.22" ry="3.22"/>
  <rect class="fil10" x="644.11" y="662.78" width="6.44" height="30.82" rx="3.22" ry="3.22"/>
  <rect class="fil10" x="616.03" y="662.78" width="6.44" height="30.82" rx="3.22" ry="3.22"/>
  <rect class="fil10" x="589.89" y="663.95" width="6.44" height="30.82" rx="3.22" ry="3.22"/>
  <rect class="fil10" x="562.59" y="664.34" width="6.44" height="30.82" rx="3.22" ry="3.22"/>
  <rect class="fil10" x="799.17" y="642.69" width="6.44" height="62.22" rx="3.22" ry="6.5"/>
  <rect class="fil10" x="818.67" y="638.79" width="6.44" height="62.22" rx="3.22" ry="6.5"/>
  <rect class="fil10" x="778.49" y="647.76" width="6.44" height="62.22" rx="3.22" ry="6.5"/>
  <rect class="fil10" x="849.87" y="636.06" width="6.44" height="62.22" rx="3.22" ry="6.5"/>
  <rect class="fil10" x="877.96" y="635.28" width="6.44" height="62.22" rx="3.22" ry="6.5"/>
  <rect class="fil10" x="904.09" y="635.28" width="6.44" height="62.22" rx="3.22" ry="6.5"/>
  <rect class="fil10" x="936.27" y="638.4" width="6.44" height="62.22" rx="3.22" ry="6.5"/>
  <rect class="fil10" x="956.95" y="643.86" width="6.44" height="62.22" rx="3.22" ry="6.5"/>
  <rect class="fil10" x="978.01" y="647.76" width="6.44" height="62.22" rx="3.22" ry="6.5"/>
  <rect class="fil10" x="1003.76" y="655.56" width="6.44" height="62.22" rx="3.22" ry="6.5"/>
  <rect class="fil10" x="749.43" y="655.17" width="6.44" height="62.22" rx="3.22" ry="6.5"/>
  <rect class="fil10" x="749.72" y="583.88" width="6.44" height="37.54" rx="3.22" ry="3.92"/>
  <rect class="fil10" x="777.81" y="580.76" width="6.44" height="37.54" rx="3.22" ry="3.92"/>
  <rect class="fil10" x="818.77" y="571.99" width="6.44" height="37.54" rx="3.22" ry="3.92"/>
  <rect class="fil10" x="851.14" y="568.67" width="6.44" height="37.54" rx="3.22" ry="3.92"/>
  <rect class="fil10" x="905.36" y="567.11" width="6.44" height="37.54" rx="3.22" ry="3.92"/>
  <rect class="fil10" x="935.79" y="572.18" width="6.44" height="37.54" rx="3.22" ry="3.92"/>
  <rect class="fil10" x="977.91" y="580.37" width="6.44" height="37.54" rx="3.22" ry="3.92"/>
  <rect class="fil10" x="1004.05" y="584.86" width="6.44" height="37.54" rx="3.22" ry="3.92"/>
  <rect class="fil10" x="511.29" y="585.35" width="6.44" height="37.54" rx="3.22" ry="3.92"/>
  <rect class="fil10" x="485.16" y="580.86" width="6.44" height="37.54" rx="3.22" ry="3.92"/>
  <rect class="fil10" x="443.61" y="571.69" width="6.44" height="37.54" rx="3.22" ry="3.92"/>
  <rect class="fil10" x="411.63" y="567.21" width="6.44" height="37.54" rx="3.22" ry="3.92"/>
  <rect class="fil10" x="357.21" y="567.21" width="6.44" height="37.54" rx="3.22" ry="3.92"/>
  <rect class="fil10" x="326.59" y="571.11" width="6.44" height="37.54" rx="3.22" ry="3.92"/>
  <rect class="fil10" x="283.68" y="580.47" width="6.44" height="37.54" rx="3.22" ry="3.92"/>
  <rect class="fil10" x="256.57" y="584.18" width="6.44" height="37.54" rx="3.22" ry="3.92"/>
  <rect class="fil10" x="384.71" y="635.86" width="6.44" height="62.31" rx="3.22" ry="6.51"/>
  <rect class="fil10" x="412.79" y="635.86" width="6.44" height="62.31" rx="3.22" ry="6.51"/>
  <rect class="fil10" x="357.4" y="635.86" width="6.44" height="62.31" rx="3.22" ry="6.51"/>
  <rect class="fil10" x="443.61" y="639.76" width="6.44" height="62.31" rx="3.22" ry="6.51"/>
  <rect class="fil10" x="463.89" y="643.27" width="6.44" height="62.31" rx="3.22" ry="6.51"/>
  <rect class="fil10" x="485.34" y="647.95" width="6.44" height="62.31" rx="3.22" ry="6.51"/>
  <rect class="fil10" x="510.7" y="654.58" width="6.44" height="62.31" rx="3.22" ry="6.51"/>
  <rect class="fil10" x="325.41" y="637.81" width="6.44" height="62.31" rx="3.22" ry="6.51"/>
  <rect class="fil10" x="304.35" y="642.88" width="6.44" height="62.31" rx="3.22" ry="6.51"/>
  <rect class="fil10" x="283.68" y="647.56" width="6.44" height="62.31" rx="3.22" ry="6.51"/>
  <rect class="fil10" x="255.98" y="654.58" width="6.44" height="62.31" rx="3.22" ry="6.51"/>
  <polyline class="fil0" points="246.43,644.79 277.2,629.96 343.74,615.14 429.52,615.14 498.6,628.4 529.08,645.18 "/>
  <line class="fil0" x1="529.84" y1="582.08" x2="501.3" y2= "566.05" />
  <line class="fil0" x1="763.75" y1="570.32" x2="736.57" y2= "594.57" />
  <rect class="fil10" x="529.16" y="599.73" width="207.52" height="6.24"/>
  <path class="fil10" d="M542.41 616.89c6.01,0 11.11,-3.86 12.98,-9.23 1.86,5.37 6.97,9.23 12.98,9.23 5.96,0 11.03,-3.79 12.93,-9.1 1.82,5.45 6.97,9.38 13.03,9.38 6.15,0 11.35,-4.04 13.1,-9.62 1.79,5.5 6.96,9.48 13.06,9.48 5.95,0 11.01,-3.78 12.92,-9.07 1.87,5.36 6.97,9.21 12.97,9.21 5.87,0 10.88,-3.69 12.85,-8.87 2.04,5.03 6.97,8.58 12.73,8.58 5.59,0 10.4,-3.34 12.54,-8.13 1.98,5.16 6.98,8.83 12.84,8.83 6.14,0 11.34,-4.03 13.09,-9.59 1.96,5.2 6.98,8.9 12.86,8.9 6.62,0 12.15,-4.68 13.45,-10.92l-207.78 0c1.3,6.24 6.83,10.92 13.45,10.92z"/>
  <path class="fil0 str1" d="M598.85 567.94l14.2 0.06 0.26 -16.83c0,0 -6.71,-0.66 -4.21,-3.03 2.5,-2.37 0,-6.05 -5.26,-8.81m5.54 28.61l-14.2 0.06 -0.26 -16.83c0,0 6.71,-0.66 4.21,-3.03 -2.5,-2.37 0,-6.05 5.26,-8.81"/>
  <path class="fil0 str1" d="M616.99 567.94l14.2 0.06 0.26 -16.83c0,0 -6.71,-0.66 -4.21,-3.03 2.5,-2.37 0,-6.05 -5.26,-8.81m5.54 28.61l-14.2 0.06 -0.26 -16.83c0,0 6.71,-0.66 4.21,-3.03 -2.5,-2.37 0,-6.05 5.26,-8.81"/>
  <path class="fil0 str1" d="M634.54 567.94l14.2 0.06 0.26 -16.83c0,0 -6.7,-0.66 -4.21,-3.03 2.5,-2.37 0.01,-6.05 -5.26,-8.81m5.55 28.61l-14.2 0.06 -0.27 -16.83c0,0 6.71,-0.66 4.21,-3.03 -2.5,-2.37 0,-6.05 5.26,-8.81"/>
  <path class="fil0 str1" d="M653.07 567.94l14.2 0.06 0.26 -16.83c0,0 -6.71,-0.66 -4.21,-3.03 2.5,-2.37 0,-6.05 -5.26,-8.81m5.54 28.61l-14.2 0.06 -0.26 -16.83c0,0 6.71,-0.66 4.21,-3.03 -2.5,-2.37 0,-6.05 5.26,-8.81"/>
  <path class="fil0 str1" d="M671.79 567.94l14.2 0.06 0.26 -16.83c0,0 -6.7,-0.66 -4.2,-3.03 2.5,-2.37 0,-6.05 -5.26,-8.81m5.54 28.61l-14.2 0.06 -0.27 -16.83c0,0 6.71,-0.66 4.21,-3.03 -2.5,-2.37 0,-6.05 5.26,-8.81"/>
  <path class="fil0 str1" d="M690.51 567.94l14.2 0.06 0.27 -16.83c0,0 -6.71,-0.66 -4.21,-3.03 2.5,-2.37 0,-6.05 -5.26,-8.81m5.54 28.61l-14.2 0.06 -0.26 -16.83c0,0 6.7,-0.66 4.21,-3.03 -2.5,-2.37 0,-6.05 5.26,-8.81"/>
  <path class="fil0 str1" d="M708.85 567.94l14.2 0.06 0.26 -16.83c0,0 -6.71,-0.66 -4.21,-3.03 2.5,-2.37 0,-6.05 -5.26,-8.81m5.54 28.61l-14.2 0.06 -0.26 -16.83c0,0 6.71,-0.66 4.21,-3.03 -2.5,-2.37 0,-6.05 5.26,-8.81"/>
  <path class="fil0 str1" d="M562.58 567.41l14.2 0.06 0.27 -16.83c0,0 -6.71,-0.65 -4.21,-3.02 2.5,-2.37 0,-6.05 -5.26,-8.81m5.54 28.6l-14.2 0.06 -0.26 -16.83c0,0 6.7,-0.65 4.21,-3.02 -2.5,-2.37 0,-6.05 5.26,-8.81"/>
  <path class="fil0 str1" d="M580.72 567.41l14.2 0.06 0.27 -16.83c0,0 -6.71,-0.65 -4.21,-3.02 2.5,-2.37 0,-6.05 -5.26,-8.81m5.54 28.6l-14.2 0.06 -0.26 -16.83c0,0 6.7,-0.65 4.2,-3.02 -2.49,-2.37 0,-6.05 5.26,-8.81"/>
  <polyline class="fil0" points="737.55,650.43 768.19,635.67 834.46,620.91 919.89,620.91 988.68,634.11 1019.03,650.82 "/>
  <line class="fil0 str1" x1="552.35" y1="526.54" x2="721.39" y2= "526.54" />
 </g>
</svg>
